G04 #@! TF.GenerationSoftware,KiCad,Pcbnew,5.1.4-e60b266~84~ubuntu18.04.1*
G04 #@! TF.CreationDate,2019-11-04T15:24:46+01:00*
G04 #@! TF.ProjectId,WaveGlide3X,57617665-476c-4696-9465-33582e6b6963,rev?*
G04 #@! TF.SameCoordinates,Original*
G04 #@! TF.FileFunction,Copper,L2,Bot*
G04 #@! TF.FilePolarity,Positive*
%FSLAX46Y46*%
G04 Gerber Fmt 4.6, Leading zero omitted, Abs format (unit mm)*
G04 Created by KiCad (PCBNEW 5.1.4-e60b266~84~ubuntu18.04.1) date 2019-11-04 15:24:46*
%MOMM*%
%LPD*%
G04 APERTURE LIST*
%ADD10C,5.000000*%
%ADD11O,1.200000X2.000000*%
%ADD12C,1.600000*%
%ADD13O,1.600000X1.600000*%
%ADD14R,2.540000X5.080000*%
%ADD15C,6.400000*%
%ADD16C,0.800000*%
%ADD17C,1.778000*%
%ADD18C,2.794000*%
%ADD19C,1.700000*%
%ADD20R,1.600000X1.600000*%
%ADD21O,1.800000X1.800000*%
%ADD22R,1.800000X1.800000*%
%ADD23C,2.400000*%
%ADD24C,2.200000*%
%ADD25C,4.800000*%
%ADD26C,2.000000*%
%ADD27O,1.000000X2.000000*%
%ADD28O,2.000000X1.200000*%
%ADD29C,0.250000*%
%ADD30C,1.000000*%
%ADD31C,0.500000*%
%ADD32C,0.254000*%
G04 APERTURE END LIST*
D10*
X120000000Y-131000000D03*
X98000000Y-113000000D03*
X98000000Y-135000000D03*
D11*
X117770000Y-144260000D03*
X117770000Y-136740000D03*
X115230000Y-144260000D03*
X115230000Y-136740000D03*
D12*
X80000000Y-128000000D03*
D13*
X80000000Y-117840000D03*
D14*
X72080000Y-152000000D03*
X67000000Y-152000000D03*
X84080000Y-152000000D03*
X79000000Y-152000000D03*
D15*
X68000000Y-66000000D03*
D16*
X70400000Y-66000000D03*
X69697056Y-67697056D03*
X68000000Y-68400000D03*
X66302944Y-67697056D03*
X65600000Y-66000000D03*
X66302944Y-64302944D03*
X68000000Y-63600000D03*
X69697056Y-64302944D03*
D15*
X79000000Y-144000000D03*
D16*
X81400000Y-144000000D03*
X80697056Y-145697056D03*
X79000000Y-146400000D03*
X77302944Y-145697056D03*
X76600000Y-144000000D03*
X77302944Y-142302944D03*
X79000000Y-141600000D03*
X80697056Y-142302944D03*
D15*
X104000000Y-87000000D03*
D16*
X106400000Y-87000000D03*
X105697056Y-88697056D03*
X104000000Y-89400000D03*
X102302944Y-88697056D03*
X101600000Y-87000000D03*
X102302944Y-85302944D03*
X104000000Y-84600000D03*
X105697056Y-85302944D03*
D17*
X53064000Y-80790000D03*
X53064000Y-83330000D03*
X53064000Y-85870000D03*
X53064000Y-88410000D03*
X53064000Y-90950000D03*
X95228000Y-88410000D03*
X95228000Y-85870000D03*
X95228000Y-83330000D03*
X95228000Y-80790000D03*
X87650000Y-85190000D03*
X74350000Y-85190000D03*
X87650000Y-87730000D03*
X74350000Y-87730000D03*
X87650000Y-90270000D03*
X74350000Y-90270000D03*
X87650000Y-92810000D03*
X74350000Y-92810000D03*
D18*
X108050000Y-143000000D03*
X108050000Y-152525000D03*
X89000000Y-149350000D03*
X89000000Y-143000000D03*
D19*
X71590000Y-112510000D03*
X71590000Y-115050000D03*
X71590000Y-117590000D03*
X71590000Y-120130000D03*
X71590000Y-122670000D03*
X71590000Y-125210000D03*
X71590000Y-127750000D03*
X71590000Y-130290000D03*
X71590000Y-132830000D03*
X71590000Y-135370000D03*
X71590000Y-137910000D03*
X71590000Y-140450000D03*
X51270000Y-140450000D03*
X51270000Y-137910000D03*
X51270000Y-135370000D03*
X51270000Y-132830000D03*
X51270000Y-130290000D03*
X51270000Y-127750000D03*
X51270000Y-125210000D03*
X51270000Y-122670000D03*
X51270000Y-120130000D03*
X51270000Y-117590000D03*
X51270000Y-115050000D03*
X51270000Y-112510000D03*
X51270000Y-109970000D03*
X51270000Y-107430000D03*
X51270000Y-104890000D03*
X51270000Y-102350000D03*
D17*
X88510000Y-76510000D03*
X88510000Y-73970000D03*
X88510000Y-71430000D03*
X88510000Y-68890000D03*
X88510000Y-66350000D03*
X87540000Y-111510000D03*
X87540000Y-108970000D03*
X87540000Y-106430000D03*
X87540000Y-103890000D03*
X87540000Y-101350000D03*
X87540000Y-98810000D03*
X87540000Y-96270000D03*
D12*
X77500000Y-134000000D03*
D20*
X81000000Y-134000000D03*
X116000000Y-148500000D03*
D12*
X116000000Y-152000000D03*
D21*
X84500000Y-117840000D03*
D22*
X84500000Y-128000000D03*
D23*
X108000000Y-107000000D03*
X113000000Y-107000000D03*
D24*
X102500000Y-78500000D03*
X102500000Y-75300000D03*
X102500000Y-72110000D03*
X105500000Y-78500000D03*
X105500000Y-75300000D03*
X105500000Y-72100000D03*
D23*
X101000000Y-69600000D03*
X107000000Y-81000000D03*
D25*
X61000000Y-66580000D03*
X36000000Y-66580000D03*
D26*
X52650000Y-65160000D03*
X49880000Y-65160000D03*
X47120000Y-65160000D03*
X44350000Y-65160000D03*
X54040000Y-68000000D03*
X51270000Y-68000000D03*
X48500000Y-68000000D03*
X45730000Y-68000000D03*
X42960000Y-68000000D03*
D12*
X69000000Y-83000000D03*
D13*
X69000000Y-72840000D03*
X65000000Y-72840000D03*
D12*
X65000000Y-83000000D03*
X61000000Y-83000000D03*
D13*
X61000000Y-72840000D03*
X76000000Y-117840000D03*
D12*
X76000000Y-128000000D03*
D13*
X112000000Y-75840000D03*
D12*
X112000000Y-86000000D03*
X118000000Y-86000000D03*
D13*
X118000000Y-75840000D03*
X102340000Y-138500000D03*
D12*
X112500000Y-138500000D03*
D27*
X92968000Y-66000000D03*
X94314200Y-66000000D03*
X95685800Y-66000000D03*
X97032000Y-66000000D03*
D28*
X92760000Y-136730000D03*
X85240000Y-136730000D03*
X92760000Y-139270000D03*
X85240000Y-139270000D03*
D16*
X67000000Y-101000000D03*
X58000000Y-112000000D03*
D29*
X96500000Y-87142000D02*
X95228000Y-85870000D01*
X96500000Y-89000000D02*
X96500000Y-87142000D01*
X95230000Y-90270000D02*
X96500000Y-89000000D01*
X87650000Y-90270000D02*
X95230000Y-90270000D01*
X87270000Y-87730000D02*
X87650000Y-87730000D01*
X51270000Y-122670000D02*
X52330000Y-122670000D01*
X52330000Y-122670000D02*
X87270000Y-87730000D01*
X55415001Y-113444999D02*
X51270000Y-117590000D01*
X53000000Y-63500000D02*
X55415001Y-65915001D01*
X49880000Y-65160000D02*
X51540000Y-63500000D01*
X55415001Y-65915001D02*
X55415001Y-113444999D01*
X51540000Y-63500000D02*
X53000000Y-63500000D01*
X52119999Y-114200001D02*
X51270000Y-115050000D01*
X51270000Y-68270000D02*
X54000000Y-71000000D01*
X51270000Y-68000000D02*
X51270000Y-68270000D01*
X54000000Y-71000000D02*
X54000000Y-79855278D01*
X54000000Y-79855278D02*
X54328001Y-80183279D01*
X54328001Y-80183279D02*
X54328001Y-111991999D01*
X54328001Y-111991999D02*
X52119999Y-114200001D01*
X72439999Y-134520001D02*
X71590000Y-135370000D01*
X96000000Y-107000000D02*
X87000000Y-116000000D01*
X108000000Y-107000000D02*
X96000000Y-107000000D01*
X78000000Y-118000000D02*
X78000000Y-128960000D01*
X87000000Y-116000000D02*
X80000000Y-116000000D01*
X80000000Y-116000000D02*
X78000000Y-118000000D01*
X78000000Y-128960000D02*
X72439999Y-134520001D01*
X72439999Y-131980001D02*
X71590000Y-132830000D01*
X74664999Y-129755001D02*
X72439999Y-131980001D01*
X109000000Y-103000000D02*
X98627844Y-103000000D01*
X78792888Y-115499990D02*
X77500000Y-116792878D01*
X113000000Y-107000000D02*
X109000000Y-103000000D01*
X98627844Y-103000000D02*
X86127855Y-115499989D01*
X86127855Y-115499989D02*
X78792888Y-115499990D01*
X74664999Y-122335001D02*
X74664999Y-129755001D01*
X77500000Y-119500000D02*
X74664999Y-122335001D01*
X77500000Y-116792878D02*
X77500000Y-119500000D01*
X73710000Y-120130000D02*
X76000000Y-117840000D01*
X71590000Y-120130000D02*
X73710000Y-120130000D01*
X109446999Y-151128001D02*
X108050000Y-152525000D01*
X110140871Y-151128001D02*
X109446999Y-151128001D01*
X116205010Y-144046118D02*
X116205010Y-145063862D01*
X117770000Y-142481128D02*
X116205010Y-144046118D01*
X116205010Y-145063862D02*
X110140871Y-151128001D01*
X117770000Y-136740000D02*
X117770000Y-142481128D01*
D30*
X92360000Y-139270000D02*
X92760000Y-139270000D01*
X91510000Y-138420000D02*
X92360000Y-139270000D01*
X91510000Y-138020000D02*
X91510000Y-138420000D01*
X87490000Y-134000000D02*
X91510000Y-138020000D01*
X81000000Y-134000000D02*
X87490000Y-134000000D01*
D31*
X88510000Y-66350000D02*
X67000000Y-87860000D01*
X67000000Y-87860000D02*
X67000000Y-101000000D01*
X111200001Y-75040001D02*
X112000000Y-75840000D01*
X90059999Y-67899999D02*
X104059999Y-67899999D01*
X104059999Y-67899999D02*
X111200001Y-75040001D01*
X88510000Y-66350000D02*
X90059999Y-67899999D01*
D30*
X92910000Y-72110000D02*
X102500000Y-72110000D01*
X88510000Y-76510000D02*
X92910000Y-72110000D01*
X102510000Y-72100000D02*
X102500000Y-72110000D01*
X105500000Y-72100000D02*
X102510000Y-72100000D01*
D29*
X112000000Y-81840000D02*
X118000000Y-75840000D01*
X112000000Y-86000000D02*
X112000000Y-81840000D01*
X97000000Y-79000000D02*
X100575001Y-82575001D01*
X108575001Y-82575001D02*
X111200001Y-85200001D01*
X58510000Y-112510000D02*
X59490000Y-112510000D01*
X58000000Y-112000000D02*
X58510000Y-112510000D01*
X100575001Y-82575001D02*
X108575001Y-82575001D01*
X85000000Y-87000000D02*
X85000000Y-83000000D01*
X59490000Y-112510000D02*
X85000000Y-87000000D01*
X85000000Y-83000000D02*
X89000000Y-79000000D01*
X111200001Y-85200001D02*
X112000000Y-86000000D01*
X89000000Y-79000000D02*
X97000000Y-79000000D01*
X52119999Y-131980001D02*
X51270000Y-132830000D01*
X52495001Y-131604999D02*
X52119999Y-131980001D01*
X87540000Y-108970000D02*
X87510000Y-109000000D01*
X84000000Y-110000000D02*
X72286998Y-110000000D01*
X72286998Y-110000000D02*
X52495001Y-129791997D01*
X87510000Y-109000000D02*
X85000000Y-109000000D01*
X85000000Y-109000000D02*
X84000000Y-110000000D01*
X52495001Y-129791997D02*
X52495001Y-131604999D01*
X56000000Y-125000000D02*
X56000000Y-125560000D01*
X72000000Y-109000000D02*
X56000000Y-125000000D01*
X87540000Y-106430000D02*
X85570000Y-106430000D01*
X56000000Y-125560000D02*
X51270000Y-130290000D01*
X83000000Y-109000000D02*
X72000000Y-109000000D01*
X85570000Y-106430000D02*
X83000000Y-109000000D01*
X71020000Y-108000000D02*
X51270000Y-127750000D01*
X82000000Y-108000000D02*
X71020000Y-108000000D01*
X87540000Y-103890000D02*
X86110000Y-103890000D01*
X86110000Y-103890000D02*
X82000000Y-108000000D01*
X95228000Y-83330000D02*
X93963999Y-82065999D01*
X95834721Y-79525999D02*
X97000000Y-80691278D01*
X93963999Y-82065999D02*
X93963999Y-80036001D01*
X94474001Y-79525999D02*
X95834721Y-79525999D01*
X97000000Y-86227756D02*
X97500022Y-86727778D01*
X97500022Y-90914222D02*
X97000000Y-91414244D01*
X77258001Y-116275001D02*
X71091997Y-116275001D01*
X97000000Y-91414244D02*
X97000000Y-103920722D01*
X71091997Y-116275001D02*
X52495001Y-134871997D01*
X52119999Y-137060001D02*
X51270000Y-137910000D01*
X78533022Y-114999980D02*
X77258001Y-116275001D01*
X97000000Y-80691278D02*
X97000000Y-86227756D01*
X52495001Y-136684999D02*
X52119999Y-137060001D01*
X85920742Y-114999980D02*
X78533022Y-114999980D01*
X97500022Y-86727778D02*
X97500022Y-90914222D01*
X93963999Y-80036001D02*
X94474001Y-79525999D01*
X97000000Y-103920722D02*
X85920742Y-114999980D01*
X52495001Y-134871997D02*
X52495001Y-136684999D01*
X96499989Y-91207133D02*
X96499989Y-97500011D01*
X96499989Y-86434867D02*
X97000011Y-86934889D01*
X97000011Y-90707111D02*
X96499989Y-91207133D01*
X52119999Y-134520001D02*
X51270000Y-135370000D01*
X52495001Y-134144999D02*
X52119999Y-134520001D01*
X52495001Y-132331997D02*
X52495001Y-134144999D01*
X71001999Y-113824999D02*
X52495001Y-132331997D01*
X88765999Y-110234001D02*
X85058877Y-110234001D01*
X81467879Y-113824999D02*
X71001999Y-113824999D01*
X95228000Y-80790000D02*
X96499989Y-82061989D01*
X85058877Y-110234001D02*
X81467879Y-113824999D01*
X96000000Y-103000000D02*
X88765999Y-110234001D01*
X96000000Y-98000000D02*
X96000000Y-103000000D01*
X96499989Y-97500011D02*
X96000000Y-98000000D01*
X97000011Y-86934889D02*
X97000011Y-90707111D01*
X96499989Y-82061989D02*
X96499989Y-86434867D01*
X115230000Y-137140000D02*
X115230000Y-136740000D01*
X113870000Y-138500000D02*
X115230000Y-137140000D01*
X111500000Y-138500000D02*
X113870000Y-138500000D01*
X84500000Y-132500000D02*
X80799999Y-128799999D01*
X88500000Y-132500000D02*
X84500000Y-132500000D01*
X93308872Y-135000000D02*
X91000000Y-135000000D01*
X115230000Y-145270000D02*
X114500000Y-146000000D01*
X115230000Y-144260000D02*
X115230000Y-145270000D01*
X114500000Y-146000000D02*
X101000000Y-146000000D01*
X91000000Y-135000000D02*
X88500000Y-132500000D01*
X101000000Y-146000000D02*
X95500000Y-140500000D01*
X80799999Y-128799999D02*
X80000000Y-128000000D01*
X95500000Y-137191128D02*
X93308872Y-135000000D01*
X95500000Y-140500000D02*
X95500000Y-137191128D01*
D32*
G36*
X121290000Y-128141036D02*
G01*
X120914446Y-127985476D01*
X120308771Y-127865000D01*
X119691229Y-127865000D01*
X119085554Y-127985476D01*
X118515021Y-128221799D01*
X118001554Y-128564886D01*
X117564886Y-129001554D01*
X117221799Y-129515021D01*
X116985476Y-130085554D01*
X116865000Y-130691229D01*
X116865000Y-131308771D01*
X116985476Y-131914446D01*
X117221799Y-132484979D01*
X117564886Y-132998446D01*
X118001554Y-133435114D01*
X118515021Y-133778201D01*
X119085554Y-134014524D01*
X119691229Y-134135000D01*
X120308771Y-134135000D01*
X120914446Y-134014524D01*
X121290000Y-133858964D01*
X121290000Y-154290000D01*
X109065994Y-154290000D01*
X109345325Y-154103357D01*
X109628357Y-153820325D01*
X109850735Y-153487513D01*
X110003911Y-153117713D01*
X110028777Y-152992702D01*
X115186903Y-152992702D01*
X115258486Y-153236671D01*
X115513996Y-153357571D01*
X115788184Y-153426300D01*
X116070512Y-153440217D01*
X116350130Y-153398787D01*
X116616292Y-153303603D01*
X116741514Y-153236671D01*
X116813097Y-152992702D01*
X116000000Y-152179605D01*
X115186903Y-152992702D01*
X110028777Y-152992702D01*
X110082000Y-152725135D01*
X110082000Y-152324865D01*
X110031406Y-152070512D01*
X114559783Y-152070512D01*
X114601213Y-152350130D01*
X114696397Y-152616292D01*
X114763329Y-152741514D01*
X115007298Y-152813097D01*
X115820395Y-152000000D01*
X116179605Y-152000000D01*
X116992702Y-152813097D01*
X117236671Y-152741514D01*
X117357571Y-152486004D01*
X117426300Y-152211816D01*
X117440217Y-151929488D01*
X117398787Y-151649870D01*
X117303603Y-151383708D01*
X117236671Y-151258486D01*
X116992702Y-151186903D01*
X116179605Y-152000000D01*
X115820395Y-152000000D01*
X115007298Y-151186903D01*
X114763329Y-151258486D01*
X114642429Y-151513996D01*
X114573700Y-151788184D01*
X114559783Y-152070512D01*
X110031406Y-152070512D01*
X110003911Y-151932287D01*
X109985567Y-151888001D01*
X110103549Y-151888001D01*
X110140871Y-151891677D01*
X110178193Y-151888001D01*
X110178204Y-151888001D01*
X110289857Y-151877004D01*
X110433118Y-151833547D01*
X110565147Y-151762975D01*
X110680872Y-151668002D01*
X110704675Y-151638998D01*
X111336375Y-151007298D01*
X115186903Y-151007298D01*
X116000000Y-151820395D01*
X116813097Y-151007298D01*
X116741514Y-150763329D01*
X116486004Y-150642429D01*
X116211816Y-150573700D01*
X115929488Y-150559783D01*
X115649870Y-150601213D01*
X115383708Y-150696397D01*
X115258486Y-150763329D01*
X115186903Y-151007298D01*
X111336375Y-151007298D01*
X114561928Y-147781746D01*
X114561928Y-149300000D01*
X114574188Y-149424482D01*
X114610498Y-149544180D01*
X114669463Y-149654494D01*
X114748815Y-149751185D01*
X114845506Y-149830537D01*
X114955820Y-149889502D01*
X115075518Y-149925812D01*
X115200000Y-149938072D01*
X116800000Y-149938072D01*
X116924482Y-149925812D01*
X117044180Y-149889502D01*
X117154494Y-149830537D01*
X117251185Y-149751185D01*
X117330537Y-149654494D01*
X117389502Y-149544180D01*
X117425812Y-149424482D01*
X117438072Y-149300000D01*
X117438072Y-147700000D01*
X117425812Y-147575518D01*
X117389502Y-147455820D01*
X117330537Y-147345506D01*
X117251185Y-147248815D01*
X117154494Y-147169463D01*
X117044180Y-147110498D01*
X116924482Y-147074188D01*
X116800000Y-147061928D01*
X115281746Y-147061928D01*
X116716013Y-145627661D01*
X116745011Y-145603863D01*
X116839984Y-145488138D01*
X116843599Y-145481375D01*
X116986526Y-145623078D01*
X117189467Y-145757421D01*
X117414718Y-145849591D01*
X117452391Y-145853462D01*
X117643000Y-145728731D01*
X117643000Y-144387000D01*
X117897000Y-144387000D01*
X117897000Y-145728731D01*
X118087609Y-145853462D01*
X118125282Y-145849591D01*
X118350533Y-145757421D01*
X118553474Y-145623078D01*
X118726307Y-145451725D01*
X118862390Y-145249946D01*
X118956493Y-145025496D01*
X119005000Y-144787000D01*
X119005000Y-144387000D01*
X117897000Y-144387000D01*
X117643000Y-144387000D01*
X117623000Y-144387000D01*
X117623000Y-144133000D01*
X117643000Y-144133000D01*
X117643000Y-144113000D01*
X117897000Y-144113000D01*
X117897000Y-144133000D01*
X119005000Y-144133000D01*
X119005000Y-143733000D01*
X118956493Y-143494504D01*
X118862390Y-143270054D01*
X118726307Y-143068275D01*
X118553474Y-142896922D01*
X118447135Y-142826528D01*
X118475546Y-142773375D01*
X118493712Y-142713489D01*
X118519003Y-142630114D01*
X118530000Y-142518461D01*
X118530000Y-142518452D01*
X118533676Y-142481129D01*
X118530000Y-142443806D01*
X118530000Y-138113933D01*
X118647502Y-138017502D01*
X118801833Y-137829449D01*
X118916511Y-137614901D01*
X118987130Y-137382101D01*
X119005000Y-137200664D01*
X119005000Y-136279335D01*
X118987130Y-136097898D01*
X118916511Y-135865099D01*
X118801833Y-135650551D01*
X118647502Y-135462498D01*
X118459448Y-135308167D01*
X118244900Y-135193489D01*
X118012101Y-135122870D01*
X117770000Y-135099025D01*
X117527898Y-135122870D01*
X117295099Y-135193489D01*
X117080551Y-135308167D01*
X116892498Y-135462498D01*
X116738167Y-135650552D01*
X116623489Y-135865100D01*
X116552870Y-136097899D01*
X116535000Y-136279336D01*
X116535000Y-137200665D01*
X116552870Y-137382102D01*
X116623489Y-137614901D01*
X116738168Y-137829449D01*
X116892499Y-138017502D01*
X117010000Y-138113933D01*
X117010001Y-142166325D01*
X116146414Y-143029913D01*
X116107502Y-142982498D01*
X115919448Y-142828167D01*
X115704900Y-142713489D01*
X115472101Y-142642870D01*
X115230000Y-142619025D01*
X114987898Y-142642870D01*
X114755099Y-142713489D01*
X114540551Y-142828167D01*
X114352498Y-142982498D01*
X114198167Y-143170552D01*
X114083489Y-143385100D01*
X114012870Y-143617899D01*
X113995000Y-143799336D01*
X113995000Y-144720665D01*
X114012870Y-144902102D01*
X114083489Y-145134901D01*
X114139666Y-145240000D01*
X101314802Y-145240000D01*
X98874667Y-142799865D01*
X106018000Y-142799865D01*
X106018000Y-143200135D01*
X106096089Y-143592713D01*
X106249265Y-143962513D01*
X106471643Y-144295325D01*
X106754675Y-144578357D01*
X107087487Y-144800735D01*
X107457287Y-144953911D01*
X107849865Y-145032000D01*
X108250135Y-145032000D01*
X108642713Y-144953911D01*
X109012513Y-144800735D01*
X109345325Y-144578357D01*
X109628357Y-144295325D01*
X109850735Y-143962513D01*
X110003911Y-143592713D01*
X110082000Y-143200135D01*
X110082000Y-142799865D01*
X110003911Y-142407287D01*
X109850735Y-142037487D01*
X109628357Y-141704675D01*
X109345325Y-141421643D01*
X109012513Y-141199265D01*
X108642713Y-141046089D01*
X108250135Y-140968000D01*
X107849865Y-140968000D01*
X107457287Y-141046089D01*
X107087487Y-141199265D01*
X106754675Y-141421643D01*
X106471643Y-141704675D01*
X106249265Y-142037487D01*
X106096089Y-142407287D01*
X106018000Y-142799865D01*
X98874667Y-142799865D01*
X96260000Y-140185199D01*
X96260000Y-138849039D01*
X100948096Y-138849039D01*
X100988754Y-138983087D01*
X101108963Y-139237420D01*
X101276481Y-139463414D01*
X101484869Y-139652385D01*
X101726119Y-139797070D01*
X101990960Y-139891909D01*
X102213000Y-139770624D01*
X102213000Y-138627000D01*
X102467000Y-138627000D01*
X102467000Y-139770624D01*
X102689040Y-139891909D01*
X102953881Y-139797070D01*
X103195131Y-139652385D01*
X103403519Y-139463414D01*
X103571037Y-139237420D01*
X103691246Y-138983087D01*
X103731904Y-138849039D01*
X103609915Y-138627000D01*
X102467000Y-138627000D01*
X102213000Y-138627000D01*
X101070085Y-138627000D01*
X100948096Y-138849039D01*
X96260000Y-138849039D01*
X96260000Y-138500000D01*
X110736323Y-138500000D01*
X110750997Y-138648986D01*
X110794454Y-138792247D01*
X110865026Y-138924276D01*
X110959999Y-139040001D01*
X111075724Y-139134974D01*
X111207753Y-139205546D01*
X111255186Y-139219934D01*
X111385363Y-139414759D01*
X111585241Y-139614637D01*
X111820273Y-139771680D01*
X112081426Y-139879853D01*
X112358665Y-139935000D01*
X112641335Y-139935000D01*
X112918574Y-139879853D01*
X113179727Y-139771680D01*
X113414759Y-139614637D01*
X113614637Y-139414759D01*
X113718043Y-139260000D01*
X113832678Y-139260000D01*
X113870000Y-139263676D01*
X113907322Y-139260000D01*
X113907333Y-139260000D01*
X114018986Y-139249003D01*
X114162247Y-139205546D01*
X114294276Y-139134974D01*
X114410001Y-139040001D01*
X114433803Y-139010998D01*
X115078726Y-138366076D01*
X115230000Y-138380975D01*
X115472102Y-138357130D01*
X115704901Y-138286511D01*
X115919449Y-138171833D01*
X116107502Y-138017502D01*
X116261833Y-137829449D01*
X116376511Y-137614901D01*
X116447130Y-137382101D01*
X116465000Y-137200664D01*
X116465000Y-136279335D01*
X116447130Y-136097898D01*
X116376511Y-135865099D01*
X116261833Y-135650551D01*
X116107502Y-135462498D01*
X115919448Y-135308167D01*
X115704900Y-135193489D01*
X115472101Y-135122870D01*
X115230000Y-135099025D01*
X114987898Y-135122870D01*
X114755099Y-135193489D01*
X114540551Y-135308167D01*
X114352498Y-135462498D01*
X114198167Y-135650552D01*
X114083489Y-135865100D01*
X114012870Y-136097899D01*
X113995000Y-136279336D01*
X113995000Y-137200665D01*
X114003924Y-137291274D01*
X113652817Y-137642382D01*
X113614637Y-137585241D01*
X113414759Y-137385363D01*
X113179727Y-137228320D01*
X112918574Y-137120147D01*
X112641335Y-137065000D01*
X112358665Y-137065000D01*
X112081426Y-137120147D01*
X111820273Y-137228320D01*
X111585241Y-137385363D01*
X111385363Y-137585241D01*
X111255186Y-137780066D01*
X111207753Y-137794454D01*
X111075724Y-137865026D01*
X110959999Y-137959999D01*
X110865026Y-138075724D01*
X110794454Y-138207753D01*
X110750997Y-138351014D01*
X110736323Y-138500000D01*
X96260000Y-138500000D01*
X96260000Y-138150961D01*
X100948096Y-138150961D01*
X101070085Y-138373000D01*
X102213000Y-138373000D01*
X102213000Y-137229376D01*
X102467000Y-137229376D01*
X102467000Y-138373000D01*
X103609915Y-138373000D01*
X103731904Y-138150961D01*
X103691246Y-138016913D01*
X103571037Y-137762580D01*
X103403519Y-137536586D01*
X103195131Y-137347615D01*
X102953881Y-137202930D01*
X102689040Y-137108091D01*
X102467000Y-137229376D01*
X102213000Y-137229376D01*
X101990960Y-137108091D01*
X101726119Y-137202930D01*
X101484869Y-137347615D01*
X101276481Y-137536586D01*
X101108963Y-137762580D01*
X100988754Y-138016913D01*
X100948096Y-138150961D01*
X96260000Y-138150961D01*
X96260000Y-137607802D01*
X96515021Y-137778201D01*
X97085554Y-138014524D01*
X97691229Y-138135000D01*
X98308771Y-138135000D01*
X98914446Y-138014524D01*
X99484979Y-137778201D01*
X99998446Y-137435114D01*
X100435114Y-136998446D01*
X100778201Y-136484979D01*
X101014524Y-135914446D01*
X101135000Y-135308771D01*
X101135000Y-134691229D01*
X101014524Y-134085554D01*
X100778201Y-133515021D01*
X100435114Y-133001554D01*
X100393560Y-132960000D01*
X106215123Y-132960000D01*
X106250000Y-132963435D01*
X106284877Y-132960000D01*
X106389184Y-132949727D01*
X106523020Y-132909128D01*
X106646363Y-132843200D01*
X106754475Y-132754475D01*
X106843200Y-132646363D01*
X106909128Y-132523020D01*
X106949727Y-132389184D01*
X106963435Y-132250000D01*
X106960000Y-132215123D01*
X106960000Y-115784877D01*
X106963435Y-115750000D01*
X106949727Y-115610816D01*
X106909128Y-115476980D01*
X106843200Y-115353637D01*
X106754475Y-115245525D01*
X106646363Y-115156800D01*
X106523020Y-115090872D01*
X106389184Y-115050273D01*
X106284877Y-115040000D01*
X106250000Y-115036565D01*
X106215123Y-115040000D01*
X100219608Y-115040000D01*
X100203150Y-115023542D01*
X100621118Y-114747373D01*
X100911649Y-114202443D01*
X101090287Y-113611304D01*
X101150168Y-112996672D01*
X101088990Y-112382169D01*
X100909103Y-111791408D01*
X100621118Y-111252627D01*
X100203148Y-110976457D01*
X98179605Y-113000000D01*
X98193748Y-113014143D01*
X98014143Y-113193748D01*
X98000000Y-113179605D01*
X97985858Y-113193748D01*
X97806253Y-113014143D01*
X97820395Y-113000000D01*
X95796852Y-110976457D01*
X95378882Y-111252627D01*
X95088351Y-111797557D01*
X94909713Y-112388696D01*
X94849832Y-113003328D01*
X94911010Y-113617831D01*
X95090897Y-114208592D01*
X95378882Y-114747373D01*
X95796850Y-115023542D01*
X95780392Y-115040000D01*
X89784877Y-115040000D01*
X89750000Y-115036565D01*
X89715123Y-115040000D01*
X89610816Y-115050273D01*
X89476980Y-115090872D01*
X89353637Y-115156800D01*
X89245525Y-115245525D01*
X89156800Y-115353637D01*
X89090872Y-115476980D01*
X89050273Y-115610816D01*
X89036565Y-115750000D01*
X89040001Y-115784887D01*
X89040000Y-131959998D01*
X88924276Y-131865026D01*
X88792247Y-131794454D01*
X88648986Y-131750997D01*
X88537333Y-131740000D01*
X88537322Y-131740000D01*
X88500000Y-131736324D01*
X88462678Y-131740000D01*
X84814802Y-131740000D01*
X81398688Y-128323887D01*
X81435000Y-128141335D01*
X81435000Y-127858665D01*
X81379853Y-127581426D01*
X81271680Y-127320273D01*
X81124499Y-127100000D01*
X82961928Y-127100000D01*
X82961928Y-128900000D01*
X82974188Y-129024482D01*
X83010498Y-129144180D01*
X83069463Y-129254494D01*
X83148815Y-129351185D01*
X83245506Y-129430537D01*
X83355820Y-129489502D01*
X83475518Y-129525812D01*
X83600000Y-129538072D01*
X85400000Y-129538072D01*
X85524482Y-129525812D01*
X85644180Y-129489502D01*
X85754494Y-129430537D01*
X85851185Y-129351185D01*
X85930537Y-129254494D01*
X85989502Y-129144180D01*
X86025812Y-129024482D01*
X86038072Y-128900000D01*
X86038072Y-127100000D01*
X86025812Y-126975518D01*
X85989502Y-126855820D01*
X85930537Y-126745506D01*
X85851185Y-126648815D01*
X85754494Y-126569463D01*
X85644180Y-126510498D01*
X85524482Y-126474188D01*
X85400000Y-126461928D01*
X83600000Y-126461928D01*
X83475518Y-126474188D01*
X83355820Y-126510498D01*
X83245506Y-126569463D01*
X83148815Y-126648815D01*
X83069463Y-126745506D01*
X83010498Y-126855820D01*
X82974188Y-126975518D01*
X82961928Y-127100000D01*
X81124499Y-127100000D01*
X81114637Y-127085241D01*
X80914759Y-126885363D01*
X80679727Y-126728320D01*
X80418574Y-126620147D01*
X80141335Y-126565000D01*
X79858665Y-126565000D01*
X79581426Y-126620147D01*
X79320273Y-126728320D01*
X79085241Y-126885363D01*
X78885363Y-127085241D01*
X78760000Y-127272860D01*
X78760000Y-118564268D01*
X78801068Y-118641101D01*
X78980392Y-118859608D01*
X79198899Y-119038932D01*
X79448192Y-119172182D01*
X79718691Y-119254236D01*
X79929508Y-119275000D01*
X80070492Y-119275000D01*
X80281309Y-119254236D01*
X80551808Y-119172182D01*
X80801101Y-119038932D01*
X81019608Y-118859608D01*
X81198932Y-118641101D01*
X81332182Y-118391808D01*
X81388927Y-118204741D01*
X83008959Y-118204741D01*
X83108766Y-118488620D01*
X83262038Y-118747573D01*
X83462884Y-118971649D01*
X83703586Y-119152236D01*
X83974893Y-119282394D01*
X84135260Y-119331036D01*
X84373000Y-119210378D01*
X84373000Y-117967000D01*
X84627000Y-117967000D01*
X84627000Y-119210378D01*
X84864740Y-119331036D01*
X85025107Y-119282394D01*
X85296414Y-119152236D01*
X85537116Y-118971649D01*
X85737962Y-118747573D01*
X85891234Y-118488620D01*
X85991041Y-118204741D01*
X85870992Y-117967000D01*
X84627000Y-117967000D01*
X84373000Y-117967000D01*
X83129008Y-117967000D01*
X83008959Y-118204741D01*
X81388927Y-118204741D01*
X81414236Y-118121309D01*
X81441943Y-117840000D01*
X81414236Y-117558691D01*
X81332182Y-117288192D01*
X81198932Y-117038899D01*
X81019608Y-116820392D01*
X80946020Y-116760000D01*
X83416589Y-116760000D01*
X83262038Y-116932427D01*
X83108766Y-117191380D01*
X83008959Y-117475259D01*
X83129008Y-117713000D01*
X84373000Y-117713000D01*
X84373000Y-117693000D01*
X84627000Y-117693000D01*
X84627000Y-117713000D01*
X85870992Y-117713000D01*
X85991041Y-117475259D01*
X85891234Y-117191380D01*
X85737962Y-116932427D01*
X85583411Y-116760000D01*
X86962678Y-116760000D01*
X87000000Y-116763676D01*
X87037322Y-116760000D01*
X87037333Y-116760000D01*
X87148986Y-116749003D01*
X87292247Y-116705546D01*
X87424276Y-116634974D01*
X87540001Y-116540001D01*
X87563804Y-116510997D01*
X93277949Y-110796852D01*
X95976457Y-110796852D01*
X98000000Y-112820395D01*
X100023543Y-110796852D01*
X99747373Y-110378882D01*
X99202443Y-110088351D01*
X98611304Y-109909713D01*
X97996672Y-109849832D01*
X97382169Y-109911010D01*
X96791408Y-110090897D01*
X96252627Y-110378882D01*
X95976457Y-110796852D01*
X93277949Y-110796852D01*
X96314802Y-107760000D01*
X106328612Y-107760000D01*
X106373844Y-107869199D01*
X106574662Y-108169744D01*
X106830256Y-108425338D01*
X107130801Y-108626156D01*
X107464750Y-108764482D01*
X107819268Y-108835000D01*
X108180732Y-108835000D01*
X108535250Y-108764482D01*
X108869199Y-108626156D01*
X109169744Y-108425338D01*
X109425338Y-108169744D01*
X109626156Y-107869199D01*
X109764482Y-107535250D01*
X109835000Y-107180732D01*
X109835000Y-106819268D01*
X109764482Y-106464750D01*
X109626156Y-106130801D01*
X109425338Y-105830256D01*
X109169744Y-105574662D01*
X108869199Y-105373844D01*
X108535250Y-105235518D01*
X108180732Y-105165000D01*
X107819268Y-105165000D01*
X107464750Y-105235518D01*
X107130801Y-105373844D01*
X106830256Y-105574662D01*
X106574662Y-105830256D01*
X106373844Y-106130801D01*
X106328612Y-106240000D01*
X96462646Y-106240000D01*
X98942646Y-103760000D01*
X108685199Y-103760000D01*
X111280750Y-106355551D01*
X111235518Y-106464750D01*
X111165000Y-106819268D01*
X111165000Y-107180732D01*
X111235518Y-107535250D01*
X111373844Y-107869199D01*
X111574662Y-108169744D01*
X111830256Y-108425338D01*
X112130801Y-108626156D01*
X112464750Y-108764482D01*
X112819268Y-108835000D01*
X113180732Y-108835000D01*
X113535250Y-108764482D01*
X113869199Y-108626156D01*
X114169744Y-108425338D01*
X114425338Y-108169744D01*
X114626156Y-107869199D01*
X114764482Y-107535250D01*
X114835000Y-107180732D01*
X114835000Y-106819268D01*
X114764482Y-106464750D01*
X114626156Y-106130801D01*
X114425338Y-105830256D01*
X114169744Y-105574662D01*
X113869199Y-105373844D01*
X113535250Y-105235518D01*
X113180732Y-105165000D01*
X112819268Y-105165000D01*
X112464750Y-105235518D01*
X112355551Y-105280750D01*
X109563804Y-102489003D01*
X109540001Y-102459999D01*
X109424276Y-102365026D01*
X109292247Y-102294454D01*
X109148986Y-102250997D01*
X109037333Y-102240000D01*
X109037322Y-102240000D01*
X109000000Y-102236324D01*
X108962678Y-102240000D01*
X98665167Y-102240000D01*
X98627844Y-102236324D01*
X98590521Y-102240000D01*
X98590511Y-102240000D01*
X98478858Y-102250997D01*
X98335597Y-102294454D01*
X98203567Y-102365026D01*
X98131018Y-102424566D01*
X98087843Y-102459999D01*
X98064045Y-102488997D01*
X97760000Y-102793042D01*
X97760000Y-91729045D01*
X98011019Y-91478026D01*
X98040023Y-91454223D01*
X98100053Y-91381076D01*
X98134996Y-91338499D01*
X98205568Y-91206469D01*
X98228343Y-91131387D01*
X98249025Y-91063208D01*
X98260022Y-90951555D01*
X98260022Y-90951545D01*
X98263698Y-90914222D01*
X98260022Y-90876899D01*
X98260022Y-86765101D01*
X98263698Y-86727778D01*
X98260022Y-86690455D01*
X98260022Y-86690445D01*
X98249025Y-86578792D01*
X98205568Y-86435531D01*
X98199552Y-86424276D01*
X98134996Y-86303501D01*
X98079864Y-86236324D01*
X98040023Y-86187777D01*
X98011020Y-86163975D01*
X97760000Y-85912955D01*
X97760000Y-80834801D01*
X100011201Y-83086003D01*
X100035000Y-83115002D01*
X100063998Y-83138800D01*
X100150724Y-83209975D01*
X100282754Y-83280547D01*
X100426015Y-83324004D01*
X100537668Y-83335001D01*
X100537678Y-83335001D01*
X100575001Y-83338677D01*
X100612324Y-83335001D01*
X102826753Y-83335001D01*
X102183446Y-83601467D01*
X101555330Y-84021161D01*
X101021161Y-84555330D01*
X100601467Y-85183446D01*
X100312377Y-85881372D01*
X100165000Y-86622285D01*
X100165000Y-87377715D01*
X100312377Y-88118628D01*
X100601467Y-88816554D01*
X101021161Y-89444670D01*
X101555330Y-89978839D01*
X102183446Y-90398533D01*
X102881372Y-90687623D01*
X103622285Y-90835000D01*
X104377715Y-90835000D01*
X105118628Y-90687623D01*
X105816554Y-90398533D01*
X106444670Y-89978839D01*
X106978839Y-89444670D01*
X107398533Y-88816554D01*
X107687623Y-88118628D01*
X107835000Y-87377715D01*
X107835000Y-86622285D01*
X107687623Y-85881372D01*
X107398533Y-85183446D01*
X106978839Y-84555330D01*
X106444670Y-84021161D01*
X105816554Y-83601467D01*
X105173247Y-83335001D01*
X108260200Y-83335001D01*
X110601312Y-85676114D01*
X110565000Y-85858665D01*
X110565000Y-86141335D01*
X110620147Y-86418574D01*
X110728320Y-86679727D01*
X110885363Y-86914759D01*
X111085241Y-87114637D01*
X111320273Y-87271680D01*
X111581426Y-87379853D01*
X111858665Y-87435000D01*
X112141335Y-87435000D01*
X112418574Y-87379853D01*
X112679727Y-87271680D01*
X112914759Y-87114637D01*
X113036694Y-86992702D01*
X117186903Y-86992702D01*
X117258486Y-87236671D01*
X117513996Y-87357571D01*
X117788184Y-87426300D01*
X118070512Y-87440217D01*
X118350130Y-87398787D01*
X118616292Y-87303603D01*
X118741514Y-87236671D01*
X118813097Y-86992702D01*
X118000000Y-86179605D01*
X117186903Y-86992702D01*
X113036694Y-86992702D01*
X113114637Y-86914759D01*
X113271680Y-86679727D01*
X113379853Y-86418574D01*
X113435000Y-86141335D01*
X113435000Y-86070512D01*
X116559783Y-86070512D01*
X116601213Y-86350130D01*
X116696397Y-86616292D01*
X116763329Y-86741514D01*
X117007298Y-86813097D01*
X117820395Y-86000000D01*
X118179605Y-86000000D01*
X118992702Y-86813097D01*
X119236671Y-86741514D01*
X119357571Y-86486004D01*
X119426300Y-86211816D01*
X119440217Y-85929488D01*
X119398787Y-85649870D01*
X119303603Y-85383708D01*
X119236671Y-85258486D01*
X118992702Y-85186903D01*
X118179605Y-86000000D01*
X117820395Y-86000000D01*
X117007298Y-85186903D01*
X116763329Y-85258486D01*
X116642429Y-85513996D01*
X116573700Y-85788184D01*
X116559783Y-86070512D01*
X113435000Y-86070512D01*
X113435000Y-85858665D01*
X113379853Y-85581426D01*
X113271680Y-85320273D01*
X113114637Y-85085241D01*
X113036694Y-85007298D01*
X117186903Y-85007298D01*
X118000000Y-85820395D01*
X118813097Y-85007298D01*
X118741514Y-84763329D01*
X118486004Y-84642429D01*
X118211816Y-84573700D01*
X117929488Y-84559783D01*
X117649870Y-84601213D01*
X117383708Y-84696397D01*
X117258486Y-84763329D01*
X117186903Y-85007298D01*
X113036694Y-85007298D01*
X112914759Y-84885363D01*
X112760000Y-84781957D01*
X112760000Y-82154801D01*
X117674095Y-77240708D01*
X117718691Y-77254236D01*
X117929508Y-77275000D01*
X118070492Y-77275000D01*
X118281309Y-77254236D01*
X118551808Y-77172182D01*
X118801101Y-77038932D01*
X119019608Y-76859608D01*
X119198932Y-76641101D01*
X119332182Y-76391808D01*
X119414236Y-76121309D01*
X119441943Y-75840000D01*
X119414236Y-75558691D01*
X119332182Y-75288192D01*
X119198932Y-75038899D01*
X119019608Y-74820392D01*
X118801101Y-74641068D01*
X118551808Y-74507818D01*
X118281309Y-74425764D01*
X118070492Y-74405000D01*
X117929508Y-74405000D01*
X117718691Y-74425764D01*
X117448192Y-74507818D01*
X117198899Y-74641068D01*
X116980392Y-74820392D01*
X116801068Y-75038899D01*
X116667818Y-75288192D01*
X116585764Y-75558691D01*
X116558057Y-75840000D01*
X116585764Y-76121309D01*
X116599292Y-76165905D01*
X111488998Y-81276201D01*
X111460000Y-81299999D01*
X111436202Y-81328997D01*
X111436201Y-81328998D01*
X111365026Y-81415724D01*
X111294454Y-81547754D01*
X111250998Y-81691015D01*
X111236324Y-81840000D01*
X111240001Y-81877332D01*
X111240000Y-84165199D01*
X109138805Y-82064004D01*
X109115002Y-82035000D01*
X108999277Y-81940027D01*
X108867248Y-81869455D01*
X108723987Y-81825998D01*
X108647184Y-81818433D01*
X108764482Y-81535250D01*
X108835000Y-81180732D01*
X108835000Y-80819268D01*
X108764482Y-80464750D01*
X108626156Y-80130801D01*
X108425338Y-79830256D01*
X108169744Y-79574662D01*
X107869199Y-79373844D01*
X107535250Y-79235518D01*
X107180732Y-79165000D01*
X107102499Y-79165000D01*
X107168325Y-79006081D01*
X107235000Y-78670883D01*
X107235000Y-78329117D01*
X107168325Y-77993919D01*
X107037537Y-77678169D01*
X106847663Y-77394002D01*
X106605998Y-77152337D01*
X106321831Y-76962463D01*
X106171032Y-76900000D01*
X106321831Y-76837537D01*
X106605998Y-76647663D01*
X106847663Y-76405998D01*
X107037537Y-76121831D01*
X107168325Y-75806081D01*
X107235000Y-75470883D01*
X107235000Y-75129117D01*
X107168325Y-74793919D01*
X107037537Y-74478169D01*
X106847663Y-74194002D01*
X106605998Y-73952337D01*
X106321831Y-73762463D01*
X106171032Y-73700000D01*
X106321831Y-73637537D01*
X106605998Y-73447663D01*
X106847663Y-73205998D01*
X107037537Y-72921831D01*
X107168325Y-72606081D01*
X107225760Y-72317338D01*
X110575125Y-75666704D01*
X110558057Y-75840000D01*
X110585764Y-76121309D01*
X110667818Y-76391808D01*
X110801068Y-76641101D01*
X110980392Y-76859608D01*
X111198899Y-77038932D01*
X111448192Y-77172182D01*
X111718691Y-77254236D01*
X111929508Y-77275000D01*
X112070492Y-77275000D01*
X112281309Y-77254236D01*
X112551808Y-77172182D01*
X112801101Y-77038932D01*
X113019608Y-76859608D01*
X113198932Y-76641101D01*
X113332182Y-76391808D01*
X113414236Y-76121309D01*
X113441943Y-75840000D01*
X113414236Y-75558691D01*
X113332182Y-75288192D01*
X113198932Y-75038899D01*
X113019608Y-74820392D01*
X112801101Y-74641068D01*
X112551808Y-74507818D01*
X112281309Y-74425764D01*
X112070492Y-74405000D01*
X111929508Y-74405000D01*
X111826704Y-74415125D01*
X104716533Y-67304955D01*
X104688816Y-67271182D01*
X104554058Y-67160588D01*
X104400312Y-67078410D01*
X104233489Y-67027804D01*
X104103476Y-67014999D01*
X104103468Y-67014999D01*
X104059999Y-67010718D01*
X104016530Y-67014999D01*
X98043689Y-67014999D01*
X98085676Y-66936447D01*
X98150577Y-66722499D01*
X98167000Y-66555752D01*
X98167000Y-65444248D01*
X98150577Y-65277501D01*
X98085676Y-65063553D01*
X97980284Y-64866377D01*
X97838449Y-64693551D01*
X97665623Y-64551716D01*
X97468446Y-64446324D01*
X97254498Y-64381423D01*
X97032000Y-64359509D01*
X96809501Y-64381423D01*
X96595553Y-64446324D01*
X96398377Y-64551716D01*
X96358900Y-64584114D01*
X96319423Y-64551716D01*
X96122246Y-64446324D01*
X95908298Y-64381423D01*
X95685800Y-64359509D01*
X95463301Y-64381423D01*
X95249353Y-64446324D01*
X95052177Y-64551716D01*
X95000000Y-64594537D01*
X94947823Y-64551716D01*
X94750646Y-64446324D01*
X94536698Y-64381423D01*
X94314200Y-64359509D01*
X94091701Y-64381423D01*
X93877753Y-64446324D01*
X93680577Y-64551716D01*
X93641100Y-64584114D01*
X93601623Y-64551716D01*
X93404446Y-64446324D01*
X93190498Y-64381423D01*
X92968000Y-64359509D01*
X92745501Y-64381423D01*
X92531553Y-64446324D01*
X92334377Y-64551716D01*
X92161551Y-64693551D01*
X92019716Y-64866377D01*
X91914324Y-65063554D01*
X91849423Y-65277502D01*
X91833000Y-65444249D01*
X91833000Y-66555752D01*
X91849423Y-66722499D01*
X91914324Y-66936447D01*
X91956311Y-67014999D01*
X90426578Y-67014999D01*
X90013706Y-66602127D01*
X90034000Y-66500101D01*
X90034000Y-66199899D01*
X89975434Y-65905466D01*
X89860551Y-65628115D01*
X89693768Y-65378507D01*
X89481493Y-65166232D01*
X89231885Y-64999449D01*
X88954534Y-64884566D01*
X88660101Y-64826000D01*
X88359899Y-64826000D01*
X88065466Y-64884566D01*
X87788115Y-64999449D01*
X87538507Y-65166232D01*
X87326232Y-65378507D01*
X87159449Y-65628115D01*
X87044566Y-65905466D01*
X86986000Y-66199899D01*
X86986000Y-66500101D01*
X87006294Y-66602127D01*
X70427033Y-83181389D01*
X70435000Y-83141335D01*
X70435000Y-82858665D01*
X70379853Y-82581426D01*
X70271680Y-82320273D01*
X70114637Y-82085241D01*
X69914759Y-81885363D01*
X69679727Y-81728320D01*
X69418574Y-81620147D01*
X69141335Y-81565000D01*
X68858665Y-81565000D01*
X68581426Y-81620147D01*
X68320273Y-81728320D01*
X68085241Y-81885363D01*
X67885363Y-82085241D01*
X67728320Y-82320273D01*
X67620147Y-82581426D01*
X67565000Y-82858665D01*
X67565000Y-83141335D01*
X67620147Y-83418574D01*
X67728320Y-83679727D01*
X67885363Y-83914759D01*
X68085241Y-84114637D01*
X68320273Y-84271680D01*
X68581426Y-84379853D01*
X68858665Y-84435000D01*
X69141335Y-84435000D01*
X69181389Y-84427033D01*
X66404956Y-87203466D01*
X66371183Y-87231183D01*
X66260589Y-87365942D01*
X66178411Y-87519688D01*
X66143439Y-87634974D01*
X66128600Y-87683891D01*
X66127805Y-87686511D01*
X66115000Y-87816524D01*
X66115000Y-87816531D01*
X66110719Y-87860000D01*
X66115000Y-87903469D01*
X66115001Y-100461544D01*
X66082795Y-100509744D01*
X66004774Y-100698102D01*
X65965000Y-100898061D01*
X65965000Y-101101939D01*
X66004774Y-101301898D01*
X66082795Y-101490256D01*
X66196063Y-101659774D01*
X66340226Y-101803937D01*
X66509744Y-101917205D01*
X66698102Y-101995226D01*
X66898061Y-102035000D01*
X67101939Y-102035000D01*
X67301898Y-101995226D01*
X67490256Y-101917205D01*
X67659774Y-101803937D01*
X67803937Y-101659774D01*
X67917205Y-101490256D01*
X67995226Y-101301898D01*
X68035000Y-101101939D01*
X68035000Y-100898061D01*
X67995226Y-100698102D01*
X67917205Y-100509744D01*
X67885000Y-100461546D01*
X67885000Y-88226578D01*
X71071679Y-85039899D01*
X72826000Y-85039899D01*
X72826000Y-85340101D01*
X72884566Y-85634534D01*
X72999449Y-85911885D01*
X73166232Y-86161493D01*
X73378507Y-86373768D01*
X73507562Y-86460000D01*
X73378507Y-86546232D01*
X73166232Y-86758507D01*
X72999449Y-87008115D01*
X72884566Y-87285466D01*
X72826000Y-87579899D01*
X72826000Y-87880101D01*
X72884566Y-88174534D01*
X72999449Y-88451885D01*
X73166232Y-88701493D01*
X73378507Y-88913768D01*
X73507562Y-89000000D01*
X73378507Y-89086232D01*
X73166232Y-89298507D01*
X72999449Y-89548115D01*
X72884566Y-89825466D01*
X72826000Y-90119899D01*
X72826000Y-90420101D01*
X72884566Y-90714534D01*
X72999449Y-90991885D01*
X73166232Y-91241493D01*
X73378507Y-91453768D01*
X73507562Y-91540000D01*
X73378507Y-91626232D01*
X73166232Y-91838507D01*
X72999449Y-92088115D01*
X72884566Y-92365466D01*
X72826000Y-92659899D01*
X72826000Y-92960101D01*
X72884566Y-93254534D01*
X72999449Y-93531885D01*
X73166232Y-93781493D01*
X73378507Y-93993768D01*
X73628115Y-94160551D01*
X73905466Y-94275434D01*
X74199899Y-94334000D01*
X74500101Y-94334000D01*
X74794534Y-94275434D01*
X75071885Y-94160551D01*
X75321493Y-93993768D01*
X75533768Y-93781493D01*
X75700551Y-93531885D01*
X75815434Y-93254534D01*
X75874000Y-92960101D01*
X75874000Y-92659899D01*
X75815434Y-92365466D01*
X75700551Y-92088115D01*
X75533768Y-91838507D01*
X75321493Y-91626232D01*
X75192438Y-91540000D01*
X75321493Y-91453768D01*
X75533768Y-91241493D01*
X75700551Y-90991885D01*
X75815434Y-90714534D01*
X75874000Y-90420101D01*
X75874000Y-90119899D01*
X75815434Y-89825466D01*
X75700551Y-89548115D01*
X75533768Y-89298507D01*
X75321493Y-89086232D01*
X75192438Y-89000000D01*
X75321493Y-88913768D01*
X75533768Y-88701493D01*
X75700551Y-88451885D01*
X75815434Y-88174534D01*
X75874000Y-87880101D01*
X75874000Y-87579899D01*
X75815434Y-87285466D01*
X75700551Y-87008115D01*
X75533768Y-86758507D01*
X75321493Y-86546232D01*
X75192438Y-86460000D01*
X75321493Y-86373768D01*
X75533768Y-86161493D01*
X75700551Y-85911885D01*
X75815434Y-85634534D01*
X75874000Y-85340101D01*
X75874000Y-85039899D01*
X75815434Y-84745466D01*
X75700551Y-84468115D01*
X75533768Y-84218507D01*
X75321493Y-84006232D01*
X75071885Y-83839449D01*
X74794534Y-83724566D01*
X74500101Y-83666000D01*
X74199899Y-83666000D01*
X73905466Y-83724566D01*
X73628115Y-83839449D01*
X73378507Y-84006232D01*
X73166232Y-84218507D01*
X72999449Y-84468115D01*
X72884566Y-84745466D01*
X72826000Y-85039899D01*
X71071679Y-85039899D01*
X82074590Y-74036988D01*
X86980092Y-74036988D01*
X87022557Y-74334171D01*
X87122184Y-74617359D01*
X87200711Y-74764273D01*
X87453769Y-74846626D01*
X88330395Y-73970000D01*
X87453769Y-73093374D01*
X87200711Y-73175727D01*
X87070914Y-73446418D01*
X86996420Y-73737230D01*
X86980092Y-74036988D01*
X82074590Y-74036988D01*
X87000182Y-69111397D01*
X87044566Y-69334534D01*
X87159449Y-69611885D01*
X87326232Y-69861493D01*
X87538507Y-70073768D01*
X87667562Y-70160000D01*
X87538507Y-70246232D01*
X87326232Y-70458507D01*
X87159449Y-70708115D01*
X87044566Y-70985466D01*
X86986000Y-71279899D01*
X86986000Y-71580101D01*
X87044566Y-71874534D01*
X87159449Y-72151885D01*
X87326232Y-72401493D01*
X87538507Y-72613768D01*
X87696622Y-72719417D01*
X87633374Y-72913769D01*
X88510000Y-73790395D01*
X89386626Y-72913769D01*
X89323378Y-72719417D01*
X89481493Y-72613768D01*
X89693768Y-72401493D01*
X89860551Y-72151885D01*
X89975434Y-71874534D01*
X90034000Y-71580101D01*
X90034000Y-71279899D01*
X89975434Y-70985466D01*
X89860551Y-70708115D01*
X89693768Y-70458507D01*
X89481493Y-70246232D01*
X89352438Y-70160000D01*
X89481493Y-70073768D01*
X89693768Y-69861493D01*
X89860551Y-69611885D01*
X89975434Y-69334534D01*
X90034000Y-69040101D01*
X90034000Y-68786720D01*
X90059999Y-68789280D01*
X90103468Y-68784999D01*
X99351394Y-68784999D01*
X99235518Y-69064750D01*
X99165000Y-69419268D01*
X99165000Y-69780732D01*
X99235518Y-70135250D01*
X99373844Y-70469199D01*
X99574662Y-70769744D01*
X99779918Y-70975000D01*
X92965752Y-70975000D01*
X92910000Y-70969509D01*
X92687501Y-70991423D01*
X92473553Y-71056324D01*
X92276377Y-71161716D01*
X92146856Y-71268011D01*
X92146854Y-71268013D01*
X92103551Y-71303551D01*
X92068013Y-71346854D01*
X89948411Y-73466457D01*
X89897816Y-73322641D01*
X89819289Y-73175727D01*
X89566231Y-73093374D01*
X88689605Y-73970000D01*
X88703748Y-73984143D01*
X88524143Y-74163748D01*
X88510000Y-74149605D01*
X87633374Y-75026231D01*
X87696622Y-75220583D01*
X87538507Y-75326232D01*
X87326232Y-75538507D01*
X87159449Y-75788115D01*
X87044566Y-76065466D01*
X86986000Y-76359899D01*
X86986000Y-76660101D01*
X87044566Y-76954534D01*
X87159449Y-77231885D01*
X87326232Y-77481493D01*
X87538507Y-77693768D01*
X87788115Y-77860551D01*
X88065466Y-77975434D01*
X88359899Y-78034000D01*
X88660101Y-78034000D01*
X88954534Y-77975434D01*
X89231885Y-77860551D01*
X89481493Y-77693768D01*
X89693768Y-77481493D01*
X89860551Y-77231885D01*
X89975434Y-76954534D01*
X90034000Y-76660101D01*
X90034000Y-76591131D01*
X93380133Y-73245000D01*
X101181339Y-73245000D01*
X101394002Y-73457663D01*
X101678169Y-73647537D01*
X101816897Y-73705000D01*
X101678169Y-73762463D01*
X101394002Y-73952337D01*
X101152337Y-74194002D01*
X100962463Y-74478169D01*
X100831675Y-74793919D01*
X100765000Y-75129117D01*
X100765000Y-75470883D01*
X100831675Y-75806081D01*
X100962463Y-76121831D01*
X101152337Y-76405998D01*
X101394002Y-76647663D01*
X101678169Y-76837537D01*
X101828968Y-76900000D01*
X101678169Y-76962463D01*
X101394002Y-77152337D01*
X101152337Y-77394002D01*
X100962463Y-77678169D01*
X100831675Y-77993919D01*
X100765000Y-78329117D01*
X100765000Y-78670883D01*
X100831675Y-79006081D01*
X100962463Y-79321831D01*
X101152337Y-79605998D01*
X101394002Y-79847663D01*
X101678169Y-80037537D01*
X101993919Y-80168325D01*
X102329117Y-80235000D01*
X102670883Y-80235000D01*
X103006081Y-80168325D01*
X103321831Y-80037537D01*
X103605998Y-79847663D01*
X103847663Y-79605998D01*
X104000000Y-79378009D01*
X104152337Y-79605998D01*
X104394002Y-79847663D01*
X104678169Y-80037537D01*
X104993919Y-80168325D01*
X105329117Y-80235000D01*
X105330683Y-80235000D01*
X105235518Y-80464750D01*
X105165000Y-80819268D01*
X105165000Y-81180732D01*
X105235518Y-81535250D01*
X105351394Y-81815001D01*
X100889803Y-81815001D01*
X97563804Y-78489003D01*
X97540001Y-78459999D01*
X97424276Y-78365026D01*
X97292247Y-78294454D01*
X97148986Y-78250997D01*
X97037333Y-78240000D01*
X97037322Y-78240000D01*
X97000000Y-78236324D01*
X96962678Y-78240000D01*
X89037322Y-78240000D01*
X88999999Y-78236324D01*
X88962676Y-78240000D01*
X88962667Y-78240000D01*
X88851014Y-78250997D01*
X88707753Y-78294454D01*
X88575724Y-78365026D01*
X88459999Y-78459999D01*
X88436201Y-78488997D01*
X84488998Y-82436201D01*
X84460000Y-82459999D01*
X84436202Y-82488997D01*
X84436201Y-82488998D01*
X84365026Y-82575724D01*
X84294454Y-82707754D01*
X84275104Y-82771545D01*
X84250998Y-82851014D01*
X84249399Y-82867247D01*
X84236324Y-83000000D01*
X84240001Y-83037332D01*
X84240000Y-86685198D01*
X59175199Y-111750000D01*
X59005549Y-111750000D01*
X58995226Y-111698102D01*
X58917205Y-111509744D01*
X58803937Y-111340226D01*
X58659774Y-111196063D01*
X58490256Y-111082795D01*
X58301898Y-111004774D01*
X58101939Y-110965000D01*
X57898061Y-110965000D01*
X57698102Y-111004774D01*
X57509744Y-111082795D01*
X57340226Y-111196063D01*
X57196063Y-111340226D01*
X57082795Y-111509744D01*
X57004774Y-111698102D01*
X56965000Y-111898061D01*
X56965000Y-112101939D01*
X57004774Y-112301898D01*
X57082795Y-112490256D01*
X57196063Y-112659774D01*
X57340226Y-112803937D01*
X57509744Y-112917205D01*
X57698102Y-112995226D01*
X57898061Y-113035000D01*
X57957688Y-113035000D01*
X57969999Y-113050001D01*
X58043146Y-113110031D01*
X58085723Y-113144974D01*
X58150513Y-113179605D01*
X58217753Y-113215546D01*
X58361014Y-113259003D01*
X58472667Y-113270000D01*
X58472677Y-113270000D01*
X58510000Y-113273676D01*
X58547323Y-113270000D01*
X59452678Y-113270000D01*
X59490000Y-113273676D01*
X59527322Y-113270000D01*
X59527333Y-113270000D01*
X59638986Y-113259003D01*
X59782247Y-113215546D01*
X59914276Y-113144974D01*
X60030001Y-113050001D01*
X60053804Y-113020997D01*
X85511004Y-87563798D01*
X85540001Y-87540001D01*
X85573906Y-87498688D01*
X85634974Y-87424277D01*
X85705546Y-87292247D01*
X85715990Y-87257816D01*
X85749003Y-87148986D01*
X85760000Y-87037333D01*
X85760000Y-87037323D01*
X85763676Y-87000000D01*
X85760000Y-86962677D01*
X85760000Y-85256988D01*
X86120092Y-85256988D01*
X86162557Y-85554171D01*
X86262184Y-85837359D01*
X86340711Y-85984273D01*
X86593769Y-86066626D01*
X87470395Y-85190000D01*
X87829605Y-85190000D01*
X88706231Y-86066626D01*
X88959289Y-85984273D01*
X89089086Y-85713582D01*
X89163580Y-85422770D01*
X89179908Y-85123012D01*
X89137443Y-84825829D01*
X89037816Y-84542641D01*
X88959289Y-84395727D01*
X88706231Y-84313374D01*
X87829605Y-85190000D01*
X87470395Y-85190000D01*
X86593769Y-84313374D01*
X86340711Y-84395727D01*
X86210914Y-84666418D01*
X86136420Y-84957230D01*
X86120092Y-85256988D01*
X85760000Y-85256988D01*
X85760000Y-84133769D01*
X86773374Y-84133769D01*
X87650000Y-85010395D01*
X88526626Y-84133769D01*
X88444273Y-83880711D01*
X88173582Y-83750914D01*
X87882770Y-83676420D01*
X87583012Y-83660092D01*
X87285829Y-83702557D01*
X87002641Y-83802184D01*
X86855727Y-83880711D01*
X86773374Y-84133769D01*
X85760000Y-84133769D01*
X85760000Y-83314801D01*
X89314802Y-79760000D01*
X93253525Y-79760000D01*
X93214997Y-79887016D01*
X93200323Y-80036001D01*
X93204000Y-80073333D01*
X93203999Y-82028676D01*
X93200323Y-82065999D01*
X93203999Y-82103321D01*
X93203999Y-82103331D01*
X93214996Y-82214984D01*
X93235554Y-82282755D01*
X93258453Y-82358245D01*
X93329025Y-82490275D01*
X93368870Y-82538825D01*
X93423998Y-82606000D01*
X93453002Y-82629803D01*
X93753623Y-82930425D01*
X93704000Y-83179899D01*
X93704000Y-83480101D01*
X93762566Y-83774534D01*
X93877449Y-84051885D01*
X94044232Y-84301493D01*
X94256507Y-84513768D01*
X94385562Y-84600000D01*
X94256507Y-84686232D01*
X94044232Y-84898507D01*
X93877449Y-85148115D01*
X93762566Y-85425466D01*
X93704000Y-85719899D01*
X93704000Y-86020101D01*
X93762566Y-86314534D01*
X93877449Y-86591885D01*
X94044232Y-86841493D01*
X94256507Y-87053768D01*
X94414622Y-87159417D01*
X94351374Y-87353769D01*
X95228000Y-88230395D01*
X95242143Y-88216253D01*
X95421748Y-88395858D01*
X95407605Y-88410000D01*
X95421748Y-88424143D01*
X95242143Y-88603748D01*
X95228000Y-88589605D01*
X94351374Y-89466231D01*
X94365618Y-89510000D01*
X88975083Y-89510000D01*
X88833768Y-89298507D01*
X88621493Y-89086232D01*
X88492438Y-89000000D01*
X88621493Y-88913768D01*
X88833768Y-88701493D01*
X88983777Y-88476988D01*
X93698092Y-88476988D01*
X93740557Y-88774171D01*
X93840184Y-89057359D01*
X93918711Y-89204273D01*
X94171769Y-89286626D01*
X95048395Y-88410000D01*
X94171769Y-87533374D01*
X93918711Y-87615727D01*
X93788914Y-87886418D01*
X93714420Y-88177230D01*
X93698092Y-88476988D01*
X88983777Y-88476988D01*
X89000551Y-88451885D01*
X89115434Y-88174534D01*
X89174000Y-87880101D01*
X89174000Y-87579899D01*
X89115434Y-87285466D01*
X89000551Y-87008115D01*
X88833768Y-86758507D01*
X88621493Y-86546232D01*
X88463378Y-86440583D01*
X88526626Y-86246231D01*
X87650000Y-85369605D01*
X86773374Y-86246231D01*
X86836622Y-86440583D01*
X86678507Y-86546232D01*
X86466232Y-86758507D01*
X86299449Y-87008115D01*
X86184566Y-87285466D01*
X86126000Y-87579899D01*
X86126000Y-87799198D01*
X52312653Y-121612546D01*
X52216632Y-121516525D01*
X52042240Y-121400000D01*
X52216632Y-121283475D01*
X52423475Y-121076632D01*
X52585990Y-120833411D01*
X52697932Y-120563158D01*
X52755000Y-120276260D01*
X52755000Y-119983740D01*
X52697932Y-119696842D01*
X52585990Y-119426589D01*
X52423475Y-119183368D01*
X52216632Y-118976525D01*
X52042240Y-118860000D01*
X52216632Y-118743475D01*
X52423475Y-118536632D01*
X52585990Y-118293411D01*
X52697932Y-118023158D01*
X52755000Y-117736260D01*
X52755000Y-117443740D01*
X52711209Y-117223592D01*
X55926004Y-114008798D01*
X55955002Y-113985000D01*
X56049975Y-113869275D01*
X56120547Y-113737246D01*
X56164004Y-113593985D01*
X56175001Y-113482332D01*
X56175001Y-113482324D01*
X56178677Y-113444999D01*
X56175001Y-113407674D01*
X56175001Y-82858665D01*
X59565000Y-82858665D01*
X59565000Y-83141335D01*
X59620147Y-83418574D01*
X59728320Y-83679727D01*
X59885363Y-83914759D01*
X60085241Y-84114637D01*
X60320273Y-84271680D01*
X60581426Y-84379853D01*
X60858665Y-84435000D01*
X61141335Y-84435000D01*
X61418574Y-84379853D01*
X61679727Y-84271680D01*
X61914759Y-84114637D01*
X62114637Y-83914759D01*
X62271680Y-83679727D01*
X62379853Y-83418574D01*
X62435000Y-83141335D01*
X62435000Y-82858665D01*
X63565000Y-82858665D01*
X63565000Y-83141335D01*
X63620147Y-83418574D01*
X63728320Y-83679727D01*
X63885363Y-83914759D01*
X64085241Y-84114637D01*
X64320273Y-84271680D01*
X64581426Y-84379853D01*
X64858665Y-84435000D01*
X65141335Y-84435000D01*
X65418574Y-84379853D01*
X65679727Y-84271680D01*
X65914759Y-84114637D01*
X66114637Y-83914759D01*
X66271680Y-83679727D01*
X66379853Y-83418574D01*
X66435000Y-83141335D01*
X66435000Y-82858665D01*
X66379853Y-82581426D01*
X66271680Y-82320273D01*
X66114637Y-82085241D01*
X65914759Y-81885363D01*
X65679727Y-81728320D01*
X65418574Y-81620147D01*
X65141335Y-81565000D01*
X64858665Y-81565000D01*
X64581426Y-81620147D01*
X64320273Y-81728320D01*
X64085241Y-81885363D01*
X63885363Y-82085241D01*
X63728320Y-82320273D01*
X63620147Y-82581426D01*
X63565000Y-82858665D01*
X62435000Y-82858665D01*
X62379853Y-82581426D01*
X62271680Y-82320273D01*
X62114637Y-82085241D01*
X61914759Y-81885363D01*
X61679727Y-81728320D01*
X61418574Y-81620147D01*
X61141335Y-81565000D01*
X60858665Y-81565000D01*
X60581426Y-81620147D01*
X60320273Y-81728320D01*
X60085241Y-81885363D01*
X59885363Y-82085241D01*
X59728320Y-82320273D01*
X59620147Y-82581426D01*
X59565000Y-82858665D01*
X56175001Y-82858665D01*
X56175001Y-72840000D01*
X59558057Y-72840000D01*
X59585764Y-73121309D01*
X59667818Y-73391808D01*
X59801068Y-73641101D01*
X59980392Y-73859608D01*
X60198899Y-74038932D01*
X60448192Y-74172182D01*
X60718691Y-74254236D01*
X60929508Y-74275000D01*
X61070492Y-74275000D01*
X61281309Y-74254236D01*
X61551808Y-74172182D01*
X61801101Y-74038932D01*
X62019608Y-73859608D01*
X62198932Y-73641101D01*
X62332182Y-73391808D01*
X62414236Y-73121309D01*
X62441943Y-72840000D01*
X63558057Y-72840000D01*
X63585764Y-73121309D01*
X63667818Y-73391808D01*
X63801068Y-73641101D01*
X63980392Y-73859608D01*
X64198899Y-74038932D01*
X64448192Y-74172182D01*
X64718691Y-74254236D01*
X64929508Y-74275000D01*
X65070492Y-74275000D01*
X65281309Y-74254236D01*
X65551808Y-74172182D01*
X65801101Y-74038932D01*
X66019608Y-73859608D01*
X66198932Y-73641101D01*
X66332182Y-73391808D01*
X66414236Y-73121309D01*
X66441943Y-72840000D01*
X67558057Y-72840000D01*
X67585764Y-73121309D01*
X67667818Y-73391808D01*
X67801068Y-73641101D01*
X67980392Y-73859608D01*
X68198899Y-74038932D01*
X68448192Y-74172182D01*
X68718691Y-74254236D01*
X68929508Y-74275000D01*
X69070492Y-74275000D01*
X69281309Y-74254236D01*
X69551808Y-74172182D01*
X69801101Y-74038932D01*
X70019608Y-73859608D01*
X70198932Y-73641101D01*
X70332182Y-73391808D01*
X70414236Y-73121309D01*
X70441943Y-72840000D01*
X70414236Y-72558691D01*
X70332182Y-72288192D01*
X70198932Y-72038899D01*
X70019608Y-71820392D01*
X69801101Y-71641068D01*
X69551808Y-71507818D01*
X69281309Y-71425764D01*
X69070492Y-71405000D01*
X68929508Y-71405000D01*
X68718691Y-71425764D01*
X68448192Y-71507818D01*
X68198899Y-71641068D01*
X67980392Y-71820392D01*
X67801068Y-72038899D01*
X67667818Y-72288192D01*
X67585764Y-72558691D01*
X67558057Y-72840000D01*
X66441943Y-72840000D01*
X66414236Y-72558691D01*
X66332182Y-72288192D01*
X66198932Y-72038899D01*
X66019608Y-71820392D01*
X65801101Y-71641068D01*
X65551808Y-71507818D01*
X65281309Y-71425764D01*
X65070492Y-71405000D01*
X64929508Y-71405000D01*
X64718691Y-71425764D01*
X64448192Y-71507818D01*
X64198899Y-71641068D01*
X63980392Y-71820392D01*
X63801068Y-72038899D01*
X63667818Y-72288192D01*
X63585764Y-72558691D01*
X63558057Y-72840000D01*
X62441943Y-72840000D01*
X62414236Y-72558691D01*
X62332182Y-72288192D01*
X62198932Y-72038899D01*
X62019608Y-71820392D01*
X61801101Y-71641068D01*
X61551808Y-71507818D01*
X61281309Y-71425764D01*
X61070492Y-71405000D01*
X60929508Y-71405000D01*
X60718691Y-71425764D01*
X60448192Y-71507818D01*
X60198899Y-71641068D01*
X59980392Y-71820392D01*
X59801068Y-72038899D01*
X59667818Y-72288192D01*
X59585764Y-72558691D01*
X59558057Y-72840000D01*
X56175001Y-72840000D01*
X56175001Y-66281079D01*
X57965000Y-66281079D01*
X57965000Y-66878921D01*
X58081633Y-67465277D01*
X58310418Y-68017612D01*
X58642562Y-68514700D01*
X59065300Y-68937438D01*
X59562388Y-69269582D01*
X60114723Y-69498367D01*
X60701079Y-69615000D01*
X61298921Y-69615000D01*
X61885277Y-69498367D01*
X62437612Y-69269582D01*
X62934700Y-68937438D01*
X63357438Y-68514700D01*
X63689582Y-68017612D01*
X63918367Y-67465277D01*
X64035000Y-66878921D01*
X64035000Y-66281079D01*
X63918367Y-65694723D01*
X63888363Y-65622285D01*
X64165000Y-65622285D01*
X64165000Y-66377715D01*
X64312377Y-67118628D01*
X64601467Y-67816554D01*
X65021161Y-68444670D01*
X65555330Y-68978839D01*
X66183446Y-69398533D01*
X66881372Y-69687623D01*
X67622285Y-69835000D01*
X68377715Y-69835000D01*
X69118628Y-69687623D01*
X69816554Y-69398533D01*
X70444670Y-68978839D01*
X70978839Y-68444670D01*
X71398533Y-67816554D01*
X71687623Y-67118628D01*
X71835000Y-66377715D01*
X71835000Y-65622285D01*
X71687623Y-64881372D01*
X71398533Y-64183446D01*
X70978839Y-63555330D01*
X70444670Y-63021161D01*
X69816554Y-62601467D01*
X69118628Y-62312377D01*
X68377715Y-62165000D01*
X67622285Y-62165000D01*
X66881372Y-62312377D01*
X66183446Y-62601467D01*
X65555330Y-63021161D01*
X65021161Y-63555330D01*
X64601467Y-64183446D01*
X64312377Y-64881372D01*
X64165000Y-65622285D01*
X63888363Y-65622285D01*
X63689582Y-65142388D01*
X63357438Y-64645300D01*
X62934700Y-64222562D01*
X62437612Y-63890418D01*
X61885277Y-63661633D01*
X61298921Y-63545000D01*
X60701079Y-63545000D01*
X60114723Y-63661633D01*
X59562388Y-63890418D01*
X59065300Y-64222562D01*
X58642562Y-64645300D01*
X58310418Y-65142388D01*
X58081633Y-65694723D01*
X57965000Y-66281079D01*
X56175001Y-66281079D01*
X56175001Y-65952323D01*
X56178677Y-65915000D01*
X56175001Y-65877677D01*
X56175001Y-65877668D01*
X56164004Y-65766015D01*
X56120547Y-65622754D01*
X56049975Y-65490725D01*
X55955002Y-65375000D01*
X55926005Y-65351203D01*
X53563804Y-62989003D01*
X53540001Y-62959999D01*
X53424276Y-62865026D01*
X53292247Y-62794454D01*
X53148986Y-62750997D01*
X53037333Y-62740000D01*
X53037322Y-62740000D01*
X53000000Y-62736324D01*
X52962678Y-62740000D01*
X51577333Y-62740000D01*
X51540000Y-62736323D01*
X51502667Y-62740000D01*
X51391014Y-62750997D01*
X51247753Y-62794454D01*
X51115724Y-62865026D01*
X50999999Y-62959999D01*
X50976201Y-62988997D01*
X50371375Y-63593823D01*
X50356912Y-63587832D01*
X50041033Y-63525000D01*
X49718967Y-63525000D01*
X49403088Y-63587832D01*
X49105537Y-63711082D01*
X48837748Y-63890013D01*
X48610013Y-64117748D01*
X48494413Y-64290756D01*
X48255413Y-64204192D01*
X47299605Y-65160000D01*
X48255413Y-66115808D01*
X48494413Y-66029244D01*
X48610013Y-66202252D01*
X48800503Y-66392742D01*
X48661033Y-66365000D01*
X48338967Y-66365000D01*
X48028216Y-66426812D01*
X48075808Y-66295413D01*
X47120000Y-65339605D01*
X46164192Y-66295413D01*
X46213078Y-66430386D01*
X46206912Y-66427832D01*
X45891033Y-66365000D01*
X45568967Y-66365000D01*
X45258216Y-66426812D01*
X45305808Y-66295413D01*
X44350000Y-65339605D01*
X43394192Y-66295413D01*
X43445483Y-66437024D01*
X43218892Y-66377616D01*
X42897405Y-66358282D01*
X42578325Y-66402039D01*
X42273912Y-66507205D01*
X42099956Y-66600186D01*
X42004192Y-66864587D01*
X42960000Y-67820395D01*
X43915808Y-66864587D01*
X43864517Y-66722976D01*
X44091108Y-66782384D01*
X44412595Y-66801718D01*
X44648377Y-66769384D01*
X44460013Y-66957748D01*
X44342464Y-67133672D01*
X44095413Y-67044192D01*
X43139605Y-68000000D01*
X44095413Y-68955808D01*
X44342464Y-68866328D01*
X44460013Y-69042252D01*
X44687748Y-69269987D01*
X44955537Y-69448918D01*
X45253088Y-69572168D01*
X45568967Y-69635000D01*
X45891033Y-69635000D01*
X46206912Y-69572168D01*
X46504463Y-69448918D01*
X46772252Y-69269987D01*
X46999987Y-69042252D01*
X47115000Y-68870123D01*
X47230013Y-69042252D01*
X47457748Y-69269987D01*
X47725537Y-69448918D01*
X48023088Y-69572168D01*
X48338967Y-69635000D01*
X48661033Y-69635000D01*
X48976912Y-69572168D01*
X49274463Y-69448918D01*
X49542252Y-69269987D01*
X49769987Y-69042252D01*
X49885000Y-68870123D01*
X50000013Y-69042252D01*
X50227748Y-69269987D01*
X50495537Y-69448918D01*
X50793088Y-69572168D01*
X51108967Y-69635000D01*
X51431033Y-69635000D01*
X51538769Y-69613570D01*
X53240000Y-71314802D01*
X53240001Y-79271152D01*
X53214101Y-79266000D01*
X52913899Y-79266000D01*
X52619466Y-79324566D01*
X52342115Y-79439449D01*
X52092507Y-79606232D01*
X51880232Y-79818507D01*
X51713449Y-80068115D01*
X51598566Y-80345466D01*
X51540000Y-80639899D01*
X51540000Y-80940101D01*
X51598566Y-81234534D01*
X51713449Y-81511885D01*
X51880232Y-81761493D01*
X52092507Y-81973768D01*
X52221562Y-82060000D01*
X52092507Y-82146232D01*
X51880232Y-82358507D01*
X51713449Y-82608115D01*
X51598566Y-82885466D01*
X51540000Y-83179899D01*
X51540000Y-83480101D01*
X51598566Y-83774534D01*
X51713449Y-84051885D01*
X51880232Y-84301493D01*
X52092507Y-84513768D01*
X52250622Y-84619417D01*
X52187374Y-84813769D01*
X53064000Y-85690395D01*
X53078143Y-85676253D01*
X53257748Y-85855858D01*
X53243605Y-85870000D01*
X53257748Y-85884143D01*
X53078143Y-86063748D01*
X53064000Y-86049605D01*
X52187374Y-86926231D01*
X52250622Y-87120583D01*
X52092507Y-87226232D01*
X51880232Y-87438507D01*
X51713449Y-87688115D01*
X51598566Y-87965466D01*
X51540000Y-88259899D01*
X51540000Y-88560101D01*
X51598566Y-88854534D01*
X51713449Y-89131885D01*
X51880232Y-89381493D01*
X52092507Y-89593768D01*
X52221562Y-89680000D01*
X52092507Y-89766232D01*
X51880232Y-89978507D01*
X51713449Y-90228115D01*
X51598566Y-90505466D01*
X51540000Y-90799899D01*
X51540000Y-91100101D01*
X51598566Y-91394534D01*
X51713449Y-91671885D01*
X51880232Y-91921493D01*
X52092507Y-92133768D01*
X52342115Y-92300551D01*
X52619466Y-92415434D01*
X52913899Y-92474000D01*
X53214101Y-92474000D01*
X53508534Y-92415434D01*
X53568001Y-92390802D01*
X53568002Y-111677195D01*
X52755000Y-112490198D01*
X52755000Y-112363740D01*
X52697932Y-112076842D01*
X52585990Y-111806589D01*
X52423475Y-111563368D01*
X52216632Y-111356525D01*
X52043271Y-111240689D01*
X52118792Y-110998397D01*
X51270000Y-110149605D01*
X50421208Y-110998397D01*
X50496729Y-111240689D01*
X50323368Y-111356525D01*
X50116525Y-111563368D01*
X49954010Y-111806589D01*
X49842068Y-112076842D01*
X49785000Y-112363740D01*
X49785000Y-112656260D01*
X49842068Y-112943158D01*
X49954010Y-113213411D01*
X50116525Y-113456632D01*
X50323368Y-113663475D01*
X50497760Y-113780000D01*
X50323368Y-113896525D01*
X50116525Y-114103368D01*
X49954010Y-114346589D01*
X49842068Y-114616842D01*
X49785000Y-114903740D01*
X49785000Y-115196260D01*
X49842068Y-115483158D01*
X49954010Y-115753411D01*
X50116525Y-115996632D01*
X50323368Y-116203475D01*
X50497760Y-116320000D01*
X50323368Y-116436525D01*
X50116525Y-116643368D01*
X49954010Y-116886589D01*
X49842068Y-117156842D01*
X49785000Y-117443740D01*
X49785000Y-117736260D01*
X49842068Y-118023158D01*
X49954010Y-118293411D01*
X50116525Y-118536632D01*
X50323368Y-118743475D01*
X50497760Y-118860000D01*
X50323368Y-118976525D01*
X50116525Y-119183368D01*
X49954010Y-119426589D01*
X49842068Y-119696842D01*
X49785000Y-119983740D01*
X49785000Y-120276260D01*
X49842068Y-120563158D01*
X49954010Y-120833411D01*
X50116525Y-121076632D01*
X50323368Y-121283475D01*
X50497760Y-121400000D01*
X50323368Y-121516525D01*
X50116525Y-121723368D01*
X49954010Y-121966589D01*
X49842068Y-122236842D01*
X49785000Y-122523740D01*
X49785000Y-122816260D01*
X49842068Y-123103158D01*
X49954010Y-123373411D01*
X50116525Y-123616632D01*
X50323368Y-123823475D01*
X50497760Y-123940000D01*
X50323368Y-124056525D01*
X50116525Y-124263368D01*
X49954010Y-124506589D01*
X49842068Y-124776842D01*
X49785000Y-125063740D01*
X49785000Y-125356260D01*
X49842068Y-125643158D01*
X49954010Y-125913411D01*
X50116525Y-126156632D01*
X50323368Y-126363475D01*
X50497760Y-126480000D01*
X50323368Y-126596525D01*
X50116525Y-126803368D01*
X49954010Y-127046589D01*
X49842068Y-127316842D01*
X49785000Y-127603740D01*
X49785000Y-127896260D01*
X49842068Y-128183158D01*
X49954010Y-128453411D01*
X50116525Y-128696632D01*
X50323368Y-128903475D01*
X50497760Y-129020000D01*
X50323368Y-129136525D01*
X50116525Y-129343368D01*
X49954010Y-129586589D01*
X49842068Y-129856842D01*
X49785000Y-130143740D01*
X49785000Y-130436260D01*
X49842068Y-130723158D01*
X49954010Y-130993411D01*
X50116525Y-131236632D01*
X50323368Y-131443475D01*
X50497760Y-131560000D01*
X50323368Y-131676525D01*
X50116525Y-131883368D01*
X49954010Y-132126589D01*
X49842068Y-132396842D01*
X49785000Y-132683740D01*
X49785000Y-132976260D01*
X49842068Y-133263158D01*
X49954010Y-133533411D01*
X50116525Y-133776632D01*
X50323368Y-133983475D01*
X50497760Y-134100000D01*
X50323368Y-134216525D01*
X50116525Y-134423368D01*
X49954010Y-134666589D01*
X49842068Y-134936842D01*
X49785000Y-135223740D01*
X49785000Y-135516260D01*
X49842068Y-135803158D01*
X49954010Y-136073411D01*
X50116525Y-136316632D01*
X50323368Y-136523475D01*
X50497760Y-136640000D01*
X50323368Y-136756525D01*
X50116525Y-136963368D01*
X49954010Y-137206589D01*
X49842068Y-137476842D01*
X49785000Y-137763740D01*
X49785000Y-138056260D01*
X49842068Y-138343158D01*
X49954010Y-138613411D01*
X50116525Y-138856632D01*
X50323368Y-139063475D01*
X50497760Y-139180000D01*
X50323368Y-139296525D01*
X50116525Y-139503368D01*
X49954010Y-139746589D01*
X49842068Y-140016842D01*
X49785000Y-140303740D01*
X49785000Y-140596260D01*
X49842068Y-140883158D01*
X49954010Y-141153411D01*
X50116525Y-141396632D01*
X50323368Y-141603475D01*
X50566589Y-141765990D01*
X50836842Y-141877932D01*
X51123740Y-141935000D01*
X51416260Y-141935000D01*
X51703158Y-141877932D01*
X51973411Y-141765990D01*
X52216632Y-141603475D01*
X52423475Y-141396632D01*
X52585990Y-141153411D01*
X52697932Y-140883158D01*
X52755000Y-140596260D01*
X52755000Y-140303740D01*
X52697932Y-140016842D01*
X52585990Y-139746589D01*
X52423475Y-139503368D01*
X52216632Y-139296525D01*
X52042240Y-139180000D01*
X52216632Y-139063475D01*
X52423475Y-138856632D01*
X52585990Y-138613411D01*
X52697932Y-138343158D01*
X52755000Y-138056260D01*
X52755000Y-137763740D01*
X52711209Y-137543592D01*
X53005998Y-137248803D01*
X53035002Y-137225000D01*
X53129975Y-137109275D01*
X53200547Y-136977246D01*
X53244004Y-136833985D01*
X53255001Y-136722332D01*
X53255001Y-136722322D01*
X53258677Y-136684999D01*
X53255001Y-136647676D01*
X53255001Y-135186798D01*
X70237217Y-118204583D01*
X70274010Y-118293411D01*
X70436525Y-118536632D01*
X70643368Y-118743475D01*
X70817760Y-118860000D01*
X70643368Y-118976525D01*
X70436525Y-119183368D01*
X70274010Y-119426589D01*
X70162068Y-119696842D01*
X70105000Y-119983740D01*
X70105000Y-120276260D01*
X70162068Y-120563158D01*
X70274010Y-120833411D01*
X70436525Y-121076632D01*
X70643368Y-121283475D01*
X70817760Y-121400000D01*
X70643368Y-121516525D01*
X70436525Y-121723368D01*
X70274010Y-121966589D01*
X70162068Y-122236842D01*
X70105000Y-122523740D01*
X70105000Y-122816260D01*
X70162068Y-123103158D01*
X70274010Y-123373411D01*
X70436525Y-123616632D01*
X70643368Y-123823475D01*
X70817760Y-123940000D01*
X70643368Y-124056525D01*
X70436525Y-124263368D01*
X70274010Y-124506589D01*
X70162068Y-124776842D01*
X70105000Y-125063740D01*
X70105000Y-125356260D01*
X70162068Y-125643158D01*
X70274010Y-125913411D01*
X70436525Y-126156632D01*
X70643368Y-126363475D01*
X70817760Y-126480000D01*
X70643368Y-126596525D01*
X70436525Y-126803368D01*
X70274010Y-127046589D01*
X70162068Y-127316842D01*
X70105000Y-127603740D01*
X70105000Y-127896260D01*
X70162068Y-128183158D01*
X70274010Y-128453411D01*
X70436525Y-128696632D01*
X70643368Y-128903475D01*
X70817760Y-129020000D01*
X70643368Y-129136525D01*
X70436525Y-129343368D01*
X70274010Y-129586589D01*
X70162068Y-129856842D01*
X70105000Y-130143740D01*
X70105000Y-130436260D01*
X70162068Y-130723158D01*
X70274010Y-130993411D01*
X70436525Y-131236632D01*
X70643368Y-131443475D01*
X70817760Y-131560000D01*
X70643368Y-131676525D01*
X70436525Y-131883368D01*
X70274010Y-132126589D01*
X70162068Y-132396842D01*
X70105000Y-132683740D01*
X70105000Y-132976260D01*
X70162068Y-133263158D01*
X70274010Y-133533411D01*
X70436525Y-133776632D01*
X70643368Y-133983475D01*
X70817760Y-134100000D01*
X70643368Y-134216525D01*
X70436525Y-134423368D01*
X70274010Y-134666589D01*
X70162068Y-134936842D01*
X70105000Y-135223740D01*
X70105000Y-135516260D01*
X70162068Y-135803158D01*
X70274010Y-136073411D01*
X70436525Y-136316632D01*
X70643368Y-136523475D01*
X70817760Y-136640000D01*
X70643368Y-136756525D01*
X70436525Y-136963368D01*
X70274010Y-137206589D01*
X70162068Y-137476842D01*
X70105000Y-137763740D01*
X70105000Y-138056260D01*
X70162068Y-138343158D01*
X70274010Y-138613411D01*
X70436525Y-138856632D01*
X70643368Y-139063475D01*
X70817760Y-139180000D01*
X70643368Y-139296525D01*
X70436525Y-139503368D01*
X70274010Y-139746589D01*
X70162068Y-140016842D01*
X70105000Y-140303740D01*
X70105000Y-140596260D01*
X70162068Y-140883158D01*
X70274010Y-141153411D01*
X70436525Y-141396632D01*
X70643368Y-141603475D01*
X70886589Y-141765990D01*
X71156842Y-141877932D01*
X71443740Y-141935000D01*
X71736260Y-141935000D01*
X72023158Y-141877932D01*
X72293411Y-141765990D01*
X72536632Y-141603475D01*
X72743475Y-141396632D01*
X72905990Y-141153411D01*
X73017932Y-140883158D01*
X73075000Y-140596260D01*
X73075000Y-140303740D01*
X73017932Y-140016842D01*
X72905990Y-139746589D01*
X72799764Y-139587609D01*
X83646538Y-139587609D01*
X83650409Y-139625282D01*
X83742579Y-139850533D01*
X83876922Y-140053474D01*
X84048275Y-140226307D01*
X84250054Y-140362390D01*
X84474504Y-140456493D01*
X84713000Y-140505000D01*
X85113000Y-140505000D01*
X85113000Y-139397000D01*
X85367000Y-139397000D01*
X85367000Y-140505000D01*
X85767000Y-140505000D01*
X86005496Y-140456493D01*
X86229946Y-140362390D01*
X86431725Y-140226307D01*
X86603078Y-140053474D01*
X86737421Y-139850533D01*
X86829591Y-139625282D01*
X86833462Y-139587609D01*
X86708731Y-139397000D01*
X85367000Y-139397000D01*
X85113000Y-139397000D01*
X83771269Y-139397000D01*
X83646538Y-139587609D01*
X72799764Y-139587609D01*
X72743475Y-139503368D01*
X72536632Y-139296525D01*
X72362240Y-139180000D01*
X72536632Y-139063475D01*
X72647716Y-138952391D01*
X83646538Y-138952391D01*
X83771269Y-139143000D01*
X85113000Y-139143000D01*
X85113000Y-138035000D01*
X85367000Y-138035000D01*
X85367000Y-139143000D01*
X86708731Y-139143000D01*
X86833462Y-138952391D01*
X86829591Y-138914718D01*
X86737421Y-138689467D01*
X86603078Y-138486526D01*
X86431725Y-138313693D01*
X86229946Y-138177610D01*
X86005496Y-138083507D01*
X85767000Y-138035000D01*
X85367000Y-138035000D01*
X85113000Y-138035000D01*
X84713000Y-138035000D01*
X84474504Y-138083507D01*
X84250054Y-138177610D01*
X84048275Y-138313693D01*
X83876922Y-138486526D01*
X83742579Y-138689467D01*
X83650409Y-138914718D01*
X83646538Y-138952391D01*
X72647716Y-138952391D01*
X72743475Y-138856632D01*
X72905990Y-138613411D01*
X73017932Y-138343158D01*
X73075000Y-138056260D01*
X73075000Y-137763740D01*
X73017932Y-137476842D01*
X72905990Y-137206589D01*
X72743475Y-136963368D01*
X72536632Y-136756525D01*
X72496935Y-136730000D01*
X83599025Y-136730000D01*
X83622870Y-136972102D01*
X83693489Y-137204901D01*
X83808167Y-137419449D01*
X83962498Y-137607502D01*
X84150551Y-137761833D01*
X84365099Y-137876511D01*
X84597898Y-137947130D01*
X84779335Y-137965000D01*
X85700665Y-137965000D01*
X85882102Y-137947130D01*
X86114901Y-137876511D01*
X86329449Y-137761833D01*
X86517502Y-137607502D01*
X86671833Y-137419449D01*
X86786511Y-137204901D01*
X86857130Y-136972102D01*
X86880975Y-136730000D01*
X86857130Y-136487898D01*
X86786511Y-136255099D01*
X86671833Y-136040551D01*
X86517502Y-135852498D01*
X86329449Y-135698167D01*
X86114901Y-135583489D01*
X85882102Y-135512870D01*
X85700665Y-135495000D01*
X84779335Y-135495000D01*
X84597898Y-135512870D01*
X84365099Y-135583489D01*
X84150551Y-135698167D01*
X83962498Y-135852498D01*
X83808167Y-136040551D01*
X83693489Y-136255099D01*
X83622870Y-136487898D01*
X83599025Y-136730000D01*
X72496935Y-136730000D01*
X72362240Y-136640000D01*
X72536632Y-136523475D01*
X72743475Y-136316632D01*
X72905990Y-136073411D01*
X73017932Y-135803158D01*
X73075000Y-135516260D01*
X73075000Y-135223740D01*
X73031209Y-135003592D01*
X73042099Y-134992702D01*
X76686903Y-134992702D01*
X76758486Y-135236671D01*
X77013996Y-135357571D01*
X77288184Y-135426300D01*
X77570512Y-135440217D01*
X77850130Y-135398787D01*
X78116292Y-135303603D01*
X78241514Y-135236671D01*
X78313097Y-134992702D01*
X77500000Y-134179605D01*
X76686903Y-134992702D01*
X73042099Y-134992702D01*
X73964289Y-134070512D01*
X76059783Y-134070512D01*
X76101213Y-134350130D01*
X76196397Y-134616292D01*
X76263329Y-134741514D01*
X76507298Y-134813097D01*
X77320395Y-134000000D01*
X77679605Y-134000000D01*
X78492702Y-134813097D01*
X78736671Y-134741514D01*
X78857571Y-134486004D01*
X78926300Y-134211816D01*
X78940217Y-133929488D01*
X78898787Y-133649870D01*
X78803603Y-133383708D01*
X78736671Y-133258486D01*
X78492702Y-133186903D01*
X77679605Y-134000000D01*
X77320395Y-134000000D01*
X76507298Y-133186903D01*
X76263329Y-133258486D01*
X76142429Y-133513996D01*
X76073700Y-133788184D01*
X76059783Y-134070512D01*
X73964289Y-134070512D01*
X75027503Y-133007298D01*
X76686903Y-133007298D01*
X77500000Y-133820395D01*
X78313097Y-133007298D01*
X78241514Y-132763329D01*
X77986004Y-132642429D01*
X77711816Y-132573700D01*
X77429488Y-132559783D01*
X77149870Y-132601213D01*
X76883708Y-132696397D01*
X76758486Y-132763329D01*
X76686903Y-133007298D01*
X75027503Y-133007298D01*
X78511003Y-129523799D01*
X78540001Y-129500001D01*
X78634974Y-129384276D01*
X78705546Y-129252247D01*
X78749003Y-129108986D01*
X78760000Y-128997333D01*
X78760000Y-128997323D01*
X78763676Y-128960000D01*
X78760000Y-128922677D01*
X78760000Y-128727140D01*
X78885363Y-128914759D01*
X79085241Y-129114637D01*
X79320273Y-129271680D01*
X79581426Y-129379853D01*
X79858665Y-129435000D01*
X80141335Y-129435000D01*
X80323887Y-129398688D01*
X83790198Y-132865000D01*
X82340957Y-132865000D01*
X82330537Y-132845506D01*
X82251185Y-132748815D01*
X82154494Y-132669463D01*
X82044180Y-132610498D01*
X81924482Y-132574188D01*
X81800000Y-132561928D01*
X80200000Y-132561928D01*
X80075518Y-132574188D01*
X79955820Y-132610498D01*
X79845506Y-132669463D01*
X79748815Y-132748815D01*
X79669463Y-132845506D01*
X79610498Y-132955820D01*
X79574188Y-133075518D01*
X79561928Y-133200000D01*
X79561928Y-134800000D01*
X79574188Y-134924482D01*
X79610498Y-135044180D01*
X79669463Y-135154494D01*
X79748815Y-135251185D01*
X79845506Y-135330537D01*
X79955820Y-135389502D01*
X80075518Y-135425812D01*
X80200000Y-135438072D01*
X81800000Y-135438072D01*
X81924482Y-135425812D01*
X82044180Y-135389502D01*
X82154494Y-135330537D01*
X82251185Y-135251185D01*
X82330537Y-135154494D01*
X82340957Y-135135000D01*
X87019869Y-135135000D01*
X90376571Y-138491704D01*
X90391423Y-138642499D01*
X90456324Y-138856447D01*
X90561717Y-139053623D01*
X90703552Y-139226449D01*
X90746859Y-139261990D01*
X91206400Y-139721532D01*
X91213489Y-139744901D01*
X91328167Y-139959449D01*
X91482498Y-140147502D01*
X91670551Y-140301833D01*
X91885099Y-140416511D01*
X92117898Y-140487130D01*
X92299335Y-140505000D01*
X93220665Y-140505000D01*
X93402102Y-140487130D01*
X93634901Y-140416511D01*
X93849449Y-140301833D01*
X94037502Y-140147502D01*
X94191833Y-139959449D01*
X94306511Y-139744901D01*
X94377130Y-139512102D01*
X94400975Y-139270000D01*
X94377130Y-139027898D01*
X94306511Y-138795099D01*
X94191833Y-138580551D01*
X94037502Y-138392498D01*
X93849449Y-138238167D01*
X93634901Y-138123489D01*
X93402102Y-138052870D01*
X93220665Y-138035000D01*
X92730132Y-138035000D01*
X92660132Y-137965000D01*
X93220665Y-137965000D01*
X93402102Y-137947130D01*
X93634901Y-137876511D01*
X93849449Y-137761833D01*
X94037502Y-137607502D01*
X94191833Y-137419449D01*
X94306511Y-137204901D01*
X94337340Y-137103270D01*
X94740001Y-137505931D01*
X94740000Y-140462677D01*
X94736324Y-140500000D01*
X94740000Y-140537322D01*
X94740000Y-140537332D01*
X94750997Y-140648985D01*
X94794454Y-140792246D01*
X94865026Y-140924276D01*
X94900910Y-140968000D01*
X94959999Y-141040001D01*
X94989003Y-141063804D01*
X100436201Y-146511003D01*
X100459999Y-146540001D01*
X100488997Y-146563799D01*
X100575724Y-146634974D01*
X100707753Y-146705546D01*
X100851014Y-146749003D01*
X101000000Y-146763677D01*
X101037333Y-146760000D01*
X113434070Y-146760000D01*
X109826070Y-150368001D01*
X109484322Y-150368001D01*
X109446999Y-150364325D01*
X109409676Y-150368001D01*
X109409666Y-150368001D01*
X109298013Y-150378998D01*
X109154752Y-150422455D01*
X109022722Y-150493027D01*
X108941381Y-150559783D01*
X108906998Y-150588000D01*
X108883200Y-150616998D01*
X108845226Y-150654972D01*
X108642713Y-150571089D01*
X108250135Y-150493000D01*
X107849865Y-150493000D01*
X107457287Y-150571089D01*
X107087487Y-150724265D01*
X106754675Y-150946643D01*
X106471643Y-151229675D01*
X106249265Y-151562487D01*
X106096089Y-151932287D01*
X106018000Y-152324865D01*
X106018000Y-152725135D01*
X106096089Y-153117713D01*
X106249265Y-153487513D01*
X106471643Y-153820325D01*
X106754675Y-154103357D01*
X107034006Y-154290000D01*
X85987731Y-154290000D01*
X85985000Y-152285750D01*
X85826250Y-152127000D01*
X84207000Y-152127000D01*
X84207000Y-152147000D01*
X83953000Y-152147000D01*
X83953000Y-152127000D01*
X82333750Y-152127000D01*
X82175000Y-152285750D01*
X82172269Y-154290000D01*
X80908072Y-154290000D01*
X80908072Y-149460000D01*
X82171928Y-149460000D01*
X82175000Y-151714250D01*
X82333750Y-151873000D01*
X83953000Y-151873000D01*
X83953000Y-148983750D01*
X84207000Y-148983750D01*
X84207000Y-151873000D01*
X85826250Y-151873000D01*
X85985000Y-151714250D01*
X85988072Y-149460000D01*
X85975812Y-149335518D01*
X85939502Y-149215820D01*
X85904248Y-149149865D01*
X86968000Y-149149865D01*
X86968000Y-149550135D01*
X87046089Y-149942713D01*
X87199265Y-150312513D01*
X87421643Y-150645325D01*
X87704675Y-150928357D01*
X88037487Y-151150735D01*
X88407287Y-151303911D01*
X88799865Y-151382000D01*
X89200135Y-151382000D01*
X89592713Y-151303911D01*
X89962513Y-151150735D01*
X90295325Y-150928357D01*
X90578357Y-150645325D01*
X90800735Y-150312513D01*
X90953911Y-149942713D01*
X91032000Y-149550135D01*
X91032000Y-149149865D01*
X90953911Y-148757287D01*
X90800735Y-148387487D01*
X90578357Y-148054675D01*
X90295325Y-147771643D01*
X89962513Y-147549265D01*
X89592713Y-147396089D01*
X89200135Y-147318000D01*
X88799865Y-147318000D01*
X88407287Y-147396089D01*
X88037487Y-147549265D01*
X87704675Y-147771643D01*
X87421643Y-148054675D01*
X87199265Y-148387487D01*
X87046089Y-148757287D01*
X86968000Y-149149865D01*
X85904248Y-149149865D01*
X85880537Y-149105506D01*
X85801185Y-149008815D01*
X85704494Y-148929463D01*
X85594180Y-148870498D01*
X85474482Y-148834188D01*
X85350000Y-148821928D01*
X84365750Y-148825000D01*
X84207000Y-148983750D01*
X83953000Y-148983750D01*
X83794250Y-148825000D01*
X82810000Y-148821928D01*
X82685518Y-148834188D01*
X82565820Y-148870498D01*
X82455506Y-148929463D01*
X82358815Y-149008815D01*
X82279463Y-149105506D01*
X82220498Y-149215820D01*
X82184188Y-149335518D01*
X82171928Y-149460000D01*
X80908072Y-149460000D01*
X80895812Y-149335518D01*
X80859502Y-149215820D01*
X80800537Y-149105506D01*
X80721185Y-149008815D01*
X80624494Y-148929463D01*
X80514180Y-148870498D01*
X80394482Y-148834188D01*
X80270000Y-148821928D01*
X77730000Y-148821928D01*
X77605518Y-148834188D01*
X77485820Y-148870498D01*
X77375506Y-148929463D01*
X77278815Y-149008815D01*
X77199463Y-149105506D01*
X77140498Y-149215820D01*
X77104188Y-149335518D01*
X77091928Y-149460000D01*
X77091928Y-154290000D01*
X73987731Y-154290000D01*
X73985000Y-152285750D01*
X73826250Y-152127000D01*
X72207000Y-152127000D01*
X72207000Y-152147000D01*
X71953000Y-152147000D01*
X71953000Y-152127000D01*
X70333750Y-152127000D01*
X70175000Y-152285750D01*
X70172269Y-154290000D01*
X68908072Y-154290000D01*
X68908072Y-149460000D01*
X70171928Y-149460000D01*
X70175000Y-151714250D01*
X70333750Y-151873000D01*
X71953000Y-151873000D01*
X71953000Y-148983750D01*
X72207000Y-148983750D01*
X72207000Y-151873000D01*
X73826250Y-151873000D01*
X73985000Y-151714250D01*
X73988072Y-149460000D01*
X73975812Y-149335518D01*
X73939502Y-149215820D01*
X73880537Y-149105506D01*
X73801185Y-149008815D01*
X73704494Y-148929463D01*
X73594180Y-148870498D01*
X73474482Y-148834188D01*
X73350000Y-148821928D01*
X72365750Y-148825000D01*
X72207000Y-148983750D01*
X71953000Y-148983750D01*
X71794250Y-148825000D01*
X70810000Y-148821928D01*
X70685518Y-148834188D01*
X70565820Y-148870498D01*
X70455506Y-148929463D01*
X70358815Y-149008815D01*
X70279463Y-149105506D01*
X70220498Y-149215820D01*
X70184188Y-149335518D01*
X70171928Y-149460000D01*
X68908072Y-149460000D01*
X68895812Y-149335518D01*
X68859502Y-149215820D01*
X68800537Y-149105506D01*
X68721185Y-149008815D01*
X68624494Y-148929463D01*
X68514180Y-148870498D01*
X68394482Y-148834188D01*
X68270000Y-148821928D01*
X65730000Y-148821928D01*
X65605518Y-148834188D01*
X65485820Y-148870498D01*
X65375506Y-148929463D01*
X65278815Y-149008815D01*
X65199463Y-149105506D01*
X65140498Y-149215820D01*
X65104188Y-149335518D01*
X65091928Y-149460000D01*
X65091928Y-154290000D01*
X49710000Y-154290000D01*
X49710000Y-143622285D01*
X75165000Y-143622285D01*
X75165000Y-144377715D01*
X75312377Y-145118628D01*
X75601467Y-145816554D01*
X76021161Y-146444670D01*
X76555330Y-146978839D01*
X77183446Y-147398533D01*
X77881372Y-147687623D01*
X78622285Y-147835000D01*
X79377715Y-147835000D01*
X80118628Y-147687623D01*
X80816554Y-147398533D01*
X81444670Y-146978839D01*
X81978839Y-146444670D01*
X82398533Y-145816554D01*
X82687623Y-145118628D01*
X82826924Y-144418311D01*
X87761294Y-144418311D01*
X87904910Y-144723327D01*
X88262157Y-144903855D01*
X88647758Y-145011220D01*
X89046895Y-145041294D01*
X89444231Y-144992922D01*
X89824495Y-144867964D01*
X90095090Y-144723327D01*
X90238706Y-144418311D01*
X89000000Y-143179605D01*
X87761294Y-144418311D01*
X82826924Y-144418311D01*
X82835000Y-144377715D01*
X82835000Y-143622285D01*
X82720548Y-143046895D01*
X86958706Y-143046895D01*
X87007078Y-143444231D01*
X87132036Y-143824495D01*
X87276673Y-144095090D01*
X87581689Y-144238706D01*
X88820395Y-143000000D01*
X89179605Y-143000000D01*
X90418311Y-144238706D01*
X90723327Y-144095090D01*
X90903855Y-143737843D01*
X91011220Y-143352242D01*
X91041294Y-142953105D01*
X90992922Y-142555769D01*
X90867964Y-142175505D01*
X90723327Y-141904910D01*
X90418311Y-141761294D01*
X89179605Y-143000000D01*
X88820395Y-143000000D01*
X87581689Y-141761294D01*
X87276673Y-141904910D01*
X87096145Y-142262157D01*
X86988780Y-142647758D01*
X86958706Y-143046895D01*
X82720548Y-143046895D01*
X82687623Y-142881372D01*
X82398533Y-142183446D01*
X81996452Y-141581689D01*
X87761294Y-141581689D01*
X89000000Y-142820395D01*
X90238706Y-141581689D01*
X90095090Y-141276673D01*
X89737843Y-141096145D01*
X89352242Y-140988780D01*
X88953105Y-140958706D01*
X88555769Y-141007078D01*
X88175505Y-141132036D01*
X87904910Y-141276673D01*
X87761294Y-141581689D01*
X81996452Y-141581689D01*
X81978839Y-141555330D01*
X81444670Y-141021161D01*
X80816554Y-140601467D01*
X80118628Y-140312377D01*
X79377715Y-140165000D01*
X78622285Y-140165000D01*
X77881372Y-140312377D01*
X77183446Y-140601467D01*
X76555330Y-141021161D01*
X76021161Y-141555330D01*
X75601467Y-142183446D01*
X75312377Y-142881372D01*
X75165000Y-143622285D01*
X49710000Y-143622285D01*
X49710000Y-110038531D01*
X49779389Y-110038531D01*
X49821401Y-110328019D01*
X49919081Y-110603747D01*
X49992528Y-110741157D01*
X50241603Y-110818792D01*
X51090395Y-109970000D01*
X51449605Y-109970000D01*
X52298397Y-110818792D01*
X52547472Y-110741157D01*
X52673371Y-110477117D01*
X52745339Y-110193589D01*
X52760611Y-109901469D01*
X52718599Y-109611981D01*
X52620919Y-109336253D01*
X52547472Y-109198843D01*
X52298397Y-109121208D01*
X51449605Y-109970000D01*
X51090395Y-109970000D01*
X50241603Y-109121208D01*
X49992528Y-109198843D01*
X49866629Y-109462883D01*
X49794661Y-109746411D01*
X49779389Y-110038531D01*
X49710000Y-110038531D01*
X49710000Y-102203740D01*
X49785000Y-102203740D01*
X49785000Y-102496260D01*
X49842068Y-102783158D01*
X49954010Y-103053411D01*
X50116525Y-103296632D01*
X50323368Y-103503475D01*
X50497760Y-103620000D01*
X50323368Y-103736525D01*
X50116525Y-103943368D01*
X49954010Y-104186589D01*
X49842068Y-104456842D01*
X49785000Y-104743740D01*
X49785000Y-105036260D01*
X49842068Y-105323158D01*
X49954010Y-105593411D01*
X50116525Y-105836632D01*
X50323368Y-106043475D01*
X50497760Y-106160000D01*
X50323368Y-106276525D01*
X50116525Y-106483368D01*
X49954010Y-106726589D01*
X49842068Y-106996842D01*
X49785000Y-107283740D01*
X49785000Y-107576260D01*
X49842068Y-107863158D01*
X49954010Y-108133411D01*
X50116525Y-108376632D01*
X50323368Y-108583475D01*
X50496729Y-108699311D01*
X50421208Y-108941603D01*
X51270000Y-109790395D01*
X52118792Y-108941603D01*
X52043271Y-108699311D01*
X52216632Y-108583475D01*
X52423475Y-108376632D01*
X52585990Y-108133411D01*
X52697932Y-107863158D01*
X52755000Y-107576260D01*
X52755000Y-107283740D01*
X52697932Y-106996842D01*
X52585990Y-106726589D01*
X52423475Y-106483368D01*
X52216632Y-106276525D01*
X52042240Y-106160000D01*
X52216632Y-106043475D01*
X52423475Y-105836632D01*
X52585990Y-105593411D01*
X52697932Y-105323158D01*
X52755000Y-105036260D01*
X52755000Y-104743740D01*
X52697932Y-104456842D01*
X52585990Y-104186589D01*
X52423475Y-103943368D01*
X52216632Y-103736525D01*
X52042240Y-103620000D01*
X52216632Y-103503475D01*
X52423475Y-103296632D01*
X52585990Y-103053411D01*
X52697932Y-102783158D01*
X52755000Y-102496260D01*
X52755000Y-102203740D01*
X52697932Y-101916842D01*
X52585990Y-101646589D01*
X52423475Y-101403368D01*
X52216632Y-101196525D01*
X51973411Y-101034010D01*
X51703158Y-100922068D01*
X51416260Y-100865000D01*
X51123740Y-100865000D01*
X50836842Y-100922068D01*
X50566589Y-101034010D01*
X50323368Y-101196525D01*
X50116525Y-101403368D01*
X49954010Y-101646589D01*
X49842068Y-101916842D01*
X49785000Y-102203740D01*
X49710000Y-102203740D01*
X49710000Y-85936988D01*
X51534092Y-85936988D01*
X51576557Y-86234171D01*
X51676184Y-86517359D01*
X51754711Y-86664273D01*
X52007769Y-86746626D01*
X52884395Y-85870000D01*
X52007769Y-84993374D01*
X51754711Y-85075727D01*
X51624914Y-85346418D01*
X51550420Y-85637230D01*
X51534092Y-85936988D01*
X49710000Y-85936988D01*
X49710000Y-76034876D01*
X49713435Y-76000000D01*
X49699727Y-75860816D01*
X49659128Y-75726980D01*
X49627000Y-75666873D01*
X49627000Y-75500000D01*
X49624560Y-75475224D01*
X49617333Y-75451399D01*
X49605597Y-75429443D01*
X49589803Y-75410197D01*
X49570557Y-75394403D01*
X49548601Y-75382667D01*
X49524776Y-75375440D01*
X49500000Y-75373000D01*
X49333127Y-75373000D01*
X49273020Y-75340872D01*
X49139184Y-75300273D01*
X49034877Y-75290000D01*
X49000000Y-75286565D01*
X48965123Y-75290000D01*
X33710000Y-75290000D01*
X33710000Y-68582138D01*
X34065300Y-68937438D01*
X34562388Y-69269582D01*
X35114723Y-69498367D01*
X35701079Y-69615000D01*
X36298921Y-69615000D01*
X36885277Y-69498367D01*
X37437612Y-69269582D01*
X37638409Y-69135413D01*
X42004192Y-69135413D01*
X42099956Y-69399814D01*
X42389571Y-69540704D01*
X42701108Y-69622384D01*
X43022595Y-69641718D01*
X43341675Y-69597961D01*
X43646088Y-69492795D01*
X43820044Y-69399814D01*
X43915808Y-69135413D01*
X42960000Y-68179605D01*
X42004192Y-69135413D01*
X37638409Y-69135413D01*
X37934700Y-68937438D01*
X38357438Y-68514700D01*
X38659525Y-68062595D01*
X41318282Y-68062595D01*
X41362039Y-68381675D01*
X41467205Y-68686088D01*
X41560186Y-68860044D01*
X41824587Y-68955808D01*
X42780395Y-68000000D01*
X41824587Y-67044192D01*
X41560186Y-67139956D01*
X41419296Y-67429571D01*
X41337616Y-67741108D01*
X41318282Y-68062595D01*
X38659525Y-68062595D01*
X38689582Y-68017612D01*
X38918367Y-67465277D01*
X39035000Y-66878921D01*
X39035000Y-66281079D01*
X38918367Y-65694723D01*
X38722805Y-65222595D01*
X42708282Y-65222595D01*
X42752039Y-65541675D01*
X42857205Y-65846088D01*
X42950186Y-66020044D01*
X43214587Y-66115808D01*
X44170395Y-65160000D01*
X44529605Y-65160000D01*
X45485413Y-66115808D01*
X45735000Y-66025410D01*
X45984587Y-66115808D01*
X46940395Y-65160000D01*
X45984587Y-64204192D01*
X45735000Y-64294590D01*
X45485413Y-64204192D01*
X44529605Y-65160000D01*
X44170395Y-65160000D01*
X43214587Y-64204192D01*
X42950186Y-64299956D01*
X42809296Y-64589571D01*
X42727616Y-64901108D01*
X42708282Y-65222595D01*
X38722805Y-65222595D01*
X38689582Y-65142388D01*
X38357438Y-64645300D01*
X37934700Y-64222562D01*
X37638410Y-64024587D01*
X43394192Y-64024587D01*
X44350000Y-64980395D01*
X45305808Y-64024587D01*
X46164192Y-64024587D01*
X47120000Y-64980395D01*
X48075808Y-64024587D01*
X47980044Y-63760186D01*
X47690429Y-63619296D01*
X47378892Y-63537616D01*
X47057405Y-63518282D01*
X46738325Y-63562039D01*
X46433912Y-63667205D01*
X46259956Y-63760186D01*
X46164192Y-64024587D01*
X45305808Y-64024587D01*
X45210044Y-63760186D01*
X44920429Y-63619296D01*
X44608892Y-63537616D01*
X44287405Y-63518282D01*
X43968325Y-63562039D01*
X43663912Y-63667205D01*
X43489956Y-63760186D01*
X43394192Y-64024587D01*
X37638410Y-64024587D01*
X37437612Y-63890418D01*
X36885277Y-63661633D01*
X36298921Y-63545000D01*
X35701079Y-63545000D01*
X35114723Y-63661633D01*
X34562388Y-63890418D01*
X34065300Y-64222562D01*
X33710000Y-64577862D01*
X33710000Y-60710000D01*
X121290001Y-60710000D01*
X121290000Y-128141036D01*
X121290000Y-128141036D01*
G37*
X121290000Y-128141036D02*
X120914446Y-127985476D01*
X120308771Y-127865000D01*
X119691229Y-127865000D01*
X119085554Y-127985476D01*
X118515021Y-128221799D01*
X118001554Y-128564886D01*
X117564886Y-129001554D01*
X117221799Y-129515021D01*
X116985476Y-130085554D01*
X116865000Y-130691229D01*
X116865000Y-131308771D01*
X116985476Y-131914446D01*
X117221799Y-132484979D01*
X117564886Y-132998446D01*
X118001554Y-133435114D01*
X118515021Y-133778201D01*
X119085554Y-134014524D01*
X119691229Y-134135000D01*
X120308771Y-134135000D01*
X120914446Y-134014524D01*
X121290000Y-133858964D01*
X121290000Y-154290000D01*
X109065994Y-154290000D01*
X109345325Y-154103357D01*
X109628357Y-153820325D01*
X109850735Y-153487513D01*
X110003911Y-153117713D01*
X110028777Y-152992702D01*
X115186903Y-152992702D01*
X115258486Y-153236671D01*
X115513996Y-153357571D01*
X115788184Y-153426300D01*
X116070512Y-153440217D01*
X116350130Y-153398787D01*
X116616292Y-153303603D01*
X116741514Y-153236671D01*
X116813097Y-152992702D01*
X116000000Y-152179605D01*
X115186903Y-152992702D01*
X110028777Y-152992702D01*
X110082000Y-152725135D01*
X110082000Y-152324865D01*
X110031406Y-152070512D01*
X114559783Y-152070512D01*
X114601213Y-152350130D01*
X114696397Y-152616292D01*
X114763329Y-152741514D01*
X115007298Y-152813097D01*
X115820395Y-152000000D01*
X116179605Y-152000000D01*
X116992702Y-152813097D01*
X117236671Y-152741514D01*
X117357571Y-152486004D01*
X117426300Y-152211816D01*
X117440217Y-151929488D01*
X117398787Y-151649870D01*
X117303603Y-151383708D01*
X117236671Y-151258486D01*
X116992702Y-151186903D01*
X116179605Y-152000000D01*
X115820395Y-152000000D01*
X115007298Y-151186903D01*
X114763329Y-151258486D01*
X114642429Y-151513996D01*
X114573700Y-151788184D01*
X114559783Y-152070512D01*
X110031406Y-152070512D01*
X110003911Y-151932287D01*
X109985567Y-151888001D01*
X110103549Y-151888001D01*
X110140871Y-151891677D01*
X110178193Y-151888001D01*
X110178204Y-151888001D01*
X110289857Y-151877004D01*
X110433118Y-151833547D01*
X110565147Y-151762975D01*
X110680872Y-151668002D01*
X110704675Y-151638998D01*
X111336375Y-151007298D01*
X115186903Y-151007298D01*
X116000000Y-151820395D01*
X116813097Y-151007298D01*
X116741514Y-150763329D01*
X116486004Y-150642429D01*
X116211816Y-150573700D01*
X115929488Y-150559783D01*
X115649870Y-150601213D01*
X115383708Y-150696397D01*
X115258486Y-150763329D01*
X115186903Y-151007298D01*
X111336375Y-151007298D01*
X114561928Y-147781746D01*
X114561928Y-149300000D01*
X114574188Y-149424482D01*
X114610498Y-149544180D01*
X114669463Y-149654494D01*
X114748815Y-149751185D01*
X114845506Y-149830537D01*
X114955820Y-149889502D01*
X115075518Y-149925812D01*
X115200000Y-149938072D01*
X116800000Y-149938072D01*
X116924482Y-149925812D01*
X117044180Y-149889502D01*
X117154494Y-149830537D01*
X117251185Y-149751185D01*
X117330537Y-149654494D01*
X117389502Y-149544180D01*
X117425812Y-149424482D01*
X117438072Y-149300000D01*
X117438072Y-147700000D01*
X117425812Y-147575518D01*
X117389502Y-147455820D01*
X117330537Y-147345506D01*
X117251185Y-147248815D01*
X117154494Y-147169463D01*
X117044180Y-147110498D01*
X116924482Y-147074188D01*
X116800000Y-147061928D01*
X115281746Y-147061928D01*
X116716013Y-145627661D01*
X116745011Y-145603863D01*
X116839984Y-145488138D01*
X116843599Y-145481375D01*
X116986526Y-145623078D01*
X117189467Y-145757421D01*
X117414718Y-145849591D01*
X117452391Y-145853462D01*
X117643000Y-145728731D01*
X117643000Y-144387000D01*
X117897000Y-144387000D01*
X117897000Y-145728731D01*
X118087609Y-145853462D01*
X118125282Y-145849591D01*
X118350533Y-145757421D01*
X118553474Y-145623078D01*
X118726307Y-145451725D01*
X118862390Y-145249946D01*
X118956493Y-145025496D01*
X119005000Y-144787000D01*
X119005000Y-144387000D01*
X117897000Y-144387000D01*
X117643000Y-144387000D01*
X117623000Y-144387000D01*
X117623000Y-144133000D01*
X117643000Y-144133000D01*
X117643000Y-144113000D01*
X117897000Y-144113000D01*
X117897000Y-144133000D01*
X119005000Y-144133000D01*
X119005000Y-143733000D01*
X118956493Y-143494504D01*
X118862390Y-143270054D01*
X118726307Y-143068275D01*
X118553474Y-142896922D01*
X118447135Y-142826528D01*
X118475546Y-142773375D01*
X118493712Y-142713489D01*
X118519003Y-142630114D01*
X118530000Y-142518461D01*
X118530000Y-142518452D01*
X118533676Y-142481129D01*
X118530000Y-142443806D01*
X118530000Y-138113933D01*
X118647502Y-138017502D01*
X118801833Y-137829449D01*
X118916511Y-137614901D01*
X118987130Y-137382101D01*
X119005000Y-137200664D01*
X119005000Y-136279335D01*
X118987130Y-136097898D01*
X118916511Y-135865099D01*
X118801833Y-135650551D01*
X118647502Y-135462498D01*
X118459448Y-135308167D01*
X118244900Y-135193489D01*
X118012101Y-135122870D01*
X117770000Y-135099025D01*
X117527898Y-135122870D01*
X117295099Y-135193489D01*
X117080551Y-135308167D01*
X116892498Y-135462498D01*
X116738167Y-135650552D01*
X116623489Y-135865100D01*
X116552870Y-136097899D01*
X116535000Y-136279336D01*
X116535000Y-137200665D01*
X116552870Y-137382102D01*
X116623489Y-137614901D01*
X116738168Y-137829449D01*
X116892499Y-138017502D01*
X117010000Y-138113933D01*
X117010001Y-142166325D01*
X116146414Y-143029913D01*
X116107502Y-142982498D01*
X115919448Y-142828167D01*
X115704900Y-142713489D01*
X115472101Y-142642870D01*
X115230000Y-142619025D01*
X114987898Y-142642870D01*
X114755099Y-142713489D01*
X114540551Y-142828167D01*
X114352498Y-142982498D01*
X114198167Y-143170552D01*
X114083489Y-143385100D01*
X114012870Y-143617899D01*
X113995000Y-143799336D01*
X113995000Y-144720665D01*
X114012870Y-144902102D01*
X114083489Y-145134901D01*
X114139666Y-145240000D01*
X101314802Y-145240000D01*
X98874667Y-142799865D01*
X106018000Y-142799865D01*
X106018000Y-143200135D01*
X106096089Y-143592713D01*
X106249265Y-143962513D01*
X106471643Y-144295325D01*
X106754675Y-144578357D01*
X107087487Y-144800735D01*
X107457287Y-144953911D01*
X107849865Y-145032000D01*
X108250135Y-145032000D01*
X108642713Y-144953911D01*
X109012513Y-144800735D01*
X109345325Y-144578357D01*
X109628357Y-144295325D01*
X109850735Y-143962513D01*
X110003911Y-143592713D01*
X110082000Y-143200135D01*
X110082000Y-142799865D01*
X110003911Y-142407287D01*
X109850735Y-142037487D01*
X109628357Y-141704675D01*
X109345325Y-141421643D01*
X109012513Y-141199265D01*
X108642713Y-141046089D01*
X108250135Y-140968000D01*
X107849865Y-140968000D01*
X107457287Y-141046089D01*
X107087487Y-141199265D01*
X106754675Y-141421643D01*
X106471643Y-141704675D01*
X106249265Y-142037487D01*
X106096089Y-142407287D01*
X106018000Y-142799865D01*
X98874667Y-142799865D01*
X96260000Y-140185199D01*
X96260000Y-138849039D01*
X100948096Y-138849039D01*
X100988754Y-138983087D01*
X101108963Y-139237420D01*
X101276481Y-139463414D01*
X101484869Y-139652385D01*
X101726119Y-139797070D01*
X101990960Y-139891909D01*
X102213000Y-139770624D01*
X102213000Y-138627000D01*
X102467000Y-138627000D01*
X102467000Y-139770624D01*
X102689040Y-139891909D01*
X102953881Y-139797070D01*
X103195131Y-139652385D01*
X103403519Y-139463414D01*
X103571037Y-139237420D01*
X103691246Y-138983087D01*
X103731904Y-138849039D01*
X103609915Y-138627000D01*
X102467000Y-138627000D01*
X102213000Y-138627000D01*
X101070085Y-138627000D01*
X100948096Y-138849039D01*
X96260000Y-138849039D01*
X96260000Y-138500000D01*
X110736323Y-138500000D01*
X110750997Y-138648986D01*
X110794454Y-138792247D01*
X110865026Y-138924276D01*
X110959999Y-139040001D01*
X111075724Y-139134974D01*
X111207753Y-139205546D01*
X111255186Y-139219934D01*
X111385363Y-139414759D01*
X111585241Y-139614637D01*
X111820273Y-139771680D01*
X112081426Y-139879853D01*
X112358665Y-139935000D01*
X112641335Y-139935000D01*
X112918574Y-139879853D01*
X113179727Y-139771680D01*
X113414759Y-139614637D01*
X113614637Y-139414759D01*
X113718043Y-139260000D01*
X113832678Y-139260000D01*
X113870000Y-139263676D01*
X113907322Y-139260000D01*
X113907333Y-139260000D01*
X114018986Y-139249003D01*
X114162247Y-139205546D01*
X114294276Y-139134974D01*
X114410001Y-139040001D01*
X114433803Y-139010998D01*
X115078726Y-138366076D01*
X115230000Y-138380975D01*
X115472102Y-138357130D01*
X115704901Y-138286511D01*
X115919449Y-138171833D01*
X116107502Y-138017502D01*
X116261833Y-137829449D01*
X116376511Y-137614901D01*
X116447130Y-137382101D01*
X116465000Y-137200664D01*
X116465000Y-136279335D01*
X116447130Y-136097898D01*
X116376511Y-135865099D01*
X116261833Y-135650551D01*
X116107502Y-135462498D01*
X115919448Y-135308167D01*
X115704900Y-135193489D01*
X115472101Y-135122870D01*
X115230000Y-135099025D01*
X114987898Y-135122870D01*
X114755099Y-135193489D01*
X114540551Y-135308167D01*
X114352498Y-135462498D01*
X114198167Y-135650552D01*
X114083489Y-135865100D01*
X114012870Y-136097899D01*
X113995000Y-136279336D01*
X113995000Y-137200665D01*
X114003924Y-137291274D01*
X113652817Y-137642382D01*
X113614637Y-137585241D01*
X113414759Y-137385363D01*
X113179727Y-137228320D01*
X112918574Y-137120147D01*
X112641335Y-137065000D01*
X112358665Y-137065000D01*
X112081426Y-137120147D01*
X111820273Y-137228320D01*
X111585241Y-137385363D01*
X111385363Y-137585241D01*
X111255186Y-137780066D01*
X111207753Y-137794454D01*
X111075724Y-137865026D01*
X110959999Y-137959999D01*
X110865026Y-138075724D01*
X110794454Y-138207753D01*
X110750997Y-138351014D01*
X110736323Y-138500000D01*
X96260000Y-138500000D01*
X96260000Y-138150961D01*
X100948096Y-138150961D01*
X101070085Y-138373000D01*
X102213000Y-138373000D01*
X102213000Y-137229376D01*
X102467000Y-137229376D01*
X102467000Y-138373000D01*
X103609915Y-138373000D01*
X103731904Y-138150961D01*
X103691246Y-138016913D01*
X103571037Y-137762580D01*
X103403519Y-137536586D01*
X103195131Y-137347615D01*
X102953881Y-137202930D01*
X102689040Y-137108091D01*
X102467000Y-137229376D01*
X102213000Y-137229376D01*
X101990960Y-137108091D01*
X101726119Y-137202930D01*
X101484869Y-137347615D01*
X101276481Y-137536586D01*
X101108963Y-137762580D01*
X100988754Y-138016913D01*
X100948096Y-138150961D01*
X96260000Y-138150961D01*
X96260000Y-137607802D01*
X96515021Y-137778201D01*
X97085554Y-138014524D01*
X97691229Y-138135000D01*
X98308771Y-138135000D01*
X98914446Y-138014524D01*
X99484979Y-137778201D01*
X99998446Y-137435114D01*
X100435114Y-136998446D01*
X100778201Y-136484979D01*
X101014524Y-135914446D01*
X101135000Y-135308771D01*
X101135000Y-134691229D01*
X101014524Y-134085554D01*
X100778201Y-133515021D01*
X100435114Y-133001554D01*
X100393560Y-132960000D01*
X106215123Y-132960000D01*
X106250000Y-132963435D01*
X106284877Y-132960000D01*
X106389184Y-132949727D01*
X106523020Y-132909128D01*
X106646363Y-132843200D01*
X106754475Y-132754475D01*
X106843200Y-132646363D01*
X106909128Y-132523020D01*
X106949727Y-132389184D01*
X106963435Y-132250000D01*
X106960000Y-132215123D01*
X106960000Y-115784877D01*
X106963435Y-115750000D01*
X106949727Y-115610816D01*
X106909128Y-115476980D01*
X106843200Y-115353637D01*
X106754475Y-115245525D01*
X106646363Y-115156800D01*
X106523020Y-115090872D01*
X106389184Y-115050273D01*
X106284877Y-115040000D01*
X106250000Y-115036565D01*
X106215123Y-115040000D01*
X100219608Y-115040000D01*
X100203150Y-115023542D01*
X100621118Y-114747373D01*
X100911649Y-114202443D01*
X101090287Y-113611304D01*
X101150168Y-112996672D01*
X101088990Y-112382169D01*
X100909103Y-111791408D01*
X100621118Y-111252627D01*
X100203148Y-110976457D01*
X98179605Y-113000000D01*
X98193748Y-113014143D01*
X98014143Y-113193748D01*
X98000000Y-113179605D01*
X97985858Y-113193748D01*
X97806253Y-113014143D01*
X97820395Y-113000000D01*
X95796852Y-110976457D01*
X95378882Y-111252627D01*
X95088351Y-111797557D01*
X94909713Y-112388696D01*
X94849832Y-113003328D01*
X94911010Y-113617831D01*
X95090897Y-114208592D01*
X95378882Y-114747373D01*
X95796850Y-115023542D01*
X95780392Y-115040000D01*
X89784877Y-115040000D01*
X89750000Y-115036565D01*
X89715123Y-115040000D01*
X89610816Y-115050273D01*
X89476980Y-115090872D01*
X89353637Y-115156800D01*
X89245525Y-115245525D01*
X89156800Y-115353637D01*
X89090872Y-115476980D01*
X89050273Y-115610816D01*
X89036565Y-115750000D01*
X89040001Y-115784887D01*
X89040000Y-131959998D01*
X88924276Y-131865026D01*
X88792247Y-131794454D01*
X88648986Y-131750997D01*
X88537333Y-131740000D01*
X88537322Y-131740000D01*
X88500000Y-131736324D01*
X88462678Y-131740000D01*
X84814802Y-131740000D01*
X81398688Y-128323887D01*
X81435000Y-128141335D01*
X81435000Y-127858665D01*
X81379853Y-127581426D01*
X81271680Y-127320273D01*
X81124499Y-127100000D01*
X82961928Y-127100000D01*
X82961928Y-128900000D01*
X82974188Y-129024482D01*
X83010498Y-129144180D01*
X83069463Y-129254494D01*
X83148815Y-129351185D01*
X83245506Y-129430537D01*
X83355820Y-129489502D01*
X83475518Y-129525812D01*
X83600000Y-129538072D01*
X85400000Y-129538072D01*
X85524482Y-129525812D01*
X85644180Y-129489502D01*
X85754494Y-129430537D01*
X85851185Y-129351185D01*
X85930537Y-129254494D01*
X85989502Y-129144180D01*
X86025812Y-129024482D01*
X86038072Y-128900000D01*
X86038072Y-127100000D01*
X86025812Y-126975518D01*
X85989502Y-126855820D01*
X85930537Y-126745506D01*
X85851185Y-126648815D01*
X85754494Y-126569463D01*
X85644180Y-126510498D01*
X85524482Y-126474188D01*
X85400000Y-126461928D01*
X83600000Y-126461928D01*
X83475518Y-126474188D01*
X83355820Y-126510498D01*
X83245506Y-126569463D01*
X83148815Y-126648815D01*
X83069463Y-126745506D01*
X83010498Y-126855820D01*
X82974188Y-126975518D01*
X82961928Y-127100000D01*
X81124499Y-127100000D01*
X81114637Y-127085241D01*
X80914759Y-126885363D01*
X80679727Y-126728320D01*
X80418574Y-126620147D01*
X80141335Y-126565000D01*
X79858665Y-126565000D01*
X79581426Y-126620147D01*
X79320273Y-126728320D01*
X79085241Y-126885363D01*
X78885363Y-127085241D01*
X78760000Y-127272860D01*
X78760000Y-118564268D01*
X78801068Y-118641101D01*
X78980392Y-118859608D01*
X79198899Y-119038932D01*
X79448192Y-119172182D01*
X79718691Y-119254236D01*
X79929508Y-119275000D01*
X80070492Y-119275000D01*
X80281309Y-119254236D01*
X80551808Y-119172182D01*
X80801101Y-119038932D01*
X81019608Y-118859608D01*
X81198932Y-118641101D01*
X81332182Y-118391808D01*
X81388927Y-118204741D01*
X83008959Y-118204741D01*
X83108766Y-118488620D01*
X83262038Y-118747573D01*
X83462884Y-118971649D01*
X83703586Y-119152236D01*
X83974893Y-119282394D01*
X84135260Y-119331036D01*
X84373000Y-119210378D01*
X84373000Y-117967000D01*
X84627000Y-117967000D01*
X84627000Y-119210378D01*
X84864740Y-119331036D01*
X85025107Y-119282394D01*
X85296414Y-119152236D01*
X85537116Y-118971649D01*
X85737962Y-118747573D01*
X85891234Y-118488620D01*
X85991041Y-118204741D01*
X85870992Y-117967000D01*
X84627000Y-117967000D01*
X84373000Y-117967000D01*
X83129008Y-117967000D01*
X83008959Y-118204741D01*
X81388927Y-118204741D01*
X81414236Y-118121309D01*
X81441943Y-117840000D01*
X81414236Y-117558691D01*
X81332182Y-117288192D01*
X81198932Y-117038899D01*
X81019608Y-116820392D01*
X80946020Y-116760000D01*
X83416589Y-116760000D01*
X83262038Y-116932427D01*
X83108766Y-117191380D01*
X83008959Y-117475259D01*
X83129008Y-117713000D01*
X84373000Y-117713000D01*
X84373000Y-117693000D01*
X84627000Y-117693000D01*
X84627000Y-117713000D01*
X85870992Y-117713000D01*
X85991041Y-117475259D01*
X85891234Y-117191380D01*
X85737962Y-116932427D01*
X85583411Y-116760000D01*
X86962678Y-116760000D01*
X87000000Y-116763676D01*
X87037322Y-116760000D01*
X87037333Y-116760000D01*
X87148986Y-116749003D01*
X87292247Y-116705546D01*
X87424276Y-116634974D01*
X87540001Y-116540001D01*
X87563804Y-116510997D01*
X93277949Y-110796852D01*
X95976457Y-110796852D01*
X98000000Y-112820395D01*
X100023543Y-110796852D01*
X99747373Y-110378882D01*
X99202443Y-110088351D01*
X98611304Y-109909713D01*
X97996672Y-109849832D01*
X97382169Y-109911010D01*
X96791408Y-110090897D01*
X96252627Y-110378882D01*
X95976457Y-110796852D01*
X93277949Y-110796852D01*
X96314802Y-107760000D01*
X106328612Y-107760000D01*
X106373844Y-107869199D01*
X106574662Y-108169744D01*
X106830256Y-108425338D01*
X107130801Y-108626156D01*
X107464750Y-108764482D01*
X107819268Y-108835000D01*
X108180732Y-108835000D01*
X108535250Y-108764482D01*
X108869199Y-108626156D01*
X109169744Y-108425338D01*
X109425338Y-108169744D01*
X109626156Y-107869199D01*
X109764482Y-107535250D01*
X109835000Y-107180732D01*
X109835000Y-106819268D01*
X109764482Y-106464750D01*
X109626156Y-106130801D01*
X109425338Y-105830256D01*
X109169744Y-105574662D01*
X108869199Y-105373844D01*
X108535250Y-105235518D01*
X108180732Y-105165000D01*
X107819268Y-105165000D01*
X107464750Y-105235518D01*
X107130801Y-105373844D01*
X106830256Y-105574662D01*
X106574662Y-105830256D01*
X106373844Y-106130801D01*
X106328612Y-106240000D01*
X96462646Y-106240000D01*
X98942646Y-103760000D01*
X108685199Y-103760000D01*
X111280750Y-106355551D01*
X111235518Y-106464750D01*
X111165000Y-106819268D01*
X111165000Y-107180732D01*
X111235518Y-107535250D01*
X111373844Y-107869199D01*
X111574662Y-108169744D01*
X111830256Y-108425338D01*
X112130801Y-108626156D01*
X112464750Y-108764482D01*
X112819268Y-108835000D01*
X113180732Y-108835000D01*
X113535250Y-108764482D01*
X113869199Y-108626156D01*
X114169744Y-108425338D01*
X114425338Y-108169744D01*
X114626156Y-107869199D01*
X114764482Y-107535250D01*
X114835000Y-107180732D01*
X114835000Y-106819268D01*
X114764482Y-106464750D01*
X114626156Y-106130801D01*
X114425338Y-105830256D01*
X114169744Y-105574662D01*
X113869199Y-105373844D01*
X113535250Y-105235518D01*
X113180732Y-105165000D01*
X112819268Y-105165000D01*
X112464750Y-105235518D01*
X112355551Y-105280750D01*
X109563804Y-102489003D01*
X109540001Y-102459999D01*
X109424276Y-102365026D01*
X109292247Y-102294454D01*
X109148986Y-102250997D01*
X109037333Y-102240000D01*
X109037322Y-102240000D01*
X109000000Y-102236324D01*
X108962678Y-102240000D01*
X98665167Y-102240000D01*
X98627844Y-102236324D01*
X98590521Y-102240000D01*
X98590511Y-102240000D01*
X98478858Y-102250997D01*
X98335597Y-102294454D01*
X98203567Y-102365026D01*
X98131018Y-102424566D01*
X98087843Y-102459999D01*
X98064045Y-102488997D01*
X97760000Y-102793042D01*
X97760000Y-91729045D01*
X98011019Y-91478026D01*
X98040023Y-91454223D01*
X98100053Y-91381076D01*
X98134996Y-91338499D01*
X98205568Y-91206469D01*
X98228343Y-91131387D01*
X98249025Y-91063208D01*
X98260022Y-90951555D01*
X98260022Y-90951545D01*
X98263698Y-90914222D01*
X98260022Y-90876899D01*
X98260022Y-86765101D01*
X98263698Y-86727778D01*
X98260022Y-86690455D01*
X98260022Y-86690445D01*
X98249025Y-86578792D01*
X98205568Y-86435531D01*
X98199552Y-86424276D01*
X98134996Y-86303501D01*
X98079864Y-86236324D01*
X98040023Y-86187777D01*
X98011020Y-86163975D01*
X97760000Y-85912955D01*
X97760000Y-80834801D01*
X100011201Y-83086003D01*
X100035000Y-83115002D01*
X100063998Y-83138800D01*
X100150724Y-83209975D01*
X100282754Y-83280547D01*
X100426015Y-83324004D01*
X100537668Y-83335001D01*
X100537678Y-83335001D01*
X100575001Y-83338677D01*
X100612324Y-83335001D01*
X102826753Y-83335001D01*
X102183446Y-83601467D01*
X101555330Y-84021161D01*
X101021161Y-84555330D01*
X100601467Y-85183446D01*
X100312377Y-85881372D01*
X100165000Y-86622285D01*
X100165000Y-87377715D01*
X100312377Y-88118628D01*
X100601467Y-88816554D01*
X101021161Y-89444670D01*
X101555330Y-89978839D01*
X102183446Y-90398533D01*
X102881372Y-90687623D01*
X103622285Y-90835000D01*
X104377715Y-90835000D01*
X105118628Y-90687623D01*
X105816554Y-90398533D01*
X106444670Y-89978839D01*
X106978839Y-89444670D01*
X107398533Y-88816554D01*
X107687623Y-88118628D01*
X107835000Y-87377715D01*
X107835000Y-86622285D01*
X107687623Y-85881372D01*
X107398533Y-85183446D01*
X106978839Y-84555330D01*
X106444670Y-84021161D01*
X105816554Y-83601467D01*
X105173247Y-83335001D01*
X108260200Y-83335001D01*
X110601312Y-85676114D01*
X110565000Y-85858665D01*
X110565000Y-86141335D01*
X110620147Y-86418574D01*
X110728320Y-86679727D01*
X110885363Y-86914759D01*
X111085241Y-87114637D01*
X111320273Y-87271680D01*
X111581426Y-87379853D01*
X111858665Y-87435000D01*
X112141335Y-87435000D01*
X112418574Y-87379853D01*
X112679727Y-87271680D01*
X112914759Y-87114637D01*
X113036694Y-86992702D01*
X117186903Y-86992702D01*
X117258486Y-87236671D01*
X117513996Y-87357571D01*
X117788184Y-87426300D01*
X118070512Y-87440217D01*
X118350130Y-87398787D01*
X118616292Y-87303603D01*
X118741514Y-87236671D01*
X118813097Y-86992702D01*
X118000000Y-86179605D01*
X117186903Y-86992702D01*
X113036694Y-86992702D01*
X113114637Y-86914759D01*
X113271680Y-86679727D01*
X113379853Y-86418574D01*
X113435000Y-86141335D01*
X113435000Y-86070512D01*
X116559783Y-86070512D01*
X116601213Y-86350130D01*
X116696397Y-86616292D01*
X116763329Y-86741514D01*
X117007298Y-86813097D01*
X117820395Y-86000000D01*
X118179605Y-86000000D01*
X118992702Y-86813097D01*
X119236671Y-86741514D01*
X119357571Y-86486004D01*
X119426300Y-86211816D01*
X119440217Y-85929488D01*
X119398787Y-85649870D01*
X119303603Y-85383708D01*
X119236671Y-85258486D01*
X118992702Y-85186903D01*
X118179605Y-86000000D01*
X117820395Y-86000000D01*
X117007298Y-85186903D01*
X116763329Y-85258486D01*
X116642429Y-85513996D01*
X116573700Y-85788184D01*
X116559783Y-86070512D01*
X113435000Y-86070512D01*
X113435000Y-85858665D01*
X113379853Y-85581426D01*
X113271680Y-85320273D01*
X113114637Y-85085241D01*
X113036694Y-85007298D01*
X117186903Y-85007298D01*
X118000000Y-85820395D01*
X118813097Y-85007298D01*
X118741514Y-84763329D01*
X118486004Y-84642429D01*
X118211816Y-84573700D01*
X117929488Y-84559783D01*
X117649870Y-84601213D01*
X117383708Y-84696397D01*
X117258486Y-84763329D01*
X117186903Y-85007298D01*
X113036694Y-85007298D01*
X112914759Y-84885363D01*
X112760000Y-84781957D01*
X112760000Y-82154801D01*
X117674095Y-77240708D01*
X117718691Y-77254236D01*
X117929508Y-77275000D01*
X118070492Y-77275000D01*
X118281309Y-77254236D01*
X118551808Y-77172182D01*
X118801101Y-77038932D01*
X119019608Y-76859608D01*
X119198932Y-76641101D01*
X119332182Y-76391808D01*
X119414236Y-76121309D01*
X119441943Y-75840000D01*
X119414236Y-75558691D01*
X119332182Y-75288192D01*
X119198932Y-75038899D01*
X119019608Y-74820392D01*
X118801101Y-74641068D01*
X118551808Y-74507818D01*
X118281309Y-74425764D01*
X118070492Y-74405000D01*
X117929508Y-74405000D01*
X117718691Y-74425764D01*
X117448192Y-74507818D01*
X117198899Y-74641068D01*
X116980392Y-74820392D01*
X116801068Y-75038899D01*
X116667818Y-75288192D01*
X116585764Y-75558691D01*
X116558057Y-75840000D01*
X116585764Y-76121309D01*
X116599292Y-76165905D01*
X111488998Y-81276201D01*
X111460000Y-81299999D01*
X111436202Y-81328997D01*
X111436201Y-81328998D01*
X111365026Y-81415724D01*
X111294454Y-81547754D01*
X111250998Y-81691015D01*
X111236324Y-81840000D01*
X111240001Y-81877332D01*
X111240000Y-84165199D01*
X109138805Y-82064004D01*
X109115002Y-82035000D01*
X108999277Y-81940027D01*
X108867248Y-81869455D01*
X108723987Y-81825998D01*
X108647184Y-81818433D01*
X108764482Y-81535250D01*
X108835000Y-81180732D01*
X108835000Y-80819268D01*
X108764482Y-80464750D01*
X108626156Y-80130801D01*
X108425338Y-79830256D01*
X108169744Y-79574662D01*
X107869199Y-79373844D01*
X107535250Y-79235518D01*
X107180732Y-79165000D01*
X107102499Y-79165000D01*
X107168325Y-79006081D01*
X107235000Y-78670883D01*
X107235000Y-78329117D01*
X107168325Y-77993919D01*
X107037537Y-77678169D01*
X106847663Y-77394002D01*
X106605998Y-77152337D01*
X106321831Y-76962463D01*
X106171032Y-76900000D01*
X106321831Y-76837537D01*
X106605998Y-76647663D01*
X106847663Y-76405998D01*
X107037537Y-76121831D01*
X107168325Y-75806081D01*
X107235000Y-75470883D01*
X107235000Y-75129117D01*
X107168325Y-74793919D01*
X107037537Y-74478169D01*
X106847663Y-74194002D01*
X106605998Y-73952337D01*
X106321831Y-73762463D01*
X106171032Y-73700000D01*
X106321831Y-73637537D01*
X106605998Y-73447663D01*
X106847663Y-73205998D01*
X107037537Y-72921831D01*
X107168325Y-72606081D01*
X107225760Y-72317338D01*
X110575125Y-75666704D01*
X110558057Y-75840000D01*
X110585764Y-76121309D01*
X110667818Y-76391808D01*
X110801068Y-76641101D01*
X110980392Y-76859608D01*
X111198899Y-77038932D01*
X111448192Y-77172182D01*
X111718691Y-77254236D01*
X111929508Y-77275000D01*
X112070492Y-77275000D01*
X112281309Y-77254236D01*
X112551808Y-77172182D01*
X112801101Y-77038932D01*
X113019608Y-76859608D01*
X113198932Y-76641101D01*
X113332182Y-76391808D01*
X113414236Y-76121309D01*
X113441943Y-75840000D01*
X113414236Y-75558691D01*
X113332182Y-75288192D01*
X113198932Y-75038899D01*
X113019608Y-74820392D01*
X112801101Y-74641068D01*
X112551808Y-74507818D01*
X112281309Y-74425764D01*
X112070492Y-74405000D01*
X111929508Y-74405000D01*
X111826704Y-74415125D01*
X104716533Y-67304955D01*
X104688816Y-67271182D01*
X104554058Y-67160588D01*
X104400312Y-67078410D01*
X104233489Y-67027804D01*
X104103476Y-67014999D01*
X104103468Y-67014999D01*
X104059999Y-67010718D01*
X104016530Y-67014999D01*
X98043689Y-67014999D01*
X98085676Y-66936447D01*
X98150577Y-66722499D01*
X98167000Y-66555752D01*
X98167000Y-65444248D01*
X98150577Y-65277501D01*
X98085676Y-65063553D01*
X97980284Y-64866377D01*
X97838449Y-64693551D01*
X97665623Y-64551716D01*
X97468446Y-64446324D01*
X97254498Y-64381423D01*
X97032000Y-64359509D01*
X96809501Y-64381423D01*
X96595553Y-64446324D01*
X96398377Y-64551716D01*
X96358900Y-64584114D01*
X96319423Y-64551716D01*
X96122246Y-64446324D01*
X95908298Y-64381423D01*
X95685800Y-64359509D01*
X95463301Y-64381423D01*
X95249353Y-64446324D01*
X95052177Y-64551716D01*
X95000000Y-64594537D01*
X94947823Y-64551716D01*
X94750646Y-64446324D01*
X94536698Y-64381423D01*
X94314200Y-64359509D01*
X94091701Y-64381423D01*
X93877753Y-64446324D01*
X93680577Y-64551716D01*
X93641100Y-64584114D01*
X93601623Y-64551716D01*
X93404446Y-64446324D01*
X93190498Y-64381423D01*
X92968000Y-64359509D01*
X92745501Y-64381423D01*
X92531553Y-64446324D01*
X92334377Y-64551716D01*
X92161551Y-64693551D01*
X92019716Y-64866377D01*
X91914324Y-65063554D01*
X91849423Y-65277502D01*
X91833000Y-65444249D01*
X91833000Y-66555752D01*
X91849423Y-66722499D01*
X91914324Y-66936447D01*
X91956311Y-67014999D01*
X90426578Y-67014999D01*
X90013706Y-66602127D01*
X90034000Y-66500101D01*
X90034000Y-66199899D01*
X89975434Y-65905466D01*
X89860551Y-65628115D01*
X89693768Y-65378507D01*
X89481493Y-65166232D01*
X89231885Y-64999449D01*
X88954534Y-64884566D01*
X88660101Y-64826000D01*
X88359899Y-64826000D01*
X88065466Y-64884566D01*
X87788115Y-64999449D01*
X87538507Y-65166232D01*
X87326232Y-65378507D01*
X87159449Y-65628115D01*
X87044566Y-65905466D01*
X86986000Y-66199899D01*
X86986000Y-66500101D01*
X87006294Y-66602127D01*
X70427033Y-83181389D01*
X70435000Y-83141335D01*
X70435000Y-82858665D01*
X70379853Y-82581426D01*
X70271680Y-82320273D01*
X70114637Y-82085241D01*
X69914759Y-81885363D01*
X69679727Y-81728320D01*
X69418574Y-81620147D01*
X69141335Y-81565000D01*
X68858665Y-81565000D01*
X68581426Y-81620147D01*
X68320273Y-81728320D01*
X68085241Y-81885363D01*
X67885363Y-82085241D01*
X67728320Y-82320273D01*
X67620147Y-82581426D01*
X67565000Y-82858665D01*
X67565000Y-83141335D01*
X67620147Y-83418574D01*
X67728320Y-83679727D01*
X67885363Y-83914759D01*
X68085241Y-84114637D01*
X68320273Y-84271680D01*
X68581426Y-84379853D01*
X68858665Y-84435000D01*
X69141335Y-84435000D01*
X69181389Y-84427033D01*
X66404956Y-87203466D01*
X66371183Y-87231183D01*
X66260589Y-87365942D01*
X66178411Y-87519688D01*
X66143439Y-87634974D01*
X66128600Y-87683891D01*
X66127805Y-87686511D01*
X66115000Y-87816524D01*
X66115000Y-87816531D01*
X66110719Y-87860000D01*
X66115000Y-87903469D01*
X66115001Y-100461544D01*
X66082795Y-100509744D01*
X66004774Y-100698102D01*
X65965000Y-100898061D01*
X65965000Y-101101939D01*
X66004774Y-101301898D01*
X66082795Y-101490256D01*
X66196063Y-101659774D01*
X66340226Y-101803937D01*
X66509744Y-101917205D01*
X66698102Y-101995226D01*
X66898061Y-102035000D01*
X67101939Y-102035000D01*
X67301898Y-101995226D01*
X67490256Y-101917205D01*
X67659774Y-101803937D01*
X67803937Y-101659774D01*
X67917205Y-101490256D01*
X67995226Y-101301898D01*
X68035000Y-101101939D01*
X68035000Y-100898061D01*
X67995226Y-100698102D01*
X67917205Y-100509744D01*
X67885000Y-100461546D01*
X67885000Y-88226578D01*
X71071679Y-85039899D01*
X72826000Y-85039899D01*
X72826000Y-85340101D01*
X72884566Y-85634534D01*
X72999449Y-85911885D01*
X73166232Y-86161493D01*
X73378507Y-86373768D01*
X73507562Y-86460000D01*
X73378507Y-86546232D01*
X73166232Y-86758507D01*
X72999449Y-87008115D01*
X72884566Y-87285466D01*
X72826000Y-87579899D01*
X72826000Y-87880101D01*
X72884566Y-88174534D01*
X72999449Y-88451885D01*
X73166232Y-88701493D01*
X73378507Y-88913768D01*
X73507562Y-89000000D01*
X73378507Y-89086232D01*
X73166232Y-89298507D01*
X72999449Y-89548115D01*
X72884566Y-89825466D01*
X72826000Y-90119899D01*
X72826000Y-90420101D01*
X72884566Y-90714534D01*
X72999449Y-90991885D01*
X73166232Y-91241493D01*
X73378507Y-91453768D01*
X73507562Y-91540000D01*
X73378507Y-91626232D01*
X73166232Y-91838507D01*
X72999449Y-92088115D01*
X72884566Y-92365466D01*
X72826000Y-92659899D01*
X72826000Y-92960101D01*
X72884566Y-93254534D01*
X72999449Y-93531885D01*
X73166232Y-93781493D01*
X73378507Y-93993768D01*
X73628115Y-94160551D01*
X73905466Y-94275434D01*
X74199899Y-94334000D01*
X74500101Y-94334000D01*
X74794534Y-94275434D01*
X75071885Y-94160551D01*
X75321493Y-93993768D01*
X75533768Y-93781493D01*
X75700551Y-93531885D01*
X75815434Y-93254534D01*
X75874000Y-92960101D01*
X75874000Y-92659899D01*
X75815434Y-92365466D01*
X75700551Y-92088115D01*
X75533768Y-91838507D01*
X75321493Y-91626232D01*
X75192438Y-91540000D01*
X75321493Y-91453768D01*
X75533768Y-91241493D01*
X75700551Y-90991885D01*
X75815434Y-90714534D01*
X75874000Y-90420101D01*
X75874000Y-90119899D01*
X75815434Y-89825466D01*
X75700551Y-89548115D01*
X75533768Y-89298507D01*
X75321493Y-89086232D01*
X75192438Y-89000000D01*
X75321493Y-88913768D01*
X75533768Y-88701493D01*
X75700551Y-88451885D01*
X75815434Y-88174534D01*
X75874000Y-87880101D01*
X75874000Y-87579899D01*
X75815434Y-87285466D01*
X75700551Y-87008115D01*
X75533768Y-86758507D01*
X75321493Y-86546232D01*
X75192438Y-86460000D01*
X75321493Y-86373768D01*
X75533768Y-86161493D01*
X75700551Y-85911885D01*
X75815434Y-85634534D01*
X75874000Y-85340101D01*
X75874000Y-85039899D01*
X75815434Y-84745466D01*
X75700551Y-84468115D01*
X75533768Y-84218507D01*
X75321493Y-84006232D01*
X75071885Y-83839449D01*
X74794534Y-83724566D01*
X74500101Y-83666000D01*
X74199899Y-83666000D01*
X73905466Y-83724566D01*
X73628115Y-83839449D01*
X73378507Y-84006232D01*
X73166232Y-84218507D01*
X72999449Y-84468115D01*
X72884566Y-84745466D01*
X72826000Y-85039899D01*
X71071679Y-85039899D01*
X82074590Y-74036988D01*
X86980092Y-74036988D01*
X87022557Y-74334171D01*
X87122184Y-74617359D01*
X87200711Y-74764273D01*
X87453769Y-74846626D01*
X88330395Y-73970000D01*
X87453769Y-73093374D01*
X87200711Y-73175727D01*
X87070914Y-73446418D01*
X86996420Y-73737230D01*
X86980092Y-74036988D01*
X82074590Y-74036988D01*
X87000182Y-69111397D01*
X87044566Y-69334534D01*
X87159449Y-69611885D01*
X87326232Y-69861493D01*
X87538507Y-70073768D01*
X87667562Y-70160000D01*
X87538507Y-70246232D01*
X87326232Y-70458507D01*
X87159449Y-70708115D01*
X87044566Y-70985466D01*
X86986000Y-71279899D01*
X86986000Y-71580101D01*
X87044566Y-71874534D01*
X87159449Y-72151885D01*
X87326232Y-72401493D01*
X87538507Y-72613768D01*
X87696622Y-72719417D01*
X87633374Y-72913769D01*
X88510000Y-73790395D01*
X89386626Y-72913769D01*
X89323378Y-72719417D01*
X89481493Y-72613768D01*
X89693768Y-72401493D01*
X89860551Y-72151885D01*
X89975434Y-71874534D01*
X90034000Y-71580101D01*
X90034000Y-71279899D01*
X89975434Y-70985466D01*
X89860551Y-70708115D01*
X89693768Y-70458507D01*
X89481493Y-70246232D01*
X89352438Y-70160000D01*
X89481493Y-70073768D01*
X89693768Y-69861493D01*
X89860551Y-69611885D01*
X89975434Y-69334534D01*
X90034000Y-69040101D01*
X90034000Y-68786720D01*
X90059999Y-68789280D01*
X90103468Y-68784999D01*
X99351394Y-68784999D01*
X99235518Y-69064750D01*
X99165000Y-69419268D01*
X99165000Y-69780732D01*
X99235518Y-70135250D01*
X99373844Y-70469199D01*
X99574662Y-70769744D01*
X99779918Y-70975000D01*
X92965752Y-70975000D01*
X92910000Y-70969509D01*
X92687501Y-70991423D01*
X92473553Y-71056324D01*
X92276377Y-71161716D01*
X92146856Y-71268011D01*
X92146854Y-71268013D01*
X92103551Y-71303551D01*
X92068013Y-71346854D01*
X89948411Y-73466457D01*
X89897816Y-73322641D01*
X89819289Y-73175727D01*
X89566231Y-73093374D01*
X88689605Y-73970000D01*
X88703748Y-73984143D01*
X88524143Y-74163748D01*
X88510000Y-74149605D01*
X87633374Y-75026231D01*
X87696622Y-75220583D01*
X87538507Y-75326232D01*
X87326232Y-75538507D01*
X87159449Y-75788115D01*
X87044566Y-76065466D01*
X86986000Y-76359899D01*
X86986000Y-76660101D01*
X87044566Y-76954534D01*
X87159449Y-77231885D01*
X87326232Y-77481493D01*
X87538507Y-77693768D01*
X87788115Y-77860551D01*
X88065466Y-77975434D01*
X88359899Y-78034000D01*
X88660101Y-78034000D01*
X88954534Y-77975434D01*
X89231885Y-77860551D01*
X89481493Y-77693768D01*
X89693768Y-77481493D01*
X89860551Y-77231885D01*
X89975434Y-76954534D01*
X90034000Y-76660101D01*
X90034000Y-76591131D01*
X93380133Y-73245000D01*
X101181339Y-73245000D01*
X101394002Y-73457663D01*
X101678169Y-73647537D01*
X101816897Y-73705000D01*
X101678169Y-73762463D01*
X101394002Y-73952337D01*
X101152337Y-74194002D01*
X100962463Y-74478169D01*
X100831675Y-74793919D01*
X100765000Y-75129117D01*
X100765000Y-75470883D01*
X100831675Y-75806081D01*
X100962463Y-76121831D01*
X101152337Y-76405998D01*
X101394002Y-76647663D01*
X101678169Y-76837537D01*
X101828968Y-76900000D01*
X101678169Y-76962463D01*
X101394002Y-77152337D01*
X101152337Y-77394002D01*
X100962463Y-77678169D01*
X100831675Y-77993919D01*
X100765000Y-78329117D01*
X100765000Y-78670883D01*
X100831675Y-79006081D01*
X100962463Y-79321831D01*
X101152337Y-79605998D01*
X101394002Y-79847663D01*
X101678169Y-80037537D01*
X101993919Y-80168325D01*
X102329117Y-80235000D01*
X102670883Y-80235000D01*
X103006081Y-80168325D01*
X103321831Y-80037537D01*
X103605998Y-79847663D01*
X103847663Y-79605998D01*
X104000000Y-79378009D01*
X104152337Y-79605998D01*
X104394002Y-79847663D01*
X104678169Y-80037537D01*
X104993919Y-80168325D01*
X105329117Y-80235000D01*
X105330683Y-80235000D01*
X105235518Y-80464750D01*
X105165000Y-80819268D01*
X105165000Y-81180732D01*
X105235518Y-81535250D01*
X105351394Y-81815001D01*
X100889803Y-81815001D01*
X97563804Y-78489003D01*
X97540001Y-78459999D01*
X97424276Y-78365026D01*
X97292247Y-78294454D01*
X97148986Y-78250997D01*
X97037333Y-78240000D01*
X97037322Y-78240000D01*
X97000000Y-78236324D01*
X96962678Y-78240000D01*
X89037322Y-78240000D01*
X88999999Y-78236324D01*
X88962676Y-78240000D01*
X88962667Y-78240000D01*
X88851014Y-78250997D01*
X88707753Y-78294454D01*
X88575724Y-78365026D01*
X88459999Y-78459999D01*
X88436201Y-78488997D01*
X84488998Y-82436201D01*
X84460000Y-82459999D01*
X84436202Y-82488997D01*
X84436201Y-82488998D01*
X84365026Y-82575724D01*
X84294454Y-82707754D01*
X84275104Y-82771545D01*
X84250998Y-82851014D01*
X84249399Y-82867247D01*
X84236324Y-83000000D01*
X84240001Y-83037332D01*
X84240000Y-86685198D01*
X59175199Y-111750000D01*
X59005549Y-111750000D01*
X58995226Y-111698102D01*
X58917205Y-111509744D01*
X58803937Y-111340226D01*
X58659774Y-111196063D01*
X58490256Y-111082795D01*
X58301898Y-111004774D01*
X58101939Y-110965000D01*
X57898061Y-110965000D01*
X57698102Y-111004774D01*
X57509744Y-111082795D01*
X57340226Y-111196063D01*
X57196063Y-111340226D01*
X57082795Y-111509744D01*
X57004774Y-111698102D01*
X56965000Y-111898061D01*
X56965000Y-112101939D01*
X57004774Y-112301898D01*
X57082795Y-112490256D01*
X57196063Y-112659774D01*
X57340226Y-112803937D01*
X57509744Y-112917205D01*
X57698102Y-112995226D01*
X57898061Y-113035000D01*
X57957688Y-113035000D01*
X57969999Y-113050001D01*
X58043146Y-113110031D01*
X58085723Y-113144974D01*
X58150513Y-113179605D01*
X58217753Y-113215546D01*
X58361014Y-113259003D01*
X58472667Y-113270000D01*
X58472677Y-113270000D01*
X58510000Y-113273676D01*
X58547323Y-113270000D01*
X59452678Y-113270000D01*
X59490000Y-113273676D01*
X59527322Y-113270000D01*
X59527333Y-113270000D01*
X59638986Y-113259003D01*
X59782247Y-113215546D01*
X59914276Y-113144974D01*
X60030001Y-113050001D01*
X60053804Y-113020997D01*
X85511004Y-87563798D01*
X85540001Y-87540001D01*
X85573906Y-87498688D01*
X85634974Y-87424277D01*
X85705546Y-87292247D01*
X85715990Y-87257816D01*
X85749003Y-87148986D01*
X85760000Y-87037333D01*
X85760000Y-87037323D01*
X85763676Y-87000000D01*
X85760000Y-86962677D01*
X85760000Y-85256988D01*
X86120092Y-85256988D01*
X86162557Y-85554171D01*
X86262184Y-85837359D01*
X86340711Y-85984273D01*
X86593769Y-86066626D01*
X87470395Y-85190000D01*
X87829605Y-85190000D01*
X88706231Y-86066626D01*
X88959289Y-85984273D01*
X89089086Y-85713582D01*
X89163580Y-85422770D01*
X89179908Y-85123012D01*
X89137443Y-84825829D01*
X89037816Y-84542641D01*
X88959289Y-84395727D01*
X88706231Y-84313374D01*
X87829605Y-85190000D01*
X87470395Y-85190000D01*
X86593769Y-84313374D01*
X86340711Y-84395727D01*
X86210914Y-84666418D01*
X86136420Y-84957230D01*
X86120092Y-85256988D01*
X85760000Y-85256988D01*
X85760000Y-84133769D01*
X86773374Y-84133769D01*
X87650000Y-85010395D01*
X88526626Y-84133769D01*
X88444273Y-83880711D01*
X88173582Y-83750914D01*
X87882770Y-83676420D01*
X87583012Y-83660092D01*
X87285829Y-83702557D01*
X87002641Y-83802184D01*
X86855727Y-83880711D01*
X86773374Y-84133769D01*
X85760000Y-84133769D01*
X85760000Y-83314801D01*
X89314802Y-79760000D01*
X93253525Y-79760000D01*
X93214997Y-79887016D01*
X93200323Y-80036001D01*
X93204000Y-80073333D01*
X93203999Y-82028676D01*
X93200323Y-82065999D01*
X93203999Y-82103321D01*
X93203999Y-82103331D01*
X93214996Y-82214984D01*
X93235554Y-82282755D01*
X93258453Y-82358245D01*
X93329025Y-82490275D01*
X93368870Y-82538825D01*
X93423998Y-82606000D01*
X93453002Y-82629803D01*
X93753623Y-82930425D01*
X93704000Y-83179899D01*
X93704000Y-83480101D01*
X93762566Y-83774534D01*
X93877449Y-84051885D01*
X94044232Y-84301493D01*
X94256507Y-84513768D01*
X94385562Y-84600000D01*
X94256507Y-84686232D01*
X94044232Y-84898507D01*
X93877449Y-85148115D01*
X93762566Y-85425466D01*
X93704000Y-85719899D01*
X93704000Y-86020101D01*
X93762566Y-86314534D01*
X93877449Y-86591885D01*
X94044232Y-86841493D01*
X94256507Y-87053768D01*
X94414622Y-87159417D01*
X94351374Y-87353769D01*
X95228000Y-88230395D01*
X95242143Y-88216253D01*
X95421748Y-88395858D01*
X95407605Y-88410000D01*
X95421748Y-88424143D01*
X95242143Y-88603748D01*
X95228000Y-88589605D01*
X94351374Y-89466231D01*
X94365618Y-89510000D01*
X88975083Y-89510000D01*
X88833768Y-89298507D01*
X88621493Y-89086232D01*
X88492438Y-89000000D01*
X88621493Y-88913768D01*
X88833768Y-88701493D01*
X88983777Y-88476988D01*
X93698092Y-88476988D01*
X93740557Y-88774171D01*
X93840184Y-89057359D01*
X93918711Y-89204273D01*
X94171769Y-89286626D01*
X95048395Y-88410000D01*
X94171769Y-87533374D01*
X93918711Y-87615727D01*
X93788914Y-87886418D01*
X93714420Y-88177230D01*
X93698092Y-88476988D01*
X88983777Y-88476988D01*
X89000551Y-88451885D01*
X89115434Y-88174534D01*
X89174000Y-87880101D01*
X89174000Y-87579899D01*
X89115434Y-87285466D01*
X89000551Y-87008115D01*
X88833768Y-86758507D01*
X88621493Y-86546232D01*
X88463378Y-86440583D01*
X88526626Y-86246231D01*
X87650000Y-85369605D01*
X86773374Y-86246231D01*
X86836622Y-86440583D01*
X86678507Y-86546232D01*
X86466232Y-86758507D01*
X86299449Y-87008115D01*
X86184566Y-87285466D01*
X86126000Y-87579899D01*
X86126000Y-87799198D01*
X52312653Y-121612546D01*
X52216632Y-121516525D01*
X52042240Y-121400000D01*
X52216632Y-121283475D01*
X52423475Y-121076632D01*
X52585990Y-120833411D01*
X52697932Y-120563158D01*
X52755000Y-120276260D01*
X52755000Y-119983740D01*
X52697932Y-119696842D01*
X52585990Y-119426589D01*
X52423475Y-119183368D01*
X52216632Y-118976525D01*
X52042240Y-118860000D01*
X52216632Y-118743475D01*
X52423475Y-118536632D01*
X52585990Y-118293411D01*
X52697932Y-118023158D01*
X52755000Y-117736260D01*
X52755000Y-117443740D01*
X52711209Y-117223592D01*
X55926004Y-114008798D01*
X55955002Y-113985000D01*
X56049975Y-113869275D01*
X56120547Y-113737246D01*
X56164004Y-113593985D01*
X56175001Y-113482332D01*
X56175001Y-113482324D01*
X56178677Y-113444999D01*
X56175001Y-113407674D01*
X56175001Y-82858665D01*
X59565000Y-82858665D01*
X59565000Y-83141335D01*
X59620147Y-83418574D01*
X59728320Y-83679727D01*
X59885363Y-83914759D01*
X60085241Y-84114637D01*
X60320273Y-84271680D01*
X60581426Y-84379853D01*
X60858665Y-84435000D01*
X61141335Y-84435000D01*
X61418574Y-84379853D01*
X61679727Y-84271680D01*
X61914759Y-84114637D01*
X62114637Y-83914759D01*
X62271680Y-83679727D01*
X62379853Y-83418574D01*
X62435000Y-83141335D01*
X62435000Y-82858665D01*
X63565000Y-82858665D01*
X63565000Y-83141335D01*
X63620147Y-83418574D01*
X63728320Y-83679727D01*
X63885363Y-83914759D01*
X64085241Y-84114637D01*
X64320273Y-84271680D01*
X64581426Y-84379853D01*
X64858665Y-84435000D01*
X65141335Y-84435000D01*
X65418574Y-84379853D01*
X65679727Y-84271680D01*
X65914759Y-84114637D01*
X66114637Y-83914759D01*
X66271680Y-83679727D01*
X66379853Y-83418574D01*
X66435000Y-83141335D01*
X66435000Y-82858665D01*
X66379853Y-82581426D01*
X66271680Y-82320273D01*
X66114637Y-82085241D01*
X65914759Y-81885363D01*
X65679727Y-81728320D01*
X65418574Y-81620147D01*
X65141335Y-81565000D01*
X64858665Y-81565000D01*
X64581426Y-81620147D01*
X64320273Y-81728320D01*
X64085241Y-81885363D01*
X63885363Y-82085241D01*
X63728320Y-82320273D01*
X63620147Y-82581426D01*
X63565000Y-82858665D01*
X62435000Y-82858665D01*
X62379853Y-82581426D01*
X62271680Y-82320273D01*
X62114637Y-82085241D01*
X61914759Y-81885363D01*
X61679727Y-81728320D01*
X61418574Y-81620147D01*
X61141335Y-81565000D01*
X60858665Y-81565000D01*
X60581426Y-81620147D01*
X60320273Y-81728320D01*
X60085241Y-81885363D01*
X59885363Y-82085241D01*
X59728320Y-82320273D01*
X59620147Y-82581426D01*
X59565000Y-82858665D01*
X56175001Y-82858665D01*
X56175001Y-72840000D01*
X59558057Y-72840000D01*
X59585764Y-73121309D01*
X59667818Y-73391808D01*
X59801068Y-73641101D01*
X59980392Y-73859608D01*
X60198899Y-74038932D01*
X60448192Y-74172182D01*
X60718691Y-74254236D01*
X60929508Y-74275000D01*
X61070492Y-74275000D01*
X61281309Y-74254236D01*
X61551808Y-74172182D01*
X61801101Y-74038932D01*
X62019608Y-73859608D01*
X62198932Y-73641101D01*
X62332182Y-73391808D01*
X62414236Y-73121309D01*
X62441943Y-72840000D01*
X63558057Y-72840000D01*
X63585764Y-73121309D01*
X63667818Y-73391808D01*
X63801068Y-73641101D01*
X63980392Y-73859608D01*
X64198899Y-74038932D01*
X64448192Y-74172182D01*
X64718691Y-74254236D01*
X64929508Y-74275000D01*
X65070492Y-74275000D01*
X65281309Y-74254236D01*
X65551808Y-74172182D01*
X65801101Y-74038932D01*
X66019608Y-73859608D01*
X66198932Y-73641101D01*
X66332182Y-73391808D01*
X66414236Y-73121309D01*
X66441943Y-72840000D01*
X67558057Y-72840000D01*
X67585764Y-73121309D01*
X67667818Y-73391808D01*
X67801068Y-73641101D01*
X67980392Y-73859608D01*
X68198899Y-74038932D01*
X68448192Y-74172182D01*
X68718691Y-74254236D01*
X68929508Y-74275000D01*
X69070492Y-74275000D01*
X69281309Y-74254236D01*
X69551808Y-74172182D01*
X69801101Y-74038932D01*
X70019608Y-73859608D01*
X70198932Y-73641101D01*
X70332182Y-73391808D01*
X70414236Y-73121309D01*
X70441943Y-72840000D01*
X70414236Y-72558691D01*
X70332182Y-72288192D01*
X70198932Y-72038899D01*
X70019608Y-71820392D01*
X69801101Y-71641068D01*
X69551808Y-71507818D01*
X69281309Y-71425764D01*
X69070492Y-71405000D01*
X68929508Y-71405000D01*
X68718691Y-71425764D01*
X68448192Y-71507818D01*
X68198899Y-71641068D01*
X67980392Y-71820392D01*
X67801068Y-72038899D01*
X67667818Y-72288192D01*
X67585764Y-72558691D01*
X67558057Y-72840000D01*
X66441943Y-72840000D01*
X66414236Y-72558691D01*
X66332182Y-72288192D01*
X66198932Y-72038899D01*
X66019608Y-71820392D01*
X65801101Y-71641068D01*
X65551808Y-71507818D01*
X65281309Y-71425764D01*
X65070492Y-71405000D01*
X64929508Y-71405000D01*
X64718691Y-71425764D01*
X64448192Y-71507818D01*
X64198899Y-71641068D01*
X63980392Y-71820392D01*
X63801068Y-72038899D01*
X63667818Y-72288192D01*
X63585764Y-72558691D01*
X63558057Y-72840000D01*
X62441943Y-72840000D01*
X62414236Y-72558691D01*
X62332182Y-72288192D01*
X62198932Y-72038899D01*
X62019608Y-71820392D01*
X61801101Y-71641068D01*
X61551808Y-71507818D01*
X61281309Y-71425764D01*
X61070492Y-71405000D01*
X60929508Y-71405000D01*
X60718691Y-71425764D01*
X60448192Y-71507818D01*
X60198899Y-71641068D01*
X59980392Y-71820392D01*
X59801068Y-72038899D01*
X59667818Y-72288192D01*
X59585764Y-72558691D01*
X59558057Y-72840000D01*
X56175001Y-72840000D01*
X56175001Y-66281079D01*
X57965000Y-66281079D01*
X57965000Y-66878921D01*
X58081633Y-67465277D01*
X58310418Y-68017612D01*
X58642562Y-68514700D01*
X59065300Y-68937438D01*
X59562388Y-69269582D01*
X60114723Y-69498367D01*
X60701079Y-69615000D01*
X61298921Y-69615000D01*
X61885277Y-69498367D01*
X62437612Y-69269582D01*
X62934700Y-68937438D01*
X63357438Y-68514700D01*
X63689582Y-68017612D01*
X63918367Y-67465277D01*
X64035000Y-66878921D01*
X64035000Y-66281079D01*
X63918367Y-65694723D01*
X63888363Y-65622285D01*
X64165000Y-65622285D01*
X64165000Y-66377715D01*
X64312377Y-67118628D01*
X64601467Y-67816554D01*
X65021161Y-68444670D01*
X65555330Y-68978839D01*
X66183446Y-69398533D01*
X66881372Y-69687623D01*
X67622285Y-69835000D01*
X68377715Y-69835000D01*
X69118628Y-69687623D01*
X69816554Y-69398533D01*
X70444670Y-68978839D01*
X70978839Y-68444670D01*
X71398533Y-67816554D01*
X71687623Y-67118628D01*
X71835000Y-66377715D01*
X71835000Y-65622285D01*
X71687623Y-64881372D01*
X71398533Y-64183446D01*
X70978839Y-63555330D01*
X70444670Y-63021161D01*
X69816554Y-62601467D01*
X69118628Y-62312377D01*
X68377715Y-62165000D01*
X67622285Y-62165000D01*
X66881372Y-62312377D01*
X66183446Y-62601467D01*
X65555330Y-63021161D01*
X65021161Y-63555330D01*
X64601467Y-64183446D01*
X64312377Y-64881372D01*
X64165000Y-65622285D01*
X63888363Y-65622285D01*
X63689582Y-65142388D01*
X63357438Y-64645300D01*
X62934700Y-64222562D01*
X62437612Y-63890418D01*
X61885277Y-63661633D01*
X61298921Y-63545000D01*
X60701079Y-63545000D01*
X60114723Y-63661633D01*
X59562388Y-63890418D01*
X59065300Y-64222562D01*
X58642562Y-64645300D01*
X58310418Y-65142388D01*
X58081633Y-65694723D01*
X57965000Y-66281079D01*
X56175001Y-66281079D01*
X56175001Y-65952323D01*
X56178677Y-65915000D01*
X56175001Y-65877677D01*
X56175001Y-65877668D01*
X56164004Y-65766015D01*
X56120547Y-65622754D01*
X56049975Y-65490725D01*
X55955002Y-65375000D01*
X55926005Y-65351203D01*
X53563804Y-62989003D01*
X53540001Y-62959999D01*
X53424276Y-62865026D01*
X53292247Y-62794454D01*
X53148986Y-62750997D01*
X53037333Y-62740000D01*
X53037322Y-62740000D01*
X53000000Y-62736324D01*
X52962678Y-62740000D01*
X51577333Y-62740000D01*
X51540000Y-62736323D01*
X51502667Y-62740000D01*
X51391014Y-62750997D01*
X51247753Y-62794454D01*
X51115724Y-62865026D01*
X50999999Y-62959999D01*
X50976201Y-62988997D01*
X50371375Y-63593823D01*
X50356912Y-63587832D01*
X50041033Y-63525000D01*
X49718967Y-63525000D01*
X49403088Y-63587832D01*
X49105537Y-63711082D01*
X48837748Y-63890013D01*
X48610013Y-64117748D01*
X48494413Y-64290756D01*
X48255413Y-64204192D01*
X47299605Y-65160000D01*
X48255413Y-66115808D01*
X48494413Y-66029244D01*
X48610013Y-66202252D01*
X48800503Y-66392742D01*
X48661033Y-66365000D01*
X48338967Y-66365000D01*
X48028216Y-66426812D01*
X48075808Y-66295413D01*
X47120000Y-65339605D01*
X46164192Y-66295413D01*
X46213078Y-66430386D01*
X46206912Y-66427832D01*
X45891033Y-66365000D01*
X45568967Y-66365000D01*
X45258216Y-66426812D01*
X45305808Y-66295413D01*
X44350000Y-65339605D01*
X43394192Y-66295413D01*
X43445483Y-66437024D01*
X43218892Y-66377616D01*
X42897405Y-66358282D01*
X42578325Y-66402039D01*
X42273912Y-66507205D01*
X42099956Y-66600186D01*
X42004192Y-66864587D01*
X42960000Y-67820395D01*
X43915808Y-66864587D01*
X43864517Y-66722976D01*
X44091108Y-66782384D01*
X44412595Y-66801718D01*
X44648377Y-66769384D01*
X44460013Y-66957748D01*
X44342464Y-67133672D01*
X44095413Y-67044192D01*
X43139605Y-68000000D01*
X44095413Y-68955808D01*
X44342464Y-68866328D01*
X44460013Y-69042252D01*
X44687748Y-69269987D01*
X44955537Y-69448918D01*
X45253088Y-69572168D01*
X45568967Y-69635000D01*
X45891033Y-69635000D01*
X46206912Y-69572168D01*
X46504463Y-69448918D01*
X46772252Y-69269987D01*
X46999987Y-69042252D01*
X47115000Y-68870123D01*
X47230013Y-69042252D01*
X47457748Y-69269987D01*
X47725537Y-69448918D01*
X48023088Y-69572168D01*
X48338967Y-69635000D01*
X48661033Y-69635000D01*
X48976912Y-69572168D01*
X49274463Y-69448918D01*
X49542252Y-69269987D01*
X49769987Y-69042252D01*
X49885000Y-68870123D01*
X50000013Y-69042252D01*
X50227748Y-69269987D01*
X50495537Y-69448918D01*
X50793088Y-69572168D01*
X51108967Y-69635000D01*
X51431033Y-69635000D01*
X51538769Y-69613570D01*
X53240000Y-71314802D01*
X53240001Y-79271152D01*
X53214101Y-79266000D01*
X52913899Y-79266000D01*
X52619466Y-79324566D01*
X52342115Y-79439449D01*
X52092507Y-79606232D01*
X51880232Y-79818507D01*
X51713449Y-80068115D01*
X51598566Y-80345466D01*
X51540000Y-80639899D01*
X51540000Y-80940101D01*
X51598566Y-81234534D01*
X51713449Y-81511885D01*
X51880232Y-81761493D01*
X52092507Y-81973768D01*
X52221562Y-82060000D01*
X52092507Y-82146232D01*
X51880232Y-82358507D01*
X51713449Y-82608115D01*
X51598566Y-82885466D01*
X51540000Y-83179899D01*
X51540000Y-83480101D01*
X51598566Y-83774534D01*
X51713449Y-84051885D01*
X51880232Y-84301493D01*
X52092507Y-84513768D01*
X52250622Y-84619417D01*
X52187374Y-84813769D01*
X53064000Y-85690395D01*
X53078143Y-85676253D01*
X53257748Y-85855858D01*
X53243605Y-85870000D01*
X53257748Y-85884143D01*
X53078143Y-86063748D01*
X53064000Y-86049605D01*
X52187374Y-86926231D01*
X52250622Y-87120583D01*
X52092507Y-87226232D01*
X51880232Y-87438507D01*
X51713449Y-87688115D01*
X51598566Y-87965466D01*
X51540000Y-88259899D01*
X51540000Y-88560101D01*
X51598566Y-88854534D01*
X51713449Y-89131885D01*
X51880232Y-89381493D01*
X52092507Y-89593768D01*
X52221562Y-89680000D01*
X52092507Y-89766232D01*
X51880232Y-89978507D01*
X51713449Y-90228115D01*
X51598566Y-90505466D01*
X51540000Y-90799899D01*
X51540000Y-91100101D01*
X51598566Y-91394534D01*
X51713449Y-91671885D01*
X51880232Y-91921493D01*
X52092507Y-92133768D01*
X52342115Y-92300551D01*
X52619466Y-92415434D01*
X52913899Y-92474000D01*
X53214101Y-92474000D01*
X53508534Y-92415434D01*
X53568001Y-92390802D01*
X53568002Y-111677195D01*
X52755000Y-112490198D01*
X52755000Y-112363740D01*
X52697932Y-112076842D01*
X52585990Y-111806589D01*
X52423475Y-111563368D01*
X52216632Y-111356525D01*
X52043271Y-111240689D01*
X52118792Y-110998397D01*
X51270000Y-110149605D01*
X50421208Y-110998397D01*
X50496729Y-111240689D01*
X50323368Y-111356525D01*
X50116525Y-111563368D01*
X49954010Y-111806589D01*
X49842068Y-112076842D01*
X49785000Y-112363740D01*
X49785000Y-112656260D01*
X49842068Y-112943158D01*
X49954010Y-113213411D01*
X50116525Y-113456632D01*
X50323368Y-113663475D01*
X50497760Y-113780000D01*
X50323368Y-113896525D01*
X50116525Y-114103368D01*
X49954010Y-114346589D01*
X49842068Y-114616842D01*
X49785000Y-114903740D01*
X49785000Y-115196260D01*
X49842068Y-115483158D01*
X49954010Y-115753411D01*
X50116525Y-115996632D01*
X50323368Y-116203475D01*
X50497760Y-116320000D01*
X50323368Y-116436525D01*
X50116525Y-116643368D01*
X49954010Y-116886589D01*
X49842068Y-117156842D01*
X49785000Y-117443740D01*
X49785000Y-117736260D01*
X49842068Y-118023158D01*
X49954010Y-118293411D01*
X50116525Y-118536632D01*
X50323368Y-118743475D01*
X50497760Y-118860000D01*
X50323368Y-118976525D01*
X50116525Y-119183368D01*
X49954010Y-119426589D01*
X49842068Y-119696842D01*
X49785000Y-119983740D01*
X49785000Y-120276260D01*
X49842068Y-120563158D01*
X49954010Y-120833411D01*
X50116525Y-121076632D01*
X50323368Y-121283475D01*
X50497760Y-121400000D01*
X50323368Y-121516525D01*
X50116525Y-121723368D01*
X49954010Y-121966589D01*
X49842068Y-122236842D01*
X49785000Y-122523740D01*
X49785000Y-122816260D01*
X49842068Y-123103158D01*
X49954010Y-123373411D01*
X50116525Y-123616632D01*
X50323368Y-123823475D01*
X50497760Y-123940000D01*
X50323368Y-124056525D01*
X50116525Y-124263368D01*
X49954010Y-124506589D01*
X49842068Y-124776842D01*
X49785000Y-125063740D01*
X49785000Y-125356260D01*
X49842068Y-125643158D01*
X49954010Y-125913411D01*
X50116525Y-126156632D01*
X50323368Y-126363475D01*
X50497760Y-126480000D01*
X50323368Y-126596525D01*
X50116525Y-126803368D01*
X49954010Y-127046589D01*
X49842068Y-127316842D01*
X49785000Y-127603740D01*
X49785000Y-127896260D01*
X49842068Y-128183158D01*
X49954010Y-128453411D01*
X50116525Y-128696632D01*
X50323368Y-128903475D01*
X50497760Y-129020000D01*
X50323368Y-129136525D01*
X50116525Y-129343368D01*
X49954010Y-129586589D01*
X49842068Y-129856842D01*
X49785000Y-130143740D01*
X49785000Y-130436260D01*
X49842068Y-130723158D01*
X49954010Y-130993411D01*
X50116525Y-131236632D01*
X50323368Y-131443475D01*
X50497760Y-131560000D01*
X50323368Y-131676525D01*
X50116525Y-131883368D01*
X49954010Y-132126589D01*
X49842068Y-132396842D01*
X49785000Y-132683740D01*
X49785000Y-132976260D01*
X49842068Y-133263158D01*
X49954010Y-133533411D01*
X50116525Y-133776632D01*
X50323368Y-133983475D01*
X50497760Y-134100000D01*
X50323368Y-134216525D01*
X50116525Y-134423368D01*
X49954010Y-134666589D01*
X49842068Y-134936842D01*
X49785000Y-135223740D01*
X49785000Y-135516260D01*
X49842068Y-135803158D01*
X49954010Y-136073411D01*
X50116525Y-136316632D01*
X50323368Y-136523475D01*
X50497760Y-136640000D01*
X50323368Y-136756525D01*
X50116525Y-136963368D01*
X49954010Y-137206589D01*
X49842068Y-137476842D01*
X49785000Y-137763740D01*
X49785000Y-138056260D01*
X49842068Y-138343158D01*
X49954010Y-138613411D01*
X50116525Y-138856632D01*
X50323368Y-139063475D01*
X50497760Y-139180000D01*
X50323368Y-139296525D01*
X50116525Y-139503368D01*
X49954010Y-139746589D01*
X49842068Y-140016842D01*
X49785000Y-140303740D01*
X49785000Y-140596260D01*
X49842068Y-140883158D01*
X49954010Y-141153411D01*
X50116525Y-141396632D01*
X50323368Y-141603475D01*
X50566589Y-141765990D01*
X50836842Y-141877932D01*
X51123740Y-141935000D01*
X51416260Y-141935000D01*
X51703158Y-141877932D01*
X51973411Y-141765990D01*
X52216632Y-141603475D01*
X52423475Y-141396632D01*
X52585990Y-141153411D01*
X52697932Y-140883158D01*
X52755000Y-140596260D01*
X52755000Y-140303740D01*
X52697932Y-140016842D01*
X52585990Y-139746589D01*
X52423475Y-139503368D01*
X52216632Y-139296525D01*
X52042240Y-139180000D01*
X52216632Y-139063475D01*
X52423475Y-138856632D01*
X52585990Y-138613411D01*
X52697932Y-138343158D01*
X52755000Y-138056260D01*
X52755000Y-137763740D01*
X52711209Y-137543592D01*
X53005998Y-137248803D01*
X53035002Y-137225000D01*
X53129975Y-137109275D01*
X53200547Y-136977246D01*
X53244004Y-136833985D01*
X53255001Y-136722332D01*
X53255001Y-136722322D01*
X53258677Y-136684999D01*
X53255001Y-136647676D01*
X53255001Y-135186798D01*
X70237217Y-118204583D01*
X70274010Y-118293411D01*
X70436525Y-118536632D01*
X70643368Y-118743475D01*
X70817760Y-118860000D01*
X70643368Y-118976525D01*
X70436525Y-119183368D01*
X70274010Y-119426589D01*
X70162068Y-119696842D01*
X70105000Y-119983740D01*
X70105000Y-120276260D01*
X70162068Y-120563158D01*
X70274010Y-120833411D01*
X70436525Y-121076632D01*
X70643368Y-121283475D01*
X70817760Y-121400000D01*
X70643368Y-121516525D01*
X70436525Y-121723368D01*
X70274010Y-121966589D01*
X70162068Y-122236842D01*
X70105000Y-122523740D01*
X70105000Y-122816260D01*
X70162068Y-123103158D01*
X70274010Y-123373411D01*
X70436525Y-123616632D01*
X70643368Y-123823475D01*
X70817760Y-123940000D01*
X70643368Y-124056525D01*
X70436525Y-124263368D01*
X70274010Y-124506589D01*
X70162068Y-124776842D01*
X70105000Y-125063740D01*
X70105000Y-125356260D01*
X70162068Y-125643158D01*
X70274010Y-125913411D01*
X70436525Y-126156632D01*
X70643368Y-126363475D01*
X70817760Y-126480000D01*
X70643368Y-126596525D01*
X70436525Y-126803368D01*
X70274010Y-127046589D01*
X70162068Y-127316842D01*
X70105000Y-127603740D01*
X70105000Y-127896260D01*
X70162068Y-128183158D01*
X70274010Y-128453411D01*
X70436525Y-128696632D01*
X70643368Y-128903475D01*
X70817760Y-129020000D01*
X70643368Y-129136525D01*
X70436525Y-129343368D01*
X70274010Y-129586589D01*
X70162068Y-129856842D01*
X70105000Y-130143740D01*
X70105000Y-130436260D01*
X70162068Y-130723158D01*
X70274010Y-130993411D01*
X70436525Y-131236632D01*
X70643368Y-131443475D01*
X70817760Y-131560000D01*
X70643368Y-131676525D01*
X70436525Y-131883368D01*
X70274010Y-132126589D01*
X70162068Y-132396842D01*
X70105000Y-132683740D01*
X70105000Y-132976260D01*
X70162068Y-133263158D01*
X70274010Y-133533411D01*
X70436525Y-133776632D01*
X70643368Y-133983475D01*
X70817760Y-134100000D01*
X70643368Y-134216525D01*
X70436525Y-134423368D01*
X70274010Y-134666589D01*
X70162068Y-134936842D01*
X70105000Y-135223740D01*
X70105000Y-135516260D01*
X70162068Y-135803158D01*
X70274010Y-136073411D01*
X70436525Y-136316632D01*
X70643368Y-136523475D01*
X70817760Y-136640000D01*
X70643368Y-136756525D01*
X70436525Y-136963368D01*
X70274010Y-137206589D01*
X70162068Y-137476842D01*
X70105000Y-137763740D01*
X70105000Y-138056260D01*
X70162068Y-138343158D01*
X70274010Y-138613411D01*
X70436525Y-138856632D01*
X70643368Y-139063475D01*
X70817760Y-139180000D01*
X70643368Y-139296525D01*
X70436525Y-139503368D01*
X70274010Y-139746589D01*
X70162068Y-140016842D01*
X70105000Y-140303740D01*
X70105000Y-140596260D01*
X70162068Y-140883158D01*
X70274010Y-141153411D01*
X70436525Y-141396632D01*
X70643368Y-141603475D01*
X70886589Y-141765990D01*
X71156842Y-141877932D01*
X71443740Y-141935000D01*
X71736260Y-141935000D01*
X72023158Y-141877932D01*
X72293411Y-141765990D01*
X72536632Y-141603475D01*
X72743475Y-141396632D01*
X72905990Y-141153411D01*
X73017932Y-140883158D01*
X73075000Y-140596260D01*
X73075000Y-140303740D01*
X73017932Y-140016842D01*
X72905990Y-139746589D01*
X72799764Y-139587609D01*
X83646538Y-139587609D01*
X83650409Y-139625282D01*
X83742579Y-139850533D01*
X83876922Y-140053474D01*
X84048275Y-140226307D01*
X84250054Y-140362390D01*
X84474504Y-140456493D01*
X84713000Y-140505000D01*
X85113000Y-140505000D01*
X85113000Y-139397000D01*
X85367000Y-139397000D01*
X85367000Y-140505000D01*
X85767000Y-140505000D01*
X86005496Y-140456493D01*
X86229946Y-140362390D01*
X86431725Y-140226307D01*
X86603078Y-140053474D01*
X86737421Y-139850533D01*
X86829591Y-139625282D01*
X86833462Y-139587609D01*
X86708731Y-139397000D01*
X85367000Y-139397000D01*
X85113000Y-139397000D01*
X83771269Y-139397000D01*
X83646538Y-139587609D01*
X72799764Y-139587609D01*
X72743475Y-139503368D01*
X72536632Y-139296525D01*
X72362240Y-139180000D01*
X72536632Y-139063475D01*
X72647716Y-138952391D01*
X83646538Y-138952391D01*
X83771269Y-139143000D01*
X85113000Y-139143000D01*
X85113000Y-138035000D01*
X85367000Y-138035000D01*
X85367000Y-139143000D01*
X86708731Y-139143000D01*
X86833462Y-138952391D01*
X86829591Y-138914718D01*
X86737421Y-138689467D01*
X86603078Y-138486526D01*
X86431725Y-138313693D01*
X86229946Y-138177610D01*
X86005496Y-138083507D01*
X85767000Y-138035000D01*
X85367000Y-138035000D01*
X85113000Y-138035000D01*
X84713000Y-138035000D01*
X84474504Y-138083507D01*
X84250054Y-138177610D01*
X84048275Y-138313693D01*
X83876922Y-138486526D01*
X83742579Y-138689467D01*
X83650409Y-138914718D01*
X83646538Y-138952391D01*
X72647716Y-138952391D01*
X72743475Y-138856632D01*
X72905990Y-138613411D01*
X73017932Y-138343158D01*
X73075000Y-138056260D01*
X73075000Y-137763740D01*
X73017932Y-137476842D01*
X72905990Y-137206589D01*
X72743475Y-136963368D01*
X72536632Y-136756525D01*
X72496935Y-136730000D01*
X83599025Y-136730000D01*
X83622870Y-136972102D01*
X83693489Y-137204901D01*
X83808167Y-137419449D01*
X83962498Y-137607502D01*
X84150551Y-137761833D01*
X84365099Y-137876511D01*
X84597898Y-137947130D01*
X84779335Y-137965000D01*
X85700665Y-137965000D01*
X85882102Y-137947130D01*
X86114901Y-137876511D01*
X86329449Y-137761833D01*
X86517502Y-137607502D01*
X86671833Y-137419449D01*
X86786511Y-137204901D01*
X86857130Y-136972102D01*
X86880975Y-136730000D01*
X86857130Y-136487898D01*
X86786511Y-136255099D01*
X86671833Y-136040551D01*
X86517502Y-135852498D01*
X86329449Y-135698167D01*
X86114901Y-135583489D01*
X85882102Y-135512870D01*
X85700665Y-135495000D01*
X84779335Y-135495000D01*
X84597898Y-135512870D01*
X84365099Y-135583489D01*
X84150551Y-135698167D01*
X83962498Y-135852498D01*
X83808167Y-136040551D01*
X83693489Y-136255099D01*
X83622870Y-136487898D01*
X83599025Y-136730000D01*
X72496935Y-136730000D01*
X72362240Y-136640000D01*
X72536632Y-136523475D01*
X72743475Y-136316632D01*
X72905990Y-136073411D01*
X73017932Y-135803158D01*
X73075000Y-135516260D01*
X73075000Y-135223740D01*
X73031209Y-135003592D01*
X73042099Y-134992702D01*
X76686903Y-134992702D01*
X76758486Y-135236671D01*
X77013996Y-135357571D01*
X77288184Y-135426300D01*
X77570512Y-135440217D01*
X77850130Y-135398787D01*
X78116292Y-135303603D01*
X78241514Y-135236671D01*
X78313097Y-134992702D01*
X77500000Y-134179605D01*
X76686903Y-134992702D01*
X73042099Y-134992702D01*
X73964289Y-134070512D01*
X76059783Y-134070512D01*
X76101213Y-134350130D01*
X76196397Y-134616292D01*
X76263329Y-134741514D01*
X76507298Y-134813097D01*
X77320395Y-134000000D01*
X77679605Y-134000000D01*
X78492702Y-134813097D01*
X78736671Y-134741514D01*
X78857571Y-134486004D01*
X78926300Y-134211816D01*
X78940217Y-133929488D01*
X78898787Y-133649870D01*
X78803603Y-133383708D01*
X78736671Y-133258486D01*
X78492702Y-133186903D01*
X77679605Y-134000000D01*
X77320395Y-134000000D01*
X76507298Y-133186903D01*
X76263329Y-133258486D01*
X76142429Y-133513996D01*
X76073700Y-133788184D01*
X76059783Y-134070512D01*
X73964289Y-134070512D01*
X75027503Y-133007298D01*
X76686903Y-133007298D01*
X77500000Y-133820395D01*
X78313097Y-133007298D01*
X78241514Y-132763329D01*
X77986004Y-132642429D01*
X77711816Y-132573700D01*
X77429488Y-132559783D01*
X77149870Y-132601213D01*
X76883708Y-132696397D01*
X76758486Y-132763329D01*
X76686903Y-133007298D01*
X75027503Y-133007298D01*
X78511003Y-129523799D01*
X78540001Y-129500001D01*
X78634974Y-129384276D01*
X78705546Y-129252247D01*
X78749003Y-129108986D01*
X78760000Y-128997333D01*
X78760000Y-128997323D01*
X78763676Y-128960000D01*
X78760000Y-128922677D01*
X78760000Y-128727140D01*
X78885363Y-128914759D01*
X79085241Y-129114637D01*
X79320273Y-129271680D01*
X79581426Y-129379853D01*
X79858665Y-129435000D01*
X80141335Y-129435000D01*
X80323887Y-129398688D01*
X83790198Y-132865000D01*
X82340957Y-132865000D01*
X82330537Y-132845506D01*
X82251185Y-132748815D01*
X82154494Y-132669463D01*
X82044180Y-132610498D01*
X81924482Y-132574188D01*
X81800000Y-132561928D01*
X80200000Y-132561928D01*
X80075518Y-132574188D01*
X79955820Y-132610498D01*
X79845506Y-132669463D01*
X79748815Y-132748815D01*
X79669463Y-132845506D01*
X79610498Y-132955820D01*
X79574188Y-133075518D01*
X79561928Y-133200000D01*
X79561928Y-134800000D01*
X79574188Y-134924482D01*
X79610498Y-135044180D01*
X79669463Y-135154494D01*
X79748815Y-135251185D01*
X79845506Y-135330537D01*
X79955820Y-135389502D01*
X80075518Y-135425812D01*
X80200000Y-135438072D01*
X81800000Y-135438072D01*
X81924482Y-135425812D01*
X82044180Y-135389502D01*
X82154494Y-135330537D01*
X82251185Y-135251185D01*
X82330537Y-135154494D01*
X82340957Y-135135000D01*
X87019869Y-135135000D01*
X90376571Y-138491704D01*
X90391423Y-138642499D01*
X90456324Y-138856447D01*
X90561717Y-139053623D01*
X90703552Y-139226449D01*
X90746859Y-139261990D01*
X91206400Y-139721532D01*
X91213489Y-139744901D01*
X91328167Y-139959449D01*
X91482498Y-140147502D01*
X91670551Y-140301833D01*
X91885099Y-140416511D01*
X92117898Y-140487130D01*
X92299335Y-140505000D01*
X93220665Y-140505000D01*
X93402102Y-140487130D01*
X93634901Y-140416511D01*
X93849449Y-140301833D01*
X94037502Y-140147502D01*
X94191833Y-139959449D01*
X94306511Y-139744901D01*
X94377130Y-139512102D01*
X94400975Y-139270000D01*
X94377130Y-139027898D01*
X94306511Y-138795099D01*
X94191833Y-138580551D01*
X94037502Y-138392498D01*
X93849449Y-138238167D01*
X93634901Y-138123489D01*
X93402102Y-138052870D01*
X93220665Y-138035000D01*
X92730132Y-138035000D01*
X92660132Y-137965000D01*
X93220665Y-137965000D01*
X93402102Y-137947130D01*
X93634901Y-137876511D01*
X93849449Y-137761833D01*
X94037502Y-137607502D01*
X94191833Y-137419449D01*
X94306511Y-137204901D01*
X94337340Y-137103270D01*
X94740001Y-137505931D01*
X94740000Y-140462677D01*
X94736324Y-140500000D01*
X94740000Y-140537322D01*
X94740000Y-140537332D01*
X94750997Y-140648985D01*
X94794454Y-140792246D01*
X94865026Y-140924276D01*
X94900910Y-140968000D01*
X94959999Y-141040001D01*
X94989003Y-141063804D01*
X100436201Y-146511003D01*
X100459999Y-146540001D01*
X100488997Y-146563799D01*
X100575724Y-146634974D01*
X100707753Y-146705546D01*
X100851014Y-146749003D01*
X101000000Y-146763677D01*
X101037333Y-146760000D01*
X113434070Y-146760000D01*
X109826070Y-150368001D01*
X109484322Y-150368001D01*
X109446999Y-150364325D01*
X109409676Y-150368001D01*
X109409666Y-150368001D01*
X109298013Y-150378998D01*
X109154752Y-150422455D01*
X109022722Y-150493027D01*
X108941381Y-150559783D01*
X108906998Y-150588000D01*
X108883200Y-150616998D01*
X108845226Y-150654972D01*
X108642713Y-150571089D01*
X108250135Y-150493000D01*
X107849865Y-150493000D01*
X107457287Y-150571089D01*
X107087487Y-150724265D01*
X106754675Y-150946643D01*
X106471643Y-151229675D01*
X106249265Y-151562487D01*
X106096089Y-151932287D01*
X106018000Y-152324865D01*
X106018000Y-152725135D01*
X106096089Y-153117713D01*
X106249265Y-153487513D01*
X106471643Y-153820325D01*
X106754675Y-154103357D01*
X107034006Y-154290000D01*
X85987731Y-154290000D01*
X85985000Y-152285750D01*
X85826250Y-152127000D01*
X84207000Y-152127000D01*
X84207000Y-152147000D01*
X83953000Y-152147000D01*
X83953000Y-152127000D01*
X82333750Y-152127000D01*
X82175000Y-152285750D01*
X82172269Y-154290000D01*
X80908072Y-154290000D01*
X80908072Y-149460000D01*
X82171928Y-149460000D01*
X82175000Y-151714250D01*
X82333750Y-151873000D01*
X83953000Y-151873000D01*
X83953000Y-148983750D01*
X84207000Y-148983750D01*
X84207000Y-151873000D01*
X85826250Y-151873000D01*
X85985000Y-151714250D01*
X85988072Y-149460000D01*
X85975812Y-149335518D01*
X85939502Y-149215820D01*
X85904248Y-149149865D01*
X86968000Y-149149865D01*
X86968000Y-149550135D01*
X87046089Y-149942713D01*
X87199265Y-150312513D01*
X87421643Y-150645325D01*
X87704675Y-150928357D01*
X88037487Y-151150735D01*
X88407287Y-151303911D01*
X88799865Y-151382000D01*
X89200135Y-151382000D01*
X89592713Y-151303911D01*
X89962513Y-151150735D01*
X90295325Y-150928357D01*
X90578357Y-150645325D01*
X90800735Y-150312513D01*
X90953911Y-149942713D01*
X91032000Y-149550135D01*
X91032000Y-149149865D01*
X90953911Y-148757287D01*
X90800735Y-148387487D01*
X90578357Y-148054675D01*
X90295325Y-147771643D01*
X89962513Y-147549265D01*
X89592713Y-147396089D01*
X89200135Y-147318000D01*
X88799865Y-147318000D01*
X88407287Y-147396089D01*
X88037487Y-147549265D01*
X87704675Y-147771643D01*
X87421643Y-148054675D01*
X87199265Y-148387487D01*
X87046089Y-148757287D01*
X86968000Y-149149865D01*
X85904248Y-149149865D01*
X85880537Y-149105506D01*
X85801185Y-149008815D01*
X85704494Y-148929463D01*
X85594180Y-148870498D01*
X85474482Y-148834188D01*
X85350000Y-148821928D01*
X84365750Y-148825000D01*
X84207000Y-148983750D01*
X83953000Y-148983750D01*
X83794250Y-148825000D01*
X82810000Y-148821928D01*
X82685518Y-148834188D01*
X82565820Y-148870498D01*
X82455506Y-148929463D01*
X82358815Y-149008815D01*
X82279463Y-149105506D01*
X82220498Y-149215820D01*
X82184188Y-149335518D01*
X82171928Y-149460000D01*
X80908072Y-149460000D01*
X80895812Y-149335518D01*
X80859502Y-149215820D01*
X80800537Y-149105506D01*
X80721185Y-149008815D01*
X80624494Y-148929463D01*
X80514180Y-148870498D01*
X80394482Y-148834188D01*
X80270000Y-148821928D01*
X77730000Y-148821928D01*
X77605518Y-148834188D01*
X77485820Y-148870498D01*
X77375506Y-148929463D01*
X77278815Y-149008815D01*
X77199463Y-149105506D01*
X77140498Y-149215820D01*
X77104188Y-149335518D01*
X77091928Y-149460000D01*
X77091928Y-154290000D01*
X73987731Y-154290000D01*
X73985000Y-152285750D01*
X73826250Y-152127000D01*
X72207000Y-152127000D01*
X72207000Y-152147000D01*
X71953000Y-152147000D01*
X71953000Y-152127000D01*
X70333750Y-152127000D01*
X70175000Y-152285750D01*
X70172269Y-154290000D01*
X68908072Y-154290000D01*
X68908072Y-149460000D01*
X70171928Y-149460000D01*
X70175000Y-151714250D01*
X70333750Y-151873000D01*
X71953000Y-151873000D01*
X71953000Y-148983750D01*
X72207000Y-148983750D01*
X72207000Y-151873000D01*
X73826250Y-151873000D01*
X73985000Y-151714250D01*
X73988072Y-149460000D01*
X73975812Y-149335518D01*
X73939502Y-149215820D01*
X73880537Y-149105506D01*
X73801185Y-149008815D01*
X73704494Y-148929463D01*
X73594180Y-148870498D01*
X73474482Y-148834188D01*
X73350000Y-148821928D01*
X72365750Y-148825000D01*
X72207000Y-148983750D01*
X71953000Y-148983750D01*
X71794250Y-148825000D01*
X70810000Y-148821928D01*
X70685518Y-148834188D01*
X70565820Y-148870498D01*
X70455506Y-148929463D01*
X70358815Y-149008815D01*
X70279463Y-149105506D01*
X70220498Y-149215820D01*
X70184188Y-149335518D01*
X70171928Y-149460000D01*
X68908072Y-149460000D01*
X68895812Y-149335518D01*
X68859502Y-149215820D01*
X68800537Y-149105506D01*
X68721185Y-149008815D01*
X68624494Y-148929463D01*
X68514180Y-148870498D01*
X68394482Y-148834188D01*
X68270000Y-148821928D01*
X65730000Y-148821928D01*
X65605518Y-148834188D01*
X65485820Y-148870498D01*
X65375506Y-148929463D01*
X65278815Y-149008815D01*
X65199463Y-149105506D01*
X65140498Y-149215820D01*
X65104188Y-149335518D01*
X65091928Y-149460000D01*
X65091928Y-154290000D01*
X49710000Y-154290000D01*
X49710000Y-143622285D01*
X75165000Y-143622285D01*
X75165000Y-144377715D01*
X75312377Y-145118628D01*
X75601467Y-145816554D01*
X76021161Y-146444670D01*
X76555330Y-146978839D01*
X77183446Y-147398533D01*
X77881372Y-147687623D01*
X78622285Y-147835000D01*
X79377715Y-147835000D01*
X80118628Y-147687623D01*
X80816554Y-147398533D01*
X81444670Y-146978839D01*
X81978839Y-146444670D01*
X82398533Y-145816554D01*
X82687623Y-145118628D01*
X82826924Y-144418311D01*
X87761294Y-144418311D01*
X87904910Y-144723327D01*
X88262157Y-144903855D01*
X88647758Y-145011220D01*
X89046895Y-145041294D01*
X89444231Y-144992922D01*
X89824495Y-144867964D01*
X90095090Y-144723327D01*
X90238706Y-144418311D01*
X89000000Y-143179605D01*
X87761294Y-144418311D01*
X82826924Y-144418311D01*
X82835000Y-144377715D01*
X82835000Y-143622285D01*
X82720548Y-143046895D01*
X86958706Y-143046895D01*
X87007078Y-143444231D01*
X87132036Y-143824495D01*
X87276673Y-144095090D01*
X87581689Y-144238706D01*
X88820395Y-143000000D01*
X89179605Y-143000000D01*
X90418311Y-144238706D01*
X90723327Y-144095090D01*
X90903855Y-143737843D01*
X91011220Y-143352242D01*
X91041294Y-142953105D01*
X90992922Y-142555769D01*
X90867964Y-142175505D01*
X90723327Y-141904910D01*
X90418311Y-141761294D01*
X89179605Y-143000000D01*
X88820395Y-143000000D01*
X87581689Y-141761294D01*
X87276673Y-141904910D01*
X87096145Y-142262157D01*
X86988780Y-142647758D01*
X86958706Y-143046895D01*
X82720548Y-143046895D01*
X82687623Y-142881372D01*
X82398533Y-142183446D01*
X81996452Y-141581689D01*
X87761294Y-141581689D01*
X89000000Y-142820395D01*
X90238706Y-141581689D01*
X90095090Y-141276673D01*
X89737843Y-141096145D01*
X89352242Y-140988780D01*
X88953105Y-140958706D01*
X88555769Y-141007078D01*
X88175505Y-141132036D01*
X87904910Y-141276673D01*
X87761294Y-141581689D01*
X81996452Y-141581689D01*
X81978839Y-141555330D01*
X81444670Y-141021161D01*
X80816554Y-140601467D01*
X80118628Y-140312377D01*
X79377715Y-140165000D01*
X78622285Y-140165000D01*
X77881372Y-140312377D01*
X77183446Y-140601467D01*
X76555330Y-141021161D01*
X76021161Y-141555330D01*
X75601467Y-142183446D01*
X75312377Y-142881372D01*
X75165000Y-143622285D01*
X49710000Y-143622285D01*
X49710000Y-110038531D01*
X49779389Y-110038531D01*
X49821401Y-110328019D01*
X49919081Y-110603747D01*
X49992528Y-110741157D01*
X50241603Y-110818792D01*
X51090395Y-109970000D01*
X51449605Y-109970000D01*
X52298397Y-110818792D01*
X52547472Y-110741157D01*
X52673371Y-110477117D01*
X52745339Y-110193589D01*
X52760611Y-109901469D01*
X52718599Y-109611981D01*
X52620919Y-109336253D01*
X52547472Y-109198843D01*
X52298397Y-109121208D01*
X51449605Y-109970000D01*
X51090395Y-109970000D01*
X50241603Y-109121208D01*
X49992528Y-109198843D01*
X49866629Y-109462883D01*
X49794661Y-109746411D01*
X49779389Y-110038531D01*
X49710000Y-110038531D01*
X49710000Y-102203740D01*
X49785000Y-102203740D01*
X49785000Y-102496260D01*
X49842068Y-102783158D01*
X49954010Y-103053411D01*
X50116525Y-103296632D01*
X50323368Y-103503475D01*
X50497760Y-103620000D01*
X50323368Y-103736525D01*
X50116525Y-103943368D01*
X49954010Y-104186589D01*
X49842068Y-104456842D01*
X49785000Y-104743740D01*
X49785000Y-105036260D01*
X49842068Y-105323158D01*
X49954010Y-105593411D01*
X50116525Y-105836632D01*
X50323368Y-106043475D01*
X50497760Y-106160000D01*
X50323368Y-106276525D01*
X50116525Y-106483368D01*
X49954010Y-106726589D01*
X49842068Y-106996842D01*
X49785000Y-107283740D01*
X49785000Y-107576260D01*
X49842068Y-107863158D01*
X49954010Y-108133411D01*
X50116525Y-108376632D01*
X50323368Y-108583475D01*
X50496729Y-108699311D01*
X50421208Y-108941603D01*
X51270000Y-109790395D01*
X52118792Y-108941603D01*
X52043271Y-108699311D01*
X52216632Y-108583475D01*
X52423475Y-108376632D01*
X52585990Y-108133411D01*
X52697932Y-107863158D01*
X52755000Y-107576260D01*
X52755000Y-107283740D01*
X52697932Y-106996842D01*
X52585990Y-106726589D01*
X52423475Y-106483368D01*
X52216632Y-106276525D01*
X52042240Y-106160000D01*
X52216632Y-106043475D01*
X52423475Y-105836632D01*
X52585990Y-105593411D01*
X52697932Y-105323158D01*
X52755000Y-105036260D01*
X52755000Y-104743740D01*
X52697932Y-104456842D01*
X52585990Y-104186589D01*
X52423475Y-103943368D01*
X52216632Y-103736525D01*
X52042240Y-103620000D01*
X52216632Y-103503475D01*
X52423475Y-103296632D01*
X52585990Y-103053411D01*
X52697932Y-102783158D01*
X52755000Y-102496260D01*
X52755000Y-102203740D01*
X52697932Y-101916842D01*
X52585990Y-101646589D01*
X52423475Y-101403368D01*
X52216632Y-101196525D01*
X51973411Y-101034010D01*
X51703158Y-100922068D01*
X51416260Y-100865000D01*
X51123740Y-100865000D01*
X50836842Y-100922068D01*
X50566589Y-101034010D01*
X50323368Y-101196525D01*
X50116525Y-101403368D01*
X49954010Y-101646589D01*
X49842068Y-101916842D01*
X49785000Y-102203740D01*
X49710000Y-102203740D01*
X49710000Y-85936988D01*
X51534092Y-85936988D01*
X51576557Y-86234171D01*
X51676184Y-86517359D01*
X51754711Y-86664273D01*
X52007769Y-86746626D01*
X52884395Y-85870000D01*
X52007769Y-84993374D01*
X51754711Y-85075727D01*
X51624914Y-85346418D01*
X51550420Y-85637230D01*
X51534092Y-85936988D01*
X49710000Y-85936988D01*
X49710000Y-76034876D01*
X49713435Y-76000000D01*
X49699727Y-75860816D01*
X49659128Y-75726980D01*
X49627000Y-75666873D01*
X49627000Y-75500000D01*
X49624560Y-75475224D01*
X49617333Y-75451399D01*
X49605597Y-75429443D01*
X49589803Y-75410197D01*
X49570557Y-75394403D01*
X49548601Y-75382667D01*
X49524776Y-75375440D01*
X49500000Y-75373000D01*
X49333127Y-75373000D01*
X49273020Y-75340872D01*
X49139184Y-75300273D01*
X49034877Y-75290000D01*
X49000000Y-75286565D01*
X48965123Y-75290000D01*
X33710000Y-75290000D01*
X33710000Y-68582138D01*
X34065300Y-68937438D01*
X34562388Y-69269582D01*
X35114723Y-69498367D01*
X35701079Y-69615000D01*
X36298921Y-69615000D01*
X36885277Y-69498367D01*
X37437612Y-69269582D01*
X37638409Y-69135413D01*
X42004192Y-69135413D01*
X42099956Y-69399814D01*
X42389571Y-69540704D01*
X42701108Y-69622384D01*
X43022595Y-69641718D01*
X43341675Y-69597961D01*
X43646088Y-69492795D01*
X43820044Y-69399814D01*
X43915808Y-69135413D01*
X42960000Y-68179605D01*
X42004192Y-69135413D01*
X37638409Y-69135413D01*
X37934700Y-68937438D01*
X38357438Y-68514700D01*
X38659525Y-68062595D01*
X41318282Y-68062595D01*
X41362039Y-68381675D01*
X41467205Y-68686088D01*
X41560186Y-68860044D01*
X41824587Y-68955808D01*
X42780395Y-68000000D01*
X41824587Y-67044192D01*
X41560186Y-67139956D01*
X41419296Y-67429571D01*
X41337616Y-67741108D01*
X41318282Y-68062595D01*
X38659525Y-68062595D01*
X38689582Y-68017612D01*
X38918367Y-67465277D01*
X39035000Y-66878921D01*
X39035000Y-66281079D01*
X38918367Y-65694723D01*
X38722805Y-65222595D01*
X42708282Y-65222595D01*
X42752039Y-65541675D01*
X42857205Y-65846088D01*
X42950186Y-66020044D01*
X43214587Y-66115808D01*
X44170395Y-65160000D01*
X44529605Y-65160000D01*
X45485413Y-66115808D01*
X45735000Y-66025410D01*
X45984587Y-66115808D01*
X46940395Y-65160000D01*
X45984587Y-64204192D01*
X45735000Y-64294590D01*
X45485413Y-64204192D01*
X44529605Y-65160000D01*
X44170395Y-65160000D01*
X43214587Y-64204192D01*
X42950186Y-64299956D01*
X42809296Y-64589571D01*
X42727616Y-64901108D01*
X42708282Y-65222595D01*
X38722805Y-65222595D01*
X38689582Y-65142388D01*
X38357438Y-64645300D01*
X37934700Y-64222562D01*
X37638410Y-64024587D01*
X43394192Y-64024587D01*
X44350000Y-64980395D01*
X45305808Y-64024587D01*
X46164192Y-64024587D01*
X47120000Y-64980395D01*
X48075808Y-64024587D01*
X47980044Y-63760186D01*
X47690429Y-63619296D01*
X47378892Y-63537616D01*
X47057405Y-63518282D01*
X46738325Y-63562039D01*
X46433912Y-63667205D01*
X46259956Y-63760186D01*
X46164192Y-64024587D01*
X45305808Y-64024587D01*
X45210044Y-63760186D01*
X44920429Y-63619296D01*
X44608892Y-63537616D01*
X44287405Y-63518282D01*
X43968325Y-63562039D01*
X43663912Y-63667205D01*
X43489956Y-63760186D01*
X43394192Y-64024587D01*
X37638410Y-64024587D01*
X37437612Y-63890418D01*
X36885277Y-63661633D01*
X36298921Y-63545000D01*
X35701079Y-63545000D01*
X35114723Y-63661633D01*
X34562388Y-63890418D01*
X34065300Y-64222562D01*
X33710000Y-64577862D01*
X33710000Y-60710000D01*
X121290001Y-60710000D01*
X121290000Y-128141036D01*
G36*
X86126000Y-90119899D02*
G01*
X86126000Y-90420101D01*
X86184566Y-90714534D01*
X86299449Y-90991885D01*
X86466232Y-91241493D01*
X86678507Y-91453768D01*
X86807562Y-91540000D01*
X86678507Y-91626232D01*
X86466232Y-91838507D01*
X86299449Y-92088115D01*
X86184566Y-92365466D01*
X86126000Y-92659899D01*
X86126000Y-92960101D01*
X86184566Y-93254534D01*
X86299449Y-93531885D01*
X86466232Y-93781493D01*
X86678507Y-93993768D01*
X86928115Y-94160551D01*
X87205466Y-94275434D01*
X87499899Y-94334000D01*
X87800101Y-94334000D01*
X88094534Y-94275434D01*
X88371885Y-94160551D01*
X88621493Y-93993768D01*
X88833768Y-93781493D01*
X89000551Y-93531885D01*
X89115434Y-93254534D01*
X89174000Y-92960101D01*
X89174000Y-92659899D01*
X89115434Y-92365466D01*
X89000551Y-92088115D01*
X88833768Y-91838507D01*
X88621493Y-91626232D01*
X88492438Y-91540000D01*
X88621493Y-91453768D01*
X88833768Y-91241493D01*
X88975083Y-91030000D01*
X95192678Y-91030000D01*
X95230000Y-91033676D01*
X95267322Y-91030000D01*
X95267333Y-91030000D01*
X95378986Y-91019003D01*
X95522247Y-90975546D01*
X95654276Y-90904974D01*
X95770001Y-90810001D01*
X95793804Y-90780997D01*
X96240012Y-90334789D01*
X96240012Y-90392309D01*
X95988992Y-90643329D01*
X95959988Y-90667132D01*
X95925876Y-90708698D01*
X95865015Y-90782857D01*
X95837786Y-90833799D01*
X95794443Y-90914887D01*
X95750986Y-91058148D01*
X95739989Y-91169801D01*
X95739989Y-91169811D01*
X95736313Y-91207133D01*
X95739989Y-91244456D01*
X95739990Y-97185209D01*
X95489003Y-97436196D01*
X95459999Y-97459999D01*
X95404871Y-97527174D01*
X95365026Y-97575724D01*
X95325860Y-97648998D01*
X95294454Y-97707754D01*
X95250997Y-97851015D01*
X95240000Y-97962668D01*
X95240000Y-97962678D01*
X95236324Y-98000000D01*
X95240000Y-98037323D01*
X95240001Y-102685197D01*
X89064000Y-108861199D01*
X89064000Y-108819899D01*
X89005434Y-108525466D01*
X88890551Y-108248115D01*
X88723768Y-107998507D01*
X88511493Y-107786232D01*
X88382438Y-107700000D01*
X88511493Y-107613768D01*
X88723768Y-107401493D01*
X88890551Y-107151885D01*
X89005434Y-106874534D01*
X89064000Y-106580101D01*
X89064000Y-106279899D01*
X89005434Y-105985466D01*
X88890551Y-105708115D01*
X88723768Y-105458507D01*
X88511493Y-105246232D01*
X88382438Y-105160000D01*
X88511493Y-105073768D01*
X88723768Y-104861493D01*
X88890551Y-104611885D01*
X89005434Y-104334534D01*
X89064000Y-104040101D01*
X89064000Y-103739899D01*
X89005434Y-103445466D01*
X88890551Y-103168115D01*
X88723768Y-102918507D01*
X88511493Y-102706232D01*
X88353378Y-102600583D01*
X88416626Y-102406231D01*
X87540000Y-101529605D01*
X86663374Y-102406231D01*
X86726622Y-102600583D01*
X86568507Y-102706232D01*
X86356232Y-102918507D01*
X86214917Y-103130000D01*
X86147325Y-103130000D01*
X86110000Y-103126324D01*
X86072675Y-103130000D01*
X86072667Y-103130000D01*
X85961014Y-103140997D01*
X85817753Y-103184454D01*
X85685724Y-103255026D01*
X85569999Y-103349999D01*
X85546201Y-103378997D01*
X81685199Y-107240000D01*
X71057323Y-107240000D01*
X71020000Y-107236324D01*
X70982677Y-107240000D01*
X70982667Y-107240000D01*
X70871014Y-107250997D01*
X70727753Y-107294454D01*
X70595724Y-107365026D01*
X70479999Y-107459999D01*
X70456201Y-107488997D01*
X52755000Y-125190199D01*
X52755000Y-125063740D01*
X52697932Y-124776842D01*
X52585990Y-124506589D01*
X52423475Y-124263368D01*
X52216632Y-124056525D01*
X52042240Y-123940000D01*
X52216632Y-123823475D01*
X52423475Y-123616632D01*
X52574984Y-123389883D01*
X52622247Y-123375546D01*
X52754276Y-123304974D01*
X52870001Y-123210001D01*
X52893804Y-123180997D01*
X74657813Y-101416988D01*
X86010092Y-101416988D01*
X86052557Y-101714171D01*
X86152184Y-101997359D01*
X86230711Y-102144273D01*
X86483769Y-102226626D01*
X87360395Y-101350000D01*
X87719605Y-101350000D01*
X88596231Y-102226626D01*
X88849289Y-102144273D01*
X88979086Y-101873582D01*
X89053580Y-101582770D01*
X89069908Y-101283012D01*
X89027443Y-100985829D01*
X88927816Y-100702641D01*
X88849289Y-100555727D01*
X88596231Y-100473374D01*
X87719605Y-101350000D01*
X87360395Y-101350000D01*
X86483769Y-100473374D01*
X86230711Y-100555727D01*
X86100914Y-100826418D01*
X86026420Y-101117230D01*
X86010092Y-101416988D01*
X74657813Y-101416988D01*
X79954902Y-96119899D01*
X86016000Y-96119899D01*
X86016000Y-96420101D01*
X86074566Y-96714534D01*
X86189449Y-96991885D01*
X86356232Y-97241493D01*
X86568507Y-97453768D01*
X86697562Y-97540000D01*
X86568507Y-97626232D01*
X86356232Y-97838507D01*
X86189449Y-98088115D01*
X86074566Y-98365466D01*
X86016000Y-98659899D01*
X86016000Y-98960101D01*
X86074566Y-99254534D01*
X86189449Y-99531885D01*
X86356232Y-99781493D01*
X86568507Y-99993768D01*
X86726622Y-100099417D01*
X86663374Y-100293769D01*
X87540000Y-101170395D01*
X88416626Y-100293769D01*
X88353378Y-100099417D01*
X88511493Y-99993768D01*
X88723768Y-99781493D01*
X88890551Y-99531885D01*
X89005434Y-99254534D01*
X89064000Y-98960101D01*
X89064000Y-98659899D01*
X89005434Y-98365466D01*
X88890551Y-98088115D01*
X88723768Y-97838507D01*
X88511493Y-97626232D01*
X88382438Y-97540000D01*
X88511493Y-97453768D01*
X88723768Y-97241493D01*
X88890551Y-96991885D01*
X89005434Y-96714534D01*
X89064000Y-96420101D01*
X89064000Y-96119899D01*
X89005434Y-95825466D01*
X88890551Y-95548115D01*
X88723768Y-95298507D01*
X88511493Y-95086232D01*
X88261885Y-94919449D01*
X87984534Y-94804566D01*
X87690101Y-94746000D01*
X87389899Y-94746000D01*
X87095466Y-94804566D01*
X86818115Y-94919449D01*
X86568507Y-95086232D01*
X86356232Y-95298507D01*
X86189449Y-95548115D01*
X86074566Y-95825466D01*
X86016000Y-96119899D01*
X79954902Y-96119899D01*
X86168484Y-89906318D01*
X86126000Y-90119899D01*
X86126000Y-90119899D01*
G37*
X86126000Y-90119899D02*
X86126000Y-90420101D01*
X86184566Y-90714534D01*
X86299449Y-90991885D01*
X86466232Y-91241493D01*
X86678507Y-91453768D01*
X86807562Y-91540000D01*
X86678507Y-91626232D01*
X86466232Y-91838507D01*
X86299449Y-92088115D01*
X86184566Y-92365466D01*
X86126000Y-92659899D01*
X86126000Y-92960101D01*
X86184566Y-93254534D01*
X86299449Y-93531885D01*
X86466232Y-93781493D01*
X86678507Y-93993768D01*
X86928115Y-94160551D01*
X87205466Y-94275434D01*
X87499899Y-94334000D01*
X87800101Y-94334000D01*
X88094534Y-94275434D01*
X88371885Y-94160551D01*
X88621493Y-93993768D01*
X88833768Y-93781493D01*
X89000551Y-93531885D01*
X89115434Y-93254534D01*
X89174000Y-92960101D01*
X89174000Y-92659899D01*
X89115434Y-92365466D01*
X89000551Y-92088115D01*
X88833768Y-91838507D01*
X88621493Y-91626232D01*
X88492438Y-91540000D01*
X88621493Y-91453768D01*
X88833768Y-91241493D01*
X88975083Y-91030000D01*
X95192678Y-91030000D01*
X95230000Y-91033676D01*
X95267322Y-91030000D01*
X95267333Y-91030000D01*
X95378986Y-91019003D01*
X95522247Y-90975546D01*
X95654276Y-90904974D01*
X95770001Y-90810001D01*
X95793804Y-90780997D01*
X96240012Y-90334789D01*
X96240012Y-90392309D01*
X95988992Y-90643329D01*
X95959988Y-90667132D01*
X95925876Y-90708698D01*
X95865015Y-90782857D01*
X95837786Y-90833799D01*
X95794443Y-90914887D01*
X95750986Y-91058148D01*
X95739989Y-91169801D01*
X95739989Y-91169811D01*
X95736313Y-91207133D01*
X95739989Y-91244456D01*
X95739990Y-97185209D01*
X95489003Y-97436196D01*
X95459999Y-97459999D01*
X95404871Y-97527174D01*
X95365026Y-97575724D01*
X95325860Y-97648998D01*
X95294454Y-97707754D01*
X95250997Y-97851015D01*
X95240000Y-97962668D01*
X95240000Y-97962678D01*
X95236324Y-98000000D01*
X95240000Y-98037323D01*
X95240001Y-102685197D01*
X89064000Y-108861199D01*
X89064000Y-108819899D01*
X89005434Y-108525466D01*
X88890551Y-108248115D01*
X88723768Y-107998507D01*
X88511493Y-107786232D01*
X88382438Y-107700000D01*
X88511493Y-107613768D01*
X88723768Y-107401493D01*
X88890551Y-107151885D01*
X89005434Y-106874534D01*
X89064000Y-106580101D01*
X89064000Y-106279899D01*
X89005434Y-105985466D01*
X88890551Y-105708115D01*
X88723768Y-105458507D01*
X88511493Y-105246232D01*
X88382438Y-105160000D01*
X88511493Y-105073768D01*
X88723768Y-104861493D01*
X88890551Y-104611885D01*
X89005434Y-104334534D01*
X89064000Y-104040101D01*
X89064000Y-103739899D01*
X89005434Y-103445466D01*
X88890551Y-103168115D01*
X88723768Y-102918507D01*
X88511493Y-102706232D01*
X88353378Y-102600583D01*
X88416626Y-102406231D01*
X87540000Y-101529605D01*
X86663374Y-102406231D01*
X86726622Y-102600583D01*
X86568507Y-102706232D01*
X86356232Y-102918507D01*
X86214917Y-103130000D01*
X86147325Y-103130000D01*
X86110000Y-103126324D01*
X86072675Y-103130000D01*
X86072667Y-103130000D01*
X85961014Y-103140997D01*
X85817753Y-103184454D01*
X85685724Y-103255026D01*
X85569999Y-103349999D01*
X85546201Y-103378997D01*
X81685199Y-107240000D01*
X71057323Y-107240000D01*
X71020000Y-107236324D01*
X70982677Y-107240000D01*
X70982667Y-107240000D01*
X70871014Y-107250997D01*
X70727753Y-107294454D01*
X70595724Y-107365026D01*
X70479999Y-107459999D01*
X70456201Y-107488997D01*
X52755000Y-125190199D01*
X52755000Y-125063740D01*
X52697932Y-124776842D01*
X52585990Y-124506589D01*
X52423475Y-124263368D01*
X52216632Y-124056525D01*
X52042240Y-123940000D01*
X52216632Y-123823475D01*
X52423475Y-123616632D01*
X52574984Y-123389883D01*
X52622247Y-123375546D01*
X52754276Y-123304974D01*
X52870001Y-123210001D01*
X52893804Y-123180997D01*
X74657813Y-101416988D01*
X86010092Y-101416988D01*
X86052557Y-101714171D01*
X86152184Y-101997359D01*
X86230711Y-102144273D01*
X86483769Y-102226626D01*
X87360395Y-101350000D01*
X87719605Y-101350000D01*
X88596231Y-102226626D01*
X88849289Y-102144273D01*
X88979086Y-101873582D01*
X89053580Y-101582770D01*
X89069908Y-101283012D01*
X89027443Y-100985829D01*
X88927816Y-100702641D01*
X88849289Y-100555727D01*
X88596231Y-100473374D01*
X87719605Y-101350000D01*
X87360395Y-101350000D01*
X86483769Y-100473374D01*
X86230711Y-100555727D01*
X86100914Y-100826418D01*
X86026420Y-101117230D01*
X86010092Y-101416988D01*
X74657813Y-101416988D01*
X79954902Y-96119899D01*
X86016000Y-96119899D01*
X86016000Y-96420101D01*
X86074566Y-96714534D01*
X86189449Y-96991885D01*
X86356232Y-97241493D01*
X86568507Y-97453768D01*
X86697562Y-97540000D01*
X86568507Y-97626232D01*
X86356232Y-97838507D01*
X86189449Y-98088115D01*
X86074566Y-98365466D01*
X86016000Y-98659899D01*
X86016000Y-98960101D01*
X86074566Y-99254534D01*
X86189449Y-99531885D01*
X86356232Y-99781493D01*
X86568507Y-99993768D01*
X86726622Y-100099417D01*
X86663374Y-100293769D01*
X87540000Y-101170395D01*
X88416626Y-100293769D01*
X88353378Y-100099417D01*
X88511493Y-99993768D01*
X88723768Y-99781493D01*
X88890551Y-99531885D01*
X89005434Y-99254534D01*
X89064000Y-98960101D01*
X89064000Y-98659899D01*
X89005434Y-98365466D01*
X88890551Y-98088115D01*
X88723768Y-97838507D01*
X88511493Y-97626232D01*
X88382438Y-97540000D01*
X88511493Y-97453768D01*
X88723768Y-97241493D01*
X88890551Y-96991885D01*
X89005434Y-96714534D01*
X89064000Y-96420101D01*
X89064000Y-96119899D01*
X89005434Y-95825466D01*
X88890551Y-95548115D01*
X88723768Y-95298507D01*
X88511493Y-95086232D01*
X88261885Y-94919449D01*
X87984534Y-94804566D01*
X87690101Y-94746000D01*
X87389899Y-94746000D01*
X87095466Y-94804566D01*
X86818115Y-94919449D01*
X86568507Y-95086232D01*
X86356232Y-95298507D01*
X86189449Y-95548115D01*
X86074566Y-95825466D01*
X86016000Y-96119899D01*
X79954902Y-96119899D01*
X86168484Y-89906318D01*
X86126000Y-90119899D01*
M02*
