G04 #@! TF.GenerationSoftware,KiCad,Pcbnew,5.1.4-e60b266~84~ubuntu18.04.1*
G04 #@! TF.CreationDate,2019-11-04T15:24:46+01:00*
G04 #@! TF.ProjectId,WaveGlide3X,57617665-476c-4696-9465-33582e6b6963,rev?*
G04 #@! TF.SameCoordinates,Original*
G04 #@! TF.FileFunction,Soldermask,Bot*
G04 #@! TF.FilePolarity,Negative*
%FSLAX46Y46*%
G04 Gerber Fmt 4.6, Leading zero omitted, Abs format (unit mm)*
G04 Created by KiCad (PCBNEW 5.1.4-e60b266~84~ubuntu18.04.1) date 2019-11-04 15:24:46*
%MOMM*%
%LPD*%
G04 APERTURE LIST*
%ADD10C,0.100000*%
G04 APERTURE END LIST*
D10*
G36*
X85401000Y-154591000D02*
G01*
X82759000Y-154591000D01*
X82759000Y-149409000D01*
X85401000Y-149409000D01*
X85401000Y-154591000D01*
X85401000Y-154591000D01*
G37*
G36*
X80321000Y-154591000D02*
G01*
X77679000Y-154591000D01*
X77679000Y-149409000D01*
X80321000Y-149409000D01*
X80321000Y-154591000D01*
X80321000Y-154591000D01*
G37*
G36*
X73401000Y-154591000D02*
G01*
X70759000Y-154591000D01*
X70759000Y-149409000D01*
X73401000Y-149409000D01*
X73401000Y-154591000D01*
X73401000Y-154591000D01*
G37*
G36*
X68321000Y-154591000D02*
G01*
X65679000Y-154591000D01*
X65679000Y-149409000D01*
X68321000Y-149409000D01*
X68321000Y-154591000D01*
X68321000Y-154591000D01*
G37*
G36*
X108332491Y-151104823D02*
G01*
X108472366Y-151132646D01*
X108735885Y-151241799D01*
X108973046Y-151400265D01*
X109174735Y-151601954D01*
X109333201Y-151839115D01*
X109442354Y-152102634D01*
X109498000Y-152382384D01*
X109498000Y-152667616D01*
X109442354Y-152947366D01*
X109333201Y-153210885D01*
X109174735Y-153448046D01*
X108973046Y-153649735D01*
X108735885Y-153808201D01*
X108472366Y-153917354D01*
X108332491Y-153945177D01*
X108192617Y-153973000D01*
X107907383Y-153973000D01*
X107767509Y-153945177D01*
X107627634Y-153917354D01*
X107364115Y-153808201D01*
X107126954Y-153649735D01*
X106925265Y-153448046D01*
X106766799Y-153210885D01*
X106657646Y-152947366D01*
X106602000Y-152667616D01*
X106602000Y-152382384D01*
X106657646Y-152102634D01*
X106766799Y-151839115D01*
X106925265Y-151601954D01*
X107126954Y-151400265D01*
X107364115Y-151241799D01*
X107627634Y-151132646D01*
X107767509Y-151104823D01*
X107907383Y-151077000D01*
X108192617Y-151077000D01*
X108332491Y-151104823D01*
X108332491Y-151104823D01*
G37*
G36*
X116248228Y-151181703D02*
G01*
X116403100Y-151245853D01*
X116542481Y-151338985D01*
X116661015Y-151457519D01*
X116754147Y-151596900D01*
X116818297Y-151751772D01*
X116851000Y-151916184D01*
X116851000Y-152083816D01*
X116818297Y-152248228D01*
X116754147Y-152403100D01*
X116661015Y-152542481D01*
X116542481Y-152661015D01*
X116403100Y-152754147D01*
X116248228Y-152818297D01*
X116083816Y-152851000D01*
X115916184Y-152851000D01*
X115751772Y-152818297D01*
X115596900Y-152754147D01*
X115457519Y-152661015D01*
X115338985Y-152542481D01*
X115245853Y-152403100D01*
X115181703Y-152248228D01*
X115149000Y-152083816D01*
X115149000Y-151916184D01*
X115181703Y-151751772D01*
X115245853Y-151596900D01*
X115338985Y-151457519D01*
X115457519Y-151338985D01*
X115596900Y-151245853D01*
X115751772Y-151181703D01*
X115916184Y-151149000D01*
X116083816Y-151149000D01*
X116248228Y-151181703D01*
X116248228Y-151181703D01*
G37*
G36*
X89282491Y-147929823D02*
G01*
X89422366Y-147957646D01*
X89685885Y-148066799D01*
X89923046Y-148225265D01*
X90124735Y-148426954D01*
X90283201Y-148664115D01*
X90392354Y-148927634D01*
X90448000Y-149207384D01*
X90448000Y-149492616D01*
X90392354Y-149772366D01*
X90283201Y-150035885D01*
X90124735Y-150273046D01*
X89923046Y-150474735D01*
X89685885Y-150633201D01*
X89422366Y-150742354D01*
X89282491Y-150770177D01*
X89142617Y-150798000D01*
X88857383Y-150798000D01*
X88717509Y-150770177D01*
X88577634Y-150742354D01*
X88314115Y-150633201D01*
X88076954Y-150474735D01*
X87875265Y-150273046D01*
X87716799Y-150035885D01*
X87607646Y-149772366D01*
X87552000Y-149492616D01*
X87552000Y-149207384D01*
X87607646Y-148927634D01*
X87716799Y-148664115D01*
X87875265Y-148426954D01*
X88076954Y-148225265D01*
X88314115Y-148066799D01*
X88577634Y-147957646D01*
X88717509Y-147929823D01*
X88857383Y-147902000D01*
X89142617Y-147902000D01*
X89282491Y-147929823D01*
X89282491Y-147929823D01*
G37*
G36*
X116851000Y-149351000D02*
G01*
X115149000Y-149351000D01*
X115149000Y-147649000D01*
X116851000Y-147649000D01*
X116851000Y-149351000D01*
X116851000Y-149351000D01*
G37*
G36*
X79634239Y-140811467D02*
G01*
X79948282Y-140873934D01*
X80539926Y-141119001D01*
X81072392Y-141474784D01*
X81525216Y-141927608D01*
X81880999Y-142460074D01*
X82045570Y-142857384D01*
X82126066Y-143051719D01*
X82251000Y-143679803D01*
X82251000Y-144320197D01*
X82188533Y-144634239D01*
X82126066Y-144948282D01*
X81880999Y-145539926D01*
X81525216Y-146072392D01*
X81072392Y-146525216D01*
X80539926Y-146880999D01*
X79948282Y-147126066D01*
X79634239Y-147188533D01*
X79320197Y-147251000D01*
X78679803Y-147251000D01*
X78365761Y-147188533D01*
X78051718Y-147126066D01*
X77460074Y-146880999D01*
X76927608Y-146525216D01*
X76474784Y-146072392D01*
X76119001Y-145539926D01*
X75873934Y-144948282D01*
X75811467Y-144634239D01*
X75749000Y-144320197D01*
X75749000Y-143679803D01*
X75873934Y-143051719D01*
X75954430Y-142857384D01*
X76119001Y-142460074D01*
X76474784Y-141927608D01*
X76927608Y-141474784D01*
X77460074Y-141119001D01*
X78051718Y-140873934D01*
X78365761Y-140811467D01*
X78679803Y-140749000D01*
X79320197Y-140749000D01*
X79634239Y-140811467D01*
X79634239Y-140811467D01*
G37*
G36*
X117897617Y-143218420D02*
G01*
X117988403Y-143245960D01*
X118020335Y-143255646D01*
X118133424Y-143316094D01*
X118232554Y-143397447D01*
X118313906Y-143496575D01*
X118374354Y-143609664D01*
X118384040Y-143641596D01*
X118411580Y-143732382D01*
X118421000Y-143828027D01*
X118421000Y-144691973D01*
X118411580Y-144787618D01*
X118384040Y-144878404D01*
X118374354Y-144910336D01*
X118313906Y-145023425D01*
X118232554Y-145122554D01*
X118133425Y-145203906D01*
X118020336Y-145264354D01*
X117988404Y-145274040D01*
X117897618Y-145301580D01*
X117770000Y-145314149D01*
X117642383Y-145301580D01*
X117551597Y-145274040D01*
X117519665Y-145264354D01*
X117406576Y-145203906D01*
X117307447Y-145122554D01*
X117226095Y-145023425D01*
X117165647Y-144910336D01*
X117161282Y-144895946D01*
X117128420Y-144787618D01*
X117119000Y-144691973D01*
X117119000Y-143828028D01*
X117128420Y-143732383D01*
X117165645Y-143609669D01*
X117165646Y-143609665D01*
X117226094Y-143496576D01*
X117307447Y-143397446D01*
X117406575Y-143316094D01*
X117519664Y-143255646D01*
X117551596Y-143245960D01*
X117642382Y-143218420D01*
X117770000Y-143205851D01*
X117897617Y-143218420D01*
X117897617Y-143218420D01*
G37*
G36*
X115357617Y-143218420D02*
G01*
X115448403Y-143245960D01*
X115480335Y-143255646D01*
X115593424Y-143316094D01*
X115692554Y-143397447D01*
X115773906Y-143496575D01*
X115834354Y-143609664D01*
X115844040Y-143641596D01*
X115871580Y-143732382D01*
X115881000Y-143828027D01*
X115881000Y-144691973D01*
X115871580Y-144787618D01*
X115844040Y-144878404D01*
X115834354Y-144910336D01*
X115773906Y-145023425D01*
X115692554Y-145122554D01*
X115593425Y-145203906D01*
X115480336Y-145264354D01*
X115448404Y-145274040D01*
X115357618Y-145301580D01*
X115230000Y-145314149D01*
X115102383Y-145301580D01*
X115011597Y-145274040D01*
X114979665Y-145264354D01*
X114866576Y-145203906D01*
X114767447Y-145122554D01*
X114686095Y-145023425D01*
X114625647Y-144910336D01*
X114621282Y-144895946D01*
X114588420Y-144787618D01*
X114579000Y-144691973D01*
X114579000Y-143828028D01*
X114588420Y-143732383D01*
X114625645Y-143609669D01*
X114625646Y-143609665D01*
X114686094Y-143496576D01*
X114767447Y-143397446D01*
X114866575Y-143316094D01*
X114979664Y-143255646D01*
X115011596Y-143245960D01*
X115102382Y-143218420D01*
X115230000Y-143205851D01*
X115357617Y-143218420D01*
X115357617Y-143218420D01*
G37*
G36*
X108332491Y-141579823D02*
G01*
X108472366Y-141607646D01*
X108735885Y-141716799D01*
X108973046Y-141875265D01*
X109174735Y-142076954D01*
X109333201Y-142314115D01*
X109442354Y-142577634D01*
X109498000Y-142857384D01*
X109498000Y-143142616D01*
X109442354Y-143422366D01*
X109333201Y-143685885D01*
X109174735Y-143923046D01*
X108973046Y-144124735D01*
X108735885Y-144283201D01*
X108472366Y-144392354D01*
X108332491Y-144420177D01*
X108192617Y-144448000D01*
X107907383Y-144448000D01*
X107767509Y-144420177D01*
X107627634Y-144392354D01*
X107364115Y-144283201D01*
X107126954Y-144124735D01*
X106925265Y-143923046D01*
X106766799Y-143685885D01*
X106657646Y-143422366D01*
X106602000Y-143142616D01*
X106602000Y-142857384D01*
X106657646Y-142577634D01*
X106766799Y-142314115D01*
X106925265Y-142076954D01*
X107126954Y-141875265D01*
X107364115Y-141716799D01*
X107627634Y-141607646D01*
X107767509Y-141579823D01*
X107907383Y-141552000D01*
X108192617Y-141552000D01*
X108332491Y-141579823D01*
X108332491Y-141579823D01*
G37*
G36*
X89282491Y-141579823D02*
G01*
X89422366Y-141607646D01*
X89685885Y-141716799D01*
X89923046Y-141875265D01*
X90124735Y-142076954D01*
X90283201Y-142314115D01*
X90392354Y-142577634D01*
X90448000Y-142857384D01*
X90448000Y-143142616D01*
X90392354Y-143422366D01*
X90283201Y-143685885D01*
X90124735Y-143923046D01*
X89923046Y-144124735D01*
X89685885Y-144283201D01*
X89422366Y-144392354D01*
X89282491Y-144420177D01*
X89142617Y-144448000D01*
X88857383Y-144448000D01*
X88717509Y-144420177D01*
X88577634Y-144392354D01*
X88314115Y-144283201D01*
X88076954Y-144124735D01*
X87875265Y-143923046D01*
X87716799Y-143685885D01*
X87607646Y-143422366D01*
X87552000Y-143142616D01*
X87552000Y-142857384D01*
X87607646Y-142577634D01*
X87716799Y-142314115D01*
X87875265Y-142076954D01*
X88076954Y-141875265D01*
X88314115Y-141716799D01*
X88577634Y-141607646D01*
X88717509Y-141579823D01*
X88857383Y-141552000D01*
X89142617Y-141552000D01*
X89282491Y-141579823D01*
X89282491Y-141579823D01*
G37*
G36*
X51383512Y-139553927D02*
G01*
X51532812Y-139583624D01*
X51696784Y-139651544D01*
X51844354Y-139750147D01*
X51969853Y-139875646D01*
X52068456Y-140023216D01*
X52136376Y-140187188D01*
X52171000Y-140361259D01*
X52171000Y-140538741D01*
X52136376Y-140712812D01*
X52068456Y-140876784D01*
X51969853Y-141024354D01*
X51844354Y-141149853D01*
X51696784Y-141248456D01*
X51532812Y-141316376D01*
X51383512Y-141346073D01*
X51358742Y-141351000D01*
X51181258Y-141351000D01*
X51156488Y-141346073D01*
X51007188Y-141316376D01*
X50843216Y-141248456D01*
X50695646Y-141149853D01*
X50570147Y-141024354D01*
X50471544Y-140876784D01*
X50403624Y-140712812D01*
X50369000Y-140538741D01*
X50369000Y-140361259D01*
X50403624Y-140187188D01*
X50471544Y-140023216D01*
X50570147Y-139875646D01*
X50695646Y-139750147D01*
X50843216Y-139651544D01*
X51007188Y-139583624D01*
X51156488Y-139553927D01*
X51181258Y-139549000D01*
X51358742Y-139549000D01*
X51383512Y-139553927D01*
X51383512Y-139553927D01*
G37*
G36*
X71703512Y-139553927D02*
G01*
X71852812Y-139583624D01*
X72016784Y-139651544D01*
X72164354Y-139750147D01*
X72289853Y-139875646D01*
X72388456Y-140023216D01*
X72456376Y-140187188D01*
X72491000Y-140361259D01*
X72491000Y-140538741D01*
X72456376Y-140712812D01*
X72388456Y-140876784D01*
X72289853Y-141024354D01*
X72164354Y-141149853D01*
X72016784Y-141248456D01*
X71852812Y-141316376D01*
X71703512Y-141346073D01*
X71678742Y-141351000D01*
X71501258Y-141351000D01*
X71476488Y-141346073D01*
X71327188Y-141316376D01*
X71163216Y-141248456D01*
X71015646Y-141149853D01*
X70890147Y-141024354D01*
X70791544Y-140876784D01*
X70723624Y-140712812D01*
X70689000Y-140538741D01*
X70689000Y-140361259D01*
X70723624Y-140187188D01*
X70791544Y-140023216D01*
X70890147Y-139875646D01*
X71015646Y-139750147D01*
X71163216Y-139651544D01*
X71327188Y-139583624D01*
X71476488Y-139553927D01*
X71501258Y-139549000D01*
X71678742Y-139549000D01*
X71703512Y-139553927D01*
X71703512Y-139553927D01*
G37*
G36*
X85703855Y-138622140D02*
G01*
X85767618Y-138628420D01*
X85858404Y-138655960D01*
X85890336Y-138665646D01*
X86003425Y-138726094D01*
X86102554Y-138807446D01*
X86183906Y-138906575D01*
X86244354Y-139019664D01*
X86244355Y-139019668D01*
X86281580Y-139142382D01*
X86294149Y-139270000D01*
X86281580Y-139397618D01*
X86254040Y-139488404D01*
X86244354Y-139520336D01*
X86183906Y-139633425D01*
X86102554Y-139732554D01*
X86003425Y-139813906D01*
X85890336Y-139874354D01*
X85886073Y-139875647D01*
X85767618Y-139911580D01*
X85703855Y-139917860D01*
X85671974Y-139921000D01*
X84808026Y-139921000D01*
X84776145Y-139917860D01*
X84712382Y-139911580D01*
X84593927Y-139875647D01*
X84589664Y-139874354D01*
X84476575Y-139813906D01*
X84377446Y-139732554D01*
X84296094Y-139633425D01*
X84235646Y-139520336D01*
X84225960Y-139488404D01*
X84198420Y-139397618D01*
X84185851Y-139270000D01*
X84198420Y-139142382D01*
X84235645Y-139019668D01*
X84235646Y-139019664D01*
X84296094Y-138906575D01*
X84377446Y-138807446D01*
X84476575Y-138726094D01*
X84589664Y-138665646D01*
X84621596Y-138655960D01*
X84712382Y-138628420D01*
X84776145Y-138622140D01*
X84808026Y-138619000D01*
X85671974Y-138619000D01*
X85703855Y-138622140D01*
X85703855Y-138622140D01*
G37*
G36*
X93223855Y-138622140D02*
G01*
X93287618Y-138628420D01*
X93378404Y-138655960D01*
X93410336Y-138665646D01*
X93523425Y-138726094D01*
X93622554Y-138807446D01*
X93703906Y-138906575D01*
X93764354Y-139019664D01*
X93764355Y-139019668D01*
X93801580Y-139142382D01*
X93814149Y-139270000D01*
X93801580Y-139397618D01*
X93774040Y-139488404D01*
X93764354Y-139520336D01*
X93703906Y-139633425D01*
X93622554Y-139732554D01*
X93523425Y-139813906D01*
X93410336Y-139874354D01*
X93406073Y-139875647D01*
X93287618Y-139911580D01*
X93223855Y-139917860D01*
X93191974Y-139921000D01*
X92328026Y-139921000D01*
X92296145Y-139917860D01*
X92232382Y-139911580D01*
X92113927Y-139875647D01*
X92109664Y-139874354D01*
X91996575Y-139813906D01*
X91897446Y-139732554D01*
X91816094Y-139633425D01*
X91755646Y-139520336D01*
X91745960Y-139488404D01*
X91718420Y-139397618D01*
X91705851Y-139270000D01*
X91718420Y-139142382D01*
X91755645Y-139019668D01*
X91755646Y-139019664D01*
X91816094Y-138906575D01*
X91897446Y-138807446D01*
X91996575Y-138726094D01*
X92109664Y-138665646D01*
X92141596Y-138655960D01*
X92232382Y-138628420D01*
X92296145Y-138622140D01*
X92328026Y-138619000D01*
X93191974Y-138619000D01*
X93223855Y-138622140D01*
X93223855Y-138622140D01*
G37*
G36*
X112748228Y-137681703D02*
G01*
X112903100Y-137745853D01*
X113042481Y-137838985D01*
X113161015Y-137957519D01*
X113254147Y-138096900D01*
X113318297Y-138251772D01*
X113351000Y-138416184D01*
X113351000Y-138583816D01*
X113318297Y-138748228D01*
X113254147Y-138903100D01*
X113161015Y-139042481D01*
X113042481Y-139161015D01*
X112903100Y-139254147D01*
X112748228Y-139318297D01*
X112583816Y-139351000D01*
X112416184Y-139351000D01*
X112251772Y-139318297D01*
X112096900Y-139254147D01*
X111957519Y-139161015D01*
X111838985Y-139042481D01*
X111745853Y-138903100D01*
X111681703Y-138748228D01*
X111649000Y-138583816D01*
X111649000Y-138416184D01*
X111681703Y-138251772D01*
X111745853Y-138096900D01*
X111838985Y-137957519D01*
X111957519Y-137838985D01*
X112096900Y-137745853D01*
X112251772Y-137681703D01*
X112416184Y-137649000D01*
X112583816Y-137649000D01*
X112748228Y-137681703D01*
X112748228Y-137681703D01*
G37*
G36*
X102506823Y-137661313D02*
G01*
X102667242Y-137709976D01*
X102734361Y-137745852D01*
X102815078Y-137788996D01*
X102944659Y-137895341D01*
X103051004Y-138024922D01*
X103051005Y-138024924D01*
X103130024Y-138172758D01*
X103178687Y-138333177D01*
X103195117Y-138500000D01*
X103178687Y-138666823D01*
X103130024Y-138827242D01*
X103059114Y-138959906D01*
X103051004Y-138975078D01*
X102944659Y-139104659D01*
X102815078Y-139211004D01*
X102815076Y-139211005D01*
X102667242Y-139290024D01*
X102506823Y-139338687D01*
X102381804Y-139351000D01*
X102298196Y-139351000D01*
X102173177Y-139338687D01*
X102012758Y-139290024D01*
X101864924Y-139211005D01*
X101864922Y-139211004D01*
X101735341Y-139104659D01*
X101628996Y-138975078D01*
X101620886Y-138959906D01*
X101549976Y-138827242D01*
X101501313Y-138666823D01*
X101484883Y-138500000D01*
X101501313Y-138333177D01*
X101549976Y-138172758D01*
X101628995Y-138024924D01*
X101628996Y-138024922D01*
X101735341Y-137895341D01*
X101864922Y-137788996D01*
X101945639Y-137745852D01*
X102012758Y-137709976D01*
X102173177Y-137661313D01*
X102298196Y-137649000D01*
X102381804Y-137649000D01*
X102506823Y-137661313D01*
X102506823Y-137661313D01*
G37*
G36*
X71703512Y-137013927D02*
G01*
X71852812Y-137043624D01*
X72016784Y-137111544D01*
X72164354Y-137210147D01*
X72289853Y-137335646D01*
X72388456Y-137483216D01*
X72456376Y-137647188D01*
X72491000Y-137821259D01*
X72491000Y-137998741D01*
X72456376Y-138172812D01*
X72388456Y-138336784D01*
X72289853Y-138484354D01*
X72164354Y-138609853D01*
X72016784Y-138708456D01*
X71852812Y-138776376D01*
X71703512Y-138806073D01*
X71678742Y-138811000D01*
X71501258Y-138811000D01*
X71476488Y-138806073D01*
X71327188Y-138776376D01*
X71163216Y-138708456D01*
X71015646Y-138609853D01*
X70890147Y-138484354D01*
X70791544Y-138336784D01*
X70723624Y-138172812D01*
X70689000Y-137998741D01*
X70689000Y-137821259D01*
X70723624Y-137647188D01*
X70791544Y-137483216D01*
X70890147Y-137335646D01*
X71015646Y-137210147D01*
X71163216Y-137111544D01*
X71327188Y-137043624D01*
X71476488Y-137013927D01*
X71501258Y-137009000D01*
X71678742Y-137009000D01*
X71703512Y-137013927D01*
X71703512Y-137013927D01*
G37*
G36*
X51383512Y-137013927D02*
G01*
X51532812Y-137043624D01*
X51696784Y-137111544D01*
X51844354Y-137210147D01*
X51969853Y-137335646D01*
X52068456Y-137483216D01*
X52136376Y-137647188D01*
X52171000Y-137821259D01*
X52171000Y-137998741D01*
X52136376Y-138172812D01*
X52068456Y-138336784D01*
X51969853Y-138484354D01*
X51844354Y-138609853D01*
X51696784Y-138708456D01*
X51532812Y-138776376D01*
X51383512Y-138806073D01*
X51358742Y-138811000D01*
X51181258Y-138811000D01*
X51156488Y-138806073D01*
X51007188Y-138776376D01*
X50843216Y-138708456D01*
X50695646Y-138609853D01*
X50570147Y-138484354D01*
X50471544Y-138336784D01*
X50403624Y-138172812D01*
X50369000Y-137998741D01*
X50369000Y-137821259D01*
X50403624Y-137647188D01*
X50471544Y-137483216D01*
X50570147Y-137335646D01*
X50695646Y-137210147D01*
X50843216Y-137111544D01*
X51007188Y-137043624D01*
X51156488Y-137013927D01*
X51181258Y-137009000D01*
X51358742Y-137009000D01*
X51383512Y-137013927D01*
X51383512Y-137013927D01*
G37*
G36*
X117897617Y-135698420D02*
G01*
X117988403Y-135725960D01*
X118020335Y-135735646D01*
X118133424Y-135796094D01*
X118232554Y-135877447D01*
X118313906Y-135976575D01*
X118374354Y-136089664D01*
X118384040Y-136121596D01*
X118411580Y-136212382D01*
X118421000Y-136308027D01*
X118421000Y-137171973D01*
X118411580Y-137267618D01*
X118384040Y-137358404D01*
X118374354Y-137390336D01*
X118313906Y-137503425D01*
X118232554Y-137602554D01*
X118133425Y-137683906D01*
X118020336Y-137744354D01*
X118015394Y-137745853D01*
X117897618Y-137781580D01*
X117770000Y-137794149D01*
X117642383Y-137781580D01*
X117524607Y-137745853D01*
X117519665Y-137744354D01*
X117406576Y-137683906D01*
X117307447Y-137602554D01*
X117226095Y-137503425D01*
X117165647Y-137390336D01*
X117161282Y-137375946D01*
X117128420Y-137267618D01*
X117119000Y-137171973D01*
X117119000Y-136308028D01*
X117128420Y-136212383D01*
X117165645Y-136089669D01*
X117165646Y-136089665D01*
X117226094Y-135976576D01*
X117307447Y-135877446D01*
X117406575Y-135796094D01*
X117519664Y-135735646D01*
X117551596Y-135725960D01*
X117642382Y-135698420D01*
X117770000Y-135685851D01*
X117897617Y-135698420D01*
X117897617Y-135698420D01*
G37*
G36*
X115357617Y-135698420D02*
G01*
X115448403Y-135725960D01*
X115480335Y-135735646D01*
X115593424Y-135796094D01*
X115692554Y-135877447D01*
X115773906Y-135976575D01*
X115834354Y-136089664D01*
X115844040Y-136121596D01*
X115871580Y-136212382D01*
X115881000Y-136308027D01*
X115881000Y-137171973D01*
X115871580Y-137267618D01*
X115844040Y-137358404D01*
X115834354Y-137390336D01*
X115773906Y-137503425D01*
X115692554Y-137602554D01*
X115593425Y-137683906D01*
X115480336Y-137744354D01*
X115475394Y-137745853D01*
X115357618Y-137781580D01*
X115230000Y-137794149D01*
X115102383Y-137781580D01*
X114984607Y-137745853D01*
X114979665Y-137744354D01*
X114866576Y-137683906D01*
X114767447Y-137602554D01*
X114686095Y-137503425D01*
X114625647Y-137390336D01*
X114621282Y-137375946D01*
X114588420Y-137267618D01*
X114579000Y-137171973D01*
X114579000Y-136308028D01*
X114588420Y-136212383D01*
X114625645Y-136089669D01*
X114625646Y-136089665D01*
X114686094Y-135976576D01*
X114767447Y-135877446D01*
X114866575Y-135796094D01*
X114979664Y-135735646D01*
X115011596Y-135725960D01*
X115102382Y-135698420D01*
X115230000Y-135685851D01*
X115357617Y-135698420D01*
X115357617Y-135698420D01*
G37*
G36*
X98744098Y-132547033D02*
G01*
X99208350Y-132739332D01*
X99208352Y-132739333D01*
X99626168Y-133018509D01*
X99981491Y-133373832D01*
X100260667Y-133791648D01*
X100260668Y-133791650D01*
X100452967Y-134255902D01*
X100551000Y-134748747D01*
X100551000Y-135251253D01*
X100452967Y-135744098D01*
X100269887Y-136186094D01*
X100260667Y-136208352D01*
X99981491Y-136626168D01*
X99626168Y-136981491D01*
X99208352Y-137260667D01*
X99208351Y-137260668D01*
X99208350Y-137260668D01*
X98744098Y-137452967D01*
X98251253Y-137551000D01*
X97748747Y-137551000D01*
X97255902Y-137452967D01*
X96791650Y-137260668D01*
X96791649Y-137260668D01*
X96791648Y-137260667D01*
X96373832Y-136981491D01*
X96018509Y-136626168D01*
X95739333Y-136208352D01*
X95730113Y-136186094D01*
X95547033Y-135744098D01*
X95449000Y-135251253D01*
X95449000Y-134748747D01*
X95547033Y-134255902D01*
X95739332Y-133791650D01*
X95739333Y-133791648D01*
X96018509Y-133373832D01*
X96373832Y-133018509D01*
X96791648Y-132739333D01*
X96791650Y-132739332D01*
X97255902Y-132547033D01*
X97748747Y-132449000D01*
X98251253Y-132449000D01*
X98744098Y-132547033D01*
X98744098Y-132547033D01*
G37*
G36*
X85703855Y-136082140D02*
G01*
X85767618Y-136088420D01*
X85858404Y-136115960D01*
X85890336Y-136125646D01*
X86003425Y-136186094D01*
X86102554Y-136267446D01*
X86183906Y-136366575D01*
X86244354Y-136479664D01*
X86244355Y-136479668D01*
X86281580Y-136602382D01*
X86294149Y-136730000D01*
X86281580Y-136857618D01*
X86254040Y-136948404D01*
X86244354Y-136980336D01*
X86183906Y-137093425D01*
X86102554Y-137192554D01*
X86003425Y-137273906D01*
X85890336Y-137334354D01*
X85886073Y-137335647D01*
X85767618Y-137371580D01*
X85703855Y-137377860D01*
X85671974Y-137381000D01*
X84808026Y-137381000D01*
X84776145Y-137377860D01*
X84712382Y-137371580D01*
X84593927Y-137335647D01*
X84589664Y-137334354D01*
X84476575Y-137273906D01*
X84377446Y-137192554D01*
X84296094Y-137093425D01*
X84235646Y-136980336D01*
X84225960Y-136948404D01*
X84198420Y-136857618D01*
X84185851Y-136730000D01*
X84198420Y-136602382D01*
X84235645Y-136479668D01*
X84235646Y-136479664D01*
X84296094Y-136366575D01*
X84377446Y-136267446D01*
X84476575Y-136186094D01*
X84589664Y-136125646D01*
X84621596Y-136115960D01*
X84712382Y-136088420D01*
X84776145Y-136082140D01*
X84808026Y-136079000D01*
X85671974Y-136079000D01*
X85703855Y-136082140D01*
X85703855Y-136082140D01*
G37*
G36*
X93223855Y-136082140D02*
G01*
X93287618Y-136088420D01*
X93378404Y-136115960D01*
X93410336Y-136125646D01*
X93523425Y-136186094D01*
X93622554Y-136267446D01*
X93703906Y-136366575D01*
X93764354Y-136479664D01*
X93764355Y-136479668D01*
X93801580Y-136602382D01*
X93814149Y-136730000D01*
X93801580Y-136857618D01*
X93774040Y-136948404D01*
X93764354Y-136980336D01*
X93703906Y-137093425D01*
X93622554Y-137192554D01*
X93523425Y-137273906D01*
X93410336Y-137334354D01*
X93406073Y-137335647D01*
X93287618Y-137371580D01*
X93223855Y-137377860D01*
X93191974Y-137381000D01*
X92328026Y-137381000D01*
X92296145Y-137377860D01*
X92232382Y-137371580D01*
X92113927Y-137335647D01*
X92109664Y-137334354D01*
X91996575Y-137273906D01*
X91897446Y-137192554D01*
X91816094Y-137093425D01*
X91755646Y-136980336D01*
X91745960Y-136948404D01*
X91718420Y-136857618D01*
X91705851Y-136730000D01*
X91718420Y-136602382D01*
X91755645Y-136479668D01*
X91755646Y-136479664D01*
X91816094Y-136366575D01*
X91897446Y-136267446D01*
X91996575Y-136186094D01*
X92109664Y-136125646D01*
X92141596Y-136115960D01*
X92232382Y-136088420D01*
X92296145Y-136082140D01*
X92328026Y-136079000D01*
X93191974Y-136079000D01*
X93223855Y-136082140D01*
X93223855Y-136082140D01*
G37*
G36*
X71703512Y-134473927D02*
G01*
X71852812Y-134503624D01*
X72016784Y-134571544D01*
X72164354Y-134670147D01*
X72289853Y-134795646D01*
X72388456Y-134943216D01*
X72456376Y-135107188D01*
X72491000Y-135281259D01*
X72491000Y-135458741D01*
X72456376Y-135632812D01*
X72388456Y-135796784D01*
X72289853Y-135944354D01*
X72164354Y-136069853D01*
X72016784Y-136168456D01*
X71852812Y-136236376D01*
X71703512Y-136266073D01*
X71678742Y-136271000D01*
X71501258Y-136271000D01*
X71476488Y-136266073D01*
X71327188Y-136236376D01*
X71163216Y-136168456D01*
X71015646Y-136069853D01*
X70890147Y-135944354D01*
X70791544Y-135796784D01*
X70723624Y-135632812D01*
X70689000Y-135458741D01*
X70689000Y-135281259D01*
X70723624Y-135107188D01*
X70791544Y-134943216D01*
X70890147Y-134795646D01*
X71015646Y-134670147D01*
X71163216Y-134571544D01*
X71327188Y-134503624D01*
X71476488Y-134473927D01*
X71501258Y-134469000D01*
X71678742Y-134469000D01*
X71703512Y-134473927D01*
X71703512Y-134473927D01*
G37*
G36*
X51383512Y-134473927D02*
G01*
X51532812Y-134503624D01*
X51696784Y-134571544D01*
X51844354Y-134670147D01*
X51969853Y-134795646D01*
X52068456Y-134943216D01*
X52136376Y-135107188D01*
X52171000Y-135281259D01*
X52171000Y-135458741D01*
X52136376Y-135632812D01*
X52068456Y-135796784D01*
X51969853Y-135944354D01*
X51844354Y-136069853D01*
X51696784Y-136168456D01*
X51532812Y-136236376D01*
X51383512Y-136266073D01*
X51358742Y-136271000D01*
X51181258Y-136271000D01*
X51156488Y-136266073D01*
X51007188Y-136236376D01*
X50843216Y-136168456D01*
X50695646Y-136069853D01*
X50570147Y-135944354D01*
X50471544Y-135796784D01*
X50403624Y-135632812D01*
X50369000Y-135458741D01*
X50369000Y-135281259D01*
X50403624Y-135107188D01*
X50471544Y-134943216D01*
X50570147Y-134795646D01*
X50695646Y-134670147D01*
X50843216Y-134571544D01*
X51007188Y-134503624D01*
X51156488Y-134473927D01*
X51181258Y-134469000D01*
X51358742Y-134469000D01*
X51383512Y-134473927D01*
X51383512Y-134473927D01*
G37*
G36*
X77748228Y-133181703D02*
G01*
X77903100Y-133245853D01*
X78042481Y-133338985D01*
X78161015Y-133457519D01*
X78254147Y-133596900D01*
X78318297Y-133751772D01*
X78351000Y-133916184D01*
X78351000Y-134083816D01*
X78318297Y-134248228D01*
X78254147Y-134403100D01*
X78161015Y-134542481D01*
X78042481Y-134661015D01*
X77903100Y-134754147D01*
X77748228Y-134818297D01*
X77583816Y-134851000D01*
X77416184Y-134851000D01*
X77251772Y-134818297D01*
X77096900Y-134754147D01*
X76957519Y-134661015D01*
X76838985Y-134542481D01*
X76745853Y-134403100D01*
X76681703Y-134248228D01*
X76649000Y-134083816D01*
X76649000Y-133916184D01*
X76681703Y-133751772D01*
X76745853Y-133596900D01*
X76838985Y-133457519D01*
X76957519Y-133338985D01*
X77096900Y-133245853D01*
X77251772Y-133181703D01*
X77416184Y-133149000D01*
X77583816Y-133149000D01*
X77748228Y-133181703D01*
X77748228Y-133181703D01*
G37*
G36*
X81851000Y-134851000D02*
G01*
X80149000Y-134851000D01*
X80149000Y-133149000D01*
X81851000Y-133149000D01*
X81851000Y-134851000D01*
X81851000Y-134851000D01*
G37*
G36*
X71703512Y-131933927D02*
G01*
X71852812Y-131963624D01*
X72016784Y-132031544D01*
X72164354Y-132130147D01*
X72289853Y-132255646D01*
X72388456Y-132403216D01*
X72456376Y-132567188D01*
X72491000Y-132741259D01*
X72491000Y-132918741D01*
X72456376Y-133092812D01*
X72388456Y-133256784D01*
X72289853Y-133404354D01*
X72164354Y-133529853D01*
X72016784Y-133628456D01*
X71852812Y-133696376D01*
X71703512Y-133726073D01*
X71678742Y-133731000D01*
X71501258Y-133731000D01*
X71476488Y-133726073D01*
X71327188Y-133696376D01*
X71163216Y-133628456D01*
X71015646Y-133529853D01*
X70890147Y-133404354D01*
X70791544Y-133256784D01*
X70723624Y-133092812D01*
X70689000Y-132918741D01*
X70689000Y-132741259D01*
X70723624Y-132567188D01*
X70791544Y-132403216D01*
X70890147Y-132255646D01*
X71015646Y-132130147D01*
X71163216Y-132031544D01*
X71327188Y-131963624D01*
X71476488Y-131933927D01*
X71501258Y-131929000D01*
X71678742Y-131929000D01*
X71703512Y-131933927D01*
X71703512Y-131933927D01*
G37*
G36*
X51383512Y-131933927D02*
G01*
X51532812Y-131963624D01*
X51696784Y-132031544D01*
X51844354Y-132130147D01*
X51969853Y-132255646D01*
X52068456Y-132403216D01*
X52136376Y-132567188D01*
X52171000Y-132741259D01*
X52171000Y-132918741D01*
X52136376Y-133092812D01*
X52068456Y-133256784D01*
X51969853Y-133404354D01*
X51844354Y-133529853D01*
X51696784Y-133628456D01*
X51532812Y-133696376D01*
X51383512Y-133726073D01*
X51358742Y-133731000D01*
X51181258Y-133731000D01*
X51156488Y-133726073D01*
X51007188Y-133696376D01*
X50843216Y-133628456D01*
X50695646Y-133529853D01*
X50570147Y-133404354D01*
X50471544Y-133256784D01*
X50403624Y-133092812D01*
X50369000Y-132918741D01*
X50369000Y-132741259D01*
X50403624Y-132567188D01*
X50471544Y-132403216D01*
X50570147Y-132255646D01*
X50695646Y-132130147D01*
X50843216Y-132031544D01*
X51007188Y-131963624D01*
X51156488Y-131933927D01*
X51181258Y-131929000D01*
X51358742Y-131929000D01*
X51383512Y-131933927D01*
X51383512Y-131933927D01*
G37*
G36*
X120744098Y-128547033D02*
G01*
X121208350Y-128739332D01*
X121208352Y-128739333D01*
X121626168Y-129018509D01*
X121981491Y-129373832D01*
X122260667Y-129791648D01*
X122260668Y-129791650D01*
X122452967Y-130255902D01*
X122551000Y-130748747D01*
X122551000Y-131251253D01*
X122452967Y-131744098D01*
X122293060Y-132130148D01*
X122260667Y-132208352D01*
X121981491Y-132626168D01*
X121626168Y-132981491D01*
X121208352Y-133260667D01*
X121208351Y-133260668D01*
X121208350Y-133260668D01*
X120744098Y-133452967D01*
X120251253Y-133551000D01*
X119748747Y-133551000D01*
X119255902Y-133452967D01*
X118791650Y-133260668D01*
X118791649Y-133260668D01*
X118791648Y-133260667D01*
X118373832Y-132981491D01*
X118018509Y-132626168D01*
X117739333Y-132208352D01*
X117706940Y-132130148D01*
X117547033Y-131744098D01*
X117449000Y-131251253D01*
X117449000Y-130748747D01*
X117547033Y-130255902D01*
X117739332Y-129791650D01*
X117739333Y-129791648D01*
X118018509Y-129373832D01*
X118373832Y-129018509D01*
X118791648Y-128739333D01*
X118791650Y-128739332D01*
X119255902Y-128547033D01*
X119748747Y-128449000D01*
X120251253Y-128449000D01*
X120744098Y-128547033D01*
X120744098Y-128547033D01*
G37*
G36*
X51383512Y-129393927D02*
G01*
X51532812Y-129423624D01*
X51696784Y-129491544D01*
X51844354Y-129590147D01*
X51969853Y-129715646D01*
X52068456Y-129863216D01*
X52136376Y-130027188D01*
X52171000Y-130201259D01*
X52171000Y-130378741D01*
X52136376Y-130552812D01*
X52068456Y-130716784D01*
X51969853Y-130864354D01*
X51844354Y-130989853D01*
X51696784Y-131088456D01*
X51532812Y-131156376D01*
X51383512Y-131186073D01*
X51358742Y-131191000D01*
X51181258Y-131191000D01*
X51156488Y-131186073D01*
X51007188Y-131156376D01*
X50843216Y-131088456D01*
X50695646Y-130989853D01*
X50570147Y-130864354D01*
X50471544Y-130716784D01*
X50403624Y-130552812D01*
X50369000Y-130378741D01*
X50369000Y-130201259D01*
X50403624Y-130027188D01*
X50471544Y-129863216D01*
X50570147Y-129715646D01*
X50695646Y-129590147D01*
X50843216Y-129491544D01*
X51007188Y-129423624D01*
X51156488Y-129393927D01*
X51181258Y-129389000D01*
X51358742Y-129389000D01*
X51383512Y-129393927D01*
X51383512Y-129393927D01*
G37*
G36*
X71703512Y-129393927D02*
G01*
X71852812Y-129423624D01*
X72016784Y-129491544D01*
X72164354Y-129590147D01*
X72289853Y-129715646D01*
X72388456Y-129863216D01*
X72456376Y-130027188D01*
X72491000Y-130201259D01*
X72491000Y-130378741D01*
X72456376Y-130552812D01*
X72388456Y-130716784D01*
X72289853Y-130864354D01*
X72164354Y-130989853D01*
X72016784Y-131088456D01*
X71852812Y-131156376D01*
X71703512Y-131186073D01*
X71678742Y-131191000D01*
X71501258Y-131191000D01*
X71476488Y-131186073D01*
X71327188Y-131156376D01*
X71163216Y-131088456D01*
X71015646Y-130989853D01*
X70890147Y-130864354D01*
X70791544Y-130716784D01*
X70723624Y-130552812D01*
X70689000Y-130378741D01*
X70689000Y-130201259D01*
X70723624Y-130027188D01*
X70791544Y-129863216D01*
X70890147Y-129715646D01*
X71015646Y-129590147D01*
X71163216Y-129491544D01*
X71327188Y-129423624D01*
X71476488Y-129393927D01*
X71501258Y-129389000D01*
X71678742Y-129389000D01*
X71703512Y-129393927D01*
X71703512Y-129393927D01*
G37*
G36*
X85451000Y-128951000D02*
G01*
X83549000Y-128951000D01*
X83549000Y-127049000D01*
X85451000Y-127049000D01*
X85451000Y-128951000D01*
X85451000Y-128951000D01*
G37*
G36*
X76248228Y-127181703D02*
G01*
X76403100Y-127245853D01*
X76542481Y-127338985D01*
X76661015Y-127457519D01*
X76754147Y-127596900D01*
X76818297Y-127751772D01*
X76851000Y-127916184D01*
X76851000Y-128083816D01*
X76818297Y-128248228D01*
X76754147Y-128403100D01*
X76661015Y-128542481D01*
X76542481Y-128661015D01*
X76403100Y-128754147D01*
X76248228Y-128818297D01*
X76083816Y-128851000D01*
X75916184Y-128851000D01*
X75751772Y-128818297D01*
X75596900Y-128754147D01*
X75457519Y-128661015D01*
X75338985Y-128542481D01*
X75245853Y-128403100D01*
X75181703Y-128248228D01*
X75149000Y-128083816D01*
X75149000Y-127916184D01*
X75181703Y-127751772D01*
X75245853Y-127596900D01*
X75338985Y-127457519D01*
X75457519Y-127338985D01*
X75596900Y-127245853D01*
X75751772Y-127181703D01*
X75916184Y-127149000D01*
X76083816Y-127149000D01*
X76248228Y-127181703D01*
X76248228Y-127181703D01*
G37*
G36*
X80248228Y-127181703D02*
G01*
X80403100Y-127245853D01*
X80542481Y-127338985D01*
X80661015Y-127457519D01*
X80754147Y-127596900D01*
X80818297Y-127751772D01*
X80851000Y-127916184D01*
X80851000Y-128083816D01*
X80818297Y-128248228D01*
X80754147Y-128403100D01*
X80661015Y-128542481D01*
X80542481Y-128661015D01*
X80403100Y-128754147D01*
X80248228Y-128818297D01*
X80083816Y-128851000D01*
X79916184Y-128851000D01*
X79751772Y-128818297D01*
X79596900Y-128754147D01*
X79457519Y-128661015D01*
X79338985Y-128542481D01*
X79245853Y-128403100D01*
X79181703Y-128248228D01*
X79149000Y-128083816D01*
X79149000Y-127916184D01*
X79181703Y-127751772D01*
X79245853Y-127596900D01*
X79338985Y-127457519D01*
X79457519Y-127338985D01*
X79596900Y-127245853D01*
X79751772Y-127181703D01*
X79916184Y-127149000D01*
X80083816Y-127149000D01*
X80248228Y-127181703D01*
X80248228Y-127181703D01*
G37*
G36*
X71703512Y-126853927D02*
G01*
X71852812Y-126883624D01*
X72016784Y-126951544D01*
X72164354Y-127050147D01*
X72289853Y-127175646D01*
X72388456Y-127323216D01*
X72456376Y-127487188D01*
X72491000Y-127661259D01*
X72491000Y-127838741D01*
X72456376Y-128012812D01*
X72388456Y-128176784D01*
X72289853Y-128324354D01*
X72164354Y-128449853D01*
X72016784Y-128548456D01*
X71852812Y-128616376D01*
X71703512Y-128646073D01*
X71678742Y-128651000D01*
X71501258Y-128651000D01*
X71476488Y-128646073D01*
X71327188Y-128616376D01*
X71163216Y-128548456D01*
X71015646Y-128449853D01*
X70890147Y-128324354D01*
X70791544Y-128176784D01*
X70723624Y-128012812D01*
X70689000Y-127838741D01*
X70689000Y-127661259D01*
X70723624Y-127487188D01*
X70791544Y-127323216D01*
X70890147Y-127175646D01*
X71015646Y-127050147D01*
X71163216Y-126951544D01*
X71327188Y-126883624D01*
X71476488Y-126853927D01*
X71501258Y-126849000D01*
X71678742Y-126849000D01*
X71703512Y-126853927D01*
X71703512Y-126853927D01*
G37*
G36*
X51383512Y-126853927D02*
G01*
X51532812Y-126883624D01*
X51696784Y-126951544D01*
X51844354Y-127050147D01*
X51969853Y-127175646D01*
X52068456Y-127323216D01*
X52136376Y-127487188D01*
X52171000Y-127661259D01*
X52171000Y-127838741D01*
X52136376Y-128012812D01*
X52068456Y-128176784D01*
X51969853Y-128324354D01*
X51844354Y-128449853D01*
X51696784Y-128548456D01*
X51532812Y-128616376D01*
X51383512Y-128646073D01*
X51358742Y-128651000D01*
X51181258Y-128651000D01*
X51156488Y-128646073D01*
X51007188Y-128616376D01*
X50843216Y-128548456D01*
X50695646Y-128449853D01*
X50570147Y-128324354D01*
X50471544Y-128176784D01*
X50403624Y-128012812D01*
X50369000Y-127838741D01*
X50369000Y-127661259D01*
X50403624Y-127487188D01*
X50471544Y-127323216D01*
X50570147Y-127175646D01*
X50695646Y-127050147D01*
X50843216Y-126951544D01*
X51007188Y-126883624D01*
X51156488Y-126853927D01*
X51181258Y-126849000D01*
X51358742Y-126849000D01*
X51383512Y-126853927D01*
X51383512Y-126853927D01*
G37*
G36*
X51383512Y-124313927D02*
G01*
X51532812Y-124343624D01*
X51696784Y-124411544D01*
X51844354Y-124510147D01*
X51969853Y-124635646D01*
X52068456Y-124783216D01*
X52136376Y-124947188D01*
X52171000Y-125121259D01*
X52171000Y-125298741D01*
X52136376Y-125472812D01*
X52068456Y-125636784D01*
X51969853Y-125784354D01*
X51844354Y-125909853D01*
X51696784Y-126008456D01*
X51532812Y-126076376D01*
X51383512Y-126106073D01*
X51358742Y-126111000D01*
X51181258Y-126111000D01*
X51156488Y-126106073D01*
X51007188Y-126076376D01*
X50843216Y-126008456D01*
X50695646Y-125909853D01*
X50570147Y-125784354D01*
X50471544Y-125636784D01*
X50403624Y-125472812D01*
X50369000Y-125298741D01*
X50369000Y-125121259D01*
X50403624Y-124947188D01*
X50471544Y-124783216D01*
X50570147Y-124635646D01*
X50695646Y-124510147D01*
X50843216Y-124411544D01*
X51007188Y-124343624D01*
X51156488Y-124313927D01*
X51181258Y-124309000D01*
X51358742Y-124309000D01*
X51383512Y-124313927D01*
X51383512Y-124313927D01*
G37*
G36*
X71703512Y-124313927D02*
G01*
X71852812Y-124343624D01*
X72016784Y-124411544D01*
X72164354Y-124510147D01*
X72289853Y-124635646D01*
X72388456Y-124783216D01*
X72456376Y-124947188D01*
X72491000Y-125121259D01*
X72491000Y-125298741D01*
X72456376Y-125472812D01*
X72388456Y-125636784D01*
X72289853Y-125784354D01*
X72164354Y-125909853D01*
X72016784Y-126008456D01*
X71852812Y-126076376D01*
X71703512Y-126106073D01*
X71678742Y-126111000D01*
X71501258Y-126111000D01*
X71476488Y-126106073D01*
X71327188Y-126076376D01*
X71163216Y-126008456D01*
X71015646Y-125909853D01*
X70890147Y-125784354D01*
X70791544Y-125636784D01*
X70723624Y-125472812D01*
X70689000Y-125298741D01*
X70689000Y-125121259D01*
X70723624Y-124947188D01*
X70791544Y-124783216D01*
X70890147Y-124635646D01*
X71015646Y-124510147D01*
X71163216Y-124411544D01*
X71327188Y-124343624D01*
X71476488Y-124313927D01*
X71501258Y-124309000D01*
X71678742Y-124309000D01*
X71703512Y-124313927D01*
X71703512Y-124313927D01*
G37*
G36*
X71703512Y-121773927D02*
G01*
X71852812Y-121803624D01*
X72016784Y-121871544D01*
X72164354Y-121970147D01*
X72289853Y-122095646D01*
X72388456Y-122243216D01*
X72456376Y-122407188D01*
X72491000Y-122581259D01*
X72491000Y-122758741D01*
X72456376Y-122932812D01*
X72388456Y-123096784D01*
X72289853Y-123244354D01*
X72164354Y-123369853D01*
X72016784Y-123468456D01*
X71852812Y-123536376D01*
X71703512Y-123566073D01*
X71678742Y-123571000D01*
X71501258Y-123571000D01*
X71476488Y-123566073D01*
X71327188Y-123536376D01*
X71163216Y-123468456D01*
X71015646Y-123369853D01*
X70890147Y-123244354D01*
X70791544Y-123096784D01*
X70723624Y-122932812D01*
X70689000Y-122758741D01*
X70689000Y-122581259D01*
X70723624Y-122407188D01*
X70791544Y-122243216D01*
X70890147Y-122095646D01*
X71015646Y-121970147D01*
X71163216Y-121871544D01*
X71327188Y-121803624D01*
X71476488Y-121773927D01*
X71501258Y-121769000D01*
X71678742Y-121769000D01*
X71703512Y-121773927D01*
X71703512Y-121773927D01*
G37*
G36*
X51383512Y-121773927D02*
G01*
X51532812Y-121803624D01*
X51696784Y-121871544D01*
X51844354Y-121970147D01*
X51969853Y-122095646D01*
X52068456Y-122243216D01*
X52136376Y-122407188D01*
X52171000Y-122581259D01*
X52171000Y-122758741D01*
X52136376Y-122932812D01*
X52068456Y-123096784D01*
X51969853Y-123244354D01*
X51844354Y-123369853D01*
X51696784Y-123468456D01*
X51532812Y-123536376D01*
X51383512Y-123566073D01*
X51358742Y-123571000D01*
X51181258Y-123571000D01*
X51156488Y-123566073D01*
X51007188Y-123536376D01*
X50843216Y-123468456D01*
X50695646Y-123369853D01*
X50570147Y-123244354D01*
X50471544Y-123096784D01*
X50403624Y-122932812D01*
X50369000Y-122758741D01*
X50369000Y-122581259D01*
X50403624Y-122407188D01*
X50471544Y-122243216D01*
X50570147Y-122095646D01*
X50695646Y-121970147D01*
X50843216Y-121871544D01*
X51007188Y-121803624D01*
X51156488Y-121773927D01*
X51181258Y-121769000D01*
X51358742Y-121769000D01*
X51383512Y-121773927D01*
X51383512Y-121773927D01*
G37*
G36*
X71703512Y-119233927D02*
G01*
X71852812Y-119263624D01*
X72016784Y-119331544D01*
X72164354Y-119430147D01*
X72289853Y-119555646D01*
X72388456Y-119703216D01*
X72456376Y-119867188D01*
X72491000Y-120041259D01*
X72491000Y-120218741D01*
X72456376Y-120392812D01*
X72388456Y-120556784D01*
X72289853Y-120704354D01*
X72164354Y-120829853D01*
X72016784Y-120928456D01*
X71852812Y-120996376D01*
X71703512Y-121026073D01*
X71678742Y-121031000D01*
X71501258Y-121031000D01*
X71476488Y-121026073D01*
X71327188Y-120996376D01*
X71163216Y-120928456D01*
X71015646Y-120829853D01*
X70890147Y-120704354D01*
X70791544Y-120556784D01*
X70723624Y-120392812D01*
X70689000Y-120218741D01*
X70689000Y-120041259D01*
X70723624Y-119867188D01*
X70791544Y-119703216D01*
X70890147Y-119555646D01*
X71015646Y-119430147D01*
X71163216Y-119331544D01*
X71327188Y-119263624D01*
X71476488Y-119233927D01*
X71501258Y-119229000D01*
X71678742Y-119229000D01*
X71703512Y-119233927D01*
X71703512Y-119233927D01*
G37*
G36*
X51383512Y-119233927D02*
G01*
X51532812Y-119263624D01*
X51696784Y-119331544D01*
X51844354Y-119430147D01*
X51969853Y-119555646D01*
X52068456Y-119703216D01*
X52136376Y-119867188D01*
X52171000Y-120041259D01*
X52171000Y-120218741D01*
X52136376Y-120392812D01*
X52068456Y-120556784D01*
X51969853Y-120704354D01*
X51844354Y-120829853D01*
X51696784Y-120928456D01*
X51532812Y-120996376D01*
X51383512Y-121026073D01*
X51358742Y-121031000D01*
X51181258Y-121031000D01*
X51156488Y-121026073D01*
X51007188Y-120996376D01*
X50843216Y-120928456D01*
X50695646Y-120829853D01*
X50570147Y-120704354D01*
X50471544Y-120556784D01*
X50403624Y-120392812D01*
X50369000Y-120218741D01*
X50369000Y-120041259D01*
X50403624Y-119867188D01*
X50471544Y-119703216D01*
X50570147Y-119555646D01*
X50695646Y-119430147D01*
X50843216Y-119331544D01*
X51007188Y-119263624D01*
X51156488Y-119233927D01*
X51181258Y-119229000D01*
X51358742Y-119229000D01*
X51383512Y-119233927D01*
X51383512Y-119233927D01*
G37*
G36*
X84686425Y-116902760D02*
G01*
X84686428Y-116902761D01*
X84686429Y-116902761D01*
X84865693Y-116957140D01*
X84865696Y-116957142D01*
X84865697Y-116957142D01*
X85030903Y-117045446D01*
X85175712Y-117164288D01*
X85294554Y-117309097D01*
X85382858Y-117474303D01*
X85382860Y-117474307D01*
X85437239Y-117653571D01*
X85437240Y-117653575D01*
X85455601Y-117840000D01*
X85437240Y-118026425D01*
X85437239Y-118026428D01*
X85437239Y-118026429D01*
X85382860Y-118205693D01*
X85382858Y-118205696D01*
X85382858Y-118205697D01*
X85294554Y-118370903D01*
X85175712Y-118515712D01*
X85030903Y-118634554D01*
X84925299Y-118691000D01*
X84865693Y-118722860D01*
X84686429Y-118777239D01*
X84686428Y-118777239D01*
X84686425Y-118777240D01*
X84546718Y-118791000D01*
X84453282Y-118791000D01*
X84313575Y-118777240D01*
X84313572Y-118777239D01*
X84313571Y-118777239D01*
X84134307Y-118722860D01*
X84074701Y-118691000D01*
X83969097Y-118634554D01*
X83824288Y-118515712D01*
X83705446Y-118370903D01*
X83617142Y-118205697D01*
X83617142Y-118205696D01*
X83617140Y-118205693D01*
X83562761Y-118026429D01*
X83562761Y-118026428D01*
X83562760Y-118026425D01*
X83544399Y-117840000D01*
X83562760Y-117653575D01*
X83562761Y-117653571D01*
X83617140Y-117474307D01*
X83617142Y-117474303D01*
X83705446Y-117309097D01*
X83824288Y-117164288D01*
X83969097Y-117045446D01*
X84134303Y-116957142D01*
X84134304Y-116957142D01*
X84134307Y-116957140D01*
X84313571Y-116902761D01*
X84313572Y-116902761D01*
X84313575Y-116902760D01*
X84453282Y-116889000D01*
X84546718Y-116889000D01*
X84686425Y-116902760D01*
X84686425Y-116902760D01*
G37*
G36*
X80166823Y-117001313D02*
G01*
X80327242Y-117049976D01*
X80459906Y-117120886D01*
X80475078Y-117128996D01*
X80604659Y-117235341D01*
X80711004Y-117364922D01*
X80711005Y-117364924D01*
X80790024Y-117512758D01*
X80838687Y-117673177D01*
X80855117Y-117840000D01*
X80838687Y-118006823D01*
X80790024Y-118167242D01*
X80724487Y-118289853D01*
X80711004Y-118315078D01*
X80604659Y-118444659D01*
X80475078Y-118551004D01*
X80475076Y-118551005D01*
X80327242Y-118630024D01*
X80166823Y-118678687D01*
X80041804Y-118691000D01*
X79958196Y-118691000D01*
X79833177Y-118678687D01*
X79672758Y-118630024D01*
X79524924Y-118551005D01*
X79524922Y-118551004D01*
X79395341Y-118444659D01*
X79288996Y-118315078D01*
X79275513Y-118289853D01*
X79209976Y-118167242D01*
X79161313Y-118006823D01*
X79144883Y-117840000D01*
X79161313Y-117673177D01*
X79209976Y-117512758D01*
X79288995Y-117364924D01*
X79288996Y-117364922D01*
X79395341Y-117235341D01*
X79524922Y-117128996D01*
X79540094Y-117120886D01*
X79672758Y-117049976D01*
X79833177Y-117001313D01*
X79958196Y-116989000D01*
X80041804Y-116989000D01*
X80166823Y-117001313D01*
X80166823Y-117001313D01*
G37*
G36*
X76166823Y-117001313D02*
G01*
X76327242Y-117049976D01*
X76459906Y-117120886D01*
X76475078Y-117128996D01*
X76604659Y-117235341D01*
X76711004Y-117364922D01*
X76711005Y-117364924D01*
X76790024Y-117512758D01*
X76838687Y-117673177D01*
X76855117Y-117840000D01*
X76838687Y-118006823D01*
X76790024Y-118167242D01*
X76724487Y-118289853D01*
X76711004Y-118315078D01*
X76604659Y-118444659D01*
X76475078Y-118551004D01*
X76475076Y-118551005D01*
X76327242Y-118630024D01*
X76166823Y-118678687D01*
X76041804Y-118691000D01*
X75958196Y-118691000D01*
X75833177Y-118678687D01*
X75672758Y-118630024D01*
X75524924Y-118551005D01*
X75524922Y-118551004D01*
X75395341Y-118444659D01*
X75288996Y-118315078D01*
X75275513Y-118289853D01*
X75209976Y-118167242D01*
X75161313Y-118006823D01*
X75144883Y-117840000D01*
X75161313Y-117673177D01*
X75209976Y-117512758D01*
X75288995Y-117364924D01*
X75288996Y-117364922D01*
X75395341Y-117235341D01*
X75524922Y-117128996D01*
X75540094Y-117120886D01*
X75672758Y-117049976D01*
X75833177Y-117001313D01*
X75958196Y-116989000D01*
X76041804Y-116989000D01*
X76166823Y-117001313D01*
X76166823Y-117001313D01*
G37*
G36*
X51383512Y-116693927D02*
G01*
X51532812Y-116723624D01*
X51696784Y-116791544D01*
X51844354Y-116890147D01*
X51969853Y-117015646D01*
X52068456Y-117163216D01*
X52136376Y-117327188D01*
X52171000Y-117501259D01*
X52171000Y-117678741D01*
X52136376Y-117852812D01*
X52068456Y-118016784D01*
X51969853Y-118164354D01*
X51844354Y-118289853D01*
X51696784Y-118388456D01*
X51532812Y-118456376D01*
X51383512Y-118486073D01*
X51358742Y-118491000D01*
X51181258Y-118491000D01*
X51156488Y-118486073D01*
X51007188Y-118456376D01*
X50843216Y-118388456D01*
X50695646Y-118289853D01*
X50570147Y-118164354D01*
X50471544Y-118016784D01*
X50403624Y-117852812D01*
X50369000Y-117678741D01*
X50369000Y-117501259D01*
X50403624Y-117327188D01*
X50471544Y-117163216D01*
X50570147Y-117015646D01*
X50695646Y-116890147D01*
X50843216Y-116791544D01*
X51007188Y-116723624D01*
X51156488Y-116693927D01*
X51181258Y-116689000D01*
X51358742Y-116689000D01*
X51383512Y-116693927D01*
X51383512Y-116693927D01*
G37*
G36*
X71703512Y-116693927D02*
G01*
X71852812Y-116723624D01*
X72016784Y-116791544D01*
X72164354Y-116890147D01*
X72289853Y-117015646D01*
X72388456Y-117163216D01*
X72456376Y-117327188D01*
X72491000Y-117501259D01*
X72491000Y-117678741D01*
X72456376Y-117852812D01*
X72388456Y-118016784D01*
X72289853Y-118164354D01*
X72164354Y-118289853D01*
X72016784Y-118388456D01*
X71852812Y-118456376D01*
X71703512Y-118486073D01*
X71678742Y-118491000D01*
X71501258Y-118491000D01*
X71476488Y-118486073D01*
X71327188Y-118456376D01*
X71163216Y-118388456D01*
X71015646Y-118289853D01*
X70890147Y-118164354D01*
X70791544Y-118016784D01*
X70723624Y-117852812D01*
X70689000Y-117678741D01*
X70689000Y-117501259D01*
X70723624Y-117327188D01*
X70791544Y-117163216D01*
X70890147Y-117015646D01*
X71015646Y-116890147D01*
X71163216Y-116791544D01*
X71327188Y-116723624D01*
X71476488Y-116693927D01*
X71501258Y-116689000D01*
X71678742Y-116689000D01*
X71703512Y-116693927D01*
X71703512Y-116693927D01*
G37*
G36*
X71703512Y-114153927D02*
G01*
X71852812Y-114183624D01*
X72016784Y-114251544D01*
X72164354Y-114350147D01*
X72289853Y-114475646D01*
X72388456Y-114623216D01*
X72456376Y-114787188D01*
X72491000Y-114961259D01*
X72491000Y-115138741D01*
X72456376Y-115312812D01*
X72388456Y-115476784D01*
X72289853Y-115624354D01*
X72164354Y-115749853D01*
X72016784Y-115848456D01*
X71852812Y-115916376D01*
X71703512Y-115946073D01*
X71678742Y-115951000D01*
X71501258Y-115951000D01*
X71476488Y-115946073D01*
X71327188Y-115916376D01*
X71163216Y-115848456D01*
X71015646Y-115749853D01*
X70890147Y-115624354D01*
X70791544Y-115476784D01*
X70723624Y-115312812D01*
X70689000Y-115138741D01*
X70689000Y-114961259D01*
X70723624Y-114787188D01*
X70791544Y-114623216D01*
X70890147Y-114475646D01*
X71015646Y-114350147D01*
X71163216Y-114251544D01*
X71327188Y-114183624D01*
X71476488Y-114153927D01*
X71501258Y-114149000D01*
X71678742Y-114149000D01*
X71703512Y-114153927D01*
X71703512Y-114153927D01*
G37*
G36*
X51383512Y-114153927D02*
G01*
X51532812Y-114183624D01*
X51696784Y-114251544D01*
X51844354Y-114350147D01*
X51969853Y-114475646D01*
X52068456Y-114623216D01*
X52136376Y-114787188D01*
X52171000Y-114961259D01*
X52171000Y-115138741D01*
X52136376Y-115312812D01*
X52068456Y-115476784D01*
X51969853Y-115624354D01*
X51844354Y-115749853D01*
X51696784Y-115848456D01*
X51532812Y-115916376D01*
X51383512Y-115946073D01*
X51358742Y-115951000D01*
X51181258Y-115951000D01*
X51156488Y-115946073D01*
X51007188Y-115916376D01*
X50843216Y-115848456D01*
X50695646Y-115749853D01*
X50570147Y-115624354D01*
X50471544Y-115476784D01*
X50403624Y-115312812D01*
X50369000Y-115138741D01*
X50369000Y-114961259D01*
X50403624Y-114787188D01*
X50471544Y-114623216D01*
X50570147Y-114475646D01*
X50695646Y-114350147D01*
X50843216Y-114251544D01*
X51007188Y-114183624D01*
X51156488Y-114153927D01*
X51181258Y-114149000D01*
X51358742Y-114149000D01*
X51383512Y-114153927D01*
X51383512Y-114153927D01*
G37*
G36*
X98744098Y-110547033D02*
G01*
X99208350Y-110739332D01*
X99208352Y-110739333D01*
X99626168Y-111018509D01*
X99981491Y-111373832D01*
X100255682Y-111784188D01*
X100260668Y-111791650D01*
X100452967Y-112255902D01*
X100551000Y-112748747D01*
X100551000Y-113251253D01*
X100452967Y-113744098D01*
X100270910Y-114183624D01*
X100260667Y-114208352D01*
X99981491Y-114626168D01*
X99626168Y-114981491D01*
X99208352Y-115260667D01*
X99208351Y-115260668D01*
X99208350Y-115260668D01*
X98744098Y-115452967D01*
X98251253Y-115551000D01*
X97748747Y-115551000D01*
X97255902Y-115452967D01*
X96791650Y-115260668D01*
X96791649Y-115260668D01*
X96791648Y-115260667D01*
X96373832Y-114981491D01*
X96018509Y-114626168D01*
X95739333Y-114208352D01*
X95729090Y-114183624D01*
X95547033Y-113744098D01*
X95449000Y-113251253D01*
X95449000Y-112748747D01*
X95547033Y-112255902D01*
X95739332Y-111791650D01*
X95744318Y-111784188D01*
X96018509Y-111373832D01*
X96373832Y-111018509D01*
X96791648Y-110739333D01*
X96791650Y-110739332D01*
X97255902Y-110547033D01*
X97748747Y-110449000D01*
X98251253Y-110449000D01*
X98744098Y-110547033D01*
X98744098Y-110547033D01*
G37*
G36*
X71703512Y-111613927D02*
G01*
X71852812Y-111643624D01*
X72016784Y-111711544D01*
X72164354Y-111810147D01*
X72289853Y-111935646D01*
X72388456Y-112083216D01*
X72456376Y-112247188D01*
X72475437Y-112343017D01*
X72489532Y-112413876D01*
X72491000Y-112421259D01*
X72491000Y-112598741D01*
X72456376Y-112772812D01*
X72388456Y-112936784D01*
X72289853Y-113084354D01*
X72164354Y-113209853D01*
X72016784Y-113308456D01*
X71852812Y-113376376D01*
X71703512Y-113406073D01*
X71678742Y-113411000D01*
X71501258Y-113411000D01*
X71476488Y-113406073D01*
X71327188Y-113376376D01*
X71163216Y-113308456D01*
X71015646Y-113209853D01*
X70890147Y-113084354D01*
X70791544Y-112936784D01*
X70723624Y-112772812D01*
X70689000Y-112598741D01*
X70689000Y-112421259D01*
X70690469Y-112413876D01*
X70704563Y-112343017D01*
X70723624Y-112247188D01*
X70791544Y-112083216D01*
X70890147Y-111935646D01*
X71015646Y-111810147D01*
X71163216Y-111711544D01*
X71327188Y-111643624D01*
X71476488Y-111613927D01*
X71501258Y-111609000D01*
X71678742Y-111609000D01*
X71703512Y-111613927D01*
X71703512Y-111613927D01*
G37*
G36*
X51383512Y-111613927D02*
G01*
X51532812Y-111643624D01*
X51696784Y-111711544D01*
X51844354Y-111810147D01*
X51969853Y-111935646D01*
X52068456Y-112083216D01*
X52136376Y-112247188D01*
X52155437Y-112343017D01*
X52169532Y-112413876D01*
X52171000Y-112421259D01*
X52171000Y-112598741D01*
X52136376Y-112772812D01*
X52068456Y-112936784D01*
X51969853Y-113084354D01*
X51844354Y-113209853D01*
X51696784Y-113308456D01*
X51532812Y-113376376D01*
X51383512Y-113406073D01*
X51358742Y-113411000D01*
X51181258Y-113411000D01*
X51156488Y-113406073D01*
X51007188Y-113376376D01*
X50843216Y-113308456D01*
X50695646Y-113209853D01*
X50570147Y-113084354D01*
X50471544Y-112936784D01*
X50403624Y-112772812D01*
X50369000Y-112598741D01*
X50369000Y-112421259D01*
X50370469Y-112413876D01*
X50384563Y-112343017D01*
X50403624Y-112247188D01*
X50471544Y-112083216D01*
X50570147Y-111935646D01*
X50695646Y-111810147D01*
X50843216Y-111711544D01*
X51007188Y-111643624D01*
X51156488Y-111613927D01*
X51181258Y-111609000D01*
X51358742Y-111609000D01*
X51383512Y-111613927D01*
X51383512Y-111613927D01*
G37*
G36*
X87814187Y-110606123D02*
G01*
X87968044Y-110669853D01*
X87985257Y-110676983D01*
X88062758Y-110728768D01*
X88139214Y-110779854D01*
X88270146Y-110910786D01*
X88373018Y-111064745D01*
X88443877Y-111235813D01*
X88480000Y-111417417D01*
X88480000Y-111602583D01*
X88443877Y-111784187D01*
X88373018Y-111955255D01*
X88270146Y-112109214D01*
X88139214Y-112240146D01*
X88128673Y-112247189D01*
X87985257Y-112343017D01*
X87985256Y-112343018D01*
X87985255Y-112343018D01*
X87814187Y-112413877D01*
X87632583Y-112450000D01*
X87447417Y-112450000D01*
X87265813Y-112413877D01*
X87094745Y-112343018D01*
X87094744Y-112343018D01*
X87094743Y-112343017D01*
X86951327Y-112247189D01*
X86940786Y-112240146D01*
X86809854Y-112109214D01*
X86706982Y-111955255D01*
X86636123Y-111784187D01*
X86600000Y-111602583D01*
X86600000Y-111417417D01*
X86636123Y-111235813D01*
X86706982Y-111064745D01*
X86809854Y-110910786D01*
X86940786Y-110779854D01*
X87017242Y-110728768D01*
X87094743Y-110676983D01*
X87111956Y-110669853D01*
X87265813Y-110606123D01*
X87447417Y-110570000D01*
X87632583Y-110570000D01*
X87814187Y-110606123D01*
X87814187Y-110606123D01*
G37*
G36*
X51383512Y-109073927D02*
G01*
X51532812Y-109103624D01*
X51696784Y-109171544D01*
X51844354Y-109270147D01*
X51969853Y-109395646D01*
X52068456Y-109543216D01*
X52136376Y-109707188D01*
X52155437Y-109803017D01*
X52169532Y-109873876D01*
X52171000Y-109881259D01*
X52171000Y-110058741D01*
X52136376Y-110232812D01*
X52068456Y-110396784D01*
X51969853Y-110544354D01*
X51844354Y-110669853D01*
X51696784Y-110768456D01*
X51532812Y-110836376D01*
X51383512Y-110866073D01*
X51358742Y-110871000D01*
X51181258Y-110871000D01*
X51156488Y-110866073D01*
X51007188Y-110836376D01*
X50843216Y-110768456D01*
X50695646Y-110669853D01*
X50570147Y-110544354D01*
X50471544Y-110396784D01*
X50403624Y-110232812D01*
X50369000Y-110058741D01*
X50369000Y-109881259D01*
X50370469Y-109873876D01*
X50384563Y-109803017D01*
X50403624Y-109707188D01*
X50471544Y-109543216D01*
X50570147Y-109395646D01*
X50695646Y-109270147D01*
X50843216Y-109171544D01*
X51007188Y-109103624D01*
X51156488Y-109073927D01*
X51181258Y-109069000D01*
X51358742Y-109069000D01*
X51383512Y-109073927D01*
X51383512Y-109073927D01*
G37*
G36*
X87814187Y-108066123D02*
G01*
X87968044Y-108129853D01*
X87985257Y-108136983D01*
X88062758Y-108188768D01*
X88139214Y-108239854D01*
X88270146Y-108370786D01*
X88373018Y-108524745D01*
X88443877Y-108695813D01*
X88480000Y-108877417D01*
X88480000Y-109062583D01*
X88443877Y-109244187D01*
X88373018Y-109415255D01*
X88270146Y-109569214D01*
X88139214Y-109700146D01*
X88128673Y-109707189D01*
X87985257Y-109803017D01*
X87985256Y-109803018D01*
X87985255Y-109803018D01*
X87814187Y-109873877D01*
X87632583Y-109910000D01*
X87447417Y-109910000D01*
X87265813Y-109873877D01*
X87094745Y-109803018D01*
X87094744Y-109803018D01*
X87094743Y-109803017D01*
X86951327Y-109707189D01*
X86940786Y-109700146D01*
X86809854Y-109569214D01*
X86706982Y-109415255D01*
X86636123Y-109244187D01*
X86600000Y-109062583D01*
X86600000Y-108877417D01*
X86636123Y-108695813D01*
X86706982Y-108524745D01*
X86809854Y-108370786D01*
X86940786Y-108239854D01*
X87017242Y-108188768D01*
X87094743Y-108136983D01*
X87111956Y-108129853D01*
X87265813Y-108066123D01*
X87447417Y-108030000D01*
X87632583Y-108030000D01*
X87814187Y-108066123D01*
X87814187Y-108066123D01*
G37*
G36*
X51383512Y-106533927D02*
G01*
X51532812Y-106563624D01*
X51696784Y-106631544D01*
X51844354Y-106730147D01*
X51969853Y-106855646D01*
X52068456Y-107003216D01*
X52136376Y-107167188D01*
X52155437Y-107263017D01*
X52169532Y-107333876D01*
X52171000Y-107341259D01*
X52171000Y-107518741D01*
X52136376Y-107692812D01*
X52068456Y-107856784D01*
X51969853Y-108004354D01*
X51844354Y-108129853D01*
X51696784Y-108228456D01*
X51532812Y-108296376D01*
X51383512Y-108326073D01*
X51358742Y-108331000D01*
X51181258Y-108331000D01*
X51156488Y-108326073D01*
X51007188Y-108296376D01*
X50843216Y-108228456D01*
X50695646Y-108129853D01*
X50570147Y-108004354D01*
X50471544Y-107856784D01*
X50403624Y-107692812D01*
X50369000Y-107518741D01*
X50369000Y-107341259D01*
X50370469Y-107333876D01*
X50384563Y-107263017D01*
X50403624Y-107167188D01*
X50471544Y-107003216D01*
X50570147Y-106855646D01*
X50695646Y-106730147D01*
X50843216Y-106631544D01*
X51007188Y-106563624D01*
X51156488Y-106533927D01*
X51181258Y-106529000D01*
X51358742Y-106529000D01*
X51383512Y-106533927D01*
X51383512Y-106533927D01*
G37*
G36*
X113334362Y-105791000D02*
G01*
X113364903Y-105797075D01*
X113592571Y-105891378D01*
X113797466Y-106028285D01*
X113971715Y-106202534D01*
X114108622Y-106407429D01*
X114202925Y-106635097D01*
X114251000Y-106876787D01*
X114251000Y-107123213D01*
X114202925Y-107364903D01*
X114108622Y-107592571D01*
X113971715Y-107797466D01*
X113797466Y-107971715D01*
X113592571Y-108108622D01*
X113592570Y-108108623D01*
X113592569Y-108108623D01*
X113364903Y-108202925D01*
X113123214Y-108251000D01*
X112876786Y-108251000D01*
X112635097Y-108202925D01*
X112407431Y-108108623D01*
X112407430Y-108108623D01*
X112407429Y-108108622D01*
X112202534Y-107971715D01*
X112028285Y-107797466D01*
X111891378Y-107592571D01*
X111797075Y-107364903D01*
X111749000Y-107123213D01*
X111749000Y-106876787D01*
X111797075Y-106635097D01*
X111891378Y-106407429D01*
X112028285Y-106202534D01*
X112202534Y-106028285D01*
X112407429Y-105891378D01*
X112635097Y-105797075D01*
X112665638Y-105791000D01*
X112876786Y-105749000D01*
X113123214Y-105749000D01*
X113334362Y-105791000D01*
X113334362Y-105791000D01*
G37*
G36*
X108334362Y-105791000D02*
G01*
X108364903Y-105797075D01*
X108592571Y-105891378D01*
X108797466Y-106028285D01*
X108971715Y-106202534D01*
X109108622Y-106407429D01*
X109202925Y-106635097D01*
X109251000Y-106876787D01*
X109251000Y-107123213D01*
X109202925Y-107364903D01*
X109108622Y-107592571D01*
X108971715Y-107797466D01*
X108797466Y-107971715D01*
X108592571Y-108108622D01*
X108592570Y-108108623D01*
X108592569Y-108108623D01*
X108364903Y-108202925D01*
X108123214Y-108251000D01*
X107876786Y-108251000D01*
X107635097Y-108202925D01*
X107407431Y-108108623D01*
X107407430Y-108108623D01*
X107407429Y-108108622D01*
X107202534Y-107971715D01*
X107028285Y-107797466D01*
X106891378Y-107592571D01*
X106797075Y-107364903D01*
X106749000Y-107123213D01*
X106749000Y-106876787D01*
X106797075Y-106635097D01*
X106891378Y-106407429D01*
X107028285Y-106202534D01*
X107202534Y-106028285D01*
X107407429Y-105891378D01*
X107635097Y-105797075D01*
X107665638Y-105791000D01*
X107876786Y-105749000D01*
X108123214Y-105749000D01*
X108334362Y-105791000D01*
X108334362Y-105791000D01*
G37*
G36*
X87814187Y-105526123D02*
G01*
X87968044Y-105589853D01*
X87985257Y-105596983D01*
X88062758Y-105648768D01*
X88139214Y-105699854D01*
X88270146Y-105830786D01*
X88373018Y-105984745D01*
X88443877Y-106155813D01*
X88480000Y-106337417D01*
X88480000Y-106522583D01*
X88443877Y-106704187D01*
X88381140Y-106855646D01*
X88373017Y-106875257D01*
X88321232Y-106952758D01*
X88270146Y-107029214D01*
X88139214Y-107160146D01*
X88128673Y-107167189D01*
X87985257Y-107263017D01*
X87985256Y-107263018D01*
X87985255Y-107263018D01*
X87814187Y-107333877D01*
X87632583Y-107370000D01*
X87447417Y-107370000D01*
X87265813Y-107333877D01*
X87094745Y-107263018D01*
X87094744Y-107263018D01*
X87094743Y-107263017D01*
X86951327Y-107167189D01*
X86940786Y-107160146D01*
X86809854Y-107029214D01*
X86758768Y-106952758D01*
X86706983Y-106875257D01*
X86698860Y-106855646D01*
X86636123Y-106704187D01*
X86600000Y-106522583D01*
X86600000Y-106337417D01*
X86636123Y-106155813D01*
X86706982Y-105984745D01*
X86809854Y-105830786D01*
X86940786Y-105699854D01*
X87017242Y-105648768D01*
X87094743Y-105596983D01*
X87111956Y-105589853D01*
X87265813Y-105526123D01*
X87447417Y-105490000D01*
X87632583Y-105490000D01*
X87814187Y-105526123D01*
X87814187Y-105526123D01*
G37*
G36*
X51383512Y-103993927D02*
G01*
X51532812Y-104023624D01*
X51696784Y-104091544D01*
X51844354Y-104190147D01*
X51969853Y-104315646D01*
X52068456Y-104463216D01*
X52136376Y-104627188D01*
X52155437Y-104723017D01*
X52169532Y-104793876D01*
X52171000Y-104801259D01*
X52171000Y-104978741D01*
X52136376Y-105152812D01*
X52068456Y-105316784D01*
X51969853Y-105464354D01*
X51844354Y-105589853D01*
X51696784Y-105688456D01*
X51532812Y-105756376D01*
X51383512Y-105786073D01*
X51358742Y-105791000D01*
X51181258Y-105791000D01*
X51156488Y-105786073D01*
X51007188Y-105756376D01*
X50843216Y-105688456D01*
X50695646Y-105589853D01*
X50570147Y-105464354D01*
X50471544Y-105316784D01*
X50403624Y-105152812D01*
X50369000Y-104978741D01*
X50369000Y-104801259D01*
X50370469Y-104793876D01*
X50384563Y-104723017D01*
X50403624Y-104627188D01*
X50471544Y-104463216D01*
X50570147Y-104315646D01*
X50695646Y-104190147D01*
X50843216Y-104091544D01*
X51007188Y-104023624D01*
X51156488Y-103993927D01*
X51181258Y-103989000D01*
X51358742Y-103989000D01*
X51383512Y-103993927D01*
X51383512Y-103993927D01*
G37*
G36*
X87814187Y-102986123D02*
G01*
X87968044Y-103049853D01*
X87985257Y-103056983D01*
X88062758Y-103108768D01*
X88139214Y-103159854D01*
X88270146Y-103290786D01*
X88373018Y-103444745D01*
X88443877Y-103615813D01*
X88480000Y-103797417D01*
X88480000Y-103982583D01*
X88443877Y-104164187D01*
X88373018Y-104335255D01*
X88270146Y-104489214D01*
X88139214Y-104620146D01*
X88128673Y-104627189D01*
X87985257Y-104723017D01*
X87985256Y-104723018D01*
X87985255Y-104723018D01*
X87814187Y-104793877D01*
X87632583Y-104830000D01*
X87447417Y-104830000D01*
X87265813Y-104793877D01*
X87094745Y-104723018D01*
X87094744Y-104723018D01*
X87094743Y-104723017D01*
X86951327Y-104627189D01*
X86940786Y-104620146D01*
X86809854Y-104489214D01*
X86706982Y-104335255D01*
X86636123Y-104164187D01*
X86600000Y-103982583D01*
X86600000Y-103797417D01*
X86636123Y-103615813D01*
X86706982Y-103444745D01*
X86809854Y-103290786D01*
X86940786Y-103159854D01*
X87017242Y-103108768D01*
X87094743Y-103056983D01*
X87111956Y-103049853D01*
X87265813Y-102986123D01*
X87447417Y-102950000D01*
X87632583Y-102950000D01*
X87814187Y-102986123D01*
X87814187Y-102986123D01*
G37*
G36*
X51383512Y-101453927D02*
G01*
X51532812Y-101483624D01*
X51696784Y-101551544D01*
X51844354Y-101650147D01*
X51969853Y-101775646D01*
X52068456Y-101923216D01*
X52136376Y-102087188D01*
X52155437Y-102183017D01*
X52169532Y-102253876D01*
X52171000Y-102261259D01*
X52171000Y-102438741D01*
X52136376Y-102612812D01*
X52068456Y-102776784D01*
X51969853Y-102924354D01*
X51844354Y-103049853D01*
X51696784Y-103148456D01*
X51532812Y-103216376D01*
X51383512Y-103246073D01*
X51358742Y-103251000D01*
X51181258Y-103251000D01*
X51156488Y-103246073D01*
X51007188Y-103216376D01*
X50843216Y-103148456D01*
X50695646Y-103049853D01*
X50570147Y-102924354D01*
X50471544Y-102776784D01*
X50403624Y-102612812D01*
X50369000Y-102438741D01*
X50369000Y-102261259D01*
X50370469Y-102253876D01*
X50384563Y-102183017D01*
X50403624Y-102087188D01*
X50471544Y-101923216D01*
X50570147Y-101775646D01*
X50695646Y-101650147D01*
X50843216Y-101551544D01*
X51007188Y-101483624D01*
X51156488Y-101453927D01*
X51181258Y-101449000D01*
X51358742Y-101449000D01*
X51383512Y-101453927D01*
X51383512Y-101453927D01*
G37*
G36*
X87814187Y-100446123D02*
G01*
X87985255Y-100516982D01*
X87985257Y-100516983D01*
X88062758Y-100568768D01*
X88139214Y-100619854D01*
X88270146Y-100750786D01*
X88373018Y-100904745D01*
X88443877Y-101075813D01*
X88480000Y-101257417D01*
X88480000Y-101442583D01*
X88443877Y-101624187D01*
X88373018Y-101795255D01*
X88270146Y-101949214D01*
X88139214Y-102080146D01*
X88128673Y-102087189D01*
X87985257Y-102183017D01*
X87985256Y-102183018D01*
X87985255Y-102183018D01*
X87814187Y-102253877D01*
X87632583Y-102290000D01*
X87447417Y-102290000D01*
X87265813Y-102253877D01*
X87094745Y-102183018D01*
X87094744Y-102183018D01*
X87094743Y-102183017D01*
X86951327Y-102087189D01*
X86940786Y-102080146D01*
X86809854Y-101949214D01*
X86706982Y-101795255D01*
X86636123Y-101624187D01*
X86600000Y-101442583D01*
X86600000Y-101257417D01*
X86636123Y-101075813D01*
X86706982Y-100904745D01*
X86809854Y-100750786D01*
X86940786Y-100619854D01*
X87017242Y-100568768D01*
X87094743Y-100516983D01*
X87094745Y-100516982D01*
X87265813Y-100446123D01*
X87447417Y-100410000D01*
X87632583Y-100410000D01*
X87814187Y-100446123D01*
X87814187Y-100446123D01*
G37*
G36*
X87814187Y-97906123D02*
G01*
X87985255Y-97976982D01*
X87985257Y-97976983D01*
X88062758Y-98028768D01*
X88139214Y-98079854D01*
X88270146Y-98210786D01*
X88373018Y-98364745D01*
X88443877Y-98535813D01*
X88480000Y-98717417D01*
X88480000Y-98902583D01*
X88443877Y-99084187D01*
X88373018Y-99255255D01*
X88373017Y-99255257D01*
X88270145Y-99409215D01*
X88139215Y-99540145D01*
X87985257Y-99643017D01*
X87985256Y-99643018D01*
X87985255Y-99643018D01*
X87814187Y-99713877D01*
X87632583Y-99750000D01*
X87447417Y-99750000D01*
X87265813Y-99713877D01*
X87094745Y-99643018D01*
X87094744Y-99643018D01*
X87094743Y-99643017D01*
X86940785Y-99540145D01*
X86809855Y-99409215D01*
X86706983Y-99255257D01*
X86706982Y-99255255D01*
X86636123Y-99084187D01*
X86600000Y-98902583D01*
X86600000Y-98717417D01*
X86636123Y-98535813D01*
X86706982Y-98364745D01*
X86809854Y-98210786D01*
X86940786Y-98079854D01*
X87017242Y-98028768D01*
X87094743Y-97976983D01*
X87094745Y-97976982D01*
X87265813Y-97906123D01*
X87447417Y-97870000D01*
X87632583Y-97870000D01*
X87814187Y-97906123D01*
X87814187Y-97906123D01*
G37*
G36*
X87814187Y-95366123D02*
G01*
X87985255Y-95436982D01*
X87985257Y-95436983D01*
X88062758Y-95488768D01*
X88139214Y-95539854D01*
X88270146Y-95670786D01*
X88373018Y-95824745D01*
X88443877Y-95995813D01*
X88480000Y-96177417D01*
X88480000Y-96362583D01*
X88443877Y-96544187D01*
X88373018Y-96715255D01*
X88373017Y-96715257D01*
X88270145Y-96869215D01*
X88139215Y-97000145D01*
X87985257Y-97103017D01*
X87985256Y-97103018D01*
X87985255Y-97103018D01*
X87814187Y-97173877D01*
X87632583Y-97210000D01*
X87447417Y-97210000D01*
X87265813Y-97173877D01*
X87094745Y-97103018D01*
X87094744Y-97103018D01*
X87094743Y-97103017D01*
X86940785Y-97000145D01*
X86809855Y-96869215D01*
X86706983Y-96715257D01*
X86706982Y-96715255D01*
X86636123Y-96544187D01*
X86600000Y-96362583D01*
X86600000Y-96177417D01*
X86636123Y-95995813D01*
X86706982Y-95824745D01*
X86809854Y-95670786D01*
X86940786Y-95539854D01*
X87017242Y-95488768D01*
X87094743Y-95436983D01*
X87094745Y-95436982D01*
X87265813Y-95366123D01*
X87447417Y-95330000D01*
X87632583Y-95330000D01*
X87814187Y-95366123D01*
X87814187Y-95366123D01*
G37*
G36*
X74624187Y-91906123D02*
G01*
X74795255Y-91976982D01*
X74795257Y-91976983D01*
X74872758Y-92028768D01*
X74949214Y-92079854D01*
X75080146Y-92210786D01*
X75183018Y-92364745D01*
X75253877Y-92535813D01*
X75290000Y-92717417D01*
X75290000Y-92902583D01*
X75253877Y-93084187D01*
X75183018Y-93255255D01*
X75183017Y-93255257D01*
X75080145Y-93409215D01*
X74949215Y-93540145D01*
X74795257Y-93643017D01*
X74795256Y-93643018D01*
X74795255Y-93643018D01*
X74624187Y-93713877D01*
X74442583Y-93750000D01*
X74257417Y-93750000D01*
X74075813Y-93713877D01*
X73904745Y-93643018D01*
X73904744Y-93643018D01*
X73904743Y-93643017D01*
X73750785Y-93540145D01*
X73619855Y-93409215D01*
X73516983Y-93255257D01*
X73516982Y-93255255D01*
X73446123Y-93084187D01*
X73410000Y-92902583D01*
X73410000Y-92717417D01*
X73446123Y-92535813D01*
X73516982Y-92364745D01*
X73619854Y-92210786D01*
X73750786Y-92079854D01*
X73827242Y-92028768D01*
X73904743Y-91976983D01*
X73904745Y-91976982D01*
X74075813Y-91906123D01*
X74257417Y-91870000D01*
X74442583Y-91870000D01*
X74624187Y-91906123D01*
X74624187Y-91906123D01*
G37*
G36*
X87924187Y-91906123D02*
G01*
X88095255Y-91976982D01*
X88095257Y-91976983D01*
X88172758Y-92028768D01*
X88249214Y-92079854D01*
X88380146Y-92210786D01*
X88483018Y-92364745D01*
X88553877Y-92535813D01*
X88590000Y-92717417D01*
X88590000Y-92902583D01*
X88553877Y-93084187D01*
X88483018Y-93255255D01*
X88483017Y-93255257D01*
X88380145Y-93409215D01*
X88249215Y-93540145D01*
X88095257Y-93643017D01*
X88095256Y-93643018D01*
X88095255Y-93643018D01*
X87924187Y-93713877D01*
X87742583Y-93750000D01*
X87557417Y-93750000D01*
X87375813Y-93713877D01*
X87204745Y-93643018D01*
X87204744Y-93643018D01*
X87204743Y-93643017D01*
X87050785Y-93540145D01*
X86919855Y-93409215D01*
X86816983Y-93255257D01*
X86816982Y-93255255D01*
X86746123Y-93084187D01*
X86710000Y-92902583D01*
X86710000Y-92717417D01*
X86746123Y-92535813D01*
X86816982Y-92364745D01*
X86919854Y-92210786D01*
X87050786Y-92079854D01*
X87127242Y-92028768D01*
X87204743Y-91976983D01*
X87204745Y-91976982D01*
X87375813Y-91906123D01*
X87557417Y-91870000D01*
X87742583Y-91870000D01*
X87924187Y-91906123D01*
X87924187Y-91906123D01*
G37*
G36*
X53338187Y-90046123D02*
G01*
X53509255Y-90116982D01*
X53509257Y-90116983D01*
X53586758Y-90168768D01*
X53663214Y-90219854D01*
X53794146Y-90350786D01*
X53897018Y-90504745D01*
X53967877Y-90675813D01*
X54004000Y-90857417D01*
X54004000Y-91042583D01*
X53967877Y-91224187D01*
X53897018Y-91395255D01*
X53897017Y-91395257D01*
X53794145Y-91549215D01*
X53663215Y-91680145D01*
X53509257Y-91783017D01*
X53509256Y-91783018D01*
X53509255Y-91783018D01*
X53338187Y-91853877D01*
X53156583Y-91890000D01*
X52971417Y-91890000D01*
X52789813Y-91853877D01*
X52618745Y-91783018D01*
X52618744Y-91783018D01*
X52618743Y-91783017D01*
X52464785Y-91680145D01*
X52333855Y-91549215D01*
X52230983Y-91395257D01*
X52230982Y-91395255D01*
X52160123Y-91224187D01*
X52124000Y-91042583D01*
X52124000Y-90857417D01*
X52160123Y-90675813D01*
X52230982Y-90504745D01*
X52333854Y-90350786D01*
X52464786Y-90219854D01*
X52541242Y-90168768D01*
X52618743Y-90116983D01*
X52618745Y-90116982D01*
X52789813Y-90046123D01*
X52971417Y-90010000D01*
X53156583Y-90010000D01*
X53338187Y-90046123D01*
X53338187Y-90046123D01*
G37*
G36*
X74624187Y-89366123D02*
G01*
X74795255Y-89436982D01*
X74795257Y-89436983D01*
X74806387Y-89444420D01*
X74949214Y-89539854D01*
X75080146Y-89670786D01*
X75183018Y-89824745D01*
X75253877Y-89995813D01*
X75290000Y-90177417D01*
X75290000Y-90362583D01*
X75253877Y-90544187D01*
X75199356Y-90675812D01*
X75183017Y-90715257D01*
X75080145Y-90869215D01*
X74949215Y-91000145D01*
X74795257Y-91103017D01*
X74795256Y-91103018D01*
X74795255Y-91103018D01*
X74624187Y-91173877D01*
X74442583Y-91210000D01*
X74257417Y-91210000D01*
X74075813Y-91173877D01*
X73904745Y-91103018D01*
X73904744Y-91103018D01*
X73904743Y-91103017D01*
X73750785Y-91000145D01*
X73619855Y-90869215D01*
X73516983Y-90715257D01*
X73500644Y-90675812D01*
X73446123Y-90544187D01*
X73410000Y-90362583D01*
X73410000Y-90177417D01*
X73446123Y-89995813D01*
X73516982Y-89824745D01*
X73619854Y-89670786D01*
X73750786Y-89539854D01*
X73893613Y-89444420D01*
X73904743Y-89436983D01*
X73904745Y-89436982D01*
X74075813Y-89366123D01*
X74257417Y-89330000D01*
X74442583Y-89330000D01*
X74624187Y-89366123D01*
X74624187Y-89366123D01*
G37*
G36*
X87924187Y-89366123D02*
G01*
X88095255Y-89436982D01*
X88095257Y-89436983D01*
X88106387Y-89444420D01*
X88249214Y-89539854D01*
X88380146Y-89670786D01*
X88483018Y-89824745D01*
X88553877Y-89995813D01*
X88590000Y-90177417D01*
X88590000Y-90362583D01*
X88553877Y-90544187D01*
X88499356Y-90675812D01*
X88483017Y-90715257D01*
X88380145Y-90869215D01*
X88249215Y-91000145D01*
X88095257Y-91103017D01*
X88095256Y-91103018D01*
X88095255Y-91103018D01*
X87924187Y-91173877D01*
X87742583Y-91210000D01*
X87557417Y-91210000D01*
X87375813Y-91173877D01*
X87204745Y-91103018D01*
X87204744Y-91103018D01*
X87204743Y-91103017D01*
X87050785Y-91000145D01*
X86919855Y-90869215D01*
X86816983Y-90715257D01*
X86800644Y-90675812D01*
X86746123Y-90544187D01*
X86710000Y-90362583D01*
X86710000Y-90177417D01*
X86746123Y-89995813D01*
X86816982Y-89824745D01*
X86919854Y-89670786D01*
X87050786Y-89539854D01*
X87193613Y-89444420D01*
X87204743Y-89436983D01*
X87204745Y-89436982D01*
X87375813Y-89366123D01*
X87557417Y-89330000D01*
X87742583Y-89330000D01*
X87924187Y-89366123D01*
X87924187Y-89366123D01*
G37*
G36*
X104634239Y-83811467D02*
G01*
X104948282Y-83873934D01*
X105539926Y-84119001D01*
X105940073Y-84386371D01*
X106072391Y-84474783D01*
X106525217Y-84927609D01*
X106540388Y-84950314D01*
X106880999Y-85460074D01*
X107114178Y-86023018D01*
X107126066Y-86051719D01*
X107251000Y-86679803D01*
X107251000Y-87320197D01*
X107224024Y-87455812D01*
X107126066Y-87948282D01*
X106880999Y-88539926D01*
X106670301Y-88855257D01*
X106525217Y-89072391D01*
X106072391Y-89525217D01*
X105966477Y-89595986D01*
X105539926Y-89880999D01*
X104948282Y-90126066D01*
X104690123Y-90177417D01*
X104320197Y-90251000D01*
X103679803Y-90251000D01*
X103309877Y-90177417D01*
X103051718Y-90126066D01*
X102460074Y-89880999D01*
X102033523Y-89595986D01*
X101927609Y-89525217D01*
X101474783Y-89072391D01*
X101329699Y-88855257D01*
X101119001Y-88539926D01*
X100873934Y-87948282D01*
X100775976Y-87455812D01*
X100749000Y-87320197D01*
X100749000Y-86679803D01*
X100873934Y-86051719D01*
X100885822Y-86023018D01*
X101119001Y-85460074D01*
X101459612Y-84950314D01*
X101474783Y-84927609D01*
X101927609Y-84474783D01*
X102059927Y-84386371D01*
X102460074Y-84119001D01*
X103051718Y-83873934D01*
X103365761Y-83811467D01*
X103679803Y-83749000D01*
X104320197Y-83749000D01*
X104634239Y-83811467D01*
X104634239Y-83811467D01*
G37*
G36*
X95502187Y-87506123D02*
G01*
X95673255Y-87576982D01*
X95673257Y-87576983D01*
X95750758Y-87628768D01*
X95827214Y-87679854D01*
X95958146Y-87810786D01*
X96061018Y-87964745D01*
X96131877Y-88135813D01*
X96168000Y-88317417D01*
X96168000Y-88502583D01*
X96131877Y-88684187D01*
X96061018Y-88855255D01*
X95958146Y-89009214D01*
X95827214Y-89140146D01*
X95758033Y-89186371D01*
X95673257Y-89243017D01*
X95673256Y-89243018D01*
X95673255Y-89243018D01*
X95502187Y-89313877D01*
X95320583Y-89350000D01*
X95135417Y-89350000D01*
X94953813Y-89313877D01*
X94782745Y-89243018D01*
X94782744Y-89243018D01*
X94782743Y-89243017D01*
X94697967Y-89186371D01*
X94628786Y-89140146D01*
X94497854Y-89009214D01*
X94394982Y-88855255D01*
X94324123Y-88684187D01*
X94288000Y-88502583D01*
X94288000Y-88317417D01*
X94324123Y-88135813D01*
X94394982Y-87964745D01*
X94497854Y-87810786D01*
X94628786Y-87679854D01*
X94705242Y-87628768D01*
X94782743Y-87576983D01*
X94782745Y-87576982D01*
X94953813Y-87506123D01*
X95135417Y-87470000D01*
X95320583Y-87470000D01*
X95502187Y-87506123D01*
X95502187Y-87506123D01*
G37*
G36*
X53338187Y-87506123D02*
G01*
X53509255Y-87576982D01*
X53509257Y-87576983D01*
X53586758Y-87628768D01*
X53663214Y-87679854D01*
X53794146Y-87810786D01*
X53897018Y-87964745D01*
X53967877Y-88135813D01*
X54004000Y-88317417D01*
X54004000Y-88502583D01*
X53967877Y-88684187D01*
X53897018Y-88855255D01*
X53794146Y-89009214D01*
X53663214Y-89140146D01*
X53594033Y-89186371D01*
X53509257Y-89243017D01*
X53509256Y-89243018D01*
X53509255Y-89243018D01*
X53338187Y-89313877D01*
X53156583Y-89350000D01*
X52971417Y-89350000D01*
X52789813Y-89313877D01*
X52618745Y-89243018D01*
X52618744Y-89243018D01*
X52618743Y-89243017D01*
X52533967Y-89186371D01*
X52464786Y-89140146D01*
X52333854Y-89009214D01*
X52230982Y-88855255D01*
X52160123Y-88684187D01*
X52124000Y-88502583D01*
X52124000Y-88317417D01*
X52160123Y-88135813D01*
X52230982Y-87964745D01*
X52333854Y-87810786D01*
X52464786Y-87679854D01*
X52541242Y-87628768D01*
X52618743Y-87576983D01*
X52618745Y-87576982D01*
X52789813Y-87506123D01*
X52971417Y-87470000D01*
X53156583Y-87470000D01*
X53338187Y-87506123D01*
X53338187Y-87506123D01*
G37*
G36*
X74624187Y-86826123D02*
G01*
X74795255Y-86896982D01*
X74795257Y-86896983D01*
X74872758Y-86948768D01*
X74949214Y-86999854D01*
X75080146Y-87130786D01*
X75183018Y-87284745D01*
X75253877Y-87455813D01*
X75290000Y-87637417D01*
X75290000Y-87822583D01*
X75253877Y-88004187D01*
X75199356Y-88135812D01*
X75183017Y-88175257D01*
X75080145Y-88329215D01*
X74949215Y-88460145D01*
X74795257Y-88563017D01*
X74795256Y-88563018D01*
X74795255Y-88563018D01*
X74624187Y-88633877D01*
X74442583Y-88670000D01*
X74257417Y-88670000D01*
X74075813Y-88633877D01*
X73904745Y-88563018D01*
X73904744Y-88563018D01*
X73904743Y-88563017D01*
X73750785Y-88460145D01*
X73619855Y-88329215D01*
X73516983Y-88175257D01*
X73500644Y-88135812D01*
X73446123Y-88004187D01*
X73410000Y-87822583D01*
X73410000Y-87637417D01*
X73446123Y-87455813D01*
X73516982Y-87284745D01*
X73619854Y-87130786D01*
X73750786Y-86999854D01*
X73827242Y-86948768D01*
X73904743Y-86896983D01*
X73904745Y-86896982D01*
X74075813Y-86826123D01*
X74257417Y-86790000D01*
X74442583Y-86790000D01*
X74624187Y-86826123D01*
X74624187Y-86826123D01*
G37*
G36*
X87924187Y-86826123D02*
G01*
X88095255Y-86896982D01*
X88095257Y-86896983D01*
X88172758Y-86948768D01*
X88249214Y-86999854D01*
X88380146Y-87130786D01*
X88483018Y-87284745D01*
X88553877Y-87455813D01*
X88590000Y-87637417D01*
X88590000Y-87822583D01*
X88553877Y-88004187D01*
X88499356Y-88135812D01*
X88483017Y-88175257D01*
X88380145Y-88329215D01*
X88249215Y-88460145D01*
X88095257Y-88563017D01*
X88095256Y-88563018D01*
X88095255Y-88563018D01*
X87924187Y-88633877D01*
X87742583Y-88670000D01*
X87557417Y-88670000D01*
X87375813Y-88633877D01*
X87204745Y-88563018D01*
X87204744Y-88563018D01*
X87204743Y-88563017D01*
X87050785Y-88460145D01*
X86919855Y-88329215D01*
X86816983Y-88175257D01*
X86800644Y-88135812D01*
X86746123Y-88004187D01*
X86710000Y-87822583D01*
X86710000Y-87637417D01*
X86746123Y-87455813D01*
X86816982Y-87284745D01*
X86919854Y-87130786D01*
X87050786Y-86999854D01*
X87127242Y-86948768D01*
X87204743Y-86896983D01*
X87204745Y-86896982D01*
X87375813Y-86826123D01*
X87557417Y-86790000D01*
X87742583Y-86790000D01*
X87924187Y-86826123D01*
X87924187Y-86826123D01*
G37*
G36*
X118248228Y-85181703D02*
G01*
X118403100Y-85245853D01*
X118542481Y-85338985D01*
X118661015Y-85457519D01*
X118754147Y-85596900D01*
X118818297Y-85751772D01*
X118851000Y-85916184D01*
X118851000Y-86083816D01*
X118818297Y-86248228D01*
X118754147Y-86403100D01*
X118661015Y-86542481D01*
X118542481Y-86661015D01*
X118403100Y-86754147D01*
X118248228Y-86818297D01*
X118083816Y-86851000D01*
X117916184Y-86851000D01*
X117751772Y-86818297D01*
X117596900Y-86754147D01*
X117457519Y-86661015D01*
X117338985Y-86542481D01*
X117245853Y-86403100D01*
X117181703Y-86248228D01*
X117149000Y-86083816D01*
X117149000Y-85916184D01*
X117181703Y-85751772D01*
X117245853Y-85596900D01*
X117338985Y-85457519D01*
X117457519Y-85338985D01*
X117596900Y-85245853D01*
X117751772Y-85181703D01*
X117916184Y-85149000D01*
X118083816Y-85149000D01*
X118248228Y-85181703D01*
X118248228Y-85181703D01*
G37*
G36*
X112248228Y-85181703D02*
G01*
X112403100Y-85245853D01*
X112542481Y-85338985D01*
X112661015Y-85457519D01*
X112754147Y-85596900D01*
X112818297Y-85751772D01*
X112851000Y-85916184D01*
X112851000Y-86083816D01*
X112818297Y-86248228D01*
X112754147Y-86403100D01*
X112661015Y-86542481D01*
X112542481Y-86661015D01*
X112403100Y-86754147D01*
X112248228Y-86818297D01*
X112083816Y-86851000D01*
X111916184Y-86851000D01*
X111751772Y-86818297D01*
X111596900Y-86754147D01*
X111457519Y-86661015D01*
X111338985Y-86542481D01*
X111245853Y-86403100D01*
X111181703Y-86248228D01*
X111149000Y-86083816D01*
X111149000Y-85916184D01*
X111181703Y-85751772D01*
X111245853Y-85596900D01*
X111338985Y-85457519D01*
X111457519Y-85338985D01*
X111596900Y-85245853D01*
X111751772Y-85181703D01*
X111916184Y-85149000D01*
X112083816Y-85149000D01*
X112248228Y-85181703D01*
X112248228Y-85181703D01*
G37*
G36*
X53338187Y-84966123D02*
G01*
X53501254Y-85033668D01*
X53509257Y-85036983D01*
X53586758Y-85088768D01*
X53663214Y-85139854D01*
X53794146Y-85270786D01*
X53897018Y-85424745D01*
X53967877Y-85595813D01*
X54004000Y-85777417D01*
X54004000Y-85962583D01*
X53967877Y-86144187D01*
X53924781Y-86248229D01*
X53897017Y-86315257D01*
X53794145Y-86469215D01*
X53663215Y-86600145D01*
X53509257Y-86703017D01*
X53509256Y-86703018D01*
X53509255Y-86703018D01*
X53338187Y-86773877D01*
X53156583Y-86810000D01*
X52971417Y-86810000D01*
X52789813Y-86773877D01*
X52618745Y-86703018D01*
X52618744Y-86703018D01*
X52618743Y-86703017D01*
X52464785Y-86600145D01*
X52333855Y-86469215D01*
X52230983Y-86315257D01*
X52203219Y-86248229D01*
X52160123Y-86144187D01*
X52124000Y-85962583D01*
X52124000Y-85777417D01*
X52160123Y-85595813D01*
X52230982Y-85424745D01*
X52333854Y-85270786D01*
X52464786Y-85139854D01*
X52541242Y-85088768D01*
X52618743Y-85036983D01*
X52626746Y-85033668D01*
X52789813Y-84966123D01*
X52971417Y-84930000D01*
X53156583Y-84930000D01*
X53338187Y-84966123D01*
X53338187Y-84966123D01*
G37*
G36*
X95502187Y-84966123D02*
G01*
X95665254Y-85033668D01*
X95673257Y-85036983D01*
X95750758Y-85088768D01*
X95827214Y-85139854D01*
X95958146Y-85270786D01*
X96061018Y-85424745D01*
X96131877Y-85595813D01*
X96168000Y-85777417D01*
X96168000Y-85962583D01*
X96131877Y-86144187D01*
X96088781Y-86248229D01*
X96061017Y-86315257D01*
X95958145Y-86469215D01*
X95827215Y-86600145D01*
X95673257Y-86703017D01*
X95673256Y-86703018D01*
X95673255Y-86703018D01*
X95502187Y-86773877D01*
X95320583Y-86810000D01*
X95135417Y-86810000D01*
X94953813Y-86773877D01*
X94782745Y-86703018D01*
X94782744Y-86703018D01*
X94782743Y-86703017D01*
X94628785Y-86600145D01*
X94497855Y-86469215D01*
X94394983Y-86315257D01*
X94367219Y-86248229D01*
X94324123Y-86144187D01*
X94288000Y-85962583D01*
X94288000Y-85777417D01*
X94324123Y-85595813D01*
X94394982Y-85424745D01*
X94497854Y-85270786D01*
X94628786Y-85139854D01*
X94705242Y-85088768D01*
X94782743Y-85036983D01*
X94790746Y-85033668D01*
X94953813Y-84966123D01*
X95135417Y-84930000D01*
X95320583Y-84930000D01*
X95502187Y-84966123D01*
X95502187Y-84966123D01*
G37*
G36*
X87924187Y-84286123D02*
G01*
X88095255Y-84356982D01*
X88095257Y-84356983D01*
X88139239Y-84386371D01*
X88249214Y-84459854D01*
X88380146Y-84590786D01*
X88483018Y-84744745D01*
X88553877Y-84915813D01*
X88590000Y-85097417D01*
X88590000Y-85282583D01*
X88553877Y-85464187D01*
X88483018Y-85635255D01*
X88403713Y-85753944D01*
X88380145Y-85789215D01*
X88249215Y-85920145D01*
X88095257Y-86023017D01*
X88095256Y-86023018D01*
X88095255Y-86023018D01*
X87924187Y-86093877D01*
X87742583Y-86130000D01*
X87557417Y-86130000D01*
X87375813Y-86093877D01*
X87204745Y-86023018D01*
X87204744Y-86023018D01*
X87204743Y-86023017D01*
X87050785Y-85920145D01*
X86919855Y-85789215D01*
X86896288Y-85753944D01*
X86816982Y-85635255D01*
X86746123Y-85464187D01*
X86710000Y-85282583D01*
X86710000Y-85097417D01*
X86746123Y-84915813D01*
X86816982Y-84744745D01*
X86919854Y-84590786D01*
X87050786Y-84459854D01*
X87160761Y-84386371D01*
X87204743Y-84356983D01*
X87204745Y-84356982D01*
X87375813Y-84286123D01*
X87557417Y-84250000D01*
X87742583Y-84250000D01*
X87924187Y-84286123D01*
X87924187Y-84286123D01*
G37*
G36*
X74624187Y-84286123D02*
G01*
X74795255Y-84356982D01*
X74795257Y-84356983D01*
X74839239Y-84386371D01*
X74949214Y-84459854D01*
X75080146Y-84590786D01*
X75183018Y-84744745D01*
X75253877Y-84915813D01*
X75290000Y-85097417D01*
X75290000Y-85282583D01*
X75253877Y-85464187D01*
X75183018Y-85635255D01*
X75103713Y-85753944D01*
X75080145Y-85789215D01*
X74949215Y-85920145D01*
X74795257Y-86023017D01*
X74795256Y-86023018D01*
X74795255Y-86023018D01*
X74624187Y-86093877D01*
X74442583Y-86130000D01*
X74257417Y-86130000D01*
X74075813Y-86093877D01*
X73904745Y-86023018D01*
X73904744Y-86023018D01*
X73904743Y-86023017D01*
X73750785Y-85920145D01*
X73619855Y-85789215D01*
X73596288Y-85753944D01*
X73516982Y-85635255D01*
X73446123Y-85464187D01*
X73410000Y-85282583D01*
X73410000Y-85097417D01*
X73446123Y-84915813D01*
X73516982Y-84744745D01*
X73619854Y-84590786D01*
X73750786Y-84459854D01*
X73860761Y-84386371D01*
X73904743Y-84356983D01*
X73904745Y-84356982D01*
X74075813Y-84286123D01*
X74257417Y-84250000D01*
X74442583Y-84250000D01*
X74624187Y-84286123D01*
X74624187Y-84286123D01*
G37*
G36*
X95502187Y-82426123D02*
G01*
X95673255Y-82496982D01*
X95673257Y-82496983D01*
X95750758Y-82548768D01*
X95827214Y-82599854D01*
X95958146Y-82730786D01*
X96061018Y-82884745D01*
X96131877Y-83055813D01*
X96168000Y-83237417D01*
X96168000Y-83422583D01*
X96131877Y-83604187D01*
X96108338Y-83661015D01*
X96061017Y-83775257D01*
X95958145Y-83929215D01*
X95827215Y-84060145D01*
X95673257Y-84163017D01*
X95673256Y-84163018D01*
X95673255Y-84163018D01*
X95502187Y-84233877D01*
X95320583Y-84270000D01*
X95135417Y-84270000D01*
X94953813Y-84233877D01*
X94782745Y-84163018D01*
X94782744Y-84163018D01*
X94782743Y-84163017D01*
X94628785Y-84060145D01*
X94497855Y-83929215D01*
X94394983Y-83775257D01*
X94347662Y-83661015D01*
X94324123Y-83604187D01*
X94288000Y-83422583D01*
X94288000Y-83237417D01*
X94324123Y-83055813D01*
X94394982Y-82884745D01*
X94497854Y-82730786D01*
X94628786Y-82599854D01*
X94705242Y-82548768D01*
X94782743Y-82496983D01*
X94782745Y-82496982D01*
X94953813Y-82426123D01*
X95135417Y-82390000D01*
X95320583Y-82390000D01*
X95502187Y-82426123D01*
X95502187Y-82426123D01*
G37*
G36*
X53338187Y-82426123D02*
G01*
X53509255Y-82496982D01*
X53509257Y-82496983D01*
X53586758Y-82548768D01*
X53663214Y-82599854D01*
X53794146Y-82730786D01*
X53897018Y-82884745D01*
X53967877Y-83055813D01*
X54004000Y-83237417D01*
X54004000Y-83422583D01*
X53967877Y-83604187D01*
X53944338Y-83661015D01*
X53897017Y-83775257D01*
X53794145Y-83929215D01*
X53663215Y-84060145D01*
X53509257Y-84163017D01*
X53509256Y-84163018D01*
X53509255Y-84163018D01*
X53338187Y-84233877D01*
X53156583Y-84270000D01*
X52971417Y-84270000D01*
X52789813Y-84233877D01*
X52618745Y-84163018D01*
X52618744Y-84163018D01*
X52618743Y-84163017D01*
X52464785Y-84060145D01*
X52333855Y-83929215D01*
X52230983Y-83775257D01*
X52183662Y-83661015D01*
X52160123Y-83604187D01*
X52124000Y-83422583D01*
X52124000Y-83237417D01*
X52160123Y-83055813D01*
X52230982Y-82884745D01*
X52333854Y-82730786D01*
X52464786Y-82599854D01*
X52541242Y-82548768D01*
X52618743Y-82496983D01*
X52618745Y-82496982D01*
X52789813Y-82426123D01*
X52971417Y-82390000D01*
X53156583Y-82390000D01*
X53338187Y-82426123D01*
X53338187Y-82426123D01*
G37*
G36*
X61248228Y-82181703D02*
G01*
X61403100Y-82245853D01*
X61542481Y-82338985D01*
X61661015Y-82457519D01*
X61754147Y-82596900D01*
X61818297Y-82751772D01*
X61851000Y-82916184D01*
X61851000Y-83083816D01*
X61818297Y-83248228D01*
X61754147Y-83403100D01*
X61661015Y-83542481D01*
X61542481Y-83661015D01*
X61403100Y-83754147D01*
X61248228Y-83818297D01*
X61083816Y-83851000D01*
X60916184Y-83851000D01*
X60751772Y-83818297D01*
X60596900Y-83754147D01*
X60457519Y-83661015D01*
X60338985Y-83542481D01*
X60245853Y-83403100D01*
X60181703Y-83248228D01*
X60149000Y-83083816D01*
X60149000Y-82916184D01*
X60181703Y-82751772D01*
X60245853Y-82596900D01*
X60338985Y-82457519D01*
X60457519Y-82338985D01*
X60596900Y-82245853D01*
X60751772Y-82181703D01*
X60916184Y-82149000D01*
X61083816Y-82149000D01*
X61248228Y-82181703D01*
X61248228Y-82181703D01*
G37*
G36*
X65248228Y-82181703D02*
G01*
X65403100Y-82245853D01*
X65542481Y-82338985D01*
X65661015Y-82457519D01*
X65754147Y-82596900D01*
X65818297Y-82751772D01*
X65851000Y-82916184D01*
X65851000Y-83083816D01*
X65818297Y-83248228D01*
X65754147Y-83403100D01*
X65661015Y-83542481D01*
X65542481Y-83661015D01*
X65403100Y-83754147D01*
X65248228Y-83818297D01*
X65083816Y-83851000D01*
X64916184Y-83851000D01*
X64751772Y-83818297D01*
X64596900Y-83754147D01*
X64457519Y-83661015D01*
X64338985Y-83542481D01*
X64245853Y-83403100D01*
X64181703Y-83248228D01*
X64149000Y-83083816D01*
X64149000Y-82916184D01*
X64181703Y-82751772D01*
X64245853Y-82596900D01*
X64338985Y-82457519D01*
X64457519Y-82338985D01*
X64596900Y-82245853D01*
X64751772Y-82181703D01*
X64916184Y-82149000D01*
X65083816Y-82149000D01*
X65248228Y-82181703D01*
X65248228Y-82181703D01*
G37*
G36*
X69248228Y-82181703D02*
G01*
X69403100Y-82245853D01*
X69542481Y-82338985D01*
X69661015Y-82457519D01*
X69754147Y-82596900D01*
X69818297Y-82751772D01*
X69851000Y-82916184D01*
X69851000Y-83083816D01*
X69818297Y-83248228D01*
X69754147Y-83403100D01*
X69661015Y-83542481D01*
X69542481Y-83661015D01*
X69403100Y-83754147D01*
X69248228Y-83818297D01*
X69083816Y-83851000D01*
X68916184Y-83851000D01*
X68751772Y-83818297D01*
X68596900Y-83754147D01*
X68457519Y-83661015D01*
X68338985Y-83542481D01*
X68245853Y-83403100D01*
X68181703Y-83248228D01*
X68149000Y-83083816D01*
X68149000Y-82916184D01*
X68181703Y-82751772D01*
X68245853Y-82596900D01*
X68338985Y-82457519D01*
X68457519Y-82338985D01*
X68596900Y-82245853D01*
X68751772Y-82181703D01*
X68916184Y-82149000D01*
X69083816Y-82149000D01*
X69248228Y-82181703D01*
X69248228Y-82181703D01*
G37*
G36*
X107364903Y-79797075D02*
G01*
X107579885Y-79886123D01*
X107592571Y-79891378D01*
X107797466Y-80028285D01*
X107971715Y-80202534D01*
X108108622Y-80407429D01*
X108202925Y-80635097D01*
X108251000Y-80876787D01*
X108251000Y-81123213D01*
X108202925Y-81364903D01*
X108108622Y-81592571D01*
X107971715Y-81797466D01*
X107797466Y-81971715D01*
X107592571Y-82108622D01*
X107592570Y-82108623D01*
X107592569Y-82108623D01*
X107364903Y-82202925D01*
X107123214Y-82251000D01*
X106876786Y-82251000D01*
X106635097Y-82202925D01*
X106407431Y-82108623D01*
X106407430Y-82108623D01*
X106407429Y-82108622D01*
X106202534Y-81971715D01*
X106028285Y-81797466D01*
X105891378Y-81592571D01*
X105797075Y-81364903D01*
X105749000Y-81123213D01*
X105749000Y-80876787D01*
X105797075Y-80635097D01*
X105891378Y-80407429D01*
X106028285Y-80202534D01*
X106202534Y-80028285D01*
X106407429Y-79891378D01*
X106420116Y-79886123D01*
X106635097Y-79797075D01*
X106876786Y-79749000D01*
X107123214Y-79749000D01*
X107364903Y-79797075D01*
X107364903Y-79797075D01*
G37*
G36*
X53338187Y-79886123D02*
G01*
X53509255Y-79956982D01*
X53509257Y-79956983D01*
X53586758Y-80008768D01*
X53663214Y-80059854D01*
X53794146Y-80190786D01*
X53897018Y-80344745D01*
X53967877Y-80515813D01*
X54004000Y-80697417D01*
X54004000Y-80882583D01*
X53967877Y-81064187D01*
X53943427Y-81123214D01*
X53897017Y-81235257D01*
X53794145Y-81389215D01*
X53663215Y-81520145D01*
X53509257Y-81623017D01*
X53509256Y-81623018D01*
X53509255Y-81623018D01*
X53338187Y-81693877D01*
X53156583Y-81730000D01*
X52971417Y-81730000D01*
X52789813Y-81693877D01*
X52618745Y-81623018D01*
X52618744Y-81623018D01*
X52618743Y-81623017D01*
X52464785Y-81520145D01*
X52333855Y-81389215D01*
X52230983Y-81235257D01*
X52184573Y-81123214D01*
X52160123Y-81064187D01*
X52124000Y-80882583D01*
X52124000Y-80697417D01*
X52160123Y-80515813D01*
X52230982Y-80344745D01*
X52333854Y-80190786D01*
X52464786Y-80059854D01*
X52541242Y-80008768D01*
X52618743Y-79956983D01*
X52618745Y-79956982D01*
X52789813Y-79886123D01*
X52971417Y-79850000D01*
X53156583Y-79850000D01*
X53338187Y-79886123D01*
X53338187Y-79886123D01*
G37*
G36*
X95502187Y-79886123D02*
G01*
X95673255Y-79956982D01*
X95673257Y-79956983D01*
X95750758Y-80008768D01*
X95827214Y-80059854D01*
X95958146Y-80190786D01*
X96061018Y-80344745D01*
X96131877Y-80515813D01*
X96168000Y-80697417D01*
X96168000Y-80882583D01*
X96131877Y-81064187D01*
X96107427Y-81123214D01*
X96061017Y-81235257D01*
X95958145Y-81389215D01*
X95827215Y-81520145D01*
X95673257Y-81623017D01*
X95673256Y-81623018D01*
X95673255Y-81623018D01*
X95502187Y-81693877D01*
X95320583Y-81730000D01*
X95135417Y-81730000D01*
X94953813Y-81693877D01*
X94782745Y-81623018D01*
X94782744Y-81623018D01*
X94782743Y-81623017D01*
X94628785Y-81520145D01*
X94497855Y-81389215D01*
X94394983Y-81235257D01*
X94348573Y-81123214D01*
X94324123Y-81064187D01*
X94288000Y-80882583D01*
X94288000Y-80697417D01*
X94324123Y-80515813D01*
X94394982Y-80344745D01*
X94497854Y-80190786D01*
X94628786Y-80059854D01*
X94705242Y-80008768D01*
X94782743Y-79956983D01*
X94782745Y-79956982D01*
X94953813Y-79886123D01*
X95135417Y-79850000D01*
X95320583Y-79850000D01*
X95502187Y-79886123D01*
X95502187Y-79886123D01*
G37*
G36*
X102724549Y-77371116D02*
G01*
X102835734Y-77393232D01*
X103045203Y-77479997D01*
X103233720Y-77605960D01*
X103394040Y-77766280D01*
X103520003Y-77954797D01*
X103606768Y-78164266D01*
X103651000Y-78386636D01*
X103651000Y-78613364D01*
X103606768Y-78835734D01*
X103520003Y-79045203D01*
X103394040Y-79233720D01*
X103233720Y-79394040D01*
X103045203Y-79520003D01*
X102835734Y-79606768D01*
X102724549Y-79628884D01*
X102613365Y-79651000D01*
X102386635Y-79651000D01*
X102275451Y-79628884D01*
X102164266Y-79606768D01*
X101954797Y-79520003D01*
X101766280Y-79394040D01*
X101605960Y-79233720D01*
X101479997Y-79045203D01*
X101393232Y-78835734D01*
X101349000Y-78613364D01*
X101349000Y-78386636D01*
X101393232Y-78164266D01*
X101479997Y-77954797D01*
X101605960Y-77766280D01*
X101766280Y-77605960D01*
X101954797Y-77479997D01*
X102164266Y-77393232D01*
X102275451Y-77371116D01*
X102386635Y-77349000D01*
X102613365Y-77349000D01*
X102724549Y-77371116D01*
X102724549Y-77371116D01*
G37*
G36*
X105724549Y-77371116D02*
G01*
X105835734Y-77393232D01*
X106045203Y-77479997D01*
X106233720Y-77605960D01*
X106394040Y-77766280D01*
X106520003Y-77954797D01*
X106606768Y-78164266D01*
X106651000Y-78386636D01*
X106651000Y-78613364D01*
X106606768Y-78835734D01*
X106520003Y-79045203D01*
X106394040Y-79233720D01*
X106233720Y-79394040D01*
X106045203Y-79520003D01*
X105835734Y-79606768D01*
X105724549Y-79628884D01*
X105613365Y-79651000D01*
X105386635Y-79651000D01*
X105275451Y-79628884D01*
X105164266Y-79606768D01*
X104954797Y-79520003D01*
X104766280Y-79394040D01*
X104605960Y-79233720D01*
X104479997Y-79045203D01*
X104393232Y-78835734D01*
X104349000Y-78613364D01*
X104349000Y-78386636D01*
X104393232Y-78164266D01*
X104479997Y-77954797D01*
X104605960Y-77766280D01*
X104766280Y-77605960D01*
X104954797Y-77479997D01*
X105164266Y-77393232D01*
X105275451Y-77371116D01*
X105386635Y-77349000D01*
X105613365Y-77349000D01*
X105724549Y-77371116D01*
X105724549Y-77371116D01*
G37*
G36*
X88784187Y-75606123D02*
G01*
X88955255Y-75676982D01*
X88955257Y-75676983D01*
X89032758Y-75728768D01*
X89109214Y-75779854D01*
X89240146Y-75910786D01*
X89343018Y-76064745D01*
X89413877Y-76235813D01*
X89450000Y-76417417D01*
X89450000Y-76602583D01*
X89413877Y-76784187D01*
X89343018Y-76955255D01*
X89343017Y-76955257D01*
X89240145Y-77109215D01*
X89109215Y-77240145D01*
X88955257Y-77343017D01*
X88955256Y-77343018D01*
X88955255Y-77343018D01*
X88784187Y-77413877D01*
X88602583Y-77450000D01*
X88417417Y-77450000D01*
X88235813Y-77413877D01*
X88064745Y-77343018D01*
X88064744Y-77343018D01*
X88064743Y-77343017D01*
X87910785Y-77240145D01*
X87779855Y-77109215D01*
X87676983Y-76955257D01*
X87676982Y-76955255D01*
X87606123Y-76784187D01*
X87570000Y-76602583D01*
X87570000Y-76417417D01*
X87606123Y-76235813D01*
X87676982Y-76064745D01*
X87779854Y-75910786D01*
X87910786Y-75779854D01*
X87987242Y-75728768D01*
X88064743Y-75676983D01*
X88064745Y-75676982D01*
X88235813Y-75606123D01*
X88417417Y-75570000D01*
X88602583Y-75570000D01*
X88784187Y-75606123D01*
X88784187Y-75606123D01*
G37*
G36*
X118166823Y-75001313D02*
G01*
X118327242Y-75049976D01*
X118459906Y-75120886D01*
X118475078Y-75128996D01*
X118604659Y-75235341D01*
X118711004Y-75364922D01*
X118711005Y-75364924D01*
X118790024Y-75512758D01*
X118838687Y-75673177D01*
X118855117Y-75840000D01*
X118838687Y-76006823D01*
X118790024Y-76167242D01*
X118753372Y-76235813D01*
X118711004Y-76315078D01*
X118604659Y-76444659D01*
X118475078Y-76551004D01*
X118475076Y-76551005D01*
X118327242Y-76630024D01*
X118166823Y-76678687D01*
X118041804Y-76691000D01*
X117958196Y-76691000D01*
X117833177Y-76678687D01*
X117672758Y-76630024D01*
X117524924Y-76551005D01*
X117524922Y-76551004D01*
X117395341Y-76444659D01*
X117288996Y-76315078D01*
X117246628Y-76235813D01*
X117209976Y-76167242D01*
X117161313Y-76006823D01*
X117144883Y-75840000D01*
X117161313Y-75673177D01*
X117209976Y-75512758D01*
X117288995Y-75364924D01*
X117288996Y-75364922D01*
X117395341Y-75235341D01*
X117524922Y-75128996D01*
X117540094Y-75120886D01*
X117672758Y-75049976D01*
X117833177Y-75001313D01*
X117958196Y-74989000D01*
X118041804Y-74989000D01*
X118166823Y-75001313D01*
X118166823Y-75001313D01*
G37*
G36*
X112166823Y-75001313D02*
G01*
X112327242Y-75049976D01*
X112459906Y-75120886D01*
X112475078Y-75128996D01*
X112604659Y-75235341D01*
X112711004Y-75364922D01*
X112711005Y-75364924D01*
X112790024Y-75512758D01*
X112838687Y-75673177D01*
X112855117Y-75840000D01*
X112838687Y-76006823D01*
X112790024Y-76167242D01*
X112753372Y-76235813D01*
X112711004Y-76315078D01*
X112604659Y-76444659D01*
X112475078Y-76551004D01*
X112475076Y-76551005D01*
X112327242Y-76630024D01*
X112166823Y-76678687D01*
X112041804Y-76691000D01*
X111958196Y-76691000D01*
X111833177Y-76678687D01*
X111672758Y-76630024D01*
X111524924Y-76551005D01*
X111524922Y-76551004D01*
X111395341Y-76444659D01*
X111288996Y-76315078D01*
X111246628Y-76235813D01*
X111209976Y-76167242D01*
X111161313Y-76006823D01*
X111144883Y-75840000D01*
X111161313Y-75673177D01*
X111209976Y-75512758D01*
X111288995Y-75364924D01*
X111288996Y-75364922D01*
X111395341Y-75235341D01*
X111524922Y-75128996D01*
X111540094Y-75120886D01*
X111672758Y-75049976D01*
X111833177Y-75001313D01*
X111958196Y-74989000D01*
X112041804Y-74989000D01*
X112166823Y-75001313D01*
X112166823Y-75001313D01*
G37*
G36*
X105724549Y-74171116D02*
G01*
X105835734Y-74193232D01*
X106045203Y-74279997D01*
X106233720Y-74405960D01*
X106394040Y-74566280D01*
X106520003Y-74754797D01*
X106606768Y-74964266D01*
X106651000Y-75186636D01*
X106651000Y-75413364D01*
X106606768Y-75635734D01*
X106520003Y-75845203D01*
X106394040Y-76033720D01*
X106233720Y-76194040D01*
X106045203Y-76320003D01*
X105835734Y-76406768D01*
X105724549Y-76428884D01*
X105613365Y-76451000D01*
X105386635Y-76451000D01*
X105275451Y-76428884D01*
X105164266Y-76406768D01*
X104954797Y-76320003D01*
X104766280Y-76194040D01*
X104605960Y-76033720D01*
X104479997Y-75845203D01*
X104393232Y-75635734D01*
X104349000Y-75413364D01*
X104349000Y-75186636D01*
X104393232Y-74964266D01*
X104479997Y-74754797D01*
X104605960Y-74566280D01*
X104766280Y-74405960D01*
X104954797Y-74279997D01*
X105164266Y-74193232D01*
X105275451Y-74171116D01*
X105386635Y-74149000D01*
X105613365Y-74149000D01*
X105724549Y-74171116D01*
X105724549Y-74171116D01*
G37*
G36*
X102724549Y-74171116D02*
G01*
X102835734Y-74193232D01*
X103045203Y-74279997D01*
X103233720Y-74405960D01*
X103394040Y-74566280D01*
X103520003Y-74754797D01*
X103606768Y-74964266D01*
X103651000Y-75186636D01*
X103651000Y-75413364D01*
X103606768Y-75635734D01*
X103520003Y-75845203D01*
X103394040Y-76033720D01*
X103233720Y-76194040D01*
X103045203Y-76320003D01*
X102835734Y-76406768D01*
X102724549Y-76428884D01*
X102613365Y-76451000D01*
X102386635Y-76451000D01*
X102275451Y-76428884D01*
X102164266Y-76406768D01*
X101954797Y-76320003D01*
X101766280Y-76194040D01*
X101605960Y-76033720D01*
X101479997Y-75845203D01*
X101393232Y-75635734D01*
X101349000Y-75413364D01*
X101349000Y-75186636D01*
X101393232Y-74964266D01*
X101479997Y-74754797D01*
X101605960Y-74566280D01*
X101766280Y-74405960D01*
X101954797Y-74279997D01*
X102164266Y-74193232D01*
X102275451Y-74171116D01*
X102386635Y-74149000D01*
X102613365Y-74149000D01*
X102724549Y-74171116D01*
X102724549Y-74171116D01*
G37*
G36*
X88784187Y-73066123D02*
G01*
X88955255Y-73136982D01*
X88955257Y-73136983D01*
X89032758Y-73188768D01*
X89109214Y-73239854D01*
X89240146Y-73370786D01*
X89343018Y-73524745D01*
X89413877Y-73695813D01*
X89450000Y-73877417D01*
X89450000Y-74062583D01*
X89413877Y-74244187D01*
X89343018Y-74415255D01*
X89242106Y-74566281D01*
X89240145Y-74569215D01*
X89109215Y-74700145D01*
X88955257Y-74803017D01*
X88955256Y-74803018D01*
X88955255Y-74803018D01*
X88784187Y-74873877D01*
X88602583Y-74910000D01*
X88417417Y-74910000D01*
X88235813Y-74873877D01*
X88064745Y-74803018D01*
X88064744Y-74803018D01*
X88064743Y-74803017D01*
X87910785Y-74700145D01*
X87779855Y-74569215D01*
X87777895Y-74566281D01*
X87676982Y-74415255D01*
X87606123Y-74244187D01*
X87570000Y-74062583D01*
X87570000Y-73877417D01*
X87606123Y-73695813D01*
X87676982Y-73524745D01*
X87779854Y-73370786D01*
X87910786Y-73239854D01*
X87987242Y-73188768D01*
X88064743Y-73136983D01*
X88064745Y-73136982D01*
X88235813Y-73066123D01*
X88417417Y-73030000D01*
X88602583Y-73030000D01*
X88784187Y-73066123D01*
X88784187Y-73066123D01*
G37*
G36*
X65166823Y-72001313D02*
G01*
X65327242Y-72049976D01*
X65459906Y-72120886D01*
X65475078Y-72128996D01*
X65604659Y-72235341D01*
X65711004Y-72364922D01*
X65711005Y-72364924D01*
X65790024Y-72512758D01*
X65838687Y-72673177D01*
X65855117Y-72840000D01*
X65838687Y-73006823D01*
X65790024Y-73167242D01*
X65745254Y-73251000D01*
X65711004Y-73315078D01*
X65604659Y-73444659D01*
X65475078Y-73551004D01*
X65475076Y-73551005D01*
X65327242Y-73630024D01*
X65166823Y-73678687D01*
X65041804Y-73691000D01*
X64958196Y-73691000D01*
X64833177Y-73678687D01*
X64672758Y-73630024D01*
X64524924Y-73551005D01*
X64524922Y-73551004D01*
X64395341Y-73444659D01*
X64288996Y-73315078D01*
X64254746Y-73251000D01*
X64209976Y-73167242D01*
X64161313Y-73006823D01*
X64144883Y-72840000D01*
X64161313Y-72673177D01*
X64209976Y-72512758D01*
X64288995Y-72364924D01*
X64288996Y-72364922D01*
X64395341Y-72235341D01*
X64524922Y-72128996D01*
X64540094Y-72120886D01*
X64672758Y-72049976D01*
X64833177Y-72001313D01*
X64958196Y-71989000D01*
X65041804Y-71989000D01*
X65166823Y-72001313D01*
X65166823Y-72001313D01*
G37*
G36*
X61166823Y-72001313D02*
G01*
X61327242Y-72049976D01*
X61459906Y-72120886D01*
X61475078Y-72128996D01*
X61604659Y-72235341D01*
X61711004Y-72364922D01*
X61711005Y-72364924D01*
X61790024Y-72512758D01*
X61838687Y-72673177D01*
X61855117Y-72840000D01*
X61838687Y-73006823D01*
X61790024Y-73167242D01*
X61745254Y-73251000D01*
X61711004Y-73315078D01*
X61604659Y-73444659D01*
X61475078Y-73551004D01*
X61475076Y-73551005D01*
X61327242Y-73630024D01*
X61166823Y-73678687D01*
X61041804Y-73691000D01*
X60958196Y-73691000D01*
X60833177Y-73678687D01*
X60672758Y-73630024D01*
X60524924Y-73551005D01*
X60524922Y-73551004D01*
X60395341Y-73444659D01*
X60288996Y-73315078D01*
X60254746Y-73251000D01*
X60209976Y-73167242D01*
X60161313Y-73006823D01*
X60144883Y-72840000D01*
X60161313Y-72673177D01*
X60209976Y-72512758D01*
X60288995Y-72364924D01*
X60288996Y-72364922D01*
X60395341Y-72235341D01*
X60524922Y-72128996D01*
X60540094Y-72120886D01*
X60672758Y-72049976D01*
X60833177Y-72001313D01*
X60958196Y-71989000D01*
X61041804Y-71989000D01*
X61166823Y-72001313D01*
X61166823Y-72001313D01*
G37*
G36*
X69166823Y-72001313D02*
G01*
X69327242Y-72049976D01*
X69459906Y-72120886D01*
X69475078Y-72128996D01*
X69604659Y-72235341D01*
X69711004Y-72364922D01*
X69711005Y-72364924D01*
X69790024Y-72512758D01*
X69838687Y-72673177D01*
X69855117Y-72840000D01*
X69838687Y-73006823D01*
X69790024Y-73167242D01*
X69745254Y-73251000D01*
X69711004Y-73315078D01*
X69604659Y-73444659D01*
X69475078Y-73551004D01*
X69475076Y-73551005D01*
X69327242Y-73630024D01*
X69166823Y-73678687D01*
X69041804Y-73691000D01*
X68958196Y-73691000D01*
X68833177Y-73678687D01*
X68672758Y-73630024D01*
X68524924Y-73551005D01*
X68524922Y-73551004D01*
X68395341Y-73444659D01*
X68288996Y-73315078D01*
X68254746Y-73251000D01*
X68209976Y-73167242D01*
X68161313Y-73006823D01*
X68144883Y-72840000D01*
X68161313Y-72673177D01*
X68209976Y-72512758D01*
X68288995Y-72364924D01*
X68288996Y-72364922D01*
X68395341Y-72235341D01*
X68524922Y-72128996D01*
X68540094Y-72120886D01*
X68672758Y-72049976D01*
X68833177Y-72001313D01*
X68958196Y-71989000D01*
X69041804Y-71989000D01*
X69166823Y-72001313D01*
X69166823Y-72001313D01*
G37*
G36*
X102724549Y-70981116D02*
G01*
X102835734Y-71003232D01*
X102983850Y-71064584D01*
X103021059Y-71079996D01*
X103045203Y-71089997D01*
X103233720Y-71215960D01*
X103394040Y-71376280D01*
X103520003Y-71564797D01*
X103606768Y-71774266D01*
X103651000Y-71996636D01*
X103651000Y-72223364D01*
X103606768Y-72445734D01*
X103520003Y-72655203D01*
X103394040Y-72843720D01*
X103233720Y-73004040D01*
X103045203Y-73130003D01*
X103045202Y-73130004D01*
X103045201Y-73130004D01*
X103028352Y-73136983D01*
X102835734Y-73216768D01*
X102724549Y-73238884D01*
X102613365Y-73261000D01*
X102386635Y-73261000D01*
X102275451Y-73238884D01*
X102164266Y-73216768D01*
X101971648Y-73136983D01*
X101954799Y-73130004D01*
X101954798Y-73130004D01*
X101954797Y-73130003D01*
X101766280Y-73004040D01*
X101605960Y-72843720D01*
X101479997Y-72655203D01*
X101393232Y-72445734D01*
X101349000Y-72223364D01*
X101349000Y-71996636D01*
X101393232Y-71774266D01*
X101479997Y-71564797D01*
X101605960Y-71376280D01*
X101766280Y-71215960D01*
X101954797Y-71089997D01*
X101978942Y-71079996D01*
X102016150Y-71064584D01*
X102164266Y-71003232D01*
X102275451Y-70981116D01*
X102386635Y-70959000D01*
X102613365Y-70959000D01*
X102724549Y-70981116D01*
X102724549Y-70981116D01*
G37*
G36*
X105663638Y-70959000D02*
G01*
X105835734Y-70993232D01*
X106045203Y-71079997D01*
X106233720Y-71205960D01*
X106394040Y-71366280D01*
X106498478Y-71522583D01*
X106520004Y-71554799D01*
X106606768Y-71764267D01*
X106651000Y-71986635D01*
X106651000Y-72213365D01*
X106641123Y-72263018D01*
X106606768Y-72435734D01*
X106520003Y-72645203D01*
X106394040Y-72833720D01*
X106233720Y-72994040D01*
X106045203Y-73120003D01*
X106045202Y-73120004D01*
X106045201Y-73120004D01*
X106004212Y-73136982D01*
X105835734Y-73206768D01*
X105785460Y-73216768D01*
X105613365Y-73251000D01*
X105386635Y-73251000D01*
X105214540Y-73216768D01*
X105164266Y-73206768D01*
X104995788Y-73136982D01*
X104954799Y-73120004D01*
X104954798Y-73120004D01*
X104954797Y-73120003D01*
X104766280Y-72994040D01*
X104605960Y-72833720D01*
X104479997Y-72645203D01*
X104393232Y-72435734D01*
X104358877Y-72263018D01*
X104349000Y-72213365D01*
X104349000Y-71986635D01*
X104393232Y-71764267D01*
X104479996Y-71554799D01*
X104501522Y-71522583D01*
X104605960Y-71366280D01*
X104766280Y-71205960D01*
X104954797Y-71079997D01*
X105164266Y-70993232D01*
X105336362Y-70959000D01*
X105386635Y-70949000D01*
X105613365Y-70949000D01*
X105663638Y-70959000D01*
X105663638Y-70959000D01*
G37*
G36*
X88784187Y-70526123D02*
G01*
X88955255Y-70596982D01*
X88955257Y-70596983D01*
X89032758Y-70648768D01*
X89109214Y-70699854D01*
X89240146Y-70830786D01*
X89343018Y-70984745D01*
X89413877Y-71155813D01*
X89450000Y-71337417D01*
X89450000Y-71522583D01*
X89413877Y-71704187D01*
X89343018Y-71875255D01*
X89261915Y-71996635D01*
X89240145Y-72029215D01*
X89109215Y-72160145D01*
X88955257Y-72263017D01*
X88955256Y-72263018D01*
X88955255Y-72263018D01*
X88784187Y-72333877D01*
X88602583Y-72370000D01*
X88417417Y-72370000D01*
X88235813Y-72333877D01*
X88064745Y-72263018D01*
X88064744Y-72263018D01*
X88064743Y-72263017D01*
X87910785Y-72160145D01*
X87779855Y-72029215D01*
X87758086Y-71996635D01*
X87676982Y-71875255D01*
X87606123Y-71704187D01*
X87570000Y-71522583D01*
X87570000Y-71337417D01*
X87606123Y-71155813D01*
X87676982Y-70984745D01*
X87779854Y-70830786D01*
X87910786Y-70699854D01*
X87987242Y-70648768D01*
X88064743Y-70596983D01*
X88064745Y-70596982D01*
X88235813Y-70526123D01*
X88417417Y-70490000D01*
X88602583Y-70490000D01*
X88784187Y-70526123D01*
X88784187Y-70526123D01*
G37*
G36*
X101364903Y-68397075D02*
G01*
X101592571Y-68491378D01*
X101797466Y-68628285D01*
X101971715Y-68802534D01*
X102092020Y-68982583D01*
X102108623Y-69007431D01*
X102126670Y-69051000D01*
X102202925Y-69235097D01*
X102251000Y-69476787D01*
X102251000Y-69723213D01*
X102202925Y-69964903D01*
X102108622Y-70192571D01*
X101971715Y-70397466D01*
X101797466Y-70571715D01*
X101592571Y-70708622D01*
X101592570Y-70708623D01*
X101592569Y-70708623D01*
X101364903Y-70802925D01*
X101123214Y-70851000D01*
X100876786Y-70851000D01*
X100635097Y-70802925D01*
X100407431Y-70708623D01*
X100407430Y-70708623D01*
X100407429Y-70708622D01*
X100202534Y-70571715D01*
X100028285Y-70397466D01*
X99891378Y-70192571D01*
X99797075Y-69964903D01*
X99749000Y-69723213D01*
X99749000Y-69476787D01*
X99797075Y-69235097D01*
X99873330Y-69051000D01*
X99891377Y-69007431D01*
X99907980Y-68982583D01*
X100028285Y-68802534D01*
X100202534Y-68628285D01*
X100407429Y-68491378D01*
X100635097Y-68397075D01*
X100876786Y-68349000D01*
X101123214Y-68349000D01*
X101364903Y-68397075D01*
X101364903Y-68397075D01*
G37*
G36*
X88784187Y-67986123D02*
G01*
X88955255Y-68056982D01*
X88955257Y-68056983D01*
X88978318Y-68072392D01*
X89109214Y-68159854D01*
X89240146Y-68290786D01*
X89343018Y-68444745D01*
X89413877Y-68615813D01*
X89450000Y-68797417D01*
X89450000Y-68982583D01*
X89413877Y-69164187D01*
X89343018Y-69335255D01*
X89343017Y-69335257D01*
X89240145Y-69489215D01*
X89109215Y-69620145D01*
X88955257Y-69723017D01*
X88955256Y-69723018D01*
X88955255Y-69723018D01*
X88784187Y-69793877D01*
X88602583Y-69830000D01*
X88417417Y-69830000D01*
X88235813Y-69793877D01*
X88064745Y-69723018D01*
X88064744Y-69723018D01*
X88064743Y-69723017D01*
X87910785Y-69620145D01*
X87779855Y-69489215D01*
X87676983Y-69335257D01*
X87676982Y-69335255D01*
X87606123Y-69164187D01*
X87570000Y-68982583D01*
X87570000Y-68797417D01*
X87606123Y-68615813D01*
X87676982Y-68444745D01*
X87779854Y-68290786D01*
X87910786Y-68159854D01*
X88041682Y-68072392D01*
X88064743Y-68056983D01*
X88064745Y-68056982D01*
X88235813Y-67986123D01*
X88417417Y-67950000D01*
X88602583Y-67950000D01*
X88784187Y-67986123D01*
X88784187Y-67986123D01*
G37*
G36*
X68634239Y-62811467D02*
G01*
X68948282Y-62873934D01*
X69539926Y-63119001D01*
X70072392Y-63474784D01*
X70525216Y-63927608D01*
X70880999Y-64460074D01*
X71126066Y-65051718D01*
X71168195Y-65263514D01*
X71251000Y-65679803D01*
X71251000Y-66320197D01*
X71209852Y-66527061D01*
X71126066Y-66948282D01*
X70880999Y-67539926D01*
X70525216Y-68072392D01*
X70072392Y-68525216D01*
X69539926Y-68880999D01*
X68948282Y-69126066D01*
X68634239Y-69188533D01*
X68320197Y-69251000D01*
X67679803Y-69251000D01*
X67365761Y-69188533D01*
X67051718Y-69126066D01*
X66460074Y-68880999D01*
X65927608Y-68525216D01*
X65474784Y-68072392D01*
X65119001Y-67539926D01*
X64873934Y-66948282D01*
X64790148Y-66527061D01*
X64749000Y-66320197D01*
X64749000Y-65679803D01*
X64831805Y-65263514D01*
X64873934Y-65051718D01*
X65119001Y-64460074D01*
X65474784Y-63927608D01*
X65927608Y-63474784D01*
X66460074Y-63119001D01*
X67051718Y-62873934D01*
X67365761Y-62811467D01*
X67679803Y-62749000D01*
X68320197Y-62749000D01*
X68634239Y-62811467D01*
X68634239Y-62811467D01*
G37*
G36*
X48806564Y-66989389D02*
G01*
X48997833Y-67068615D01*
X48997835Y-67068616D01*
X49169973Y-67183635D01*
X49316365Y-67330027D01*
X49418864Y-67483427D01*
X49431385Y-67502167D01*
X49510611Y-67693436D01*
X49551000Y-67896484D01*
X49551000Y-68103516D01*
X49510611Y-68306564D01*
X49437191Y-68483816D01*
X49431384Y-68497835D01*
X49316365Y-68669973D01*
X49169973Y-68816365D01*
X48997835Y-68931384D01*
X48997834Y-68931385D01*
X48997833Y-68931385D01*
X48806564Y-69010611D01*
X48603516Y-69051000D01*
X48396484Y-69051000D01*
X48193436Y-69010611D01*
X48002167Y-68931385D01*
X48002166Y-68931385D01*
X48002165Y-68931384D01*
X47830027Y-68816365D01*
X47683635Y-68669973D01*
X47568616Y-68497835D01*
X47562809Y-68483816D01*
X47489389Y-68306564D01*
X47449000Y-68103516D01*
X47449000Y-67896484D01*
X47489389Y-67693436D01*
X47568615Y-67502167D01*
X47581137Y-67483427D01*
X47683635Y-67330027D01*
X47830027Y-67183635D01*
X48002165Y-67068616D01*
X48002167Y-67068615D01*
X48193436Y-66989389D01*
X48396484Y-66949000D01*
X48603516Y-66949000D01*
X48806564Y-66989389D01*
X48806564Y-66989389D01*
G37*
G36*
X43266564Y-66989389D02*
G01*
X43457833Y-67068615D01*
X43457835Y-67068616D01*
X43629973Y-67183635D01*
X43776365Y-67330027D01*
X43878864Y-67483427D01*
X43891385Y-67502167D01*
X43970611Y-67693436D01*
X44011000Y-67896484D01*
X44011000Y-68103516D01*
X43970611Y-68306564D01*
X43897191Y-68483816D01*
X43891384Y-68497835D01*
X43776365Y-68669973D01*
X43629973Y-68816365D01*
X43457835Y-68931384D01*
X43457834Y-68931385D01*
X43457833Y-68931385D01*
X43266564Y-69010611D01*
X43063516Y-69051000D01*
X42856484Y-69051000D01*
X42653436Y-69010611D01*
X42462167Y-68931385D01*
X42462166Y-68931385D01*
X42462165Y-68931384D01*
X42290027Y-68816365D01*
X42143635Y-68669973D01*
X42028616Y-68497835D01*
X42022809Y-68483816D01*
X41949389Y-68306564D01*
X41909000Y-68103516D01*
X41909000Y-67896484D01*
X41949389Y-67693436D01*
X42028615Y-67502167D01*
X42041137Y-67483427D01*
X42143635Y-67330027D01*
X42290027Y-67183635D01*
X42462165Y-67068616D01*
X42462167Y-67068615D01*
X42653436Y-66989389D01*
X42856484Y-66949000D01*
X43063516Y-66949000D01*
X43266564Y-66989389D01*
X43266564Y-66989389D01*
G37*
G36*
X46036564Y-66989389D02*
G01*
X46227833Y-67068615D01*
X46227835Y-67068616D01*
X46399973Y-67183635D01*
X46546365Y-67330027D01*
X46648864Y-67483427D01*
X46661385Y-67502167D01*
X46740611Y-67693436D01*
X46781000Y-67896484D01*
X46781000Y-68103516D01*
X46740611Y-68306564D01*
X46667191Y-68483816D01*
X46661384Y-68497835D01*
X46546365Y-68669973D01*
X46399973Y-68816365D01*
X46227835Y-68931384D01*
X46227834Y-68931385D01*
X46227833Y-68931385D01*
X46036564Y-69010611D01*
X45833516Y-69051000D01*
X45626484Y-69051000D01*
X45423436Y-69010611D01*
X45232167Y-68931385D01*
X45232166Y-68931385D01*
X45232165Y-68931384D01*
X45060027Y-68816365D01*
X44913635Y-68669973D01*
X44798616Y-68497835D01*
X44792809Y-68483816D01*
X44719389Y-68306564D01*
X44679000Y-68103516D01*
X44679000Y-67896484D01*
X44719389Y-67693436D01*
X44798615Y-67502167D01*
X44811137Y-67483427D01*
X44913635Y-67330027D01*
X45060027Y-67183635D01*
X45232165Y-67068616D01*
X45232167Y-67068615D01*
X45423436Y-66989389D01*
X45626484Y-66949000D01*
X45833516Y-66949000D01*
X46036564Y-66989389D01*
X46036564Y-66989389D01*
G37*
G36*
X51576564Y-66989389D02*
G01*
X51767833Y-67068615D01*
X51767835Y-67068616D01*
X51939973Y-67183635D01*
X52086365Y-67330027D01*
X52188864Y-67483427D01*
X52201385Y-67502167D01*
X52280611Y-67693436D01*
X52321000Y-67896484D01*
X52321000Y-68103516D01*
X52280611Y-68306564D01*
X52207191Y-68483816D01*
X52201384Y-68497835D01*
X52086365Y-68669973D01*
X51939973Y-68816365D01*
X51767835Y-68931384D01*
X51767834Y-68931385D01*
X51767833Y-68931385D01*
X51576564Y-69010611D01*
X51373516Y-69051000D01*
X51166484Y-69051000D01*
X50963436Y-69010611D01*
X50772167Y-68931385D01*
X50772166Y-68931385D01*
X50772165Y-68931384D01*
X50600027Y-68816365D01*
X50453635Y-68669973D01*
X50338616Y-68497835D01*
X50332809Y-68483816D01*
X50259389Y-68306564D01*
X50219000Y-68103516D01*
X50219000Y-67896484D01*
X50259389Y-67693436D01*
X50338615Y-67502167D01*
X50351137Y-67483427D01*
X50453635Y-67330027D01*
X50600027Y-67183635D01*
X50772165Y-67068616D01*
X50772167Y-67068615D01*
X50963436Y-66989389D01*
X51166484Y-66949000D01*
X51373516Y-66949000D01*
X51576564Y-66989389D01*
X51576564Y-66989389D01*
G37*
G36*
X54346564Y-66989389D02*
G01*
X54537833Y-67068615D01*
X54537835Y-67068616D01*
X54709973Y-67183635D01*
X54856365Y-67330027D01*
X54958864Y-67483427D01*
X54971385Y-67502167D01*
X55050611Y-67693436D01*
X55091000Y-67896484D01*
X55091000Y-68103516D01*
X55050611Y-68306564D01*
X54977191Y-68483816D01*
X54971384Y-68497835D01*
X54856365Y-68669973D01*
X54709973Y-68816365D01*
X54537835Y-68931384D01*
X54537834Y-68931385D01*
X54537833Y-68931385D01*
X54346564Y-69010611D01*
X54143516Y-69051000D01*
X53936484Y-69051000D01*
X53733436Y-69010611D01*
X53542167Y-68931385D01*
X53542166Y-68931385D01*
X53542165Y-68931384D01*
X53370027Y-68816365D01*
X53223635Y-68669973D01*
X53108616Y-68497835D01*
X53102809Y-68483816D01*
X53029389Y-68306564D01*
X52989000Y-68103516D01*
X52989000Y-67896484D01*
X53029389Y-67693436D01*
X53108615Y-67502167D01*
X53121137Y-67483427D01*
X53223635Y-67330027D01*
X53370027Y-67183635D01*
X53542165Y-67068616D01*
X53542167Y-67068615D01*
X53733436Y-66989389D01*
X53936484Y-66949000D01*
X54143516Y-66949000D01*
X54346564Y-66989389D01*
X54346564Y-66989389D01*
G37*
G36*
X36714929Y-64223190D02*
G01*
X37160982Y-64407951D01*
X37160984Y-64407952D01*
X37562421Y-64676184D01*
X37903816Y-65017579D01*
X38166024Y-65410000D01*
X38172049Y-65419018D01*
X38356810Y-65865071D01*
X38451000Y-66338596D01*
X38451000Y-66821404D01*
X38356810Y-67294929D01*
X38191743Y-67693436D01*
X38172048Y-67740984D01*
X37903816Y-68142421D01*
X37562421Y-68483816D01*
X37160984Y-68752048D01*
X37160983Y-68752049D01*
X37160982Y-68752049D01*
X36714929Y-68936810D01*
X36241404Y-69031000D01*
X35758596Y-69031000D01*
X35285071Y-68936810D01*
X34839018Y-68752049D01*
X34839017Y-68752049D01*
X34839016Y-68752048D01*
X34437579Y-68483816D01*
X34096184Y-68142421D01*
X33827952Y-67740984D01*
X33808257Y-67693436D01*
X33643190Y-67294929D01*
X33549000Y-66821404D01*
X33549000Y-66338596D01*
X33643190Y-65865071D01*
X33827951Y-65419018D01*
X33833977Y-65410000D01*
X34096184Y-65017579D01*
X34437579Y-64676184D01*
X34839016Y-64407952D01*
X34839018Y-64407951D01*
X35285071Y-64223190D01*
X35758596Y-64129000D01*
X36241404Y-64129000D01*
X36714929Y-64223190D01*
X36714929Y-64223190D01*
G37*
G36*
X61714929Y-64223190D02*
G01*
X62160982Y-64407951D01*
X62160984Y-64407952D01*
X62562421Y-64676184D01*
X62903816Y-65017579D01*
X63166024Y-65410000D01*
X63172049Y-65419018D01*
X63356810Y-65865071D01*
X63451000Y-66338596D01*
X63451000Y-66821404D01*
X63356810Y-67294929D01*
X63191743Y-67693436D01*
X63172048Y-67740984D01*
X62903816Y-68142421D01*
X62562421Y-68483816D01*
X62160984Y-68752048D01*
X62160983Y-68752049D01*
X62160982Y-68752049D01*
X61714929Y-68936810D01*
X61241404Y-69031000D01*
X60758596Y-69031000D01*
X60285071Y-68936810D01*
X59839018Y-68752049D01*
X59839017Y-68752049D01*
X59839016Y-68752048D01*
X59437579Y-68483816D01*
X59096184Y-68142421D01*
X58827952Y-67740984D01*
X58808257Y-67693436D01*
X58643190Y-67294929D01*
X58549000Y-66821404D01*
X58549000Y-66338596D01*
X58643190Y-65865071D01*
X58827951Y-65419018D01*
X58833977Y-65410000D01*
X59096184Y-65017579D01*
X59437579Y-64676184D01*
X59839016Y-64407952D01*
X59839018Y-64407951D01*
X60285071Y-64223190D01*
X60758596Y-64129000D01*
X61241404Y-64129000D01*
X61714929Y-64223190D01*
X61714929Y-64223190D01*
G37*
G36*
X88784187Y-65446123D02*
G01*
X88955255Y-65516982D01*
X88955257Y-65516983D01*
X89015121Y-65556983D01*
X89109214Y-65619854D01*
X89240146Y-65750786D01*
X89343018Y-65904745D01*
X89413877Y-66075813D01*
X89450000Y-66257417D01*
X89450000Y-66442583D01*
X89413877Y-66624187D01*
X89377552Y-66711882D01*
X89343017Y-66795257D01*
X89325547Y-66821402D01*
X89240769Y-66948282D01*
X89240145Y-66949215D01*
X89109215Y-67080145D01*
X88955257Y-67183017D01*
X88955256Y-67183018D01*
X88955255Y-67183018D01*
X88784187Y-67253877D01*
X88602583Y-67290000D01*
X88417417Y-67290000D01*
X88235813Y-67253877D01*
X88064745Y-67183018D01*
X88064744Y-67183018D01*
X88064743Y-67183017D01*
X87910785Y-67080145D01*
X87779855Y-66949215D01*
X87779232Y-66948282D01*
X87694453Y-66821402D01*
X87676983Y-66795257D01*
X87642448Y-66711882D01*
X87606123Y-66624187D01*
X87570000Y-66442583D01*
X87570000Y-66257417D01*
X87606123Y-66075813D01*
X87676982Y-65904745D01*
X87779854Y-65750786D01*
X87910786Y-65619854D01*
X88004879Y-65556983D01*
X88064743Y-65516983D01*
X88064745Y-65516982D01*
X88235813Y-65446123D01*
X88417417Y-65410000D01*
X88602583Y-65410000D01*
X88784187Y-65446123D01*
X88784187Y-65446123D01*
G37*
G36*
X97140014Y-64956973D02*
G01*
X97243878Y-64988479D01*
X97287907Y-65012013D01*
X97339599Y-65039643D01*
X97339601Y-65039644D01*
X97339600Y-65039644D01*
X97423501Y-65108499D01*
X97492356Y-65192400D01*
X97543521Y-65288121D01*
X97575027Y-65391985D01*
X97583000Y-65472933D01*
X97583000Y-66527067D01*
X97575027Y-66608015D01*
X97543521Y-66711879D01*
X97543519Y-66711882D01*
X97492357Y-66807600D01*
X97423501Y-66891501D01*
X97339600Y-66960357D01*
X97271055Y-66996995D01*
X97243879Y-67011521D01*
X97140015Y-67043027D01*
X97032000Y-67053666D01*
X96923986Y-67043027D01*
X96820122Y-67011521D01*
X96792946Y-66996995D01*
X96724401Y-66960357D01*
X96640500Y-66891501D01*
X96571644Y-66807600D01*
X96520482Y-66711882D01*
X96520480Y-66711879D01*
X96488974Y-66608015D01*
X96483296Y-66550370D01*
X96478518Y-66526345D01*
X96469141Y-66503707D01*
X96455527Y-66483332D01*
X96438200Y-66466005D01*
X96417826Y-66452391D01*
X96395187Y-66443014D01*
X96371154Y-66438233D01*
X96346650Y-66438233D01*
X96322616Y-66443013D01*
X96299978Y-66452390D01*
X96279603Y-66466004D01*
X96262276Y-66483331D01*
X96248662Y-66503705D01*
X96239285Y-66526344D01*
X96234504Y-66550376D01*
X96228827Y-66608015D01*
X96197321Y-66711879D01*
X96197319Y-66711882D01*
X96146157Y-66807600D01*
X96077301Y-66891501D01*
X95993400Y-66960357D01*
X95924855Y-66996995D01*
X95897679Y-67011521D01*
X95793815Y-67043027D01*
X95685800Y-67053666D01*
X95577786Y-67043027D01*
X95473922Y-67011521D01*
X95446746Y-66996995D01*
X95378201Y-66960357D01*
X95294300Y-66891501D01*
X95225444Y-66807600D01*
X95174282Y-66711882D01*
X95174280Y-66711879D01*
X95142774Y-66608015D01*
X95134801Y-66527067D01*
X95134800Y-65472934D01*
X95142773Y-65391986D01*
X95174279Y-65288122D01*
X95225444Y-65192400D01*
X95294299Y-65108499D01*
X95378200Y-65039644D01*
X95378199Y-65039644D01*
X95378201Y-65039643D01*
X95429893Y-65012013D01*
X95473921Y-64988479D01*
X95577785Y-64956973D01*
X95685800Y-64946334D01*
X95793814Y-64956973D01*
X95897678Y-64988479D01*
X95941707Y-65012013D01*
X95993399Y-65039643D01*
X95993401Y-65039644D01*
X95993400Y-65039644D01*
X96077301Y-65108499D01*
X96146156Y-65192400D01*
X96197321Y-65288121D01*
X96228827Y-65391985D01*
X96234504Y-65449624D01*
X96239283Y-65473651D01*
X96248661Y-65496290D01*
X96262274Y-65516664D01*
X96279601Y-65533991D01*
X96299976Y-65547605D01*
X96322615Y-65556983D01*
X96346648Y-65561763D01*
X96371152Y-65561763D01*
X96395185Y-65556983D01*
X96417824Y-65547605D01*
X96438198Y-65533992D01*
X96455525Y-65516665D01*
X96469139Y-65496290D01*
X96478517Y-65473651D01*
X96483297Y-65449618D01*
X96486311Y-65419018D01*
X96488973Y-65391986D01*
X96520479Y-65288122D01*
X96571644Y-65192400D01*
X96640499Y-65108499D01*
X96724400Y-65039644D01*
X96724399Y-65039644D01*
X96724401Y-65039643D01*
X96776093Y-65012013D01*
X96820121Y-64988479D01*
X96923985Y-64956973D01*
X97032000Y-64946334D01*
X97140014Y-64956973D01*
X97140014Y-64956973D01*
G37*
G36*
X94422214Y-64956973D02*
G01*
X94526078Y-64988479D01*
X94570107Y-65012013D01*
X94621799Y-65039643D01*
X94621801Y-65039644D01*
X94621800Y-65039644D01*
X94705701Y-65108499D01*
X94774556Y-65192400D01*
X94825721Y-65288121D01*
X94857227Y-65391985D01*
X94865200Y-65472933D01*
X94865200Y-66527067D01*
X94857227Y-66608015D01*
X94825721Y-66711879D01*
X94825719Y-66711882D01*
X94774557Y-66807600D01*
X94705701Y-66891501D01*
X94621800Y-66960357D01*
X94553255Y-66996995D01*
X94526079Y-67011521D01*
X94422215Y-67043027D01*
X94314200Y-67053666D01*
X94206186Y-67043027D01*
X94102322Y-67011521D01*
X94075146Y-66996995D01*
X94006601Y-66960357D01*
X93922700Y-66891501D01*
X93853844Y-66807600D01*
X93802682Y-66711882D01*
X93802680Y-66711879D01*
X93771174Y-66608015D01*
X93765496Y-66550370D01*
X93760718Y-66526345D01*
X93751341Y-66503707D01*
X93737727Y-66483332D01*
X93720400Y-66466005D01*
X93700026Y-66452391D01*
X93677387Y-66443014D01*
X93653354Y-66438233D01*
X93628850Y-66438233D01*
X93604816Y-66443013D01*
X93582178Y-66452390D01*
X93561803Y-66466004D01*
X93544476Y-66483331D01*
X93530862Y-66503705D01*
X93521485Y-66526344D01*
X93516704Y-66550376D01*
X93511027Y-66608015D01*
X93479521Y-66711879D01*
X93479519Y-66711882D01*
X93428357Y-66807600D01*
X93359501Y-66891501D01*
X93275600Y-66960357D01*
X93207055Y-66996995D01*
X93179879Y-67011521D01*
X93076015Y-67043027D01*
X92968000Y-67053666D01*
X92859986Y-67043027D01*
X92756122Y-67011521D01*
X92728946Y-66996995D01*
X92660401Y-66960357D01*
X92576500Y-66891501D01*
X92507644Y-66807600D01*
X92456482Y-66711882D01*
X92456480Y-66711879D01*
X92424974Y-66608015D01*
X92417001Y-66527067D01*
X92417000Y-65472934D01*
X92424973Y-65391986D01*
X92456479Y-65288122D01*
X92507644Y-65192400D01*
X92576499Y-65108499D01*
X92660400Y-65039644D01*
X92660399Y-65039644D01*
X92660401Y-65039643D01*
X92712093Y-65012013D01*
X92756121Y-64988479D01*
X92859985Y-64956973D01*
X92968000Y-64946334D01*
X93076014Y-64956973D01*
X93179878Y-64988479D01*
X93223907Y-65012013D01*
X93275599Y-65039643D01*
X93275601Y-65039644D01*
X93275600Y-65039644D01*
X93359501Y-65108499D01*
X93428356Y-65192400D01*
X93479521Y-65288121D01*
X93511027Y-65391985D01*
X93516704Y-65449624D01*
X93521483Y-65473651D01*
X93530861Y-65496290D01*
X93544474Y-65516664D01*
X93561801Y-65533991D01*
X93582176Y-65547605D01*
X93604815Y-65556983D01*
X93628848Y-65561763D01*
X93653352Y-65561763D01*
X93677385Y-65556983D01*
X93700024Y-65547605D01*
X93720398Y-65533992D01*
X93737725Y-65516665D01*
X93751339Y-65496290D01*
X93760717Y-65473651D01*
X93765497Y-65449618D01*
X93768511Y-65419018D01*
X93771173Y-65391986D01*
X93802679Y-65288122D01*
X93853844Y-65192400D01*
X93922699Y-65108499D01*
X94006600Y-65039644D01*
X94006599Y-65039644D01*
X94006601Y-65039643D01*
X94058293Y-65012013D01*
X94102321Y-64988479D01*
X94206185Y-64956973D01*
X94314200Y-64946334D01*
X94422214Y-64956973D01*
X94422214Y-64956973D01*
G37*
G36*
X52956564Y-64149389D02*
G01*
X53134738Y-64223191D01*
X53147835Y-64228616D01*
X53319973Y-64343635D01*
X53466365Y-64490027D01*
X53575433Y-64653258D01*
X53581385Y-64662167D01*
X53660611Y-64853436D01*
X53701000Y-65056484D01*
X53701000Y-65263516D01*
X53660611Y-65466564D01*
X53581385Y-65657833D01*
X53581384Y-65657835D01*
X53466365Y-65829973D01*
X53319973Y-65976365D01*
X53147835Y-66091384D01*
X53147834Y-66091385D01*
X53147833Y-66091385D01*
X52956564Y-66170611D01*
X52753516Y-66211000D01*
X52546484Y-66211000D01*
X52343436Y-66170611D01*
X52152167Y-66091385D01*
X52152166Y-66091385D01*
X52152165Y-66091384D01*
X51980027Y-65976365D01*
X51833635Y-65829973D01*
X51718616Y-65657835D01*
X51718615Y-65657833D01*
X51639389Y-65466564D01*
X51599000Y-65263516D01*
X51599000Y-65056484D01*
X51639389Y-64853436D01*
X51718615Y-64662167D01*
X51724568Y-64653258D01*
X51833635Y-64490027D01*
X51980027Y-64343635D01*
X52152165Y-64228616D01*
X52165262Y-64223191D01*
X52343436Y-64149389D01*
X52546484Y-64109000D01*
X52753516Y-64109000D01*
X52956564Y-64149389D01*
X52956564Y-64149389D01*
G37*
G36*
X50186564Y-64149389D02*
G01*
X50364738Y-64223191D01*
X50377835Y-64228616D01*
X50549973Y-64343635D01*
X50696365Y-64490027D01*
X50805433Y-64653258D01*
X50811385Y-64662167D01*
X50890611Y-64853436D01*
X50931000Y-65056484D01*
X50931000Y-65263516D01*
X50890611Y-65466564D01*
X50811385Y-65657833D01*
X50811384Y-65657835D01*
X50696365Y-65829973D01*
X50549973Y-65976365D01*
X50377835Y-66091384D01*
X50377834Y-66091385D01*
X50377833Y-66091385D01*
X50186564Y-66170611D01*
X49983516Y-66211000D01*
X49776484Y-66211000D01*
X49573436Y-66170611D01*
X49382167Y-66091385D01*
X49382166Y-66091385D01*
X49382165Y-66091384D01*
X49210027Y-65976365D01*
X49063635Y-65829973D01*
X48948616Y-65657835D01*
X48948615Y-65657833D01*
X48869389Y-65466564D01*
X48829000Y-65263516D01*
X48829000Y-65056484D01*
X48869389Y-64853436D01*
X48948615Y-64662167D01*
X48954568Y-64653258D01*
X49063635Y-64490027D01*
X49210027Y-64343635D01*
X49382165Y-64228616D01*
X49395262Y-64223191D01*
X49573436Y-64149389D01*
X49776484Y-64109000D01*
X49983516Y-64109000D01*
X50186564Y-64149389D01*
X50186564Y-64149389D01*
G37*
G36*
X47426564Y-64149389D02*
G01*
X47604738Y-64223191D01*
X47617835Y-64228616D01*
X47789973Y-64343635D01*
X47936365Y-64490027D01*
X48045433Y-64653258D01*
X48051385Y-64662167D01*
X48130611Y-64853436D01*
X48171000Y-65056484D01*
X48171000Y-65263516D01*
X48130611Y-65466564D01*
X48051385Y-65657833D01*
X48051384Y-65657835D01*
X47936365Y-65829973D01*
X47789973Y-65976365D01*
X47617835Y-66091384D01*
X47617834Y-66091385D01*
X47617833Y-66091385D01*
X47426564Y-66170611D01*
X47223516Y-66211000D01*
X47016484Y-66211000D01*
X46813436Y-66170611D01*
X46622167Y-66091385D01*
X46622166Y-66091385D01*
X46622165Y-66091384D01*
X46450027Y-65976365D01*
X46303635Y-65829973D01*
X46188616Y-65657835D01*
X46188615Y-65657833D01*
X46109389Y-65466564D01*
X46069000Y-65263516D01*
X46069000Y-65056484D01*
X46109389Y-64853436D01*
X46188615Y-64662167D01*
X46194568Y-64653258D01*
X46303635Y-64490027D01*
X46450027Y-64343635D01*
X46622165Y-64228616D01*
X46635262Y-64223191D01*
X46813436Y-64149389D01*
X47016484Y-64109000D01*
X47223516Y-64109000D01*
X47426564Y-64149389D01*
X47426564Y-64149389D01*
G37*
G36*
X44656564Y-64149389D02*
G01*
X44834738Y-64223191D01*
X44847835Y-64228616D01*
X45019973Y-64343635D01*
X45166365Y-64490027D01*
X45275433Y-64653258D01*
X45281385Y-64662167D01*
X45360611Y-64853436D01*
X45401000Y-65056484D01*
X45401000Y-65263516D01*
X45360611Y-65466564D01*
X45281385Y-65657833D01*
X45281384Y-65657835D01*
X45166365Y-65829973D01*
X45019973Y-65976365D01*
X44847835Y-66091384D01*
X44847834Y-66091385D01*
X44847833Y-66091385D01*
X44656564Y-66170611D01*
X44453516Y-66211000D01*
X44246484Y-66211000D01*
X44043436Y-66170611D01*
X43852167Y-66091385D01*
X43852166Y-66091385D01*
X43852165Y-66091384D01*
X43680027Y-65976365D01*
X43533635Y-65829973D01*
X43418616Y-65657835D01*
X43418615Y-65657833D01*
X43339389Y-65466564D01*
X43299000Y-65263516D01*
X43299000Y-65056484D01*
X43339389Y-64853436D01*
X43418615Y-64662167D01*
X43424568Y-64653258D01*
X43533635Y-64490027D01*
X43680027Y-64343635D01*
X43852165Y-64228616D01*
X43865262Y-64223191D01*
X44043436Y-64149389D01*
X44246484Y-64109000D01*
X44453516Y-64109000D01*
X44656564Y-64149389D01*
X44656564Y-64149389D01*
G37*
M02*
