G04 #@! TF.GenerationSoftware,KiCad,Pcbnew,5.1.4-e60b266~84~ubuntu18.04.1*
G04 #@! TF.CreationDate,2019-11-04T15:24:46+01:00*
G04 #@! TF.ProjectId,WaveGlide3X,57617665-476c-4696-9465-33582e6b6963,rev?*
G04 #@! TF.SameCoordinates,Original*
G04 #@! TF.FileFunction,Copper,L1,Top*
G04 #@! TF.FilePolarity,Positive*
%FSLAX46Y46*%
G04 Gerber Fmt 4.6, Leading zero omitted, Abs format (unit mm)*
G04 Created by KiCad (PCBNEW 5.1.4-e60b266~84~ubuntu18.04.1) date 2019-11-04 15:24:46*
%MOMM*%
%LPD*%
G04 APERTURE LIST*
%ADD10C,5.000000*%
%ADD11O,1.200000X2.000000*%
%ADD12C,1.600000*%
%ADD13O,1.600000X1.600000*%
%ADD14R,2.540000X5.080000*%
%ADD15C,6.400000*%
%ADD16C,0.800000*%
%ADD17C,1.778000*%
%ADD18C,2.794000*%
%ADD19C,1.700000*%
%ADD20R,1.600000X1.600000*%
%ADD21O,1.800000X1.800000*%
%ADD22R,1.800000X1.800000*%
%ADD23C,2.400000*%
%ADD24C,2.200000*%
%ADD25C,4.800000*%
%ADD26C,2.000000*%
%ADD27O,1.000000X2.000000*%
%ADD28O,2.000000X1.200000*%
%ADD29C,0.500000*%
%ADD30C,1.000000*%
%ADD31C,0.250000*%
%ADD32C,0.254000*%
G04 APERTURE END LIST*
D10*
X120000000Y-131000000D03*
X98000000Y-113000000D03*
X98000000Y-135000000D03*
D11*
X117770000Y-144260000D03*
X117770000Y-136740000D03*
X115230000Y-144260000D03*
X115230000Y-136740000D03*
D12*
X80000000Y-128000000D03*
D13*
X80000000Y-117840000D03*
D14*
X72080000Y-152000000D03*
X67000000Y-152000000D03*
X84080000Y-152000000D03*
X79000000Y-152000000D03*
D15*
X68000000Y-66000000D03*
D16*
X70400000Y-66000000D03*
X69697056Y-67697056D03*
X68000000Y-68400000D03*
X66302944Y-67697056D03*
X65600000Y-66000000D03*
X66302944Y-64302944D03*
X68000000Y-63600000D03*
X69697056Y-64302944D03*
D15*
X79000000Y-144000000D03*
D16*
X81400000Y-144000000D03*
X80697056Y-145697056D03*
X79000000Y-146400000D03*
X77302944Y-145697056D03*
X76600000Y-144000000D03*
X77302944Y-142302944D03*
X79000000Y-141600000D03*
X80697056Y-142302944D03*
D15*
X104000000Y-87000000D03*
D16*
X106400000Y-87000000D03*
X105697056Y-88697056D03*
X104000000Y-89400000D03*
X102302944Y-88697056D03*
X101600000Y-87000000D03*
X102302944Y-85302944D03*
X104000000Y-84600000D03*
X105697056Y-85302944D03*
D17*
X53064000Y-80790000D03*
X53064000Y-83330000D03*
X53064000Y-85870000D03*
X53064000Y-88410000D03*
X53064000Y-90950000D03*
X95228000Y-88410000D03*
X95228000Y-85870000D03*
X95228000Y-83330000D03*
X95228000Y-80790000D03*
X87650000Y-85190000D03*
X74350000Y-85190000D03*
X87650000Y-87730000D03*
X74350000Y-87730000D03*
X87650000Y-90270000D03*
X74350000Y-90270000D03*
X87650000Y-92810000D03*
X74350000Y-92810000D03*
D18*
X108050000Y-143000000D03*
X108050000Y-152525000D03*
X89000000Y-149350000D03*
X89000000Y-143000000D03*
D19*
X71590000Y-112510000D03*
X71590000Y-115050000D03*
X71590000Y-117590000D03*
X71590000Y-120130000D03*
X71590000Y-122670000D03*
X71590000Y-125210000D03*
X71590000Y-127750000D03*
X71590000Y-130290000D03*
X71590000Y-132830000D03*
X71590000Y-135370000D03*
X71590000Y-137910000D03*
X71590000Y-140450000D03*
X51270000Y-140450000D03*
X51270000Y-137910000D03*
X51270000Y-135370000D03*
X51270000Y-132830000D03*
X51270000Y-130290000D03*
X51270000Y-127750000D03*
X51270000Y-125210000D03*
X51270000Y-122670000D03*
X51270000Y-120130000D03*
X51270000Y-117590000D03*
X51270000Y-115050000D03*
X51270000Y-112510000D03*
X51270000Y-109970000D03*
X51270000Y-107430000D03*
X51270000Y-104890000D03*
X51270000Y-102350000D03*
D17*
X88510000Y-76510000D03*
X88510000Y-73970000D03*
X88510000Y-71430000D03*
X88510000Y-68890000D03*
X88510000Y-66350000D03*
X87540000Y-111510000D03*
X87540000Y-108970000D03*
X87540000Y-106430000D03*
X87540000Y-103890000D03*
X87540000Y-101350000D03*
X87540000Y-98810000D03*
X87540000Y-96270000D03*
D12*
X77500000Y-134000000D03*
D20*
X81000000Y-134000000D03*
X116000000Y-148500000D03*
D12*
X116000000Y-152000000D03*
D21*
X84500000Y-117840000D03*
D22*
X84500000Y-128000000D03*
D23*
X108000000Y-107000000D03*
X113000000Y-107000000D03*
D24*
X102500000Y-78500000D03*
X102500000Y-75300000D03*
X102500000Y-72110000D03*
X105500000Y-78500000D03*
X105500000Y-75300000D03*
X105500000Y-72100000D03*
D23*
X101000000Y-69600000D03*
X107000000Y-81000000D03*
D25*
X61000000Y-66580000D03*
X36000000Y-66580000D03*
D26*
X52650000Y-65160000D03*
X49880000Y-65160000D03*
X47120000Y-65160000D03*
X44350000Y-65160000D03*
X54040000Y-68000000D03*
X51270000Y-68000000D03*
X48500000Y-68000000D03*
X45730000Y-68000000D03*
X42960000Y-68000000D03*
D12*
X69000000Y-83000000D03*
D13*
X69000000Y-72840000D03*
X65000000Y-72840000D03*
D12*
X65000000Y-83000000D03*
X61000000Y-83000000D03*
D13*
X61000000Y-72840000D03*
X76000000Y-117840000D03*
D12*
X76000000Y-128000000D03*
D13*
X112000000Y-75840000D03*
D12*
X112000000Y-86000000D03*
X118000000Y-86000000D03*
D13*
X118000000Y-75840000D03*
X102340000Y-138500000D03*
D12*
X112500000Y-138500000D03*
D27*
X92968000Y-66000000D03*
X94314200Y-66000000D03*
X95685800Y-66000000D03*
X97032000Y-66000000D03*
D28*
X92760000Y-136730000D03*
X85240000Y-136730000D03*
X92760000Y-139270000D03*
X85240000Y-139270000D03*
D16*
X67000000Y-101000000D03*
X58000000Y-112000000D03*
D29*
X95228000Y-110228000D02*
X98000000Y-113000000D01*
X95228000Y-88410000D02*
X95228000Y-110228000D01*
D30*
X86761001Y-84301001D02*
X87650000Y-85190000D01*
X84000000Y-81540000D02*
X86761001Y-84301001D01*
X84000000Y-78480000D02*
X84000000Y-81540000D01*
X88510000Y-73970000D02*
X84000000Y-78480000D01*
D31*
X57664999Y-84595999D02*
X61000000Y-81260998D01*
X57664999Y-99697082D02*
X57664999Y-84595999D01*
X52472081Y-104890000D02*
X57664999Y-99697082D01*
X51270000Y-104890000D02*
X52472081Y-104890000D01*
X78640998Y-81260998D02*
X87650000Y-90270000D01*
X61000000Y-81260998D02*
X78640998Y-81260998D01*
X86651001Y-95381001D02*
X87540000Y-96270000D01*
X86385999Y-95115999D02*
X86651001Y-95381001D01*
X86385999Y-91534001D02*
X86385999Y-95115999D01*
X87650000Y-90270000D02*
X86385999Y-91534001D01*
X94314200Y-65500000D02*
X94314200Y-66000000D01*
X95189210Y-64624990D02*
X94314200Y-65500000D01*
X97394441Y-64624990D02*
X95189210Y-64624990D01*
X97907010Y-65137559D02*
X97394441Y-64624990D01*
X95228000Y-85870000D02*
X96492001Y-84605999D01*
X96492001Y-68277450D02*
X97907010Y-66862441D01*
X96492001Y-84605999D02*
X96492001Y-68277450D01*
X97907010Y-66862441D02*
X97907010Y-65137559D01*
X81224999Y-116567766D02*
X86282765Y-111510000D01*
X86282765Y-111510000D02*
X87540000Y-111510000D01*
X74500000Y-127079002D02*
X81224999Y-120354003D01*
X74500000Y-129193002D02*
X74500000Y-127079002D01*
X59210000Y-125210000D02*
X65500000Y-131500000D01*
X71001999Y-131515001D02*
X72178001Y-131515001D01*
X72178001Y-131515001D02*
X74500000Y-129193002D01*
X51270000Y-125210000D02*
X59210000Y-125210000D01*
X65500000Y-131500000D02*
X70986998Y-131500000D01*
X81224999Y-120354003D02*
X81224999Y-116567766D01*
X70986998Y-131500000D02*
X71001999Y-131515001D01*
X61000000Y-117160000D02*
X71590000Y-127750000D01*
X61000000Y-83000000D02*
X61000000Y-117160000D01*
X65000000Y-83000000D02*
X65000000Y-86000000D01*
X65000000Y-86000000D02*
X62000000Y-89000000D01*
X62000000Y-115620000D02*
X71590000Y-125210000D01*
X62000000Y-89000000D02*
X62000000Y-115620000D01*
X69000000Y-83000000D02*
X69000000Y-85000000D01*
X70740001Y-121820001D02*
X71590000Y-122670000D01*
X63000000Y-91000000D02*
X63000000Y-114080000D01*
X63000000Y-114080000D02*
X70740001Y-121820001D01*
X69000000Y-85000000D02*
X63000000Y-91000000D01*
X92218000Y-66000000D02*
X92968000Y-66000000D01*
X90603999Y-67614001D02*
X92218000Y-66000000D01*
X74225999Y-67614001D02*
X90603999Y-67614001D01*
X69000000Y-72840000D02*
X74225999Y-67614001D01*
X95685800Y-66365851D02*
X95685800Y-66000000D01*
X91897650Y-70154001D02*
X95685800Y-66365851D01*
X75638879Y-70154001D02*
X91897650Y-70154001D01*
X71777879Y-74015001D02*
X75638879Y-70154001D01*
X65000000Y-72840000D02*
X66175001Y-74015001D01*
X66175001Y-74015001D02*
X71777879Y-74015001D01*
X62675011Y-74515011D02*
X71984989Y-74515011D01*
X61000000Y-72840000D02*
X62675011Y-74515011D01*
X97032000Y-66500000D02*
X97032000Y-66000000D01*
X73805999Y-72694001D02*
X90837999Y-72694001D01*
X90837999Y-72694001D02*
X97032000Y-66500000D01*
X71984989Y-74515011D02*
X73805999Y-72694001D01*
X85240000Y-135880000D02*
X85240000Y-136730000D01*
X77360000Y-128000000D02*
X85240000Y-135880000D01*
X76000000Y-128000000D02*
X77360000Y-128000000D01*
X52650000Y-66574213D02*
X52650000Y-65160000D01*
X52650000Y-79118765D02*
X52650000Y-66574213D01*
X53064000Y-79532765D02*
X52650000Y-79118765D01*
X53064000Y-80790000D02*
X53064000Y-79532765D01*
X54040000Y-69414213D02*
X54040000Y-68000000D01*
X54328001Y-69702214D02*
X54040000Y-69414213D01*
X54328001Y-82065999D02*
X54328001Y-69702214D01*
X53064000Y-83330000D02*
X54328001Y-82065999D01*
X46729999Y-68999999D02*
X45730000Y-68000000D01*
X50000000Y-72270000D02*
X46729999Y-68999999D01*
X51000000Y-74000000D02*
X50000000Y-73000000D01*
X50000000Y-73000000D02*
X50000000Y-72270000D01*
X53064000Y-88410000D02*
X51000000Y-86346000D01*
X51000000Y-86346000D02*
X51000000Y-74000000D01*
X57164988Y-86849012D02*
X57164989Y-84388887D01*
X49219999Y-63784999D02*
X48500000Y-64504998D01*
X58000000Y-68474998D02*
X53310001Y-63784999D01*
X53310001Y-63784999D02*
X49219999Y-63784999D01*
X58000000Y-83553876D02*
X58000000Y-68474998D01*
X57164989Y-84388887D02*
X58000000Y-83553876D01*
X53064000Y-90950000D02*
X57164988Y-86849012D01*
X48500000Y-64504998D02*
X48500000Y-66585787D01*
X48500000Y-66585787D02*
X48500000Y-68000000D01*
X67000000Y-152000000D02*
X67000000Y-150730000D01*
D30*
X92760000Y-145590000D02*
X89000000Y-149350000D01*
X92760000Y-139270000D02*
X92760000Y-145590000D01*
D29*
X67000000Y-113000000D02*
X71590000Y-117590000D01*
X67000000Y-101000000D02*
X67000000Y-113000000D01*
D31*
X51270000Y-112510000D02*
X57490000Y-112510000D01*
X57490000Y-112510000D02*
X58000000Y-112000000D01*
X102500000Y-78500000D02*
X105500000Y-78500000D01*
X102500000Y-80468722D02*
X102500000Y-78500000D01*
X94365999Y-87134001D02*
X95834721Y-87134001D01*
X91000000Y-90500000D02*
X94365999Y-87134001D01*
X91000000Y-107000000D02*
X91000000Y-90500000D01*
X88146721Y-107705999D02*
X88440722Y-108000000D01*
X95834721Y-87134001D02*
X102500000Y-80468722D01*
X74100000Y-110000000D02*
X84000000Y-110000000D01*
X86639278Y-108000000D02*
X86933279Y-107705999D01*
X71590000Y-112510000D02*
X74100000Y-110000000D01*
X84000000Y-110000000D02*
X86000000Y-108000000D01*
X86000000Y-108000000D02*
X86639278Y-108000000D01*
X90000000Y-108000000D02*
X91000000Y-107000000D01*
X88440722Y-108000000D02*
X90000000Y-108000000D01*
X86933279Y-107705999D02*
X88146721Y-107705999D01*
D30*
X113550000Y-148500000D02*
X108050000Y-143000000D01*
X116000000Y-148500000D02*
X113550000Y-148500000D01*
X108050000Y-143000000D02*
X101000000Y-143000000D01*
X98000000Y-140000000D02*
X98000000Y-135000000D01*
X101000000Y-143000000D02*
X98000000Y-140000000D01*
X84500000Y-130250000D02*
X84500000Y-128000000D01*
X98000000Y-135000000D02*
X89250000Y-135000000D01*
X89250000Y-135000000D02*
X84500000Y-130250000D01*
D31*
X52472081Y-120130000D02*
X51270000Y-120130000D01*
X74000000Y-123840000D02*
X74000000Y-127500000D01*
X80000000Y-117840000D02*
X74000000Y-123840000D01*
X74000000Y-127500000D02*
X72524999Y-128975001D01*
X72524999Y-128975001D02*
X63682121Y-128975001D01*
X63682121Y-128975001D02*
X54837120Y-120130000D01*
X54837120Y-120130000D02*
X52472081Y-120130000D01*
D32*
G36*
X121290000Y-112873000D02*
G01*
X109000000Y-112873000D01*
X108975224Y-112875440D01*
X108951399Y-112882667D01*
X108929443Y-112894403D01*
X108910197Y-112910197D01*
X108894403Y-112929443D01*
X108882667Y-112951399D01*
X108875440Y-112975224D01*
X108873000Y-113000000D01*
X108873000Y-135000000D01*
X108875440Y-135024776D01*
X108882667Y-135048601D01*
X108894403Y-135070557D01*
X108910197Y-135089803D01*
X108929443Y-135105597D01*
X108951399Y-135117333D01*
X108975224Y-135124560D01*
X109000000Y-135127000D01*
X114974283Y-135127000D01*
X114755099Y-135193489D01*
X114540551Y-135308167D01*
X114352498Y-135462498D01*
X114198167Y-135650552D01*
X114083489Y-135865100D01*
X114012870Y-136097899D01*
X113995000Y-136279336D01*
X113995000Y-137200665D01*
X114012870Y-137382102D01*
X114083489Y-137614901D01*
X114198168Y-137829449D01*
X114352499Y-138017502D01*
X114540552Y-138171833D01*
X114755100Y-138286511D01*
X114987899Y-138357130D01*
X115230000Y-138380975D01*
X115472102Y-138357130D01*
X115704901Y-138286511D01*
X115919449Y-138171833D01*
X116107502Y-138017502D01*
X116261833Y-137829449D01*
X116376511Y-137614901D01*
X116447130Y-137382101D01*
X116465000Y-137200664D01*
X116465000Y-136279335D01*
X116447130Y-136097898D01*
X116376511Y-135865099D01*
X116261833Y-135650551D01*
X116107502Y-135462498D01*
X115919448Y-135308167D01*
X115704900Y-135193489D01*
X115485716Y-135127000D01*
X117514283Y-135127000D01*
X117295099Y-135193489D01*
X117080551Y-135308167D01*
X116892498Y-135462498D01*
X116738167Y-135650552D01*
X116623489Y-135865100D01*
X116552870Y-136097899D01*
X116535000Y-136279336D01*
X116535000Y-137200665D01*
X116552870Y-137382102D01*
X116623489Y-137614901D01*
X116738168Y-137829449D01*
X116892499Y-138017502D01*
X117080552Y-138171833D01*
X117295100Y-138286511D01*
X117527899Y-138357130D01*
X117770000Y-138380975D01*
X118012102Y-138357130D01*
X118244901Y-138286511D01*
X118459449Y-138171833D01*
X118647502Y-138017502D01*
X118801833Y-137829449D01*
X118916511Y-137614901D01*
X118987130Y-137382101D01*
X119005000Y-137200664D01*
X119005000Y-136279335D01*
X118987130Y-136097898D01*
X118916511Y-135865099D01*
X118801833Y-135650551D01*
X118647502Y-135462498D01*
X118459448Y-135308167D01*
X118244900Y-135193489D01*
X118025716Y-135127000D01*
X121290000Y-135127000D01*
X121290000Y-154290000D01*
X109065994Y-154290000D01*
X109345325Y-154103357D01*
X109628357Y-153820325D01*
X109850735Y-153487513D01*
X110003911Y-153117713D01*
X110082000Y-152725135D01*
X110082000Y-152324865D01*
X110003911Y-151932287D01*
X109973416Y-151858665D01*
X114565000Y-151858665D01*
X114565000Y-152141335D01*
X114620147Y-152418574D01*
X114728320Y-152679727D01*
X114885363Y-152914759D01*
X115085241Y-153114637D01*
X115320273Y-153271680D01*
X115581426Y-153379853D01*
X115858665Y-153435000D01*
X116141335Y-153435000D01*
X116418574Y-153379853D01*
X116679727Y-153271680D01*
X116914759Y-153114637D01*
X117114637Y-152914759D01*
X117271680Y-152679727D01*
X117379853Y-152418574D01*
X117435000Y-152141335D01*
X117435000Y-151858665D01*
X117379853Y-151581426D01*
X117271680Y-151320273D01*
X117114637Y-151085241D01*
X116914759Y-150885363D01*
X116679727Y-150728320D01*
X116418574Y-150620147D01*
X116141335Y-150565000D01*
X115858665Y-150565000D01*
X115581426Y-150620147D01*
X115320273Y-150728320D01*
X115085241Y-150885363D01*
X114885363Y-151085241D01*
X114728320Y-151320273D01*
X114620147Y-151581426D01*
X114565000Y-151858665D01*
X109973416Y-151858665D01*
X109850735Y-151562487D01*
X109628357Y-151229675D01*
X109345325Y-150946643D01*
X109012513Y-150724265D01*
X108642713Y-150571089D01*
X108250135Y-150493000D01*
X107849865Y-150493000D01*
X107457287Y-150571089D01*
X107087487Y-150724265D01*
X106754675Y-150946643D01*
X106471643Y-151229675D01*
X106249265Y-151562487D01*
X106096089Y-151932287D01*
X106018000Y-152324865D01*
X106018000Y-152725135D01*
X106096089Y-153117713D01*
X106249265Y-153487513D01*
X106471643Y-153820325D01*
X106754675Y-154103357D01*
X107034006Y-154290000D01*
X85988072Y-154290000D01*
X85988072Y-149460000D01*
X85975812Y-149335518D01*
X85939502Y-149215820D01*
X85904248Y-149149865D01*
X86968000Y-149149865D01*
X86968000Y-149550135D01*
X87046089Y-149942713D01*
X87199265Y-150312513D01*
X87421643Y-150645325D01*
X87704675Y-150928357D01*
X88037487Y-151150735D01*
X88407287Y-151303911D01*
X88799865Y-151382000D01*
X89200135Y-151382000D01*
X89592713Y-151303911D01*
X89962513Y-151150735D01*
X90295325Y-150928357D01*
X90578357Y-150645325D01*
X90800735Y-150312513D01*
X90953911Y-149942713D01*
X91032000Y-149550135D01*
X91032000Y-149149865D01*
X90994382Y-148960749D01*
X93523141Y-146431991D01*
X93566449Y-146396449D01*
X93708284Y-146223623D01*
X93813676Y-146026447D01*
X93878577Y-145812499D01*
X93895000Y-145645752D01*
X93900491Y-145590000D01*
X93895000Y-145534249D01*
X93895000Y-140264450D01*
X94037502Y-140147502D01*
X94191833Y-139959449D01*
X94306511Y-139744901D01*
X94377130Y-139512102D01*
X94400975Y-139270000D01*
X94377130Y-139027898D01*
X94306511Y-138795099D01*
X94191833Y-138580551D01*
X94037502Y-138392498D01*
X93849449Y-138238167D01*
X93634901Y-138123489D01*
X93402102Y-138052870D01*
X93220665Y-138035000D01*
X92299335Y-138035000D01*
X92117898Y-138052870D01*
X91885099Y-138123489D01*
X91670551Y-138238167D01*
X91482498Y-138392498D01*
X91328167Y-138580551D01*
X91213489Y-138795099D01*
X91142870Y-139027898D01*
X91119025Y-139270000D01*
X91142870Y-139512102D01*
X91213489Y-139744901D01*
X91328167Y-139959449D01*
X91482498Y-140147502D01*
X91625000Y-140264450D01*
X91625001Y-145119867D01*
X89389251Y-147355618D01*
X89200135Y-147318000D01*
X88799865Y-147318000D01*
X88407287Y-147396089D01*
X88037487Y-147549265D01*
X87704675Y-147771643D01*
X87421643Y-148054675D01*
X87199265Y-148387487D01*
X87046089Y-148757287D01*
X86968000Y-149149865D01*
X85904248Y-149149865D01*
X85880537Y-149105506D01*
X85801185Y-149008815D01*
X85704494Y-148929463D01*
X85594180Y-148870498D01*
X85474482Y-148834188D01*
X85350000Y-148821928D01*
X82810000Y-148821928D01*
X82685518Y-148834188D01*
X82565820Y-148870498D01*
X82455506Y-148929463D01*
X82358815Y-149008815D01*
X82279463Y-149105506D01*
X82220498Y-149215820D01*
X82184188Y-149335518D01*
X82171928Y-149460000D01*
X82171928Y-154290000D01*
X80907731Y-154290000D01*
X80905000Y-152285750D01*
X80746250Y-152127000D01*
X79127000Y-152127000D01*
X79127000Y-152147000D01*
X78873000Y-152147000D01*
X78873000Y-152127000D01*
X77253750Y-152127000D01*
X77095000Y-152285750D01*
X77092269Y-154290000D01*
X73988072Y-154290000D01*
X73988072Y-149460000D01*
X77091928Y-149460000D01*
X77095000Y-151714250D01*
X77253750Y-151873000D01*
X78873000Y-151873000D01*
X78873000Y-148983750D01*
X79127000Y-148983750D01*
X79127000Y-151873000D01*
X80746250Y-151873000D01*
X80905000Y-151714250D01*
X80908072Y-149460000D01*
X80895812Y-149335518D01*
X80859502Y-149215820D01*
X80800537Y-149105506D01*
X80721185Y-149008815D01*
X80624494Y-148929463D01*
X80514180Y-148870498D01*
X80394482Y-148834188D01*
X80270000Y-148821928D01*
X79285750Y-148825000D01*
X79127000Y-148983750D01*
X78873000Y-148983750D01*
X78714250Y-148825000D01*
X77730000Y-148821928D01*
X77605518Y-148834188D01*
X77485820Y-148870498D01*
X77375506Y-148929463D01*
X77278815Y-149008815D01*
X77199463Y-149105506D01*
X77140498Y-149215820D01*
X77104188Y-149335518D01*
X77091928Y-149460000D01*
X73988072Y-149460000D01*
X73975812Y-149335518D01*
X73939502Y-149215820D01*
X73880537Y-149105506D01*
X73801185Y-149008815D01*
X73704494Y-148929463D01*
X73594180Y-148870498D01*
X73474482Y-148834188D01*
X73350000Y-148821928D01*
X70810000Y-148821928D01*
X70685518Y-148834188D01*
X70565820Y-148870498D01*
X70455506Y-148929463D01*
X70358815Y-149008815D01*
X70279463Y-149105506D01*
X70220498Y-149215820D01*
X70184188Y-149335518D01*
X70171928Y-149460000D01*
X70171928Y-154290000D01*
X68907731Y-154290000D01*
X68905000Y-152285750D01*
X68746250Y-152127000D01*
X67127000Y-152127000D01*
X67127000Y-152147000D01*
X66873000Y-152147000D01*
X66873000Y-152127000D01*
X65253750Y-152127000D01*
X65095000Y-152285750D01*
X65092269Y-154290000D01*
X49710000Y-154290000D01*
X49710000Y-149460000D01*
X65091928Y-149460000D01*
X65095000Y-151714250D01*
X65253750Y-151873000D01*
X66873000Y-151873000D01*
X66873000Y-148983750D01*
X67127000Y-148983750D01*
X67127000Y-151873000D01*
X68746250Y-151873000D01*
X68905000Y-151714250D01*
X68908072Y-149460000D01*
X68895812Y-149335518D01*
X68859502Y-149215820D01*
X68800537Y-149105506D01*
X68721185Y-149008815D01*
X68624494Y-148929463D01*
X68514180Y-148870498D01*
X68394482Y-148834188D01*
X68270000Y-148821928D01*
X67285750Y-148825000D01*
X67127000Y-148983750D01*
X66873000Y-148983750D01*
X66714250Y-148825000D01*
X65730000Y-148821928D01*
X65605518Y-148834188D01*
X65485820Y-148870498D01*
X65375506Y-148929463D01*
X65278815Y-149008815D01*
X65199463Y-149105506D01*
X65140498Y-149215820D01*
X65104188Y-149335518D01*
X65091928Y-149460000D01*
X49710000Y-149460000D01*
X49710000Y-143622285D01*
X75165000Y-143622285D01*
X75165000Y-144377715D01*
X75312377Y-145118628D01*
X75601467Y-145816554D01*
X76021161Y-146444670D01*
X76555330Y-146978839D01*
X77183446Y-147398533D01*
X77881372Y-147687623D01*
X78622285Y-147835000D01*
X79377715Y-147835000D01*
X80118628Y-147687623D01*
X80816554Y-147398533D01*
X81444670Y-146978839D01*
X81978839Y-146444670D01*
X82398533Y-145816554D01*
X82687623Y-145118628D01*
X82835000Y-144377715D01*
X82835000Y-143622285D01*
X82687623Y-142881372D01*
X82653862Y-142799865D01*
X86968000Y-142799865D01*
X86968000Y-143200135D01*
X87046089Y-143592713D01*
X87199265Y-143962513D01*
X87421643Y-144295325D01*
X87704675Y-144578357D01*
X88037487Y-144800735D01*
X88407287Y-144953911D01*
X88799865Y-145032000D01*
X89200135Y-145032000D01*
X89592713Y-144953911D01*
X89962513Y-144800735D01*
X90295325Y-144578357D01*
X90578357Y-144295325D01*
X90800735Y-143962513D01*
X90953911Y-143592713D01*
X91032000Y-143200135D01*
X91032000Y-142799865D01*
X90953911Y-142407287D01*
X90800735Y-142037487D01*
X90578357Y-141704675D01*
X90295325Y-141421643D01*
X89962513Y-141199265D01*
X89592713Y-141046089D01*
X89200135Y-140968000D01*
X88799865Y-140968000D01*
X88407287Y-141046089D01*
X88037487Y-141199265D01*
X87704675Y-141421643D01*
X87421643Y-141704675D01*
X87199265Y-142037487D01*
X87046089Y-142407287D01*
X86968000Y-142799865D01*
X82653862Y-142799865D01*
X82398533Y-142183446D01*
X81978839Y-141555330D01*
X81444670Y-141021161D01*
X80816554Y-140601467D01*
X80118628Y-140312377D01*
X79377715Y-140165000D01*
X78622285Y-140165000D01*
X77881372Y-140312377D01*
X77183446Y-140601467D01*
X76555330Y-141021161D01*
X76021161Y-141555330D01*
X75601467Y-142183446D01*
X75312377Y-142881372D01*
X75165000Y-143622285D01*
X49710000Y-143622285D01*
X49710000Y-76034876D01*
X49713435Y-76000000D01*
X49699727Y-75860816D01*
X49659128Y-75726980D01*
X49627000Y-75666873D01*
X49627000Y-75500000D01*
X49624560Y-75475224D01*
X49617333Y-75451399D01*
X49605597Y-75429443D01*
X49589803Y-75410197D01*
X49570557Y-75394403D01*
X49548601Y-75382667D01*
X49524776Y-75375440D01*
X49500000Y-75373000D01*
X49333127Y-75373000D01*
X49273020Y-75340872D01*
X49139184Y-75300273D01*
X49034877Y-75290000D01*
X49000000Y-75286565D01*
X48965123Y-75290000D01*
X33710000Y-75290000D01*
X33710000Y-68582138D01*
X34065300Y-68937438D01*
X34562388Y-69269582D01*
X35114723Y-69498367D01*
X35701079Y-69615000D01*
X36298921Y-69615000D01*
X36885277Y-69498367D01*
X37437612Y-69269582D01*
X37934700Y-68937438D01*
X38357438Y-68514700D01*
X38689582Y-68017612D01*
X38763579Y-67838967D01*
X41325000Y-67838967D01*
X41325000Y-68161033D01*
X41387832Y-68476912D01*
X41511082Y-68774463D01*
X41690013Y-69042252D01*
X41917748Y-69269987D01*
X42185537Y-69448918D01*
X42483088Y-69572168D01*
X42798967Y-69635000D01*
X43121033Y-69635000D01*
X43436912Y-69572168D01*
X43734463Y-69448918D01*
X44002252Y-69269987D01*
X44229987Y-69042252D01*
X44345000Y-68870123D01*
X44460013Y-69042252D01*
X44687748Y-69269987D01*
X44955537Y-69448918D01*
X45253088Y-69572168D01*
X45568967Y-69635000D01*
X45891033Y-69635000D01*
X46206912Y-69572168D01*
X46221376Y-69566177D01*
X49240000Y-72584802D01*
X49240000Y-72962678D01*
X49236324Y-73000000D01*
X49240000Y-73037322D01*
X49240000Y-73037332D01*
X49250997Y-73148985D01*
X49283156Y-73255001D01*
X49294454Y-73292246D01*
X49365026Y-73424276D01*
X49404871Y-73472826D01*
X49459999Y-73540001D01*
X49489002Y-73563804D01*
X50240001Y-74314803D01*
X50240000Y-86308678D01*
X50236324Y-86346000D01*
X50240000Y-86383322D01*
X50240000Y-86383332D01*
X50250997Y-86494985D01*
X50289612Y-86622285D01*
X50294454Y-86638246D01*
X50365026Y-86770276D01*
X50404871Y-86818826D01*
X50459999Y-86886001D01*
X50489003Y-86909804D01*
X51589623Y-88010425D01*
X51540000Y-88259899D01*
X51540000Y-88560101D01*
X51598566Y-88854534D01*
X51713449Y-89131885D01*
X51880232Y-89381493D01*
X52092507Y-89593768D01*
X52221562Y-89680000D01*
X52092507Y-89766232D01*
X51880232Y-89978507D01*
X51713449Y-90228115D01*
X51598566Y-90505466D01*
X51540000Y-90799899D01*
X51540000Y-91100101D01*
X51598566Y-91394534D01*
X51713449Y-91671885D01*
X51880232Y-91921493D01*
X52092507Y-92133768D01*
X52342115Y-92300551D01*
X52619466Y-92415434D01*
X52913899Y-92474000D01*
X53214101Y-92474000D01*
X53508534Y-92415434D01*
X53785885Y-92300551D01*
X54035493Y-92133768D01*
X54247768Y-91921493D01*
X54414551Y-91671885D01*
X54529434Y-91394534D01*
X54588000Y-91100101D01*
X54588000Y-90799899D01*
X54538377Y-90550424D01*
X56905000Y-88183802D01*
X56904999Y-99382280D01*
X52383693Y-103903586D01*
X52216632Y-103736525D01*
X52042240Y-103620000D01*
X52216632Y-103503475D01*
X52423475Y-103296632D01*
X52585990Y-103053411D01*
X52697932Y-102783158D01*
X52755000Y-102496260D01*
X52755000Y-102203740D01*
X52697932Y-101916842D01*
X52585990Y-101646589D01*
X52423475Y-101403368D01*
X52216632Y-101196525D01*
X51973411Y-101034010D01*
X51703158Y-100922068D01*
X51416260Y-100865000D01*
X51123740Y-100865000D01*
X50836842Y-100922068D01*
X50566589Y-101034010D01*
X50323368Y-101196525D01*
X50116525Y-101403368D01*
X49954010Y-101646589D01*
X49842068Y-101916842D01*
X49785000Y-102203740D01*
X49785000Y-102496260D01*
X49842068Y-102783158D01*
X49954010Y-103053411D01*
X50116525Y-103296632D01*
X50323368Y-103503475D01*
X50497760Y-103620000D01*
X50323368Y-103736525D01*
X50116525Y-103943368D01*
X49954010Y-104186589D01*
X49842068Y-104456842D01*
X49785000Y-104743740D01*
X49785000Y-105036260D01*
X49842068Y-105323158D01*
X49954010Y-105593411D01*
X50116525Y-105836632D01*
X50323368Y-106043475D01*
X50497760Y-106160000D01*
X50323368Y-106276525D01*
X50116525Y-106483368D01*
X49954010Y-106726589D01*
X49842068Y-106996842D01*
X49785000Y-107283740D01*
X49785000Y-107576260D01*
X49842068Y-107863158D01*
X49954010Y-108133411D01*
X50116525Y-108376632D01*
X50323368Y-108583475D01*
X50497760Y-108700000D01*
X50323368Y-108816525D01*
X50116525Y-109023368D01*
X49954010Y-109266589D01*
X49842068Y-109536842D01*
X49785000Y-109823740D01*
X49785000Y-110116260D01*
X49842068Y-110403158D01*
X49954010Y-110673411D01*
X50116525Y-110916632D01*
X50323368Y-111123475D01*
X50497760Y-111240000D01*
X50323368Y-111356525D01*
X50116525Y-111563368D01*
X49954010Y-111806589D01*
X49842068Y-112076842D01*
X49785000Y-112363740D01*
X49785000Y-112656260D01*
X49842068Y-112943158D01*
X49954010Y-113213411D01*
X50116525Y-113456632D01*
X50323368Y-113663475D01*
X50497760Y-113780000D01*
X50323368Y-113896525D01*
X50116525Y-114103368D01*
X49954010Y-114346589D01*
X49842068Y-114616842D01*
X49785000Y-114903740D01*
X49785000Y-115196260D01*
X49842068Y-115483158D01*
X49954010Y-115753411D01*
X50116525Y-115996632D01*
X50323368Y-116203475D01*
X50497760Y-116320000D01*
X50323368Y-116436525D01*
X50116525Y-116643368D01*
X49954010Y-116886589D01*
X49842068Y-117156842D01*
X49785000Y-117443740D01*
X49785000Y-117736260D01*
X49842068Y-118023158D01*
X49954010Y-118293411D01*
X50116525Y-118536632D01*
X50323368Y-118743475D01*
X50497760Y-118860000D01*
X50323368Y-118976525D01*
X50116525Y-119183368D01*
X49954010Y-119426589D01*
X49842068Y-119696842D01*
X49785000Y-119983740D01*
X49785000Y-120276260D01*
X49842068Y-120563158D01*
X49954010Y-120833411D01*
X50116525Y-121076632D01*
X50323368Y-121283475D01*
X50497760Y-121400000D01*
X50323368Y-121516525D01*
X50116525Y-121723368D01*
X49954010Y-121966589D01*
X49842068Y-122236842D01*
X49785000Y-122523740D01*
X49785000Y-122816260D01*
X49842068Y-123103158D01*
X49954010Y-123373411D01*
X50116525Y-123616632D01*
X50323368Y-123823475D01*
X50497760Y-123940000D01*
X50323368Y-124056525D01*
X50116525Y-124263368D01*
X49954010Y-124506589D01*
X49842068Y-124776842D01*
X49785000Y-125063740D01*
X49785000Y-125356260D01*
X49842068Y-125643158D01*
X49954010Y-125913411D01*
X50116525Y-126156632D01*
X50323368Y-126363475D01*
X50497760Y-126480000D01*
X50323368Y-126596525D01*
X50116525Y-126803368D01*
X49954010Y-127046589D01*
X49842068Y-127316842D01*
X49785000Y-127603740D01*
X49785000Y-127896260D01*
X49842068Y-128183158D01*
X49954010Y-128453411D01*
X50116525Y-128696632D01*
X50323368Y-128903475D01*
X50497760Y-129020000D01*
X50323368Y-129136525D01*
X50116525Y-129343368D01*
X49954010Y-129586589D01*
X49842068Y-129856842D01*
X49785000Y-130143740D01*
X49785000Y-130436260D01*
X49842068Y-130723158D01*
X49954010Y-130993411D01*
X50116525Y-131236632D01*
X50323368Y-131443475D01*
X50497760Y-131560000D01*
X50323368Y-131676525D01*
X50116525Y-131883368D01*
X49954010Y-132126589D01*
X49842068Y-132396842D01*
X49785000Y-132683740D01*
X49785000Y-132976260D01*
X49842068Y-133263158D01*
X49954010Y-133533411D01*
X50116525Y-133776632D01*
X50323368Y-133983475D01*
X50497760Y-134100000D01*
X50323368Y-134216525D01*
X50116525Y-134423368D01*
X49954010Y-134666589D01*
X49842068Y-134936842D01*
X49785000Y-135223740D01*
X49785000Y-135516260D01*
X49842068Y-135803158D01*
X49954010Y-136073411D01*
X50116525Y-136316632D01*
X50323368Y-136523475D01*
X50497760Y-136640000D01*
X50323368Y-136756525D01*
X50116525Y-136963368D01*
X49954010Y-137206589D01*
X49842068Y-137476842D01*
X49785000Y-137763740D01*
X49785000Y-138056260D01*
X49842068Y-138343158D01*
X49954010Y-138613411D01*
X50116525Y-138856632D01*
X50323368Y-139063475D01*
X50497760Y-139180000D01*
X50323368Y-139296525D01*
X50116525Y-139503368D01*
X49954010Y-139746589D01*
X49842068Y-140016842D01*
X49785000Y-140303740D01*
X49785000Y-140596260D01*
X49842068Y-140883158D01*
X49954010Y-141153411D01*
X50116525Y-141396632D01*
X50323368Y-141603475D01*
X50566589Y-141765990D01*
X50836842Y-141877932D01*
X51123740Y-141935000D01*
X51416260Y-141935000D01*
X51703158Y-141877932D01*
X51973411Y-141765990D01*
X52216632Y-141603475D01*
X52423475Y-141396632D01*
X52585990Y-141153411D01*
X52697932Y-140883158D01*
X52755000Y-140596260D01*
X52755000Y-140303740D01*
X52697932Y-140016842D01*
X52585990Y-139746589D01*
X52423475Y-139503368D01*
X52216632Y-139296525D01*
X52042240Y-139180000D01*
X52216632Y-139063475D01*
X52423475Y-138856632D01*
X52585990Y-138613411D01*
X52697932Y-138343158D01*
X52755000Y-138056260D01*
X52755000Y-137763740D01*
X52697932Y-137476842D01*
X52585990Y-137206589D01*
X52423475Y-136963368D01*
X52216632Y-136756525D01*
X52042240Y-136640000D01*
X52216632Y-136523475D01*
X52423475Y-136316632D01*
X52585990Y-136073411D01*
X52697932Y-135803158D01*
X52755000Y-135516260D01*
X52755000Y-135223740D01*
X52697932Y-134936842D01*
X52585990Y-134666589D01*
X52423475Y-134423368D01*
X52216632Y-134216525D01*
X52042240Y-134100000D01*
X52216632Y-133983475D01*
X52423475Y-133776632D01*
X52585990Y-133533411D01*
X52697932Y-133263158D01*
X52755000Y-132976260D01*
X52755000Y-132683740D01*
X52697932Y-132396842D01*
X52585990Y-132126589D01*
X52423475Y-131883368D01*
X52216632Y-131676525D01*
X52042240Y-131560000D01*
X52216632Y-131443475D01*
X52423475Y-131236632D01*
X52585990Y-130993411D01*
X52697932Y-130723158D01*
X52755000Y-130436260D01*
X52755000Y-130143740D01*
X52697932Y-129856842D01*
X52585990Y-129586589D01*
X52423475Y-129343368D01*
X52216632Y-129136525D01*
X52042240Y-129020000D01*
X52216632Y-128903475D01*
X52423475Y-128696632D01*
X52585990Y-128453411D01*
X52697932Y-128183158D01*
X52755000Y-127896260D01*
X52755000Y-127603740D01*
X52697932Y-127316842D01*
X52585990Y-127046589D01*
X52423475Y-126803368D01*
X52216632Y-126596525D01*
X52042240Y-126480000D01*
X52216632Y-126363475D01*
X52423475Y-126156632D01*
X52548178Y-125970000D01*
X58895199Y-125970000D01*
X64936200Y-132011002D01*
X64959999Y-132040001D01*
X65075724Y-132134974D01*
X65207753Y-132205546D01*
X65351014Y-132249003D01*
X65462667Y-132260000D01*
X65462676Y-132260000D01*
X65499999Y-132263676D01*
X65537322Y-132260000D01*
X70218750Y-132260000D01*
X70162068Y-132396842D01*
X70105000Y-132683740D01*
X70105000Y-132976260D01*
X70162068Y-133263158D01*
X70274010Y-133533411D01*
X70436525Y-133776632D01*
X70643368Y-133983475D01*
X70817760Y-134100000D01*
X70643368Y-134216525D01*
X70436525Y-134423368D01*
X70274010Y-134666589D01*
X70162068Y-134936842D01*
X70105000Y-135223740D01*
X70105000Y-135516260D01*
X70162068Y-135803158D01*
X70274010Y-136073411D01*
X70436525Y-136316632D01*
X70643368Y-136523475D01*
X70817760Y-136640000D01*
X70643368Y-136756525D01*
X70436525Y-136963368D01*
X70274010Y-137206589D01*
X70162068Y-137476842D01*
X70105000Y-137763740D01*
X70105000Y-138056260D01*
X70162068Y-138343158D01*
X70274010Y-138613411D01*
X70436525Y-138856632D01*
X70643368Y-139063475D01*
X70817760Y-139180000D01*
X70643368Y-139296525D01*
X70436525Y-139503368D01*
X70274010Y-139746589D01*
X70162068Y-140016842D01*
X70105000Y-140303740D01*
X70105000Y-140596260D01*
X70162068Y-140883158D01*
X70274010Y-141153411D01*
X70436525Y-141396632D01*
X70643368Y-141603475D01*
X70886589Y-141765990D01*
X71156842Y-141877932D01*
X71443740Y-141935000D01*
X71736260Y-141935000D01*
X72023158Y-141877932D01*
X72293411Y-141765990D01*
X72536632Y-141603475D01*
X72743475Y-141396632D01*
X72905990Y-141153411D01*
X73017932Y-140883158D01*
X73075000Y-140596260D01*
X73075000Y-140303740D01*
X73017932Y-140016842D01*
X72905990Y-139746589D01*
X72743475Y-139503368D01*
X72536632Y-139296525D01*
X72496935Y-139270000D01*
X83599025Y-139270000D01*
X83622870Y-139512102D01*
X83693489Y-139744901D01*
X83808167Y-139959449D01*
X83962498Y-140147502D01*
X84150551Y-140301833D01*
X84365099Y-140416511D01*
X84597898Y-140487130D01*
X84779335Y-140505000D01*
X85700665Y-140505000D01*
X85882102Y-140487130D01*
X86114901Y-140416511D01*
X86329449Y-140301833D01*
X86517502Y-140147502D01*
X86671833Y-139959449D01*
X86786511Y-139744901D01*
X86857130Y-139512102D01*
X86880975Y-139270000D01*
X86857130Y-139027898D01*
X86786511Y-138795099D01*
X86671833Y-138580551D01*
X86517502Y-138392498D01*
X86329449Y-138238167D01*
X86114901Y-138123489D01*
X85882102Y-138052870D01*
X85700665Y-138035000D01*
X84779335Y-138035000D01*
X84597898Y-138052870D01*
X84365099Y-138123489D01*
X84150551Y-138238167D01*
X83962498Y-138392498D01*
X83808167Y-138580551D01*
X83693489Y-138795099D01*
X83622870Y-139027898D01*
X83599025Y-139270000D01*
X72496935Y-139270000D01*
X72362240Y-139180000D01*
X72536632Y-139063475D01*
X72743475Y-138856632D01*
X72905990Y-138613411D01*
X73017932Y-138343158D01*
X73075000Y-138056260D01*
X73075000Y-137763740D01*
X73017932Y-137476842D01*
X72905990Y-137206589D01*
X72743475Y-136963368D01*
X72536632Y-136756525D01*
X72362240Y-136640000D01*
X72536632Y-136523475D01*
X72743475Y-136316632D01*
X72905990Y-136073411D01*
X73017932Y-135803158D01*
X73075000Y-135516260D01*
X73075000Y-135223740D01*
X73017932Y-134936842D01*
X72905990Y-134666589D01*
X72743475Y-134423368D01*
X72536632Y-134216525D01*
X72362240Y-134100000D01*
X72536632Y-133983475D01*
X72661442Y-133858665D01*
X76065000Y-133858665D01*
X76065000Y-134141335D01*
X76120147Y-134418574D01*
X76228320Y-134679727D01*
X76385363Y-134914759D01*
X76585241Y-135114637D01*
X76820273Y-135271680D01*
X77081426Y-135379853D01*
X77358665Y-135435000D01*
X77641335Y-135435000D01*
X77918574Y-135379853D01*
X78179727Y-135271680D01*
X78414759Y-135114637D01*
X78614637Y-134914759D01*
X78771680Y-134679727D01*
X78879853Y-134418574D01*
X78935000Y-134141335D01*
X78935000Y-133858665D01*
X78879853Y-133581426D01*
X78771680Y-133320273D01*
X78614637Y-133085241D01*
X78414759Y-132885363D01*
X78179727Y-132728320D01*
X77918574Y-132620147D01*
X77641335Y-132565000D01*
X77358665Y-132565000D01*
X77081426Y-132620147D01*
X76820273Y-132728320D01*
X76585241Y-132885363D01*
X76385363Y-133085241D01*
X76228320Y-133320273D01*
X76120147Y-133581426D01*
X76065000Y-133858665D01*
X72661442Y-133858665D01*
X72743475Y-133776632D01*
X72905990Y-133533411D01*
X73017932Y-133263158D01*
X73075000Y-132976260D01*
X73075000Y-132683740D01*
X73017932Y-132396842D01*
X72905990Y-132126589D01*
X72799936Y-131967867D01*
X75011009Y-129756796D01*
X75040001Y-129733003D01*
X75063795Y-129704010D01*
X75063799Y-129704006D01*
X75134973Y-129617279D01*
X75134974Y-129617278D01*
X75205546Y-129485249D01*
X75249003Y-129341988D01*
X75259901Y-129231341D01*
X75320273Y-129271680D01*
X75581426Y-129379853D01*
X75858665Y-129435000D01*
X76141335Y-129435000D01*
X76418574Y-129379853D01*
X76679727Y-129271680D01*
X76914759Y-129114637D01*
X77114637Y-128914759D01*
X77148812Y-128863613D01*
X80847126Y-132561928D01*
X80200000Y-132561928D01*
X80075518Y-132574188D01*
X79955820Y-132610498D01*
X79845506Y-132669463D01*
X79748815Y-132748815D01*
X79669463Y-132845506D01*
X79610498Y-132955820D01*
X79574188Y-133075518D01*
X79561928Y-133200000D01*
X79561928Y-134800000D01*
X79574188Y-134924482D01*
X79610498Y-135044180D01*
X79669463Y-135154494D01*
X79748815Y-135251185D01*
X79845506Y-135330537D01*
X79955820Y-135389502D01*
X80075518Y-135425812D01*
X80200000Y-135438072D01*
X81800000Y-135438072D01*
X81924482Y-135425812D01*
X82044180Y-135389502D01*
X82154494Y-135330537D01*
X82251185Y-135251185D01*
X82330537Y-135154494D01*
X82389502Y-135044180D01*
X82425812Y-134924482D01*
X82438072Y-134800000D01*
X82438072Y-134152874D01*
X84058725Y-135773527D01*
X83962498Y-135852498D01*
X83808167Y-136040551D01*
X83693489Y-136255099D01*
X83622870Y-136487898D01*
X83599025Y-136730000D01*
X83622870Y-136972102D01*
X83693489Y-137204901D01*
X83808167Y-137419449D01*
X83962498Y-137607502D01*
X84150551Y-137761833D01*
X84365099Y-137876511D01*
X84597898Y-137947130D01*
X84779335Y-137965000D01*
X85700665Y-137965000D01*
X85882102Y-137947130D01*
X86114901Y-137876511D01*
X86329449Y-137761833D01*
X86517502Y-137607502D01*
X86671833Y-137419449D01*
X86786511Y-137204901D01*
X86834225Y-137047609D01*
X91166538Y-137047609D01*
X91170409Y-137085282D01*
X91262579Y-137310533D01*
X91396922Y-137513474D01*
X91568275Y-137686307D01*
X91770054Y-137822390D01*
X91994504Y-137916493D01*
X92233000Y-137965000D01*
X92633000Y-137965000D01*
X92633000Y-136857000D01*
X92887000Y-136857000D01*
X92887000Y-137965000D01*
X93287000Y-137965000D01*
X93525496Y-137916493D01*
X93749946Y-137822390D01*
X93951725Y-137686307D01*
X94123078Y-137513474D01*
X94257421Y-137310533D01*
X94349591Y-137085282D01*
X94353462Y-137047609D01*
X94228731Y-136857000D01*
X92887000Y-136857000D01*
X92633000Y-136857000D01*
X91291269Y-136857000D01*
X91166538Y-137047609D01*
X86834225Y-137047609D01*
X86857130Y-136972102D01*
X86880975Y-136730000D01*
X86857130Y-136487898D01*
X86786511Y-136255099D01*
X86671833Y-136040551D01*
X86517502Y-135852498D01*
X86329449Y-135698167D01*
X86114901Y-135583489D01*
X85910051Y-135521348D01*
X85874974Y-135455724D01*
X85780001Y-135339999D01*
X85751004Y-135316202D01*
X79869801Y-129435000D01*
X80141335Y-129435000D01*
X80418574Y-129379853D01*
X80679727Y-129271680D01*
X80914759Y-129114637D01*
X81114637Y-128914759D01*
X81271680Y-128679727D01*
X81379853Y-128418574D01*
X81435000Y-128141335D01*
X81435000Y-127858665D01*
X81379853Y-127581426D01*
X81271680Y-127320273D01*
X81114637Y-127085241D01*
X80914759Y-126885363D01*
X80679727Y-126728320D01*
X80418574Y-126620147D01*
X80141335Y-126565000D01*
X79858665Y-126565000D01*
X79581426Y-126620147D01*
X79320273Y-126728320D01*
X79085241Y-126885363D01*
X78885363Y-127085241D01*
X78728320Y-127320273D01*
X78620147Y-127581426D01*
X78565000Y-127858665D01*
X78565000Y-128130199D01*
X77923804Y-127489003D01*
X77900001Y-127459999D01*
X77784276Y-127365026D01*
X77652247Y-127294454D01*
X77508986Y-127250997D01*
X77397333Y-127240000D01*
X77397322Y-127240000D01*
X77360000Y-127236324D01*
X77322678Y-127240000D01*
X77218043Y-127240000D01*
X77114637Y-127085241D01*
X76914759Y-126885363D01*
X76679727Y-126728320D01*
X76418574Y-126620147D01*
X76141335Y-126565000D01*
X76088803Y-126565000D01*
X81736003Y-120917801D01*
X81765000Y-120894004D01*
X81859973Y-120778279D01*
X81930545Y-120646250D01*
X81974002Y-120502989D01*
X81984999Y-120391336D01*
X81984999Y-120391328D01*
X81988675Y-120354003D01*
X81984999Y-120316678D01*
X81984999Y-117840000D01*
X82957573Y-117840000D01*
X82987210Y-118140913D01*
X83074983Y-118430261D01*
X83217519Y-118696927D01*
X83409339Y-118930661D01*
X83643073Y-119122481D01*
X83909739Y-119265017D01*
X84199087Y-119352790D01*
X84424592Y-119375000D01*
X84575408Y-119375000D01*
X84800913Y-119352790D01*
X85090261Y-119265017D01*
X85356927Y-119122481D01*
X85590661Y-118930661D01*
X85782481Y-118696927D01*
X85925017Y-118430261D01*
X86012790Y-118140913D01*
X86042427Y-117840000D01*
X86012790Y-117539087D01*
X85925017Y-117249739D01*
X85782481Y-116983073D01*
X85590661Y-116749339D01*
X85356927Y-116557519D01*
X85090261Y-116414983D01*
X84800913Y-116327210D01*
X84575408Y-116305000D01*
X84424592Y-116305000D01*
X84199087Y-116327210D01*
X83909739Y-116414983D01*
X83643073Y-116557519D01*
X83409339Y-116749339D01*
X83217519Y-116983073D01*
X83074983Y-117249739D01*
X82987210Y-117539087D01*
X82957573Y-117840000D01*
X81984999Y-117840000D01*
X81984999Y-116882567D01*
X86371153Y-112496414D01*
X86568507Y-112693768D01*
X86818115Y-112860551D01*
X87095466Y-112975434D01*
X87389899Y-113034000D01*
X87690101Y-113034000D01*
X87984534Y-112975434D01*
X88261885Y-112860551D01*
X88511493Y-112693768D01*
X88723768Y-112481493D01*
X88890551Y-112231885D01*
X89005434Y-111954534D01*
X89064000Y-111660101D01*
X89064000Y-111359899D01*
X89005434Y-111065466D01*
X88890551Y-110788115D01*
X88723768Y-110538507D01*
X88511493Y-110326232D01*
X88382438Y-110240000D01*
X88511493Y-110153768D01*
X88723768Y-109941493D01*
X88890551Y-109691885D01*
X89005434Y-109414534D01*
X89064000Y-109120101D01*
X89064000Y-108819899D01*
X89052085Y-108760000D01*
X89962678Y-108760000D01*
X90000000Y-108763676D01*
X90037322Y-108760000D01*
X90037333Y-108760000D01*
X90148986Y-108749003D01*
X90292247Y-108705546D01*
X90424276Y-108634974D01*
X90540001Y-108540001D01*
X90563804Y-108510998D01*
X91511004Y-107563798D01*
X91540001Y-107540001D01*
X91634974Y-107424276D01*
X91705546Y-107292247D01*
X91749003Y-107148986D01*
X91760000Y-107037333D01*
X91760000Y-107037332D01*
X91763677Y-107000000D01*
X91760000Y-106962667D01*
X91760000Y-90814801D01*
X93755548Y-88819254D01*
X93762566Y-88854534D01*
X93877449Y-89131885D01*
X94044232Y-89381493D01*
X94256507Y-89593768D01*
X94343000Y-89651561D01*
X94343001Y-110184521D01*
X94338719Y-110228000D01*
X94355805Y-110401490D01*
X94406412Y-110568313D01*
X94488590Y-110722059D01*
X94571468Y-110823046D01*
X94571471Y-110823049D01*
X94599184Y-110856817D01*
X94632951Y-110884529D01*
X95238479Y-111490057D01*
X95221799Y-111515021D01*
X94985476Y-112085554D01*
X94865000Y-112691229D01*
X94865000Y-113308771D01*
X94985476Y-113914446D01*
X95221799Y-114484979D01*
X95564886Y-114998446D01*
X95606440Y-115040000D01*
X89784877Y-115040000D01*
X89750000Y-115036565D01*
X89715123Y-115040000D01*
X89610816Y-115050273D01*
X89476980Y-115090872D01*
X89353637Y-115156800D01*
X89245525Y-115245525D01*
X89156800Y-115353637D01*
X89090872Y-115476980D01*
X89050273Y-115610816D01*
X89036565Y-115750000D01*
X89040001Y-115784887D01*
X89040000Y-132215123D01*
X89036565Y-132250000D01*
X89050273Y-132389184D01*
X89090872Y-132523020D01*
X89156800Y-132646363D01*
X89245525Y-132754475D01*
X89353637Y-132843200D01*
X89476980Y-132909128D01*
X89610816Y-132949727D01*
X89750000Y-132963435D01*
X89784877Y-132960000D01*
X95606440Y-132960000D01*
X95564886Y-133001554D01*
X95221799Y-133515021D01*
X95076833Y-133865000D01*
X89720132Y-133865000D01*
X85635000Y-129779869D01*
X85635000Y-129492287D01*
X85644180Y-129489502D01*
X85754494Y-129430537D01*
X85851185Y-129351185D01*
X85930537Y-129254494D01*
X85989502Y-129144180D01*
X86025812Y-129024482D01*
X86038072Y-128900000D01*
X86038072Y-127100000D01*
X86025812Y-126975518D01*
X85989502Y-126855820D01*
X85930537Y-126745506D01*
X85851185Y-126648815D01*
X85754494Y-126569463D01*
X85644180Y-126510498D01*
X85524482Y-126474188D01*
X85400000Y-126461928D01*
X83600000Y-126461928D01*
X83475518Y-126474188D01*
X83355820Y-126510498D01*
X83245506Y-126569463D01*
X83148815Y-126648815D01*
X83069463Y-126745506D01*
X83010498Y-126855820D01*
X82974188Y-126975518D01*
X82961928Y-127100000D01*
X82961928Y-128900000D01*
X82974188Y-129024482D01*
X83010498Y-129144180D01*
X83069463Y-129254494D01*
X83148815Y-129351185D01*
X83245506Y-129430537D01*
X83355820Y-129489502D01*
X83365000Y-129492287D01*
X83365000Y-130194248D01*
X83359509Y-130250000D01*
X83365000Y-130305751D01*
X83381423Y-130472498D01*
X83446324Y-130686446D01*
X83551716Y-130883623D01*
X83693551Y-131056449D01*
X83736865Y-131091996D01*
X88408009Y-135763141D01*
X88443551Y-135806449D01*
X88616377Y-135948284D01*
X88813553Y-136053676D01*
X89027501Y-136118577D01*
X89194248Y-136135000D01*
X89194257Y-136135000D01*
X89249999Y-136140490D01*
X89305741Y-136135000D01*
X91272156Y-136135000D01*
X91262579Y-136149467D01*
X91170409Y-136374718D01*
X91166538Y-136412391D01*
X91291269Y-136603000D01*
X92633000Y-136603000D01*
X92633000Y-136583000D01*
X92887000Y-136583000D01*
X92887000Y-136603000D01*
X94228731Y-136603000D01*
X94353462Y-136412391D01*
X94349591Y-136374718D01*
X94257421Y-136149467D01*
X94247844Y-136135000D01*
X95076833Y-136135000D01*
X95221799Y-136484979D01*
X95564886Y-136998446D01*
X96001554Y-137435114D01*
X96515021Y-137778201D01*
X96865000Y-137923168D01*
X96865000Y-139944248D01*
X96859509Y-140000000D01*
X96865000Y-140055751D01*
X96881423Y-140222498D01*
X96946324Y-140436446D01*
X97051716Y-140633623D01*
X97193551Y-140806449D01*
X97236865Y-140841996D01*
X100158013Y-143763146D01*
X100193551Y-143806449D01*
X100236854Y-143841987D01*
X100236856Y-143841989D01*
X100366377Y-143948284D01*
X100563553Y-144053676D01*
X100777501Y-144118577D01*
X101000000Y-144140491D01*
X101055752Y-144135000D01*
X106364517Y-144135000D01*
X106471643Y-144295325D01*
X106754675Y-144578357D01*
X107087487Y-144800735D01*
X107457287Y-144953911D01*
X107849865Y-145032000D01*
X108250135Y-145032000D01*
X108439251Y-144994382D01*
X112708013Y-149263146D01*
X112743551Y-149306449D01*
X112786854Y-149341987D01*
X112786856Y-149341989D01*
X112916377Y-149448284D01*
X113113553Y-149553676D01*
X113327501Y-149618577D01*
X113550000Y-149640491D01*
X113605752Y-149635000D01*
X114659043Y-149635000D01*
X114669463Y-149654494D01*
X114748815Y-149751185D01*
X114845506Y-149830537D01*
X114955820Y-149889502D01*
X115075518Y-149925812D01*
X115200000Y-149938072D01*
X116800000Y-149938072D01*
X116924482Y-149925812D01*
X117044180Y-149889502D01*
X117154494Y-149830537D01*
X117251185Y-149751185D01*
X117330537Y-149654494D01*
X117389502Y-149544180D01*
X117425812Y-149424482D01*
X117438072Y-149300000D01*
X117438072Y-147700000D01*
X117425812Y-147575518D01*
X117389502Y-147455820D01*
X117330537Y-147345506D01*
X117251185Y-147248815D01*
X117154494Y-147169463D01*
X117044180Y-147110498D01*
X116924482Y-147074188D01*
X116800000Y-147061928D01*
X115200000Y-147061928D01*
X115075518Y-147074188D01*
X114955820Y-147110498D01*
X114845506Y-147169463D01*
X114748815Y-147248815D01*
X114669463Y-147345506D01*
X114659043Y-147365000D01*
X114020133Y-147365000D01*
X110454468Y-143799336D01*
X113995000Y-143799336D01*
X113995000Y-144720665D01*
X114012870Y-144902102D01*
X114083489Y-145134901D01*
X114198168Y-145349449D01*
X114352499Y-145537502D01*
X114540552Y-145691833D01*
X114755100Y-145806511D01*
X114987899Y-145877130D01*
X115230000Y-145900975D01*
X115472102Y-145877130D01*
X115704901Y-145806511D01*
X115919449Y-145691833D01*
X116107502Y-145537502D01*
X116261833Y-145349449D01*
X116376511Y-145134901D01*
X116447130Y-144902101D01*
X116465000Y-144720664D01*
X116465000Y-143799336D01*
X116535000Y-143799336D01*
X116535000Y-144720665D01*
X116552870Y-144902102D01*
X116623489Y-145134901D01*
X116738168Y-145349449D01*
X116892499Y-145537502D01*
X117080552Y-145691833D01*
X117295100Y-145806511D01*
X117527899Y-145877130D01*
X117770000Y-145900975D01*
X118012102Y-145877130D01*
X118244901Y-145806511D01*
X118459449Y-145691833D01*
X118647502Y-145537502D01*
X118801833Y-145349449D01*
X118916511Y-145134901D01*
X118987130Y-144902101D01*
X119005000Y-144720664D01*
X119005000Y-143799335D01*
X118987130Y-143617898D01*
X118916511Y-143385099D01*
X118801833Y-143170551D01*
X118647502Y-142982498D01*
X118459448Y-142828167D01*
X118244900Y-142713489D01*
X118012101Y-142642870D01*
X117770000Y-142619025D01*
X117527898Y-142642870D01*
X117295099Y-142713489D01*
X117080551Y-142828167D01*
X116892498Y-142982498D01*
X116738167Y-143170552D01*
X116623489Y-143385100D01*
X116552870Y-143617899D01*
X116535000Y-143799336D01*
X116465000Y-143799336D01*
X116465000Y-143799335D01*
X116447130Y-143617898D01*
X116376511Y-143385099D01*
X116261833Y-143170551D01*
X116107502Y-142982498D01*
X115919448Y-142828167D01*
X115704900Y-142713489D01*
X115472101Y-142642870D01*
X115230000Y-142619025D01*
X114987898Y-142642870D01*
X114755099Y-142713489D01*
X114540551Y-142828167D01*
X114352498Y-142982498D01*
X114198167Y-143170552D01*
X114083489Y-143385100D01*
X114012870Y-143617899D01*
X113995000Y-143799336D01*
X110454468Y-143799336D01*
X110044382Y-143389251D01*
X110082000Y-143200135D01*
X110082000Y-142799865D01*
X110003911Y-142407287D01*
X109850735Y-142037487D01*
X109628357Y-141704675D01*
X109345325Y-141421643D01*
X109012513Y-141199265D01*
X108642713Y-141046089D01*
X108250135Y-140968000D01*
X107849865Y-140968000D01*
X107457287Y-141046089D01*
X107087487Y-141199265D01*
X106754675Y-141421643D01*
X106471643Y-141704675D01*
X106364517Y-141865000D01*
X101470133Y-141865000D01*
X99135000Y-139529869D01*
X99135000Y-138500000D01*
X100898057Y-138500000D01*
X100925764Y-138781309D01*
X101007818Y-139051808D01*
X101141068Y-139301101D01*
X101320392Y-139519608D01*
X101538899Y-139698932D01*
X101788192Y-139832182D01*
X102058691Y-139914236D01*
X102269508Y-139935000D01*
X102410492Y-139935000D01*
X102621309Y-139914236D01*
X102891808Y-139832182D01*
X103141101Y-139698932D01*
X103359608Y-139519608D01*
X103538932Y-139301101D01*
X103672182Y-139051808D01*
X103754236Y-138781309D01*
X103781943Y-138500000D01*
X103768023Y-138358665D01*
X111065000Y-138358665D01*
X111065000Y-138641335D01*
X111120147Y-138918574D01*
X111228320Y-139179727D01*
X111385363Y-139414759D01*
X111585241Y-139614637D01*
X111820273Y-139771680D01*
X112081426Y-139879853D01*
X112358665Y-139935000D01*
X112641335Y-139935000D01*
X112918574Y-139879853D01*
X113179727Y-139771680D01*
X113414759Y-139614637D01*
X113614637Y-139414759D01*
X113771680Y-139179727D01*
X113879853Y-138918574D01*
X113935000Y-138641335D01*
X113935000Y-138358665D01*
X113879853Y-138081426D01*
X113771680Y-137820273D01*
X113614637Y-137585241D01*
X113414759Y-137385363D01*
X113179727Y-137228320D01*
X112918574Y-137120147D01*
X112641335Y-137065000D01*
X112358665Y-137065000D01*
X112081426Y-137120147D01*
X111820273Y-137228320D01*
X111585241Y-137385363D01*
X111385363Y-137585241D01*
X111228320Y-137820273D01*
X111120147Y-138081426D01*
X111065000Y-138358665D01*
X103768023Y-138358665D01*
X103754236Y-138218691D01*
X103672182Y-137948192D01*
X103538932Y-137698899D01*
X103359608Y-137480392D01*
X103141101Y-137301068D01*
X102891808Y-137167818D01*
X102621309Y-137085764D01*
X102410492Y-137065000D01*
X102269508Y-137065000D01*
X102058691Y-137085764D01*
X101788192Y-137167818D01*
X101538899Y-137301068D01*
X101320392Y-137480392D01*
X101141068Y-137698899D01*
X101007818Y-137948192D01*
X100925764Y-138218691D01*
X100898057Y-138500000D01*
X99135000Y-138500000D01*
X99135000Y-137923167D01*
X99484979Y-137778201D01*
X99998446Y-137435114D01*
X100435114Y-136998446D01*
X100778201Y-136484979D01*
X101014524Y-135914446D01*
X101135000Y-135308771D01*
X101135000Y-134691229D01*
X101014524Y-134085554D01*
X100778201Y-133515021D01*
X100435114Y-133001554D01*
X100393560Y-132960000D01*
X106215123Y-132960000D01*
X106250000Y-132963435D01*
X106284877Y-132960000D01*
X106389184Y-132949727D01*
X106523020Y-132909128D01*
X106646363Y-132843200D01*
X106754475Y-132754475D01*
X106843200Y-132646363D01*
X106909128Y-132523020D01*
X106949727Y-132389184D01*
X106963435Y-132250000D01*
X106960000Y-132215123D01*
X106960000Y-115784877D01*
X106963435Y-115750000D01*
X106949727Y-115610816D01*
X106909128Y-115476980D01*
X106843200Y-115353637D01*
X106754475Y-115245525D01*
X106646363Y-115156800D01*
X106523020Y-115090872D01*
X106389184Y-115050273D01*
X106284877Y-115040000D01*
X106250000Y-115036565D01*
X106215123Y-115040000D01*
X100393560Y-115040000D01*
X100435114Y-114998446D01*
X100778201Y-114484979D01*
X101014524Y-113914446D01*
X101135000Y-113308771D01*
X101135000Y-112691229D01*
X101014524Y-112085554D01*
X100778201Y-111515021D01*
X100435114Y-111001554D01*
X99998446Y-110564886D01*
X99484979Y-110221799D01*
X98914446Y-109985476D01*
X98308771Y-109865000D01*
X97691229Y-109865000D01*
X97085554Y-109985476D01*
X96515021Y-110221799D01*
X96490057Y-110238479D01*
X96113000Y-109861422D01*
X96113000Y-106819268D01*
X106165000Y-106819268D01*
X106165000Y-107180732D01*
X106235518Y-107535250D01*
X106373844Y-107869199D01*
X106574662Y-108169744D01*
X106830256Y-108425338D01*
X107130801Y-108626156D01*
X107464750Y-108764482D01*
X107819268Y-108835000D01*
X108180732Y-108835000D01*
X108535250Y-108764482D01*
X108869199Y-108626156D01*
X109169744Y-108425338D01*
X109425338Y-108169744D01*
X109626156Y-107869199D01*
X109764482Y-107535250D01*
X109835000Y-107180732D01*
X109835000Y-106819268D01*
X111165000Y-106819268D01*
X111165000Y-107180732D01*
X111235518Y-107535250D01*
X111373844Y-107869199D01*
X111574662Y-108169744D01*
X111830256Y-108425338D01*
X112130801Y-108626156D01*
X112464750Y-108764482D01*
X112819268Y-108835000D01*
X113180732Y-108835000D01*
X113535250Y-108764482D01*
X113869199Y-108626156D01*
X114169744Y-108425338D01*
X114425338Y-108169744D01*
X114626156Y-107869199D01*
X114764482Y-107535250D01*
X114835000Y-107180732D01*
X114835000Y-106819268D01*
X114764482Y-106464750D01*
X114626156Y-106130801D01*
X114425338Y-105830256D01*
X114169744Y-105574662D01*
X113869199Y-105373844D01*
X113535250Y-105235518D01*
X113180732Y-105165000D01*
X112819268Y-105165000D01*
X112464750Y-105235518D01*
X112130801Y-105373844D01*
X111830256Y-105574662D01*
X111574662Y-105830256D01*
X111373844Y-106130801D01*
X111235518Y-106464750D01*
X111165000Y-106819268D01*
X109835000Y-106819268D01*
X109764482Y-106464750D01*
X109626156Y-106130801D01*
X109425338Y-105830256D01*
X109169744Y-105574662D01*
X108869199Y-105373844D01*
X108535250Y-105235518D01*
X108180732Y-105165000D01*
X107819268Y-105165000D01*
X107464750Y-105235518D01*
X107130801Y-105373844D01*
X106830256Y-105574662D01*
X106574662Y-105830256D01*
X106373844Y-106130801D01*
X106235518Y-106464750D01*
X106165000Y-106819268D01*
X96113000Y-106819268D01*
X96113000Y-89651561D01*
X96199493Y-89593768D01*
X96411768Y-89381493D01*
X96578551Y-89131885D01*
X96693434Y-88854534D01*
X96752000Y-88560101D01*
X96752000Y-88259899D01*
X96693434Y-87965466D01*
X96578551Y-87688115D01*
X96489172Y-87554351D01*
X97421238Y-86622285D01*
X100165000Y-86622285D01*
X100165000Y-87377715D01*
X100312377Y-88118628D01*
X100601467Y-88816554D01*
X101021161Y-89444670D01*
X101555330Y-89978839D01*
X102183446Y-90398533D01*
X102881372Y-90687623D01*
X103622285Y-90835000D01*
X104377715Y-90835000D01*
X105118628Y-90687623D01*
X105816554Y-90398533D01*
X106444670Y-89978839D01*
X106978839Y-89444670D01*
X107398533Y-88816554D01*
X107687623Y-88118628D01*
X107835000Y-87377715D01*
X107835000Y-86622285D01*
X107687623Y-85881372D01*
X107678218Y-85858665D01*
X110565000Y-85858665D01*
X110565000Y-86141335D01*
X110620147Y-86418574D01*
X110728320Y-86679727D01*
X110885363Y-86914759D01*
X111085241Y-87114637D01*
X111320273Y-87271680D01*
X111581426Y-87379853D01*
X111858665Y-87435000D01*
X112141335Y-87435000D01*
X112418574Y-87379853D01*
X112679727Y-87271680D01*
X112914759Y-87114637D01*
X113114637Y-86914759D01*
X113271680Y-86679727D01*
X113379853Y-86418574D01*
X113435000Y-86141335D01*
X113435000Y-85858665D01*
X116565000Y-85858665D01*
X116565000Y-86141335D01*
X116620147Y-86418574D01*
X116728320Y-86679727D01*
X116885363Y-86914759D01*
X117085241Y-87114637D01*
X117320273Y-87271680D01*
X117581426Y-87379853D01*
X117858665Y-87435000D01*
X118141335Y-87435000D01*
X118418574Y-87379853D01*
X118679727Y-87271680D01*
X118914759Y-87114637D01*
X119114637Y-86914759D01*
X119271680Y-86679727D01*
X119379853Y-86418574D01*
X119435000Y-86141335D01*
X119435000Y-85858665D01*
X119379853Y-85581426D01*
X119271680Y-85320273D01*
X119114637Y-85085241D01*
X118914759Y-84885363D01*
X118679727Y-84728320D01*
X118418574Y-84620147D01*
X118141335Y-84565000D01*
X117858665Y-84565000D01*
X117581426Y-84620147D01*
X117320273Y-84728320D01*
X117085241Y-84885363D01*
X116885363Y-85085241D01*
X116728320Y-85320273D01*
X116620147Y-85581426D01*
X116565000Y-85858665D01*
X113435000Y-85858665D01*
X113379853Y-85581426D01*
X113271680Y-85320273D01*
X113114637Y-85085241D01*
X112914759Y-84885363D01*
X112679727Y-84728320D01*
X112418574Y-84620147D01*
X112141335Y-84565000D01*
X111858665Y-84565000D01*
X111581426Y-84620147D01*
X111320273Y-84728320D01*
X111085241Y-84885363D01*
X110885363Y-85085241D01*
X110728320Y-85320273D01*
X110620147Y-85581426D01*
X110565000Y-85858665D01*
X107678218Y-85858665D01*
X107398533Y-85183446D01*
X106978839Y-84555330D01*
X106444670Y-84021161D01*
X105816554Y-83601467D01*
X105118628Y-83312377D01*
X104377715Y-83165000D01*
X103622285Y-83165000D01*
X102881372Y-83312377D01*
X102183446Y-83601467D01*
X101555330Y-84021161D01*
X101021161Y-84555330D01*
X100601467Y-85183446D01*
X100312377Y-85881372D01*
X100165000Y-86622285D01*
X97421238Y-86622285D01*
X103011004Y-81032520D01*
X103040001Y-81008723D01*
X103097233Y-80938986D01*
X103134974Y-80892999D01*
X103205546Y-80760969D01*
X103224890Y-80697199D01*
X103249003Y-80617708D01*
X103260000Y-80506055D01*
X103260000Y-80506045D01*
X103263676Y-80468722D01*
X103260000Y-80431399D01*
X103260000Y-80063148D01*
X103321831Y-80037537D01*
X103605998Y-79847663D01*
X103847663Y-79605998D01*
X104000000Y-79378009D01*
X104152337Y-79605998D01*
X104394002Y-79847663D01*
X104678169Y-80037537D01*
X104993919Y-80168325D01*
X105329117Y-80235000D01*
X105330683Y-80235000D01*
X105235518Y-80464750D01*
X105165000Y-80819268D01*
X105165000Y-81180732D01*
X105235518Y-81535250D01*
X105373844Y-81869199D01*
X105574662Y-82169744D01*
X105830256Y-82425338D01*
X106130801Y-82626156D01*
X106464750Y-82764482D01*
X106819268Y-82835000D01*
X107180732Y-82835000D01*
X107535250Y-82764482D01*
X107869199Y-82626156D01*
X108169744Y-82425338D01*
X108425338Y-82169744D01*
X108626156Y-81869199D01*
X108764482Y-81535250D01*
X108835000Y-81180732D01*
X108835000Y-80819268D01*
X108764482Y-80464750D01*
X108626156Y-80130801D01*
X108425338Y-79830256D01*
X108169744Y-79574662D01*
X107869199Y-79373844D01*
X107535250Y-79235518D01*
X107180732Y-79165000D01*
X107102499Y-79165000D01*
X107168325Y-79006081D01*
X107235000Y-78670883D01*
X107235000Y-78329117D01*
X107168325Y-77993919D01*
X107037537Y-77678169D01*
X106847663Y-77394002D01*
X106605998Y-77152337D01*
X106321831Y-76962463D01*
X106176779Y-76902381D01*
X106220966Y-76887336D01*
X106419274Y-76781338D01*
X106527107Y-76506712D01*
X105500000Y-75479605D01*
X104472893Y-76506712D01*
X104580726Y-76781338D01*
X104825133Y-76901588D01*
X104678169Y-76962463D01*
X104394002Y-77152337D01*
X104152337Y-77394002D01*
X104000000Y-77621991D01*
X103847663Y-77394002D01*
X103605998Y-77152337D01*
X103321831Y-76962463D01*
X103176779Y-76902381D01*
X103220966Y-76887336D01*
X103419274Y-76781338D01*
X103527107Y-76506712D01*
X102500000Y-75479605D01*
X101472893Y-76506712D01*
X101580726Y-76781338D01*
X101825133Y-76901588D01*
X101678169Y-76962463D01*
X101394002Y-77152337D01*
X101152337Y-77394002D01*
X100962463Y-77678169D01*
X100831675Y-77993919D01*
X100765000Y-78329117D01*
X100765000Y-78670883D01*
X100831675Y-79006081D01*
X100962463Y-79321831D01*
X101152337Y-79605998D01*
X101394002Y-79847663D01*
X101678169Y-80037537D01*
X101740000Y-80063148D01*
X101740000Y-80153920D01*
X97252154Y-84641766D01*
X97255677Y-84606000D01*
X97252001Y-84568677D01*
X97252001Y-75358639D01*
X100757591Y-75358639D01*
X100802511Y-75697439D01*
X100912664Y-76020966D01*
X101018662Y-76219274D01*
X101293288Y-76327107D01*
X102320395Y-75300000D01*
X102679605Y-75300000D01*
X103706712Y-76327107D01*
X103981338Y-76219274D01*
X103999227Y-76182914D01*
X104018662Y-76219274D01*
X104293288Y-76327107D01*
X105320395Y-75300000D01*
X105679605Y-75300000D01*
X106706712Y-76327107D01*
X106981338Y-76219274D01*
X107132216Y-75912616D01*
X107151602Y-75840000D01*
X110558057Y-75840000D01*
X110585764Y-76121309D01*
X110667818Y-76391808D01*
X110801068Y-76641101D01*
X110980392Y-76859608D01*
X111198899Y-77038932D01*
X111448192Y-77172182D01*
X111718691Y-77254236D01*
X111929508Y-77275000D01*
X112070492Y-77275000D01*
X112281309Y-77254236D01*
X112551808Y-77172182D01*
X112801101Y-77038932D01*
X113019608Y-76859608D01*
X113198932Y-76641101D01*
X113332182Y-76391808D01*
X113414236Y-76121309D01*
X113441943Y-75840000D01*
X116558057Y-75840000D01*
X116585764Y-76121309D01*
X116667818Y-76391808D01*
X116801068Y-76641101D01*
X116980392Y-76859608D01*
X117198899Y-77038932D01*
X117448192Y-77172182D01*
X117718691Y-77254236D01*
X117929508Y-77275000D01*
X118070492Y-77275000D01*
X118281309Y-77254236D01*
X118551808Y-77172182D01*
X118801101Y-77038932D01*
X119019608Y-76859608D01*
X119198932Y-76641101D01*
X119332182Y-76391808D01*
X119414236Y-76121309D01*
X119441943Y-75840000D01*
X119414236Y-75558691D01*
X119332182Y-75288192D01*
X119198932Y-75038899D01*
X119019608Y-74820392D01*
X118801101Y-74641068D01*
X118551808Y-74507818D01*
X118281309Y-74425764D01*
X118070492Y-74405000D01*
X117929508Y-74405000D01*
X117718691Y-74425764D01*
X117448192Y-74507818D01*
X117198899Y-74641068D01*
X116980392Y-74820392D01*
X116801068Y-75038899D01*
X116667818Y-75288192D01*
X116585764Y-75558691D01*
X116558057Y-75840000D01*
X113441943Y-75840000D01*
X113414236Y-75558691D01*
X113332182Y-75288192D01*
X113198932Y-75038899D01*
X113019608Y-74820392D01*
X112801101Y-74641068D01*
X112551808Y-74507818D01*
X112281309Y-74425764D01*
X112070492Y-74405000D01*
X111929508Y-74405000D01*
X111718691Y-74425764D01*
X111448192Y-74507818D01*
X111198899Y-74641068D01*
X110980392Y-74820392D01*
X110801068Y-75038899D01*
X110667818Y-75288192D01*
X110585764Y-75558691D01*
X110558057Y-75840000D01*
X107151602Y-75840000D01*
X107220369Y-75582415D01*
X107242409Y-75241361D01*
X107197489Y-74902561D01*
X107087336Y-74579034D01*
X106981338Y-74380726D01*
X106706712Y-74272893D01*
X105679605Y-75300000D01*
X105320395Y-75300000D01*
X104293288Y-74272893D01*
X104018662Y-74380726D01*
X104000773Y-74417086D01*
X103981338Y-74380726D01*
X103706712Y-74272893D01*
X102679605Y-75300000D01*
X102320395Y-75300000D01*
X101293288Y-74272893D01*
X101018662Y-74380726D01*
X100867784Y-74687384D01*
X100779631Y-75017585D01*
X100757591Y-75358639D01*
X97252001Y-75358639D01*
X97252001Y-69419268D01*
X99165000Y-69419268D01*
X99165000Y-69780732D01*
X99235518Y-70135250D01*
X99373844Y-70469199D01*
X99574662Y-70769744D01*
X99830256Y-71025338D01*
X100130801Y-71226156D01*
X100464750Y-71364482D01*
X100819268Y-71435000D01*
X100901644Y-71435000D01*
X100831675Y-71603919D01*
X100765000Y-71939117D01*
X100765000Y-72280883D01*
X100831675Y-72616081D01*
X100962463Y-72931831D01*
X101152337Y-73215998D01*
X101394002Y-73457663D01*
X101678169Y-73647537D01*
X101809970Y-73702131D01*
X101779034Y-73712664D01*
X101580726Y-73818662D01*
X101472893Y-74093288D01*
X102500000Y-75120395D01*
X103527107Y-74093288D01*
X103419274Y-73818662D01*
X103185901Y-73703841D01*
X103321831Y-73647537D01*
X103605998Y-73457663D01*
X103847663Y-73215998D01*
X104003341Y-72983009D01*
X104152337Y-73205998D01*
X104394002Y-73447663D01*
X104678169Y-73637537D01*
X104823221Y-73697619D01*
X104779034Y-73712664D01*
X104580726Y-73818662D01*
X104472893Y-74093288D01*
X105500000Y-75120395D01*
X106527107Y-74093288D01*
X106419274Y-73818662D01*
X106174867Y-73698412D01*
X106321831Y-73637537D01*
X106605998Y-73447663D01*
X106847663Y-73205998D01*
X107037537Y-72921831D01*
X107168325Y-72606081D01*
X107235000Y-72270883D01*
X107235000Y-71929117D01*
X107168325Y-71593919D01*
X107037537Y-71278169D01*
X106847663Y-70994002D01*
X106605998Y-70752337D01*
X106321831Y-70562463D01*
X106006081Y-70431675D01*
X105670883Y-70365000D01*
X105329117Y-70365000D01*
X104993919Y-70431675D01*
X104678169Y-70562463D01*
X104394002Y-70752337D01*
X104152337Y-70994002D01*
X103996659Y-71226991D01*
X103847663Y-71004002D01*
X103605998Y-70762337D01*
X103321831Y-70572463D01*
X103006081Y-70441675D01*
X102670883Y-70375000D01*
X102665174Y-70375000D01*
X102764482Y-70135250D01*
X102835000Y-69780732D01*
X102835000Y-69419268D01*
X102764482Y-69064750D01*
X102626156Y-68730801D01*
X102425338Y-68430256D01*
X102169744Y-68174662D01*
X101869199Y-67973844D01*
X101535250Y-67835518D01*
X101180732Y-67765000D01*
X100819268Y-67765000D01*
X100464750Y-67835518D01*
X100130801Y-67973844D01*
X99830256Y-68174662D01*
X99574662Y-68430256D01*
X99373844Y-68730801D01*
X99235518Y-69064750D01*
X99165000Y-69419268D01*
X97252001Y-69419268D01*
X97252001Y-68592251D01*
X98418014Y-67426239D01*
X98447011Y-67402442D01*
X98490489Y-67349464D01*
X98541984Y-67286718D01*
X98612556Y-67154688D01*
X98620188Y-67129528D01*
X98656013Y-67011427D01*
X98667010Y-66899774D01*
X98667010Y-66899764D01*
X98670686Y-66862441D01*
X98667010Y-66825118D01*
X98667010Y-65174881D01*
X98670686Y-65137558D01*
X98667010Y-65100235D01*
X98667010Y-65100226D01*
X98656013Y-64988573D01*
X98612556Y-64845312D01*
X98586863Y-64797244D01*
X98541984Y-64713282D01*
X98470809Y-64626556D01*
X98447011Y-64597558D01*
X98418012Y-64573759D01*
X97958244Y-64113992D01*
X97934442Y-64084989D01*
X97818717Y-63990016D01*
X97686688Y-63919444D01*
X97543427Y-63875987D01*
X97431774Y-63864990D01*
X97431763Y-63864990D01*
X97394441Y-63861314D01*
X97357119Y-63864990D01*
X95226532Y-63864990D01*
X95189209Y-63861314D01*
X95151887Y-63864990D01*
X95151877Y-63864990D01*
X95040224Y-63875987D01*
X94896963Y-63919444D01*
X94764933Y-63990016D01*
X94681293Y-64058658D01*
X94649209Y-64084989D01*
X94625411Y-64113987D01*
X94374000Y-64365399D01*
X94314200Y-64359509D01*
X94091701Y-64381423D01*
X93877753Y-64446324D01*
X93680577Y-64551716D01*
X93641100Y-64584114D01*
X93601623Y-64551716D01*
X93404446Y-64446324D01*
X93190498Y-64381423D01*
X92968000Y-64359509D01*
X92745501Y-64381423D01*
X92531553Y-64446324D01*
X92334377Y-64551716D01*
X92161551Y-64693551D01*
X92019716Y-64866377D01*
X91914324Y-65063554D01*
X91849423Y-65277502D01*
X91843419Y-65338463D01*
X91793723Y-65365026D01*
X91710083Y-65433668D01*
X91677999Y-65459999D01*
X91654201Y-65488997D01*
X90289198Y-66854001D01*
X89950802Y-66854001D01*
X89975434Y-66794534D01*
X90034000Y-66500101D01*
X90034000Y-66199899D01*
X89975434Y-65905466D01*
X89860551Y-65628115D01*
X89693768Y-65378507D01*
X89481493Y-65166232D01*
X89231885Y-64999449D01*
X88954534Y-64884566D01*
X88660101Y-64826000D01*
X88359899Y-64826000D01*
X88065466Y-64884566D01*
X87788115Y-64999449D01*
X87538507Y-65166232D01*
X87326232Y-65378507D01*
X87159449Y-65628115D01*
X87044566Y-65905466D01*
X86986000Y-66199899D01*
X86986000Y-66500101D01*
X87044566Y-66794534D01*
X87069198Y-66854001D01*
X74263324Y-66854001D01*
X74225999Y-66850325D01*
X74188674Y-66854001D01*
X74188666Y-66854001D01*
X74077013Y-66864998D01*
X73933752Y-66908455D01*
X73801723Y-66979027D01*
X73685998Y-67074000D01*
X73662200Y-67102998D01*
X69325906Y-71439292D01*
X69281309Y-71425764D01*
X69070492Y-71405000D01*
X68929508Y-71405000D01*
X68718691Y-71425764D01*
X68448192Y-71507818D01*
X68198899Y-71641068D01*
X67980392Y-71820392D01*
X67801068Y-72038899D01*
X67667818Y-72288192D01*
X67585764Y-72558691D01*
X67558057Y-72840000D01*
X67585764Y-73121309D01*
X67626319Y-73255001D01*
X66489803Y-73255001D01*
X66400708Y-73165906D01*
X66414236Y-73121309D01*
X66441943Y-72840000D01*
X66414236Y-72558691D01*
X66332182Y-72288192D01*
X66198932Y-72038899D01*
X66019608Y-71820392D01*
X65801101Y-71641068D01*
X65551808Y-71507818D01*
X65281309Y-71425764D01*
X65070492Y-71405000D01*
X64929508Y-71405000D01*
X64718691Y-71425764D01*
X64448192Y-71507818D01*
X64198899Y-71641068D01*
X63980392Y-71820392D01*
X63801068Y-72038899D01*
X63667818Y-72288192D01*
X63585764Y-72558691D01*
X63558057Y-72840000D01*
X63585764Y-73121309D01*
X63667818Y-73391808D01*
X63801068Y-73641101D01*
X63894551Y-73755011D01*
X62989813Y-73755011D01*
X62400708Y-73165906D01*
X62414236Y-73121309D01*
X62441943Y-72840000D01*
X62414236Y-72558691D01*
X62332182Y-72288192D01*
X62198932Y-72038899D01*
X62019608Y-71820392D01*
X61801101Y-71641068D01*
X61551808Y-71507818D01*
X61281309Y-71425764D01*
X61070492Y-71405000D01*
X60929508Y-71405000D01*
X60718691Y-71425764D01*
X60448192Y-71507818D01*
X60198899Y-71641068D01*
X59980392Y-71820392D01*
X59801068Y-72038899D01*
X59667818Y-72288192D01*
X59585764Y-72558691D01*
X59558057Y-72840000D01*
X59585764Y-73121309D01*
X59667818Y-73391808D01*
X59801068Y-73641101D01*
X59980392Y-73859608D01*
X60198899Y-74038932D01*
X60448192Y-74172182D01*
X60718691Y-74254236D01*
X60929508Y-74275000D01*
X61070492Y-74275000D01*
X61281309Y-74254236D01*
X61325906Y-74240708D01*
X62111212Y-75026014D01*
X62135010Y-75055012D01*
X62250735Y-75149985D01*
X62382764Y-75220557D01*
X62526025Y-75264014D01*
X62637678Y-75275011D01*
X62637687Y-75275011D01*
X62675010Y-75278687D01*
X62712333Y-75275011D01*
X71947667Y-75275011D01*
X71984989Y-75278687D01*
X72022311Y-75275011D01*
X72022322Y-75275011D01*
X72133975Y-75264014D01*
X72277236Y-75220557D01*
X72409265Y-75149985D01*
X72524990Y-75055012D01*
X72548793Y-75026008D01*
X74120801Y-73454001D01*
X87074168Y-73454001D01*
X87044566Y-73525466D01*
X86986000Y-73819899D01*
X86986000Y-73888868D01*
X83236865Y-77638004D01*
X83193551Y-77673551D01*
X83051716Y-77846377D01*
X82951431Y-78034000D01*
X82946324Y-78043554D01*
X82881423Y-78257502D01*
X82859509Y-78480000D01*
X82865000Y-78535752D01*
X82865001Y-81484239D01*
X82859509Y-81540000D01*
X82881423Y-81762498D01*
X82946324Y-81976446D01*
X82964260Y-82010001D01*
X83051717Y-82173623D01*
X83193552Y-82346449D01*
X83236860Y-82381991D01*
X85997857Y-85142989D01*
X85997862Y-85142993D01*
X86126000Y-85271131D01*
X86126000Y-85340101D01*
X86184566Y-85634534D01*
X86299449Y-85911885D01*
X86466232Y-86161493D01*
X86678507Y-86373768D01*
X86807562Y-86460000D01*
X86678507Y-86546232D01*
X86466232Y-86758507D01*
X86299449Y-87008115D01*
X86184566Y-87285466D01*
X86126000Y-87579899D01*
X86126000Y-87671198D01*
X79204802Y-80750001D01*
X79180999Y-80720997D01*
X79065274Y-80626024D01*
X78933245Y-80555452D01*
X78789984Y-80511995D01*
X78678331Y-80500998D01*
X78678320Y-80500998D01*
X78640998Y-80497322D01*
X78603676Y-80500998D01*
X61037325Y-80500998D01*
X61000000Y-80497322D01*
X60962675Y-80500998D01*
X60962667Y-80500998D01*
X60851014Y-80511995D01*
X60707753Y-80555452D01*
X60575724Y-80626024D01*
X60459999Y-80720997D01*
X60436201Y-80749995D01*
X58760000Y-82426197D01*
X58760000Y-68632138D01*
X59065300Y-68937438D01*
X59562388Y-69269582D01*
X60114723Y-69498367D01*
X60701079Y-69615000D01*
X61298921Y-69615000D01*
X61885277Y-69498367D01*
X62437612Y-69269582D01*
X62934700Y-68937438D01*
X63357438Y-68514700D01*
X63689582Y-68017612D01*
X63918367Y-67465277D01*
X64035000Y-66878921D01*
X64035000Y-66281079D01*
X63918367Y-65694723D01*
X63888363Y-65622285D01*
X64165000Y-65622285D01*
X64165000Y-66377715D01*
X64312377Y-67118628D01*
X64601467Y-67816554D01*
X65021161Y-68444670D01*
X65555330Y-68978839D01*
X66183446Y-69398533D01*
X66881372Y-69687623D01*
X67622285Y-69835000D01*
X68377715Y-69835000D01*
X69118628Y-69687623D01*
X69816554Y-69398533D01*
X70444670Y-68978839D01*
X70978839Y-68444670D01*
X71398533Y-67816554D01*
X71687623Y-67118628D01*
X71835000Y-66377715D01*
X71835000Y-65622285D01*
X71687623Y-64881372D01*
X71398533Y-64183446D01*
X70978839Y-63555330D01*
X70444670Y-63021161D01*
X69816554Y-62601467D01*
X69118628Y-62312377D01*
X68377715Y-62165000D01*
X67622285Y-62165000D01*
X66881372Y-62312377D01*
X66183446Y-62601467D01*
X65555330Y-63021161D01*
X65021161Y-63555330D01*
X64601467Y-64183446D01*
X64312377Y-64881372D01*
X64165000Y-65622285D01*
X63888363Y-65622285D01*
X63689582Y-65142388D01*
X63357438Y-64645300D01*
X62934700Y-64222562D01*
X62437612Y-63890418D01*
X61885277Y-63661633D01*
X61298921Y-63545000D01*
X60701079Y-63545000D01*
X60114723Y-63661633D01*
X59562388Y-63890418D01*
X59065300Y-64222562D01*
X58642562Y-64645300D01*
X58310418Y-65142388D01*
X58081633Y-65694723D01*
X57965000Y-66281079D01*
X57965000Y-66878921D01*
X58081633Y-67465277D01*
X58093337Y-67493533D01*
X53873805Y-63274002D01*
X53850002Y-63244998D01*
X53734277Y-63150025D01*
X53602248Y-63079453D01*
X53458987Y-63035996D01*
X53347334Y-63024999D01*
X53347323Y-63024999D01*
X53310001Y-63021323D01*
X53272679Y-63024999D01*
X49257321Y-63024999D01*
X49219998Y-63021323D01*
X49182675Y-63024999D01*
X49182666Y-63024999D01*
X49071013Y-63035996D01*
X48927752Y-63079453D01*
X48795723Y-63150025D01*
X48679998Y-63244998D01*
X48656200Y-63273997D01*
X48089077Y-63841119D01*
X47894463Y-63711082D01*
X47596912Y-63587832D01*
X47281033Y-63525000D01*
X46958967Y-63525000D01*
X46643088Y-63587832D01*
X46345537Y-63711082D01*
X46077748Y-63890013D01*
X45850013Y-64117748D01*
X45735000Y-64289877D01*
X45619987Y-64117748D01*
X45392252Y-63890013D01*
X45124463Y-63711082D01*
X44826912Y-63587832D01*
X44511033Y-63525000D01*
X44188967Y-63525000D01*
X43873088Y-63587832D01*
X43575537Y-63711082D01*
X43307748Y-63890013D01*
X43080013Y-64117748D01*
X42901082Y-64385537D01*
X42777832Y-64683088D01*
X42715000Y-64998967D01*
X42715000Y-65321033D01*
X42777832Y-65636912D01*
X42901082Y-65934463D01*
X43080013Y-66202252D01*
X43272986Y-66395225D01*
X43121033Y-66365000D01*
X42798967Y-66365000D01*
X42483088Y-66427832D01*
X42185537Y-66551082D01*
X41917748Y-66730013D01*
X41690013Y-66957748D01*
X41511082Y-67225537D01*
X41387832Y-67523088D01*
X41325000Y-67838967D01*
X38763579Y-67838967D01*
X38918367Y-67465277D01*
X39035000Y-66878921D01*
X39035000Y-66281079D01*
X38918367Y-65694723D01*
X38689582Y-65142388D01*
X38357438Y-64645300D01*
X37934700Y-64222562D01*
X37437612Y-63890418D01*
X36885277Y-63661633D01*
X36298921Y-63545000D01*
X35701079Y-63545000D01*
X35114723Y-63661633D01*
X34562388Y-63890418D01*
X34065300Y-64222562D01*
X33710000Y-64577862D01*
X33710000Y-60710000D01*
X121290001Y-60710000D01*
X121290000Y-112873000D01*
X121290000Y-112873000D01*
G37*
X121290000Y-112873000D02*
X109000000Y-112873000D01*
X108975224Y-112875440D01*
X108951399Y-112882667D01*
X108929443Y-112894403D01*
X108910197Y-112910197D01*
X108894403Y-112929443D01*
X108882667Y-112951399D01*
X108875440Y-112975224D01*
X108873000Y-113000000D01*
X108873000Y-135000000D01*
X108875440Y-135024776D01*
X108882667Y-135048601D01*
X108894403Y-135070557D01*
X108910197Y-135089803D01*
X108929443Y-135105597D01*
X108951399Y-135117333D01*
X108975224Y-135124560D01*
X109000000Y-135127000D01*
X114974283Y-135127000D01*
X114755099Y-135193489D01*
X114540551Y-135308167D01*
X114352498Y-135462498D01*
X114198167Y-135650552D01*
X114083489Y-135865100D01*
X114012870Y-136097899D01*
X113995000Y-136279336D01*
X113995000Y-137200665D01*
X114012870Y-137382102D01*
X114083489Y-137614901D01*
X114198168Y-137829449D01*
X114352499Y-138017502D01*
X114540552Y-138171833D01*
X114755100Y-138286511D01*
X114987899Y-138357130D01*
X115230000Y-138380975D01*
X115472102Y-138357130D01*
X115704901Y-138286511D01*
X115919449Y-138171833D01*
X116107502Y-138017502D01*
X116261833Y-137829449D01*
X116376511Y-137614901D01*
X116447130Y-137382101D01*
X116465000Y-137200664D01*
X116465000Y-136279335D01*
X116447130Y-136097898D01*
X116376511Y-135865099D01*
X116261833Y-135650551D01*
X116107502Y-135462498D01*
X115919448Y-135308167D01*
X115704900Y-135193489D01*
X115485716Y-135127000D01*
X117514283Y-135127000D01*
X117295099Y-135193489D01*
X117080551Y-135308167D01*
X116892498Y-135462498D01*
X116738167Y-135650552D01*
X116623489Y-135865100D01*
X116552870Y-136097899D01*
X116535000Y-136279336D01*
X116535000Y-137200665D01*
X116552870Y-137382102D01*
X116623489Y-137614901D01*
X116738168Y-137829449D01*
X116892499Y-138017502D01*
X117080552Y-138171833D01*
X117295100Y-138286511D01*
X117527899Y-138357130D01*
X117770000Y-138380975D01*
X118012102Y-138357130D01*
X118244901Y-138286511D01*
X118459449Y-138171833D01*
X118647502Y-138017502D01*
X118801833Y-137829449D01*
X118916511Y-137614901D01*
X118987130Y-137382101D01*
X119005000Y-137200664D01*
X119005000Y-136279335D01*
X118987130Y-136097898D01*
X118916511Y-135865099D01*
X118801833Y-135650551D01*
X118647502Y-135462498D01*
X118459448Y-135308167D01*
X118244900Y-135193489D01*
X118025716Y-135127000D01*
X121290000Y-135127000D01*
X121290000Y-154290000D01*
X109065994Y-154290000D01*
X109345325Y-154103357D01*
X109628357Y-153820325D01*
X109850735Y-153487513D01*
X110003911Y-153117713D01*
X110082000Y-152725135D01*
X110082000Y-152324865D01*
X110003911Y-151932287D01*
X109973416Y-151858665D01*
X114565000Y-151858665D01*
X114565000Y-152141335D01*
X114620147Y-152418574D01*
X114728320Y-152679727D01*
X114885363Y-152914759D01*
X115085241Y-153114637D01*
X115320273Y-153271680D01*
X115581426Y-153379853D01*
X115858665Y-153435000D01*
X116141335Y-153435000D01*
X116418574Y-153379853D01*
X116679727Y-153271680D01*
X116914759Y-153114637D01*
X117114637Y-152914759D01*
X117271680Y-152679727D01*
X117379853Y-152418574D01*
X117435000Y-152141335D01*
X117435000Y-151858665D01*
X117379853Y-151581426D01*
X117271680Y-151320273D01*
X117114637Y-151085241D01*
X116914759Y-150885363D01*
X116679727Y-150728320D01*
X116418574Y-150620147D01*
X116141335Y-150565000D01*
X115858665Y-150565000D01*
X115581426Y-150620147D01*
X115320273Y-150728320D01*
X115085241Y-150885363D01*
X114885363Y-151085241D01*
X114728320Y-151320273D01*
X114620147Y-151581426D01*
X114565000Y-151858665D01*
X109973416Y-151858665D01*
X109850735Y-151562487D01*
X109628357Y-151229675D01*
X109345325Y-150946643D01*
X109012513Y-150724265D01*
X108642713Y-150571089D01*
X108250135Y-150493000D01*
X107849865Y-150493000D01*
X107457287Y-150571089D01*
X107087487Y-150724265D01*
X106754675Y-150946643D01*
X106471643Y-151229675D01*
X106249265Y-151562487D01*
X106096089Y-151932287D01*
X106018000Y-152324865D01*
X106018000Y-152725135D01*
X106096089Y-153117713D01*
X106249265Y-153487513D01*
X106471643Y-153820325D01*
X106754675Y-154103357D01*
X107034006Y-154290000D01*
X85988072Y-154290000D01*
X85988072Y-149460000D01*
X85975812Y-149335518D01*
X85939502Y-149215820D01*
X85904248Y-149149865D01*
X86968000Y-149149865D01*
X86968000Y-149550135D01*
X87046089Y-149942713D01*
X87199265Y-150312513D01*
X87421643Y-150645325D01*
X87704675Y-150928357D01*
X88037487Y-151150735D01*
X88407287Y-151303911D01*
X88799865Y-151382000D01*
X89200135Y-151382000D01*
X89592713Y-151303911D01*
X89962513Y-151150735D01*
X90295325Y-150928357D01*
X90578357Y-150645325D01*
X90800735Y-150312513D01*
X90953911Y-149942713D01*
X91032000Y-149550135D01*
X91032000Y-149149865D01*
X90994382Y-148960749D01*
X93523141Y-146431991D01*
X93566449Y-146396449D01*
X93708284Y-146223623D01*
X93813676Y-146026447D01*
X93878577Y-145812499D01*
X93895000Y-145645752D01*
X93900491Y-145590000D01*
X93895000Y-145534249D01*
X93895000Y-140264450D01*
X94037502Y-140147502D01*
X94191833Y-139959449D01*
X94306511Y-139744901D01*
X94377130Y-139512102D01*
X94400975Y-139270000D01*
X94377130Y-139027898D01*
X94306511Y-138795099D01*
X94191833Y-138580551D01*
X94037502Y-138392498D01*
X93849449Y-138238167D01*
X93634901Y-138123489D01*
X93402102Y-138052870D01*
X93220665Y-138035000D01*
X92299335Y-138035000D01*
X92117898Y-138052870D01*
X91885099Y-138123489D01*
X91670551Y-138238167D01*
X91482498Y-138392498D01*
X91328167Y-138580551D01*
X91213489Y-138795099D01*
X91142870Y-139027898D01*
X91119025Y-139270000D01*
X91142870Y-139512102D01*
X91213489Y-139744901D01*
X91328167Y-139959449D01*
X91482498Y-140147502D01*
X91625000Y-140264450D01*
X91625001Y-145119867D01*
X89389251Y-147355618D01*
X89200135Y-147318000D01*
X88799865Y-147318000D01*
X88407287Y-147396089D01*
X88037487Y-147549265D01*
X87704675Y-147771643D01*
X87421643Y-148054675D01*
X87199265Y-148387487D01*
X87046089Y-148757287D01*
X86968000Y-149149865D01*
X85904248Y-149149865D01*
X85880537Y-149105506D01*
X85801185Y-149008815D01*
X85704494Y-148929463D01*
X85594180Y-148870498D01*
X85474482Y-148834188D01*
X85350000Y-148821928D01*
X82810000Y-148821928D01*
X82685518Y-148834188D01*
X82565820Y-148870498D01*
X82455506Y-148929463D01*
X82358815Y-149008815D01*
X82279463Y-149105506D01*
X82220498Y-149215820D01*
X82184188Y-149335518D01*
X82171928Y-149460000D01*
X82171928Y-154290000D01*
X80907731Y-154290000D01*
X80905000Y-152285750D01*
X80746250Y-152127000D01*
X79127000Y-152127000D01*
X79127000Y-152147000D01*
X78873000Y-152147000D01*
X78873000Y-152127000D01*
X77253750Y-152127000D01*
X77095000Y-152285750D01*
X77092269Y-154290000D01*
X73988072Y-154290000D01*
X73988072Y-149460000D01*
X77091928Y-149460000D01*
X77095000Y-151714250D01*
X77253750Y-151873000D01*
X78873000Y-151873000D01*
X78873000Y-148983750D01*
X79127000Y-148983750D01*
X79127000Y-151873000D01*
X80746250Y-151873000D01*
X80905000Y-151714250D01*
X80908072Y-149460000D01*
X80895812Y-149335518D01*
X80859502Y-149215820D01*
X80800537Y-149105506D01*
X80721185Y-149008815D01*
X80624494Y-148929463D01*
X80514180Y-148870498D01*
X80394482Y-148834188D01*
X80270000Y-148821928D01*
X79285750Y-148825000D01*
X79127000Y-148983750D01*
X78873000Y-148983750D01*
X78714250Y-148825000D01*
X77730000Y-148821928D01*
X77605518Y-148834188D01*
X77485820Y-148870498D01*
X77375506Y-148929463D01*
X77278815Y-149008815D01*
X77199463Y-149105506D01*
X77140498Y-149215820D01*
X77104188Y-149335518D01*
X77091928Y-149460000D01*
X73988072Y-149460000D01*
X73975812Y-149335518D01*
X73939502Y-149215820D01*
X73880537Y-149105506D01*
X73801185Y-149008815D01*
X73704494Y-148929463D01*
X73594180Y-148870498D01*
X73474482Y-148834188D01*
X73350000Y-148821928D01*
X70810000Y-148821928D01*
X70685518Y-148834188D01*
X70565820Y-148870498D01*
X70455506Y-148929463D01*
X70358815Y-149008815D01*
X70279463Y-149105506D01*
X70220498Y-149215820D01*
X70184188Y-149335518D01*
X70171928Y-149460000D01*
X70171928Y-154290000D01*
X68907731Y-154290000D01*
X68905000Y-152285750D01*
X68746250Y-152127000D01*
X67127000Y-152127000D01*
X67127000Y-152147000D01*
X66873000Y-152147000D01*
X66873000Y-152127000D01*
X65253750Y-152127000D01*
X65095000Y-152285750D01*
X65092269Y-154290000D01*
X49710000Y-154290000D01*
X49710000Y-149460000D01*
X65091928Y-149460000D01*
X65095000Y-151714250D01*
X65253750Y-151873000D01*
X66873000Y-151873000D01*
X66873000Y-148983750D01*
X67127000Y-148983750D01*
X67127000Y-151873000D01*
X68746250Y-151873000D01*
X68905000Y-151714250D01*
X68908072Y-149460000D01*
X68895812Y-149335518D01*
X68859502Y-149215820D01*
X68800537Y-149105506D01*
X68721185Y-149008815D01*
X68624494Y-148929463D01*
X68514180Y-148870498D01*
X68394482Y-148834188D01*
X68270000Y-148821928D01*
X67285750Y-148825000D01*
X67127000Y-148983750D01*
X66873000Y-148983750D01*
X66714250Y-148825000D01*
X65730000Y-148821928D01*
X65605518Y-148834188D01*
X65485820Y-148870498D01*
X65375506Y-148929463D01*
X65278815Y-149008815D01*
X65199463Y-149105506D01*
X65140498Y-149215820D01*
X65104188Y-149335518D01*
X65091928Y-149460000D01*
X49710000Y-149460000D01*
X49710000Y-143622285D01*
X75165000Y-143622285D01*
X75165000Y-144377715D01*
X75312377Y-145118628D01*
X75601467Y-145816554D01*
X76021161Y-146444670D01*
X76555330Y-146978839D01*
X77183446Y-147398533D01*
X77881372Y-147687623D01*
X78622285Y-147835000D01*
X79377715Y-147835000D01*
X80118628Y-147687623D01*
X80816554Y-147398533D01*
X81444670Y-146978839D01*
X81978839Y-146444670D01*
X82398533Y-145816554D01*
X82687623Y-145118628D01*
X82835000Y-144377715D01*
X82835000Y-143622285D01*
X82687623Y-142881372D01*
X82653862Y-142799865D01*
X86968000Y-142799865D01*
X86968000Y-143200135D01*
X87046089Y-143592713D01*
X87199265Y-143962513D01*
X87421643Y-144295325D01*
X87704675Y-144578357D01*
X88037487Y-144800735D01*
X88407287Y-144953911D01*
X88799865Y-145032000D01*
X89200135Y-145032000D01*
X89592713Y-144953911D01*
X89962513Y-144800735D01*
X90295325Y-144578357D01*
X90578357Y-144295325D01*
X90800735Y-143962513D01*
X90953911Y-143592713D01*
X91032000Y-143200135D01*
X91032000Y-142799865D01*
X90953911Y-142407287D01*
X90800735Y-142037487D01*
X90578357Y-141704675D01*
X90295325Y-141421643D01*
X89962513Y-141199265D01*
X89592713Y-141046089D01*
X89200135Y-140968000D01*
X88799865Y-140968000D01*
X88407287Y-141046089D01*
X88037487Y-141199265D01*
X87704675Y-141421643D01*
X87421643Y-141704675D01*
X87199265Y-142037487D01*
X87046089Y-142407287D01*
X86968000Y-142799865D01*
X82653862Y-142799865D01*
X82398533Y-142183446D01*
X81978839Y-141555330D01*
X81444670Y-141021161D01*
X80816554Y-140601467D01*
X80118628Y-140312377D01*
X79377715Y-140165000D01*
X78622285Y-140165000D01*
X77881372Y-140312377D01*
X77183446Y-140601467D01*
X76555330Y-141021161D01*
X76021161Y-141555330D01*
X75601467Y-142183446D01*
X75312377Y-142881372D01*
X75165000Y-143622285D01*
X49710000Y-143622285D01*
X49710000Y-76034876D01*
X49713435Y-76000000D01*
X49699727Y-75860816D01*
X49659128Y-75726980D01*
X49627000Y-75666873D01*
X49627000Y-75500000D01*
X49624560Y-75475224D01*
X49617333Y-75451399D01*
X49605597Y-75429443D01*
X49589803Y-75410197D01*
X49570557Y-75394403D01*
X49548601Y-75382667D01*
X49524776Y-75375440D01*
X49500000Y-75373000D01*
X49333127Y-75373000D01*
X49273020Y-75340872D01*
X49139184Y-75300273D01*
X49034877Y-75290000D01*
X49000000Y-75286565D01*
X48965123Y-75290000D01*
X33710000Y-75290000D01*
X33710000Y-68582138D01*
X34065300Y-68937438D01*
X34562388Y-69269582D01*
X35114723Y-69498367D01*
X35701079Y-69615000D01*
X36298921Y-69615000D01*
X36885277Y-69498367D01*
X37437612Y-69269582D01*
X37934700Y-68937438D01*
X38357438Y-68514700D01*
X38689582Y-68017612D01*
X38763579Y-67838967D01*
X41325000Y-67838967D01*
X41325000Y-68161033D01*
X41387832Y-68476912D01*
X41511082Y-68774463D01*
X41690013Y-69042252D01*
X41917748Y-69269987D01*
X42185537Y-69448918D01*
X42483088Y-69572168D01*
X42798967Y-69635000D01*
X43121033Y-69635000D01*
X43436912Y-69572168D01*
X43734463Y-69448918D01*
X44002252Y-69269987D01*
X44229987Y-69042252D01*
X44345000Y-68870123D01*
X44460013Y-69042252D01*
X44687748Y-69269987D01*
X44955537Y-69448918D01*
X45253088Y-69572168D01*
X45568967Y-69635000D01*
X45891033Y-69635000D01*
X46206912Y-69572168D01*
X46221376Y-69566177D01*
X49240000Y-72584802D01*
X49240000Y-72962678D01*
X49236324Y-73000000D01*
X49240000Y-73037322D01*
X49240000Y-73037332D01*
X49250997Y-73148985D01*
X49283156Y-73255001D01*
X49294454Y-73292246D01*
X49365026Y-73424276D01*
X49404871Y-73472826D01*
X49459999Y-73540001D01*
X49489002Y-73563804D01*
X50240001Y-74314803D01*
X50240000Y-86308678D01*
X50236324Y-86346000D01*
X50240000Y-86383322D01*
X50240000Y-86383332D01*
X50250997Y-86494985D01*
X50289612Y-86622285D01*
X50294454Y-86638246D01*
X50365026Y-86770276D01*
X50404871Y-86818826D01*
X50459999Y-86886001D01*
X50489003Y-86909804D01*
X51589623Y-88010425D01*
X51540000Y-88259899D01*
X51540000Y-88560101D01*
X51598566Y-88854534D01*
X51713449Y-89131885D01*
X51880232Y-89381493D01*
X52092507Y-89593768D01*
X52221562Y-89680000D01*
X52092507Y-89766232D01*
X51880232Y-89978507D01*
X51713449Y-90228115D01*
X51598566Y-90505466D01*
X51540000Y-90799899D01*
X51540000Y-91100101D01*
X51598566Y-91394534D01*
X51713449Y-91671885D01*
X51880232Y-91921493D01*
X52092507Y-92133768D01*
X52342115Y-92300551D01*
X52619466Y-92415434D01*
X52913899Y-92474000D01*
X53214101Y-92474000D01*
X53508534Y-92415434D01*
X53785885Y-92300551D01*
X54035493Y-92133768D01*
X54247768Y-91921493D01*
X54414551Y-91671885D01*
X54529434Y-91394534D01*
X54588000Y-91100101D01*
X54588000Y-90799899D01*
X54538377Y-90550424D01*
X56905000Y-88183802D01*
X56904999Y-99382280D01*
X52383693Y-103903586D01*
X52216632Y-103736525D01*
X52042240Y-103620000D01*
X52216632Y-103503475D01*
X52423475Y-103296632D01*
X52585990Y-103053411D01*
X52697932Y-102783158D01*
X52755000Y-102496260D01*
X52755000Y-102203740D01*
X52697932Y-101916842D01*
X52585990Y-101646589D01*
X52423475Y-101403368D01*
X52216632Y-101196525D01*
X51973411Y-101034010D01*
X51703158Y-100922068D01*
X51416260Y-100865000D01*
X51123740Y-100865000D01*
X50836842Y-100922068D01*
X50566589Y-101034010D01*
X50323368Y-101196525D01*
X50116525Y-101403368D01*
X49954010Y-101646589D01*
X49842068Y-101916842D01*
X49785000Y-102203740D01*
X49785000Y-102496260D01*
X49842068Y-102783158D01*
X49954010Y-103053411D01*
X50116525Y-103296632D01*
X50323368Y-103503475D01*
X50497760Y-103620000D01*
X50323368Y-103736525D01*
X50116525Y-103943368D01*
X49954010Y-104186589D01*
X49842068Y-104456842D01*
X49785000Y-104743740D01*
X49785000Y-105036260D01*
X49842068Y-105323158D01*
X49954010Y-105593411D01*
X50116525Y-105836632D01*
X50323368Y-106043475D01*
X50497760Y-106160000D01*
X50323368Y-106276525D01*
X50116525Y-106483368D01*
X49954010Y-106726589D01*
X49842068Y-106996842D01*
X49785000Y-107283740D01*
X49785000Y-107576260D01*
X49842068Y-107863158D01*
X49954010Y-108133411D01*
X50116525Y-108376632D01*
X50323368Y-108583475D01*
X50497760Y-108700000D01*
X50323368Y-108816525D01*
X50116525Y-109023368D01*
X49954010Y-109266589D01*
X49842068Y-109536842D01*
X49785000Y-109823740D01*
X49785000Y-110116260D01*
X49842068Y-110403158D01*
X49954010Y-110673411D01*
X50116525Y-110916632D01*
X50323368Y-111123475D01*
X50497760Y-111240000D01*
X50323368Y-111356525D01*
X50116525Y-111563368D01*
X49954010Y-111806589D01*
X49842068Y-112076842D01*
X49785000Y-112363740D01*
X49785000Y-112656260D01*
X49842068Y-112943158D01*
X49954010Y-113213411D01*
X50116525Y-113456632D01*
X50323368Y-113663475D01*
X50497760Y-113780000D01*
X50323368Y-113896525D01*
X50116525Y-114103368D01*
X49954010Y-114346589D01*
X49842068Y-114616842D01*
X49785000Y-114903740D01*
X49785000Y-115196260D01*
X49842068Y-115483158D01*
X49954010Y-115753411D01*
X50116525Y-115996632D01*
X50323368Y-116203475D01*
X50497760Y-116320000D01*
X50323368Y-116436525D01*
X50116525Y-116643368D01*
X49954010Y-116886589D01*
X49842068Y-117156842D01*
X49785000Y-117443740D01*
X49785000Y-117736260D01*
X49842068Y-118023158D01*
X49954010Y-118293411D01*
X50116525Y-118536632D01*
X50323368Y-118743475D01*
X50497760Y-118860000D01*
X50323368Y-118976525D01*
X50116525Y-119183368D01*
X49954010Y-119426589D01*
X49842068Y-119696842D01*
X49785000Y-119983740D01*
X49785000Y-120276260D01*
X49842068Y-120563158D01*
X49954010Y-120833411D01*
X50116525Y-121076632D01*
X50323368Y-121283475D01*
X50497760Y-121400000D01*
X50323368Y-121516525D01*
X50116525Y-121723368D01*
X49954010Y-121966589D01*
X49842068Y-122236842D01*
X49785000Y-122523740D01*
X49785000Y-122816260D01*
X49842068Y-123103158D01*
X49954010Y-123373411D01*
X50116525Y-123616632D01*
X50323368Y-123823475D01*
X50497760Y-123940000D01*
X50323368Y-124056525D01*
X50116525Y-124263368D01*
X49954010Y-124506589D01*
X49842068Y-124776842D01*
X49785000Y-125063740D01*
X49785000Y-125356260D01*
X49842068Y-125643158D01*
X49954010Y-125913411D01*
X50116525Y-126156632D01*
X50323368Y-126363475D01*
X50497760Y-126480000D01*
X50323368Y-126596525D01*
X50116525Y-126803368D01*
X49954010Y-127046589D01*
X49842068Y-127316842D01*
X49785000Y-127603740D01*
X49785000Y-127896260D01*
X49842068Y-128183158D01*
X49954010Y-128453411D01*
X50116525Y-128696632D01*
X50323368Y-128903475D01*
X50497760Y-129020000D01*
X50323368Y-129136525D01*
X50116525Y-129343368D01*
X49954010Y-129586589D01*
X49842068Y-129856842D01*
X49785000Y-130143740D01*
X49785000Y-130436260D01*
X49842068Y-130723158D01*
X49954010Y-130993411D01*
X50116525Y-131236632D01*
X50323368Y-131443475D01*
X50497760Y-131560000D01*
X50323368Y-131676525D01*
X50116525Y-131883368D01*
X49954010Y-132126589D01*
X49842068Y-132396842D01*
X49785000Y-132683740D01*
X49785000Y-132976260D01*
X49842068Y-133263158D01*
X49954010Y-133533411D01*
X50116525Y-133776632D01*
X50323368Y-133983475D01*
X50497760Y-134100000D01*
X50323368Y-134216525D01*
X50116525Y-134423368D01*
X49954010Y-134666589D01*
X49842068Y-134936842D01*
X49785000Y-135223740D01*
X49785000Y-135516260D01*
X49842068Y-135803158D01*
X49954010Y-136073411D01*
X50116525Y-136316632D01*
X50323368Y-136523475D01*
X50497760Y-136640000D01*
X50323368Y-136756525D01*
X50116525Y-136963368D01*
X49954010Y-137206589D01*
X49842068Y-137476842D01*
X49785000Y-137763740D01*
X49785000Y-138056260D01*
X49842068Y-138343158D01*
X49954010Y-138613411D01*
X50116525Y-138856632D01*
X50323368Y-139063475D01*
X50497760Y-139180000D01*
X50323368Y-139296525D01*
X50116525Y-139503368D01*
X49954010Y-139746589D01*
X49842068Y-140016842D01*
X49785000Y-140303740D01*
X49785000Y-140596260D01*
X49842068Y-140883158D01*
X49954010Y-141153411D01*
X50116525Y-141396632D01*
X50323368Y-141603475D01*
X50566589Y-141765990D01*
X50836842Y-141877932D01*
X51123740Y-141935000D01*
X51416260Y-141935000D01*
X51703158Y-141877932D01*
X51973411Y-141765990D01*
X52216632Y-141603475D01*
X52423475Y-141396632D01*
X52585990Y-141153411D01*
X52697932Y-140883158D01*
X52755000Y-140596260D01*
X52755000Y-140303740D01*
X52697932Y-140016842D01*
X52585990Y-139746589D01*
X52423475Y-139503368D01*
X52216632Y-139296525D01*
X52042240Y-139180000D01*
X52216632Y-139063475D01*
X52423475Y-138856632D01*
X52585990Y-138613411D01*
X52697932Y-138343158D01*
X52755000Y-138056260D01*
X52755000Y-137763740D01*
X52697932Y-137476842D01*
X52585990Y-137206589D01*
X52423475Y-136963368D01*
X52216632Y-136756525D01*
X52042240Y-136640000D01*
X52216632Y-136523475D01*
X52423475Y-136316632D01*
X52585990Y-136073411D01*
X52697932Y-135803158D01*
X52755000Y-135516260D01*
X52755000Y-135223740D01*
X52697932Y-134936842D01*
X52585990Y-134666589D01*
X52423475Y-134423368D01*
X52216632Y-134216525D01*
X52042240Y-134100000D01*
X52216632Y-133983475D01*
X52423475Y-133776632D01*
X52585990Y-133533411D01*
X52697932Y-133263158D01*
X52755000Y-132976260D01*
X52755000Y-132683740D01*
X52697932Y-132396842D01*
X52585990Y-132126589D01*
X52423475Y-131883368D01*
X52216632Y-131676525D01*
X52042240Y-131560000D01*
X52216632Y-131443475D01*
X52423475Y-131236632D01*
X52585990Y-130993411D01*
X52697932Y-130723158D01*
X52755000Y-130436260D01*
X52755000Y-130143740D01*
X52697932Y-129856842D01*
X52585990Y-129586589D01*
X52423475Y-129343368D01*
X52216632Y-129136525D01*
X52042240Y-129020000D01*
X52216632Y-128903475D01*
X52423475Y-128696632D01*
X52585990Y-128453411D01*
X52697932Y-128183158D01*
X52755000Y-127896260D01*
X52755000Y-127603740D01*
X52697932Y-127316842D01*
X52585990Y-127046589D01*
X52423475Y-126803368D01*
X52216632Y-126596525D01*
X52042240Y-126480000D01*
X52216632Y-126363475D01*
X52423475Y-126156632D01*
X52548178Y-125970000D01*
X58895199Y-125970000D01*
X64936200Y-132011002D01*
X64959999Y-132040001D01*
X65075724Y-132134974D01*
X65207753Y-132205546D01*
X65351014Y-132249003D01*
X65462667Y-132260000D01*
X65462676Y-132260000D01*
X65499999Y-132263676D01*
X65537322Y-132260000D01*
X70218750Y-132260000D01*
X70162068Y-132396842D01*
X70105000Y-132683740D01*
X70105000Y-132976260D01*
X70162068Y-133263158D01*
X70274010Y-133533411D01*
X70436525Y-133776632D01*
X70643368Y-133983475D01*
X70817760Y-134100000D01*
X70643368Y-134216525D01*
X70436525Y-134423368D01*
X70274010Y-134666589D01*
X70162068Y-134936842D01*
X70105000Y-135223740D01*
X70105000Y-135516260D01*
X70162068Y-135803158D01*
X70274010Y-136073411D01*
X70436525Y-136316632D01*
X70643368Y-136523475D01*
X70817760Y-136640000D01*
X70643368Y-136756525D01*
X70436525Y-136963368D01*
X70274010Y-137206589D01*
X70162068Y-137476842D01*
X70105000Y-137763740D01*
X70105000Y-138056260D01*
X70162068Y-138343158D01*
X70274010Y-138613411D01*
X70436525Y-138856632D01*
X70643368Y-139063475D01*
X70817760Y-139180000D01*
X70643368Y-139296525D01*
X70436525Y-139503368D01*
X70274010Y-139746589D01*
X70162068Y-140016842D01*
X70105000Y-140303740D01*
X70105000Y-140596260D01*
X70162068Y-140883158D01*
X70274010Y-141153411D01*
X70436525Y-141396632D01*
X70643368Y-141603475D01*
X70886589Y-141765990D01*
X71156842Y-141877932D01*
X71443740Y-141935000D01*
X71736260Y-141935000D01*
X72023158Y-141877932D01*
X72293411Y-141765990D01*
X72536632Y-141603475D01*
X72743475Y-141396632D01*
X72905990Y-141153411D01*
X73017932Y-140883158D01*
X73075000Y-140596260D01*
X73075000Y-140303740D01*
X73017932Y-140016842D01*
X72905990Y-139746589D01*
X72743475Y-139503368D01*
X72536632Y-139296525D01*
X72496935Y-139270000D01*
X83599025Y-139270000D01*
X83622870Y-139512102D01*
X83693489Y-139744901D01*
X83808167Y-139959449D01*
X83962498Y-140147502D01*
X84150551Y-140301833D01*
X84365099Y-140416511D01*
X84597898Y-140487130D01*
X84779335Y-140505000D01*
X85700665Y-140505000D01*
X85882102Y-140487130D01*
X86114901Y-140416511D01*
X86329449Y-140301833D01*
X86517502Y-140147502D01*
X86671833Y-139959449D01*
X86786511Y-139744901D01*
X86857130Y-139512102D01*
X86880975Y-139270000D01*
X86857130Y-139027898D01*
X86786511Y-138795099D01*
X86671833Y-138580551D01*
X86517502Y-138392498D01*
X86329449Y-138238167D01*
X86114901Y-138123489D01*
X85882102Y-138052870D01*
X85700665Y-138035000D01*
X84779335Y-138035000D01*
X84597898Y-138052870D01*
X84365099Y-138123489D01*
X84150551Y-138238167D01*
X83962498Y-138392498D01*
X83808167Y-138580551D01*
X83693489Y-138795099D01*
X83622870Y-139027898D01*
X83599025Y-139270000D01*
X72496935Y-139270000D01*
X72362240Y-139180000D01*
X72536632Y-139063475D01*
X72743475Y-138856632D01*
X72905990Y-138613411D01*
X73017932Y-138343158D01*
X73075000Y-138056260D01*
X73075000Y-137763740D01*
X73017932Y-137476842D01*
X72905990Y-137206589D01*
X72743475Y-136963368D01*
X72536632Y-136756525D01*
X72362240Y-136640000D01*
X72536632Y-136523475D01*
X72743475Y-136316632D01*
X72905990Y-136073411D01*
X73017932Y-135803158D01*
X73075000Y-135516260D01*
X73075000Y-135223740D01*
X73017932Y-134936842D01*
X72905990Y-134666589D01*
X72743475Y-134423368D01*
X72536632Y-134216525D01*
X72362240Y-134100000D01*
X72536632Y-133983475D01*
X72661442Y-133858665D01*
X76065000Y-133858665D01*
X76065000Y-134141335D01*
X76120147Y-134418574D01*
X76228320Y-134679727D01*
X76385363Y-134914759D01*
X76585241Y-135114637D01*
X76820273Y-135271680D01*
X77081426Y-135379853D01*
X77358665Y-135435000D01*
X77641335Y-135435000D01*
X77918574Y-135379853D01*
X78179727Y-135271680D01*
X78414759Y-135114637D01*
X78614637Y-134914759D01*
X78771680Y-134679727D01*
X78879853Y-134418574D01*
X78935000Y-134141335D01*
X78935000Y-133858665D01*
X78879853Y-133581426D01*
X78771680Y-133320273D01*
X78614637Y-133085241D01*
X78414759Y-132885363D01*
X78179727Y-132728320D01*
X77918574Y-132620147D01*
X77641335Y-132565000D01*
X77358665Y-132565000D01*
X77081426Y-132620147D01*
X76820273Y-132728320D01*
X76585241Y-132885363D01*
X76385363Y-133085241D01*
X76228320Y-133320273D01*
X76120147Y-133581426D01*
X76065000Y-133858665D01*
X72661442Y-133858665D01*
X72743475Y-133776632D01*
X72905990Y-133533411D01*
X73017932Y-133263158D01*
X73075000Y-132976260D01*
X73075000Y-132683740D01*
X73017932Y-132396842D01*
X72905990Y-132126589D01*
X72799936Y-131967867D01*
X75011009Y-129756796D01*
X75040001Y-129733003D01*
X75063795Y-129704010D01*
X75063799Y-129704006D01*
X75134973Y-129617279D01*
X75134974Y-129617278D01*
X75205546Y-129485249D01*
X75249003Y-129341988D01*
X75259901Y-129231341D01*
X75320273Y-129271680D01*
X75581426Y-129379853D01*
X75858665Y-129435000D01*
X76141335Y-129435000D01*
X76418574Y-129379853D01*
X76679727Y-129271680D01*
X76914759Y-129114637D01*
X77114637Y-128914759D01*
X77148812Y-128863613D01*
X80847126Y-132561928D01*
X80200000Y-132561928D01*
X80075518Y-132574188D01*
X79955820Y-132610498D01*
X79845506Y-132669463D01*
X79748815Y-132748815D01*
X79669463Y-132845506D01*
X79610498Y-132955820D01*
X79574188Y-133075518D01*
X79561928Y-133200000D01*
X79561928Y-134800000D01*
X79574188Y-134924482D01*
X79610498Y-135044180D01*
X79669463Y-135154494D01*
X79748815Y-135251185D01*
X79845506Y-135330537D01*
X79955820Y-135389502D01*
X80075518Y-135425812D01*
X80200000Y-135438072D01*
X81800000Y-135438072D01*
X81924482Y-135425812D01*
X82044180Y-135389502D01*
X82154494Y-135330537D01*
X82251185Y-135251185D01*
X82330537Y-135154494D01*
X82389502Y-135044180D01*
X82425812Y-134924482D01*
X82438072Y-134800000D01*
X82438072Y-134152874D01*
X84058725Y-135773527D01*
X83962498Y-135852498D01*
X83808167Y-136040551D01*
X83693489Y-136255099D01*
X83622870Y-136487898D01*
X83599025Y-136730000D01*
X83622870Y-136972102D01*
X83693489Y-137204901D01*
X83808167Y-137419449D01*
X83962498Y-137607502D01*
X84150551Y-137761833D01*
X84365099Y-137876511D01*
X84597898Y-137947130D01*
X84779335Y-137965000D01*
X85700665Y-137965000D01*
X85882102Y-137947130D01*
X86114901Y-137876511D01*
X86329449Y-137761833D01*
X86517502Y-137607502D01*
X86671833Y-137419449D01*
X86786511Y-137204901D01*
X86834225Y-137047609D01*
X91166538Y-137047609D01*
X91170409Y-137085282D01*
X91262579Y-137310533D01*
X91396922Y-137513474D01*
X91568275Y-137686307D01*
X91770054Y-137822390D01*
X91994504Y-137916493D01*
X92233000Y-137965000D01*
X92633000Y-137965000D01*
X92633000Y-136857000D01*
X92887000Y-136857000D01*
X92887000Y-137965000D01*
X93287000Y-137965000D01*
X93525496Y-137916493D01*
X93749946Y-137822390D01*
X93951725Y-137686307D01*
X94123078Y-137513474D01*
X94257421Y-137310533D01*
X94349591Y-137085282D01*
X94353462Y-137047609D01*
X94228731Y-136857000D01*
X92887000Y-136857000D01*
X92633000Y-136857000D01*
X91291269Y-136857000D01*
X91166538Y-137047609D01*
X86834225Y-137047609D01*
X86857130Y-136972102D01*
X86880975Y-136730000D01*
X86857130Y-136487898D01*
X86786511Y-136255099D01*
X86671833Y-136040551D01*
X86517502Y-135852498D01*
X86329449Y-135698167D01*
X86114901Y-135583489D01*
X85910051Y-135521348D01*
X85874974Y-135455724D01*
X85780001Y-135339999D01*
X85751004Y-135316202D01*
X79869801Y-129435000D01*
X80141335Y-129435000D01*
X80418574Y-129379853D01*
X80679727Y-129271680D01*
X80914759Y-129114637D01*
X81114637Y-128914759D01*
X81271680Y-128679727D01*
X81379853Y-128418574D01*
X81435000Y-128141335D01*
X81435000Y-127858665D01*
X81379853Y-127581426D01*
X81271680Y-127320273D01*
X81114637Y-127085241D01*
X80914759Y-126885363D01*
X80679727Y-126728320D01*
X80418574Y-126620147D01*
X80141335Y-126565000D01*
X79858665Y-126565000D01*
X79581426Y-126620147D01*
X79320273Y-126728320D01*
X79085241Y-126885363D01*
X78885363Y-127085241D01*
X78728320Y-127320273D01*
X78620147Y-127581426D01*
X78565000Y-127858665D01*
X78565000Y-128130199D01*
X77923804Y-127489003D01*
X77900001Y-127459999D01*
X77784276Y-127365026D01*
X77652247Y-127294454D01*
X77508986Y-127250997D01*
X77397333Y-127240000D01*
X77397322Y-127240000D01*
X77360000Y-127236324D01*
X77322678Y-127240000D01*
X77218043Y-127240000D01*
X77114637Y-127085241D01*
X76914759Y-126885363D01*
X76679727Y-126728320D01*
X76418574Y-126620147D01*
X76141335Y-126565000D01*
X76088803Y-126565000D01*
X81736003Y-120917801D01*
X81765000Y-120894004D01*
X81859973Y-120778279D01*
X81930545Y-120646250D01*
X81974002Y-120502989D01*
X81984999Y-120391336D01*
X81984999Y-120391328D01*
X81988675Y-120354003D01*
X81984999Y-120316678D01*
X81984999Y-117840000D01*
X82957573Y-117840000D01*
X82987210Y-118140913D01*
X83074983Y-118430261D01*
X83217519Y-118696927D01*
X83409339Y-118930661D01*
X83643073Y-119122481D01*
X83909739Y-119265017D01*
X84199087Y-119352790D01*
X84424592Y-119375000D01*
X84575408Y-119375000D01*
X84800913Y-119352790D01*
X85090261Y-119265017D01*
X85356927Y-119122481D01*
X85590661Y-118930661D01*
X85782481Y-118696927D01*
X85925017Y-118430261D01*
X86012790Y-118140913D01*
X86042427Y-117840000D01*
X86012790Y-117539087D01*
X85925017Y-117249739D01*
X85782481Y-116983073D01*
X85590661Y-116749339D01*
X85356927Y-116557519D01*
X85090261Y-116414983D01*
X84800913Y-116327210D01*
X84575408Y-116305000D01*
X84424592Y-116305000D01*
X84199087Y-116327210D01*
X83909739Y-116414983D01*
X83643073Y-116557519D01*
X83409339Y-116749339D01*
X83217519Y-116983073D01*
X83074983Y-117249739D01*
X82987210Y-117539087D01*
X82957573Y-117840000D01*
X81984999Y-117840000D01*
X81984999Y-116882567D01*
X86371153Y-112496414D01*
X86568507Y-112693768D01*
X86818115Y-112860551D01*
X87095466Y-112975434D01*
X87389899Y-113034000D01*
X87690101Y-113034000D01*
X87984534Y-112975434D01*
X88261885Y-112860551D01*
X88511493Y-112693768D01*
X88723768Y-112481493D01*
X88890551Y-112231885D01*
X89005434Y-111954534D01*
X89064000Y-111660101D01*
X89064000Y-111359899D01*
X89005434Y-111065466D01*
X88890551Y-110788115D01*
X88723768Y-110538507D01*
X88511493Y-110326232D01*
X88382438Y-110240000D01*
X88511493Y-110153768D01*
X88723768Y-109941493D01*
X88890551Y-109691885D01*
X89005434Y-109414534D01*
X89064000Y-109120101D01*
X89064000Y-108819899D01*
X89052085Y-108760000D01*
X89962678Y-108760000D01*
X90000000Y-108763676D01*
X90037322Y-108760000D01*
X90037333Y-108760000D01*
X90148986Y-108749003D01*
X90292247Y-108705546D01*
X90424276Y-108634974D01*
X90540001Y-108540001D01*
X90563804Y-108510998D01*
X91511004Y-107563798D01*
X91540001Y-107540001D01*
X91634974Y-107424276D01*
X91705546Y-107292247D01*
X91749003Y-107148986D01*
X91760000Y-107037333D01*
X91760000Y-107037332D01*
X91763677Y-107000000D01*
X91760000Y-106962667D01*
X91760000Y-90814801D01*
X93755548Y-88819254D01*
X93762566Y-88854534D01*
X93877449Y-89131885D01*
X94044232Y-89381493D01*
X94256507Y-89593768D01*
X94343000Y-89651561D01*
X94343001Y-110184521D01*
X94338719Y-110228000D01*
X94355805Y-110401490D01*
X94406412Y-110568313D01*
X94488590Y-110722059D01*
X94571468Y-110823046D01*
X94571471Y-110823049D01*
X94599184Y-110856817D01*
X94632951Y-110884529D01*
X95238479Y-111490057D01*
X95221799Y-111515021D01*
X94985476Y-112085554D01*
X94865000Y-112691229D01*
X94865000Y-113308771D01*
X94985476Y-113914446D01*
X95221799Y-114484979D01*
X95564886Y-114998446D01*
X95606440Y-115040000D01*
X89784877Y-115040000D01*
X89750000Y-115036565D01*
X89715123Y-115040000D01*
X89610816Y-115050273D01*
X89476980Y-115090872D01*
X89353637Y-115156800D01*
X89245525Y-115245525D01*
X89156800Y-115353637D01*
X89090872Y-115476980D01*
X89050273Y-115610816D01*
X89036565Y-115750000D01*
X89040001Y-115784887D01*
X89040000Y-132215123D01*
X89036565Y-132250000D01*
X89050273Y-132389184D01*
X89090872Y-132523020D01*
X89156800Y-132646363D01*
X89245525Y-132754475D01*
X89353637Y-132843200D01*
X89476980Y-132909128D01*
X89610816Y-132949727D01*
X89750000Y-132963435D01*
X89784877Y-132960000D01*
X95606440Y-132960000D01*
X95564886Y-133001554D01*
X95221799Y-133515021D01*
X95076833Y-133865000D01*
X89720132Y-133865000D01*
X85635000Y-129779869D01*
X85635000Y-129492287D01*
X85644180Y-129489502D01*
X85754494Y-129430537D01*
X85851185Y-129351185D01*
X85930537Y-129254494D01*
X85989502Y-129144180D01*
X86025812Y-129024482D01*
X86038072Y-128900000D01*
X86038072Y-127100000D01*
X86025812Y-126975518D01*
X85989502Y-126855820D01*
X85930537Y-126745506D01*
X85851185Y-126648815D01*
X85754494Y-126569463D01*
X85644180Y-126510498D01*
X85524482Y-126474188D01*
X85400000Y-126461928D01*
X83600000Y-126461928D01*
X83475518Y-126474188D01*
X83355820Y-126510498D01*
X83245506Y-126569463D01*
X83148815Y-126648815D01*
X83069463Y-126745506D01*
X83010498Y-126855820D01*
X82974188Y-126975518D01*
X82961928Y-127100000D01*
X82961928Y-128900000D01*
X82974188Y-129024482D01*
X83010498Y-129144180D01*
X83069463Y-129254494D01*
X83148815Y-129351185D01*
X83245506Y-129430537D01*
X83355820Y-129489502D01*
X83365000Y-129492287D01*
X83365000Y-130194248D01*
X83359509Y-130250000D01*
X83365000Y-130305751D01*
X83381423Y-130472498D01*
X83446324Y-130686446D01*
X83551716Y-130883623D01*
X83693551Y-131056449D01*
X83736865Y-131091996D01*
X88408009Y-135763141D01*
X88443551Y-135806449D01*
X88616377Y-135948284D01*
X88813553Y-136053676D01*
X89027501Y-136118577D01*
X89194248Y-136135000D01*
X89194257Y-136135000D01*
X89249999Y-136140490D01*
X89305741Y-136135000D01*
X91272156Y-136135000D01*
X91262579Y-136149467D01*
X91170409Y-136374718D01*
X91166538Y-136412391D01*
X91291269Y-136603000D01*
X92633000Y-136603000D01*
X92633000Y-136583000D01*
X92887000Y-136583000D01*
X92887000Y-136603000D01*
X94228731Y-136603000D01*
X94353462Y-136412391D01*
X94349591Y-136374718D01*
X94257421Y-136149467D01*
X94247844Y-136135000D01*
X95076833Y-136135000D01*
X95221799Y-136484979D01*
X95564886Y-136998446D01*
X96001554Y-137435114D01*
X96515021Y-137778201D01*
X96865000Y-137923168D01*
X96865000Y-139944248D01*
X96859509Y-140000000D01*
X96865000Y-140055751D01*
X96881423Y-140222498D01*
X96946324Y-140436446D01*
X97051716Y-140633623D01*
X97193551Y-140806449D01*
X97236865Y-140841996D01*
X100158013Y-143763146D01*
X100193551Y-143806449D01*
X100236854Y-143841987D01*
X100236856Y-143841989D01*
X100366377Y-143948284D01*
X100563553Y-144053676D01*
X100777501Y-144118577D01*
X101000000Y-144140491D01*
X101055752Y-144135000D01*
X106364517Y-144135000D01*
X106471643Y-144295325D01*
X106754675Y-144578357D01*
X107087487Y-144800735D01*
X107457287Y-144953911D01*
X107849865Y-145032000D01*
X108250135Y-145032000D01*
X108439251Y-144994382D01*
X112708013Y-149263146D01*
X112743551Y-149306449D01*
X112786854Y-149341987D01*
X112786856Y-149341989D01*
X112916377Y-149448284D01*
X113113553Y-149553676D01*
X113327501Y-149618577D01*
X113550000Y-149640491D01*
X113605752Y-149635000D01*
X114659043Y-149635000D01*
X114669463Y-149654494D01*
X114748815Y-149751185D01*
X114845506Y-149830537D01*
X114955820Y-149889502D01*
X115075518Y-149925812D01*
X115200000Y-149938072D01*
X116800000Y-149938072D01*
X116924482Y-149925812D01*
X117044180Y-149889502D01*
X117154494Y-149830537D01*
X117251185Y-149751185D01*
X117330537Y-149654494D01*
X117389502Y-149544180D01*
X117425812Y-149424482D01*
X117438072Y-149300000D01*
X117438072Y-147700000D01*
X117425812Y-147575518D01*
X117389502Y-147455820D01*
X117330537Y-147345506D01*
X117251185Y-147248815D01*
X117154494Y-147169463D01*
X117044180Y-147110498D01*
X116924482Y-147074188D01*
X116800000Y-147061928D01*
X115200000Y-147061928D01*
X115075518Y-147074188D01*
X114955820Y-147110498D01*
X114845506Y-147169463D01*
X114748815Y-147248815D01*
X114669463Y-147345506D01*
X114659043Y-147365000D01*
X114020133Y-147365000D01*
X110454468Y-143799336D01*
X113995000Y-143799336D01*
X113995000Y-144720665D01*
X114012870Y-144902102D01*
X114083489Y-145134901D01*
X114198168Y-145349449D01*
X114352499Y-145537502D01*
X114540552Y-145691833D01*
X114755100Y-145806511D01*
X114987899Y-145877130D01*
X115230000Y-145900975D01*
X115472102Y-145877130D01*
X115704901Y-145806511D01*
X115919449Y-145691833D01*
X116107502Y-145537502D01*
X116261833Y-145349449D01*
X116376511Y-145134901D01*
X116447130Y-144902101D01*
X116465000Y-144720664D01*
X116465000Y-143799336D01*
X116535000Y-143799336D01*
X116535000Y-144720665D01*
X116552870Y-144902102D01*
X116623489Y-145134901D01*
X116738168Y-145349449D01*
X116892499Y-145537502D01*
X117080552Y-145691833D01*
X117295100Y-145806511D01*
X117527899Y-145877130D01*
X117770000Y-145900975D01*
X118012102Y-145877130D01*
X118244901Y-145806511D01*
X118459449Y-145691833D01*
X118647502Y-145537502D01*
X118801833Y-145349449D01*
X118916511Y-145134901D01*
X118987130Y-144902101D01*
X119005000Y-144720664D01*
X119005000Y-143799335D01*
X118987130Y-143617898D01*
X118916511Y-143385099D01*
X118801833Y-143170551D01*
X118647502Y-142982498D01*
X118459448Y-142828167D01*
X118244900Y-142713489D01*
X118012101Y-142642870D01*
X117770000Y-142619025D01*
X117527898Y-142642870D01*
X117295099Y-142713489D01*
X117080551Y-142828167D01*
X116892498Y-142982498D01*
X116738167Y-143170552D01*
X116623489Y-143385100D01*
X116552870Y-143617899D01*
X116535000Y-143799336D01*
X116465000Y-143799336D01*
X116465000Y-143799335D01*
X116447130Y-143617898D01*
X116376511Y-143385099D01*
X116261833Y-143170551D01*
X116107502Y-142982498D01*
X115919448Y-142828167D01*
X115704900Y-142713489D01*
X115472101Y-142642870D01*
X115230000Y-142619025D01*
X114987898Y-142642870D01*
X114755099Y-142713489D01*
X114540551Y-142828167D01*
X114352498Y-142982498D01*
X114198167Y-143170552D01*
X114083489Y-143385100D01*
X114012870Y-143617899D01*
X113995000Y-143799336D01*
X110454468Y-143799336D01*
X110044382Y-143389251D01*
X110082000Y-143200135D01*
X110082000Y-142799865D01*
X110003911Y-142407287D01*
X109850735Y-142037487D01*
X109628357Y-141704675D01*
X109345325Y-141421643D01*
X109012513Y-141199265D01*
X108642713Y-141046089D01*
X108250135Y-140968000D01*
X107849865Y-140968000D01*
X107457287Y-141046089D01*
X107087487Y-141199265D01*
X106754675Y-141421643D01*
X106471643Y-141704675D01*
X106364517Y-141865000D01*
X101470133Y-141865000D01*
X99135000Y-139529869D01*
X99135000Y-138500000D01*
X100898057Y-138500000D01*
X100925764Y-138781309D01*
X101007818Y-139051808D01*
X101141068Y-139301101D01*
X101320392Y-139519608D01*
X101538899Y-139698932D01*
X101788192Y-139832182D01*
X102058691Y-139914236D01*
X102269508Y-139935000D01*
X102410492Y-139935000D01*
X102621309Y-139914236D01*
X102891808Y-139832182D01*
X103141101Y-139698932D01*
X103359608Y-139519608D01*
X103538932Y-139301101D01*
X103672182Y-139051808D01*
X103754236Y-138781309D01*
X103781943Y-138500000D01*
X103768023Y-138358665D01*
X111065000Y-138358665D01*
X111065000Y-138641335D01*
X111120147Y-138918574D01*
X111228320Y-139179727D01*
X111385363Y-139414759D01*
X111585241Y-139614637D01*
X111820273Y-139771680D01*
X112081426Y-139879853D01*
X112358665Y-139935000D01*
X112641335Y-139935000D01*
X112918574Y-139879853D01*
X113179727Y-139771680D01*
X113414759Y-139614637D01*
X113614637Y-139414759D01*
X113771680Y-139179727D01*
X113879853Y-138918574D01*
X113935000Y-138641335D01*
X113935000Y-138358665D01*
X113879853Y-138081426D01*
X113771680Y-137820273D01*
X113614637Y-137585241D01*
X113414759Y-137385363D01*
X113179727Y-137228320D01*
X112918574Y-137120147D01*
X112641335Y-137065000D01*
X112358665Y-137065000D01*
X112081426Y-137120147D01*
X111820273Y-137228320D01*
X111585241Y-137385363D01*
X111385363Y-137585241D01*
X111228320Y-137820273D01*
X111120147Y-138081426D01*
X111065000Y-138358665D01*
X103768023Y-138358665D01*
X103754236Y-138218691D01*
X103672182Y-137948192D01*
X103538932Y-137698899D01*
X103359608Y-137480392D01*
X103141101Y-137301068D01*
X102891808Y-137167818D01*
X102621309Y-137085764D01*
X102410492Y-137065000D01*
X102269508Y-137065000D01*
X102058691Y-137085764D01*
X101788192Y-137167818D01*
X101538899Y-137301068D01*
X101320392Y-137480392D01*
X101141068Y-137698899D01*
X101007818Y-137948192D01*
X100925764Y-138218691D01*
X100898057Y-138500000D01*
X99135000Y-138500000D01*
X99135000Y-137923167D01*
X99484979Y-137778201D01*
X99998446Y-137435114D01*
X100435114Y-136998446D01*
X100778201Y-136484979D01*
X101014524Y-135914446D01*
X101135000Y-135308771D01*
X101135000Y-134691229D01*
X101014524Y-134085554D01*
X100778201Y-133515021D01*
X100435114Y-133001554D01*
X100393560Y-132960000D01*
X106215123Y-132960000D01*
X106250000Y-132963435D01*
X106284877Y-132960000D01*
X106389184Y-132949727D01*
X106523020Y-132909128D01*
X106646363Y-132843200D01*
X106754475Y-132754475D01*
X106843200Y-132646363D01*
X106909128Y-132523020D01*
X106949727Y-132389184D01*
X106963435Y-132250000D01*
X106960000Y-132215123D01*
X106960000Y-115784877D01*
X106963435Y-115750000D01*
X106949727Y-115610816D01*
X106909128Y-115476980D01*
X106843200Y-115353637D01*
X106754475Y-115245525D01*
X106646363Y-115156800D01*
X106523020Y-115090872D01*
X106389184Y-115050273D01*
X106284877Y-115040000D01*
X106250000Y-115036565D01*
X106215123Y-115040000D01*
X100393560Y-115040000D01*
X100435114Y-114998446D01*
X100778201Y-114484979D01*
X101014524Y-113914446D01*
X101135000Y-113308771D01*
X101135000Y-112691229D01*
X101014524Y-112085554D01*
X100778201Y-111515021D01*
X100435114Y-111001554D01*
X99998446Y-110564886D01*
X99484979Y-110221799D01*
X98914446Y-109985476D01*
X98308771Y-109865000D01*
X97691229Y-109865000D01*
X97085554Y-109985476D01*
X96515021Y-110221799D01*
X96490057Y-110238479D01*
X96113000Y-109861422D01*
X96113000Y-106819268D01*
X106165000Y-106819268D01*
X106165000Y-107180732D01*
X106235518Y-107535250D01*
X106373844Y-107869199D01*
X106574662Y-108169744D01*
X106830256Y-108425338D01*
X107130801Y-108626156D01*
X107464750Y-108764482D01*
X107819268Y-108835000D01*
X108180732Y-108835000D01*
X108535250Y-108764482D01*
X108869199Y-108626156D01*
X109169744Y-108425338D01*
X109425338Y-108169744D01*
X109626156Y-107869199D01*
X109764482Y-107535250D01*
X109835000Y-107180732D01*
X109835000Y-106819268D01*
X111165000Y-106819268D01*
X111165000Y-107180732D01*
X111235518Y-107535250D01*
X111373844Y-107869199D01*
X111574662Y-108169744D01*
X111830256Y-108425338D01*
X112130801Y-108626156D01*
X112464750Y-108764482D01*
X112819268Y-108835000D01*
X113180732Y-108835000D01*
X113535250Y-108764482D01*
X113869199Y-108626156D01*
X114169744Y-108425338D01*
X114425338Y-108169744D01*
X114626156Y-107869199D01*
X114764482Y-107535250D01*
X114835000Y-107180732D01*
X114835000Y-106819268D01*
X114764482Y-106464750D01*
X114626156Y-106130801D01*
X114425338Y-105830256D01*
X114169744Y-105574662D01*
X113869199Y-105373844D01*
X113535250Y-105235518D01*
X113180732Y-105165000D01*
X112819268Y-105165000D01*
X112464750Y-105235518D01*
X112130801Y-105373844D01*
X111830256Y-105574662D01*
X111574662Y-105830256D01*
X111373844Y-106130801D01*
X111235518Y-106464750D01*
X111165000Y-106819268D01*
X109835000Y-106819268D01*
X109764482Y-106464750D01*
X109626156Y-106130801D01*
X109425338Y-105830256D01*
X109169744Y-105574662D01*
X108869199Y-105373844D01*
X108535250Y-105235518D01*
X108180732Y-105165000D01*
X107819268Y-105165000D01*
X107464750Y-105235518D01*
X107130801Y-105373844D01*
X106830256Y-105574662D01*
X106574662Y-105830256D01*
X106373844Y-106130801D01*
X106235518Y-106464750D01*
X106165000Y-106819268D01*
X96113000Y-106819268D01*
X96113000Y-89651561D01*
X96199493Y-89593768D01*
X96411768Y-89381493D01*
X96578551Y-89131885D01*
X96693434Y-88854534D01*
X96752000Y-88560101D01*
X96752000Y-88259899D01*
X96693434Y-87965466D01*
X96578551Y-87688115D01*
X96489172Y-87554351D01*
X97421238Y-86622285D01*
X100165000Y-86622285D01*
X100165000Y-87377715D01*
X100312377Y-88118628D01*
X100601467Y-88816554D01*
X101021161Y-89444670D01*
X101555330Y-89978839D01*
X102183446Y-90398533D01*
X102881372Y-90687623D01*
X103622285Y-90835000D01*
X104377715Y-90835000D01*
X105118628Y-90687623D01*
X105816554Y-90398533D01*
X106444670Y-89978839D01*
X106978839Y-89444670D01*
X107398533Y-88816554D01*
X107687623Y-88118628D01*
X107835000Y-87377715D01*
X107835000Y-86622285D01*
X107687623Y-85881372D01*
X107678218Y-85858665D01*
X110565000Y-85858665D01*
X110565000Y-86141335D01*
X110620147Y-86418574D01*
X110728320Y-86679727D01*
X110885363Y-86914759D01*
X111085241Y-87114637D01*
X111320273Y-87271680D01*
X111581426Y-87379853D01*
X111858665Y-87435000D01*
X112141335Y-87435000D01*
X112418574Y-87379853D01*
X112679727Y-87271680D01*
X112914759Y-87114637D01*
X113114637Y-86914759D01*
X113271680Y-86679727D01*
X113379853Y-86418574D01*
X113435000Y-86141335D01*
X113435000Y-85858665D01*
X116565000Y-85858665D01*
X116565000Y-86141335D01*
X116620147Y-86418574D01*
X116728320Y-86679727D01*
X116885363Y-86914759D01*
X117085241Y-87114637D01*
X117320273Y-87271680D01*
X117581426Y-87379853D01*
X117858665Y-87435000D01*
X118141335Y-87435000D01*
X118418574Y-87379853D01*
X118679727Y-87271680D01*
X118914759Y-87114637D01*
X119114637Y-86914759D01*
X119271680Y-86679727D01*
X119379853Y-86418574D01*
X119435000Y-86141335D01*
X119435000Y-85858665D01*
X119379853Y-85581426D01*
X119271680Y-85320273D01*
X119114637Y-85085241D01*
X118914759Y-84885363D01*
X118679727Y-84728320D01*
X118418574Y-84620147D01*
X118141335Y-84565000D01*
X117858665Y-84565000D01*
X117581426Y-84620147D01*
X117320273Y-84728320D01*
X117085241Y-84885363D01*
X116885363Y-85085241D01*
X116728320Y-85320273D01*
X116620147Y-85581426D01*
X116565000Y-85858665D01*
X113435000Y-85858665D01*
X113379853Y-85581426D01*
X113271680Y-85320273D01*
X113114637Y-85085241D01*
X112914759Y-84885363D01*
X112679727Y-84728320D01*
X112418574Y-84620147D01*
X112141335Y-84565000D01*
X111858665Y-84565000D01*
X111581426Y-84620147D01*
X111320273Y-84728320D01*
X111085241Y-84885363D01*
X110885363Y-85085241D01*
X110728320Y-85320273D01*
X110620147Y-85581426D01*
X110565000Y-85858665D01*
X107678218Y-85858665D01*
X107398533Y-85183446D01*
X106978839Y-84555330D01*
X106444670Y-84021161D01*
X105816554Y-83601467D01*
X105118628Y-83312377D01*
X104377715Y-83165000D01*
X103622285Y-83165000D01*
X102881372Y-83312377D01*
X102183446Y-83601467D01*
X101555330Y-84021161D01*
X101021161Y-84555330D01*
X100601467Y-85183446D01*
X100312377Y-85881372D01*
X100165000Y-86622285D01*
X97421238Y-86622285D01*
X103011004Y-81032520D01*
X103040001Y-81008723D01*
X103097233Y-80938986D01*
X103134974Y-80892999D01*
X103205546Y-80760969D01*
X103224890Y-80697199D01*
X103249003Y-80617708D01*
X103260000Y-80506055D01*
X103260000Y-80506045D01*
X103263676Y-80468722D01*
X103260000Y-80431399D01*
X103260000Y-80063148D01*
X103321831Y-80037537D01*
X103605998Y-79847663D01*
X103847663Y-79605998D01*
X104000000Y-79378009D01*
X104152337Y-79605998D01*
X104394002Y-79847663D01*
X104678169Y-80037537D01*
X104993919Y-80168325D01*
X105329117Y-80235000D01*
X105330683Y-80235000D01*
X105235518Y-80464750D01*
X105165000Y-80819268D01*
X105165000Y-81180732D01*
X105235518Y-81535250D01*
X105373844Y-81869199D01*
X105574662Y-82169744D01*
X105830256Y-82425338D01*
X106130801Y-82626156D01*
X106464750Y-82764482D01*
X106819268Y-82835000D01*
X107180732Y-82835000D01*
X107535250Y-82764482D01*
X107869199Y-82626156D01*
X108169744Y-82425338D01*
X108425338Y-82169744D01*
X108626156Y-81869199D01*
X108764482Y-81535250D01*
X108835000Y-81180732D01*
X108835000Y-80819268D01*
X108764482Y-80464750D01*
X108626156Y-80130801D01*
X108425338Y-79830256D01*
X108169744Y-79574662D01*
X107869199Y-79373844D01*
X107535250Y-79235518D01*
X107180732Y-79165000D01*
X107102499Y-79165000D01*
X107168325Y-79006081D01*
X107235000Y-78670883D01*
X107235000Y-78329117D01*
X107168325Y-77993919D01*
X107037537Y-77678169D01*
X106847663Y-77394002D01*
X106605998Y-77152337D01*
X106321831Y-76962463D01*
X106176779Y-76902381D01*
X106220966Y-76887336D01*
X106419274Y-76781338D01*
X106527107Y-76506712D01*
X105500000Y-75479605D01*
X104472893Y-76506712D01*
X104580726Y-76781338D01*
X104825133Y-76901588D01*
X104678169Y-76962463D01*
X104394002Y-77152337D01*
X104152337Y-77394002D01*
X104000000Y-77621991D01*
X103847663Y-77394002D01*
X103605998Y-77152337D01*
X103321831Y-76962463D01*
X103176779Y-76902381D01*
X103220966Y-76887336D01*
X103419274Y-76781338D01*
X103527107Y-76506712D01*
X102500000Y-75479605D01*
X101472893Y-76506712D01*
X101580726Y-76781338D01*
X101825133Y-76901588D01*
X101678169Y-76962463D01*
X101394002Y-77152337D01*
X101152337Y-77394002D01*
X100962463Y-77678169D01*
X100831675Y-77993919D01*
X100765000Y-78329117D01*
X100765000Y-78670883D01*
X100831675Y-79006081D01*
X100962463Y-79321831D01*
X101152337Y-79605998D01*
X101394002Y-79847663D01*
X101678169Y-80037537D01*
X101740000Y-80063148D01*
X101740000Y-80153920D01*
X97252154Y-84641766D01*
X97255677Y-84606000D01*
X97252001Y-84568677D01*
X97252001Y-75358639D01*
X100757591Y-75358639D01*
X100802511Y-75697439D01*
X100912664Y-76020966D01*
X101018662Y-76219274D01*
X101293288Y-76327107D01*
X102320395Y-75300000D01*
X102679605Y-75300000D01*
X103706712Y-76327107D01*
X103981338Y-76219274D01*
X103999227Y-76182914D01*
X104018662Y-76219274D01*
X104293288Y-76327107D01*
X105320395Y-75300000D01*
X105679605Y-75300000D01*
X106706712Y-76327107D01*
X106981338Y-76219274D01*
X107132216Y-75912616D01*
X107151602Y-75840000D01*
X110558057Y-75840000D01*
X110585764Y-76121309D01*
X110667818Y-76391808D01*
X110801068Y-76641101D01*
X110980392Y-76859608D01*
X111198899Y-77038932D01*
X111448192Y-77172182D01*
X111718691Y-77254236D01*
X111929508Y-77275000D01*
X112070492Y-77275000D01*
X112281309Y-77254236D01*
X112551808Y-77172182D01*
X112801101Y-77038932D01*
X113019608Y-76859608D01*
X113198932Y-76641101D01*
X113332182Y-76391808D01*
X113414236Y-76121309D01*
X113441943Y-75840000D01*
X116558057Y-75840000D01*
X116585764Y-76121309D01*
X116667818Y-76391808D01*
X116801068Y-76641101D01*
X116980392Y-76859608D01*
X117198899Y-77038932D01*
X117448192Y-77172182D01*
X117718691Y-77254236D01*
X117929508Y-77275000D01*
X118070492Y-77275000D01*
X118281309Y-77254236D01*
X118551808Y-77172182D01*
X118801101Y-77038932D01*
X119019608Y-76859608D01*
X119198932Y-76641101D01*
X119332182Y-76391808D01*
X119414236Y-76121309D01*
X119441943Y-75840000D01*
X119414236Y-75558691D01*
X119332182Y-75288192D01*
X119198932Y-75038899D01*
X119019608Y-74820392D01*
X118801101Y-74641068D01*
X118551808Y-74507818D01*
X118281309Y-74425764D01*
X118070492Y-74405000D01*
X117929508Y-74405000D01*
X117718691Y-74425764D01*
X117448192Y-74507818D01*
X117198899Y-74641068D01*
X116980392Y-74820392D01*
X116801068Y-75038899D01*
X116667818Y-75288192D01*
X116585764Y-75558691D01*
X116558057Y-75840000D01*
X113441943Y-75840000D01*
X113414236Y-75558691D01*
X113332182Y-75288192D01*
X113198932Y-75038899D01*
X113019608Y-74820392D01*
X112801101Y-74641068D01*
X112551808Y-74507818D01*
X112281309Y-74425764D01*
X112070492Y-74405000D01*
X111929508Y-74405000D01*
X111718691Y-74425764D01*
X111448192Y-74507818D01*
X111198899Y-74641068D01*
X110980392Y-74820392D01*
X110801068Y-75038899D01*
X110667818Y-75288192D01*
X110585764Y-75558691D01*
X110558057Y-75840000D01*
X107151602Y-75840000D01*
X107220369Y-75582415D01*
X107242409Y-75241361D01*
X107197489Y-74902561D01*
X107087336Y-74579034D01*
X106981338Y-74380726D01*
X106706712Y-74272893D01*
X105679605Y-75300000D01*
X105320395Y-75300000D01*
X104293288Y-74272893D01*
X104018662Y-74380726D01*
X104000773Y-74417086D01*
X103981338Y-74380726D01*
X103706712Y-74272893D01*
X102679605Y-75300000D01*
X102320395Y-75300000D01*
X101293288Y-74272893D01*
X101018662Y-74380726D01*
X100867784Y-74687384D01*
X100779631Y-75017585D01*
X100757591Y-75358639D01*
X97252001Y-75358639D01*
X97252001Y-69419268D01*
X99165000Y-69419268D01*
X99165000Y-69780732D01*
X99235518Y-70135250D01*
X99373844Y-70469199D01*
X99574662Y-70769744D01*
X99830256Y-71025338D01*
X100130801Y-71226156D01*
X100464750Y-71364482D01*
X100819268Y-71435000D01*
X100901644Y-71435000D01*
X100831675Y-71603919D01*
X100765000Y-71939117D01*
X100765000Y-72280883D01*
X100831675Y-72616081D01*
X100962463Y-72931831D01*
X101152337Y-73215998D01*
X101394002Y-73457663D01*
X101678169Y-73647537D01*
X101809970Y-73702131D01*
X101779034Y-73712664D01*
X101580726Y-73818662D01*
X101472893Y-74093288D01*
X102500000Y-75120395D01*
X103527107Y-74093288D01*
X103419274Y-73818662D01*
X103185901Y-73703841D01*
X103321831Y-73647537D01*
X103605998Y-73457663D01*
X103847663Y-73215998D01*
X104003341Y-72983009D01*
X104152337Y-73205998D01*
X104394002Y-73447663D01*
X104678169Y-73637537D01*
X104823221Y-73697619D01*
X104779034Y-73712664D01*
X104580726Y-73818662D01*
X104472893Y-74093288D01*
X105500000Y-75120395D01*
X106527107Y-74093288D01*
X106419274Y-73818662D01*
X106174867Y-73698412D01*
X106321831Y-73637537D01*
X106605998Y-73447663D01*
X106847663Y-73205998D01*
X107037537Y-72921831D01*
X107168325Y-72606081D01*
X107235000Y-72270883D01*
X107235000Y-71929117D01*
X107168325Y-71593919D01*
X107037537Y-71278169D01*
X106847663Y-70994002D01*
X106605998Y-70752337D01*
X106321831Y-70562463D01*
X106006081Y-70431675D01*
X105670883Y-70365000D01*
X105329117Y-70365000D01*
X104993919Y-70431675D01*
X104678169Y-70562463D01*
X104394002Y-70752337D01*
X104152337Y-70994002D01*
X103996659Y-71226991D01*
X103847663Y-71004002D01*
X103605998Y-70762337D01*
X103321831Y-70572463D01*
X103006081Y-70441675D01*
X102670883Y-70375000D01*
X102665174Y-70375000D01*
X102764482Y-70135250D01*
X102835000Y-69780732D01*
X102835000Y-69419268D01*
X102764482Y-69064750D01*
X102626156Y-68730801D01*
X102425338Y-68430256D01*
X102169744Y-68174662D01*
X101869199Y-67973844D01*
X101535250Y-67835518D01*
X101180732Y-67765000D01*
X100819268Y-67765000D01*
X100464750Y-67835518D01*
X100130801Y-67973844D01*
X99830256Y-68174662D01*
X99574662Y-68430256D01*
X99373844Y-68730801D01*
X99235518Y-69064750D01*
X99165000Y-69419268D01*
X97252001Y-69419268D01*
X97252001Y-68592251D01*
X98418014Y-67426239D01*
X98447011Y-67402442D01*
X98490489Y-67349464D01*
X98541984Y-67286718D01*
X98612556Y-67154688D01*
X98620188Y-67129528D01*
X98656013Y-67011427D01*
X98667010Y-66899774D01*
X98667010Y-66899764D01*
X98670686Y-66862441D01*
X98667010Y-66825118D01*
X98667010Y-65174881D01*
X98670686Y-65137558D01*
X98667010Y-65100235D01*
X98667010Y-65100226D01*
X98656013Y-64988573D01*
X98612556Y-64845312D01*
X98586863Y-64797244D01*
X98541984Y-64713282D01*
X98470809Y-64626556D01*
X98447011Y-64597558D01*
X98418012Y-64573759D01*
X97958244Y-64113992D01*
X97934442Y-64084989D01*
X97818717Y-63990016D01*
X97686688Y-63919444D01*
X97543427Y-63875987D01*
X97431774Y-63864990D01*
X97431763Y-63864990D01*
X97394441Y-63861314D01*
X97357119Y-63864990D01*
X95226532Y-63864990D01*
X95189209Y-63861314D01*
X95151887Y-63864990D01*
X95151877Y-63864990D01*
X95040224Y-63875987D01*
X94896963Y-63919444D01*
X94764933Y-63990016D01*
X94681293Y-64058658D01*
X94649209Y-64084989D01*
X94625411Y-64113987D01*
X94374000Y-64365399D01*
X94314200Y-64359509D01*
X94091701Y-64381423D01*
X93877753Y-64446324D01*
X93680577Y-64551716D01*
X93641100Y-64584114D01*
X93601623Y-64551716D01*
X93404446Y-64446324D01*
X93190498Y-64381423D01*
X92968000Y-64359509D01*
X92745501Y-64381423D01*
X92531553Y-64446324D01*
X92334377Y-64551716D01*
X92161551Y-64693551D01*
X92019716Y-64866377D01*
X91914324Y-65063554D01*
X91849423Y-65277502D01*
X91843419Y-65338463D01*
X91793723Y-65365026D01*
X91710083Y-65433668D01*
X91677999Y-65459999D01*
X91654201Y-65488997D01*
X90289198Y-66854001D01*
X89950802Y-66854001D01*
X89975434Y-66794534D01*
X90034000Y-66500101D01*
X90034000Y-66199899D01*
X89975434Y-65905466D01*
X89860551Y-65628115D01*
X89693768Y-65378507D01*
X89481493Y-65166232D01*
X89231885Y-64999449D01*
X88954534Y-64884566D01*
X88660101Y-64826000D01*
X88359899Y-64826000D01*
X88065466Y-64884566D01*
X87788115Y-64999449D01*
X87538507Y-65166232D01*
X87326232Y-65378507D01*
X87159449Y-65628115D01*
X87044566Y-65905466D01*
X86986000Y-66199899D01*
X86986000Y-66500101D01*
X87044566Y-66794534D01*
X87069198Y-66854001D01*
X74263324Y-66854001D01*
X74225999Y-66850325D01*
X74188674Y-66854001D01*
X74188666Y-66854001D01*
X74077013Y-66864998D01*
X73933752Y-66908455D01*
X73801723Y-66979027D01*
X73685998Y-67074000D01*
X73662200Y-67102998D01*
X69325906Y-71439292D01*
X69281309Y-71425764D01*
X69070492Y-71405000D01*
X68929508Y-71405000D01*
X68718691Y-71425764D01*
X68448192Y-71507818D01*
X68198899Y-71641068D01*
X67980392Y-71820392D01*
X67801068Y-72038899D01*
X67667818Y-72288192D01*
X67585764Y-72558691D01*
X67558057Y-72840000D01*
X67585764Y-73121309D01*
X67626319Y-73255001D01*
X66489803Y-73255001D01*
X66400708Y-73165906D01*
X66414236Y-73121309D01*
X66441943Y-72840000D01*
X66414236Y-72558691D01*
X66332182Y-72288192D01*
X66198932Y-72038899D01*
X66019608Y-71820392D01*
X65801101Y-71641068D01*
X65551808Y-71507818D01*
X65281309Y-71425764D01*
X65070492Y-71405000D01*
X64929508Y-71405000D01*
X64718691Y-71425764D01*
X64448192Y-71507818D01*
X64198899Y-71641068D01*
X63980392Y-71820392D01*
X63801068Y-72038899D01*
X63667818Y-72288192D01*
X63585764Y-72558691D01*
X63558057Y-72840000D01*
X63585764Y-73121309D01*
X63667818Y-73391808D01*
X63801068Y-73641101D01*
X63894551Y-73755011D01*
X62989813Y-73755011D01*
X62400708Y-73165906D01*
X62414236Y-73121309D01*
X62441943Y-72840000D01*
X62414236Y-72558691D01*
X62332182Y-72288192D01*
X62198932Y-72038899D01*
X62019608Y-71820392D01*
X61801101Y-71641068D01*
X61551808Y-71507818D01*
X61281309Y-71425764D01*
X61070492Y-71405000D01*
X60929508Y-71405000D01*
X60718691Y-71425764D01*
X60448192Y-71507818D01*
X60198899Y-71641068D01*
X59980392Y-71820392D01*
X59801068Y-72038899D01*
X59667818Y-72288192D01*
X59585764Y-72558691D01*
X59558057Y-72840000D01*
X59585764Y-73121309D01*
X59667818Y-73391808D01*
X59801068Y-73641101D01*
X59980392Y-73859608D01*
X60198899Y-74038932D01*
X60448192Y-74172182D01*
X60718691Y-74254236D01*
X60929508Y-74275000D01*
X61070492Y-74275000D01*
X61281309Y-74254236D01*
X61325906Y-74240708D01*
X62111212Y-75026014D01*
X62135010Y-75055012D01*
X62250735Y-75149985D01*
X62382764Y-75220557D01*
X62526025Y-75264014D01*
X62637678Y-75275011D01*
X62637687Y-75275011D01*
X62675010Y-75278687D01*
X62712333Y-75275011D01*
X71947667Y-75275011D01*
X71984989Y-75278687D01*
X72022311Y-75275011D01*
X72022322Y-75275011D01*
X72133975Y-75264014D01*
X72277236Y-75220557D01*
X72409265Y-75149985D01*
X72524990Y-75055012D01*
X72548793Y-75026008D01*
X74120801Y-73454001D01*
X87074168Y-73454001D01*
X87044566Y-73525466D01*
X86986000Y-73819899D01*
X86986000Y-73888868D01*
X83236865Y-77638004D01*
X83193551Y-77673551D01*
X83051716Y-77846377D01*
X82951431Y-78034000D01*
X82946324Y-78043554D01*
X82881423Y-78257502D01*
X82859509Y-78480000D01*
X82865000Y-78535752D01*
X82865001Y-81484239D01*
X82859509Y-81540000D01*
X82881423Y-81762498D01*
X82946324Y-81976446D01*
X82964260Y-82010001D01*
X83051717Y-82173623D01*
X83193552Y-82346449D01*
X83236860Y-82381991D01*
X85997857Y-85142989D01*
X85997862Y-85142993D01*
X86126000Y-85271131D01*
X86126000Y-85340101D01*
X86184566Y-85634534D01*
X86299449Y-85911885D01*
X86466232Y-86161493D01*
X86678507Y-86373768D01*
X86807562Y-86460000D01*
X86678507Y-86546232D01*
X86466232Y-86758507D01*
X86299449Y-87008115D01*
X86184566Y-87285466D01*
X86126000Y-87579899D01*
X86126000Y-87671198D01*
X79204802Y-80750001D01*
X79180999Y-80720997D01*
X79065274Y-80626024D01*
X78933245Y-80555452D01*
X78789984Y-80511995D01*
X78678331Y-80500998D01*
X78678320Y-80500998D01*
X78640998Y-80497322D01*
X78603676Y-80500998D01*
X61037325Y-80500998D01*
X61000000Y-80497322D01*
X60962675Y-80500998D01*
X60962667Y-80500998D01*
X60851014Y-80511995D01*
X60707753Y-80555452D01*
X60575724Y-80626024D01*
X60459999Y-80720997D01*
X60436201Y-80749995D01*
X58760000Y-82426197D01*
X58760000Y-68632138D01*
X59065300Y-68937438D01*
X59562388Y-69269582D01*
X60114723Y-69498367D01*
X60701079Y-69615000D01*
X61298921Y-69615000D01*
X61885277Y-69498367D01*
X62437612Y-69269582D01*
X62934700Y-68937438D01*
X63357438Y-68514700D01*
X63689582Y-68017612D01*
X63918367Y-67465277D01*
X64035000Y-66878921D01*
X64035000Y-66281079D01*
X63918367Y-65694723D01*
X63888363Y-65622285D01*
X64165000Y-65622285D01*
X64165000Y-66377715D01*
X64312377Y-67118628D01*
X64601467Y-67816554D01*
X65021161Y-68444670D01*
X65555330Y-68978839D01*
X66183446Y-69398533D01*
X66881372Y-69687623D01*
X67622285Y-69835000D01*
X68377715Y-69835000D01*
X69118628Y-69687623D01*
X69816554Y-69398533D01*
X70444670Y-68978839D01*
X70978839Y-68444670D01*
X71398533Y-67816554D01*
X71687623Y-67118628D01*
X71835000Y-66377715D01*
X71835000Y-65622285D01*
X71687623Y-64881372D01*
X71398533Y-64183446D01*
X70978839Y-63555330D01*
X70444670Y-63021161D01*
X69816554Y-62601467D01*
X69118628Y-62312377D01*
X68377715Y-62165000D01*
X67622285Y-62165000D01*
X66881372Y-62312377D01*
X66183446Y-62601467D01*
X65555330Y-63021161D01*
X65021161Y-63555330D01*
X64601467Y-64183446D01*
X64312377Y-64881372D01*
X64165000Y-65622285D01*
X63888363Y-65622285D01*
X63689582Y-65142388D01*
X63357438Y-64645300D01*
X62934700Y-64222562D01*
X62437612Y-63890418D01*
X61885277Y-63661633D01*
X61298921Y-63545000D01*
X60701079Y-63545000D01*
X60114723Y-63661633D01*
X59562388Y-63890418D01*
X59065300Y-64222562D01*
X58642562Y-64645300D01*
X58310418Y-65142388D01*
X58081633Y-65694723D01*
X57965000Y-66281079D01*
X57965000Y-66878921D01*
X58081633Y-67465277D01*
X58093337Y-67493533D01*
X53873805Y-63274002D01*
X53850002Y-63244998D01*
X53734277Y-63150025D01*
X53602248Y-63079453D01*
X53458987Y-63035996D01*
X53347334Y-63024999D01*
X53347323Y-63024999D01*
X53310001Y-63021323D01*
X53272679Y-63024999D01*
X49257321Y-63024999D01*
X49219998Y-63021323D01*
X49182675Y-63024999D01*
X49182666Y-63024999D01*
X49071013Y-63035996D01*
X48927752Y-63079453D01*
X48795723Y-63150025D01*
X48679998Y-63244998D01*
X48656200Y-63273997D01*
X48089077Y-63841119D01*
X47894463Y-63711082D01*
X47596912Y-63587832D01*
X47281033Y-63525000D01*
X46958967Y-63525000D01*
X46643088Y-63587832D01*
X46345537Y-63711082D01*
X46077748Y-63890013D01*
X45850013Y-64117748D01*
X45735000Y-64289877D01*
X45619987Y-64117748D01*
X45392252Y-63890013D01*
X45124463Y-63711082D01*
X44826912Y-63587832D01*
X44511033Y-63525000D01*
X44188967Y-63525000D01*
X43873088Y-63587832D01*
X43575537Y-63711082D01*
X43307748Y-63890013D01*
X43080013Y-64117748D01*
X42901082Y-64385537D01*
X42777832Y-64683088D01*
X42715000Y-64998967D01*
X42715000Y-65321033D01*
X42777832Y-65636912D01*
X42901082Y-65934463D01*
X43080013Y-66202252D01*
X43272986Y-66395225D01*
X43121033Y-66365000D01*
X42798967Y-66365000D01*
X42483088Y-66427832D01*
X42185537Y-66551082D01*
X41917748Y-66730013D01*
X41690013Y-66957748D01*
X41511082Y-67225537D01*
X41387832Y-67523088D01*
X41325000Y-67838967D01*
X38763579Y-67838967D01*
X38918367Y-67465277D01*
X39035000Y-66878921D01*
X39035000Y-66281079D01*
X38918367Y-65694723D01*
X38689582Y-65142388D01*
X38357438Y-64645300D01*
X37934700Y-64222562D01*
X37437612Y-63890418D01*
X36885277Y-63661633D01*
X36298921Y-63545000D01*
X35701079Y-63545000D01*
X35114723Y-63661633D01*
X34562388Y-63890418D01*
X34065300Y-64222562D01*
X33710000Y-64577862D01*
X33710000Y-60710000D01*
X121290001Y-60710000D01*
X121290000Y-112873000D01*
M02*
