M48
; DRILL file {KiCad 5.1.4-e60b266~84~ubuntu18.04.1} date Mon 04 Nov 2019 03:25:01 PM CET
; FORMAT={-:-/ absolute / metric / decimal}
; #@! TF.CreationDate,2019-11-04T15:25:01+01:00
; #@! TF.GenerationSoftware,Kicad,Pcbnew,5.1.4-e60b266~84~ubuntu18.04.1
; #@! TF.FileFunction,Plated,1,2,PTH
FMAT,2
METRIC
T1C0.400
T2C0.500
T3C0.700
T4C0.800
T5C0.900
T6C1.000
T7C1.016
T8C1.100
T9C1.300
T10C1.400
T11C1.524
T12C3.200
%
G90
G05
T1
X58.0Y-112.0
X67.0Y-101.0
T2
X76.6Y-144.0
X77.303Y-142.303
X77.303Y-145.697
X79.0Y-141.6
X79.0Y-146.4
X80.697Y-142.303
X80.697Y-145.697
X81.4Y-144.0
X65.6Y-66.0
X66.303Y-64.303
X66.303Y-67.697
X68.0Y-63.6
X68.0Y-68.4
X69.697Y-64.303
X69.697Y-67.697
X70.4Y-66.0
X101.6Y-87.0
X102.303Y-85.303
X102.303Y-88.697
X104.0Y-84.6
X104.0Y-89.4
X105.697Y-85.303
X105.697Y-88.697
X106.4Y-87.0
T3
X92.968Y-66.0
X94.314Y-66.0
X95.686Y-66.0
X97.032Y-66.0
T4
X65.0Y-72.84
X65.0Y-83.0
X69.0Y-72.84
X69.0Y-83.0
X102.34Y-138.5
X112.5Y-138.5
X118.0Y-75.84
X118.0Y-86.0
X112.0Y-75.84
X112.0Y-86.0
X77.5Y-134.0
X81.0Y-134.0
X116.0Y-148.5
X116.0Y-152.0
X85.24Y-136.73
X85.24Y-139.27
X92.76Y-136.73
X92.76Y-139.27
X80.0Y-117.84
X80.0Y-128.0
X76.0Y-117.84
X76.0Y-128.0
X115.23Y-136.74
X115.23Y-144.26
X117.77Y-136.74
X117.77Y-144.26
X61.0Y-72.84
X61.0Y-83.0
T5
X84.5Y-117.84
X84.5Y-128.0
T6
X51.27Y-102.35
X51.27Y-104.89
X51.27Y-107.43
X51.27Y-109.97
X51.27Y-112.51
X51.27Y-115.05
X51.27Y-117.59
X51.27Y-120.13
X51.27Y-122.67
X51.27Y-125.21
X51.27Y-127.75
X51.27Y-130.29
X51.27Y-132.83
X51.27Y-135.37
X51.27Y-137.91
X51.27Y-140.45
X71.59Y-112.51
X71.59Y-115.05
X71.59Y-117.59
X71.59Y-120.13
X71.59Y-122.67
X71.59Y-125.21
X71.59Y-127.75
X71.59Y-130.29
X71.59Y-132.83
X71.59Y-135.37
X71.59Y-137.91
X71.59Y-140.45
T7
X88.51Y-66.35
X88.51Y-68.89
X88.51Y-71.43
X88.51Y-73.97
X88.51Y-76.51
X87.54Y-96.27
X87.54Y-98.81
X87.54Y-101.35
X87.54Y-103.89
X87.54Y-106.43
X87.54Y-108.97
X87.54Y-111.51
X53.064Y-80.79
X53.064Y-83.33
X53.064Y-85.87
X53.064Y-88.41
X53.064Y-90.95
X95.228Y-80.79
X95.228Y-83.33
X95.228Y-85.87
X95.228Y-88.41
X74.35Y-85.19
X74.35Y-87.73
X74.35Y-90.27
X74.35Y-92.81
X87.65Y-85.19
X87.65Y-87.73
X87.65Y-90.27
X87.65Y-92.81
T8
X42.96Y-68.0
X44.35Y-65.16
X45.73Y-68.0
X47.12Y-65.16
X48.5Y-68.0
X49.88Y-65.16
X51.27Y-68.0
X52.65Y-65.16
X54.04Y-68.0
T9
X108.0Y-107.0
X113.0Y-107.0
X102.5Y-72.11
X102.5Y-75.3
X102.5Y-78.5
X105.5Y-72.1
X105.5Y-75.3
X105.5Y-78.5
T10
X101.0Y-69.6
X107.0Y-81.0
T11
X79.0Y-152.0
X84.08Y-152.0
X89.0Y-143.0
X89.0Y-149.35
X108.05Y-143.0
X108.05Y-152.525
X67.0Y-152.0
X72.08Y-152.0
T12
X36.0Y-66.58
X61.0Y-66.58
X79.0Y-144.0
X98.0Y-113.0
X98.0Y-135.0
X120.0Y-131.0
X68.0Y-66.0
X104.0Y-87.0
T0
M30
