<?xml version="1.0" encoding="UTF-8" standalone="no"?>
<!-- Created with Inkscape (http://www.inkscape.org/) -->

<svg
   xmlns:dc="http://purl.org/dc/elements/1.1/"
   xmlns:cc="http://creativecommons.org/ns#"
   xmlns:rdf="http://www.w3.org/1999/02/22-rdf-syntax-ns#"
   xmlns:svg="http://www.w3.org/2000/svg"
   xmlns="http://www.w3.org/2000/svg"
   xmlns:sodipodi="http://sodipodi.sourceforge.net/DTD/sodipodi-0.dtd"
   xmlns:inkscape="http://www.inkscape.org/namespaces/inkscape"
   width="210mm"
   height="297mm"
   viewBox="0 0 744.09448819 1052.3622047"
   id="svg4145"
   version="1.1"
   inkscape:version="0.91 r"
   sodipodi:docname="O2.svg">
  <defs
     id="defs4147" />
  <sodipodi:namedview
     id="base"
     pagecolor="#ffffff"
     bordercolor="#666666"
     borderopacity="1.0"
     inkscape:pageopacity="0.0"
     inkscape:pageshadow="2"
     inkscape:zoom="8"
     inkscape:cx="120.26022"
     inkscape:cy="990.72042"
     inkscape:document-units="px"
     inkscape:current-layer="layer1"
     showgrid="false"
     showguides="true"
     inkscape:guide-bbox="true">
    <sodipodi:guide
       position="72.4607,968.52822"
       orientation="1,0"
       id="guide4928" />
    <sodipodi:guide
       position="96.614267,961.96799"
       orientation="0,1"
       id="guide4932" />
  </sodipodi:namedview>
  <metadata
     id="metadata4150">
    <rdf:RDF>
      <cc:Work
         rdf:about="">
        <dc:format>image/svg+xml</dc:format>
        <dc:type
           rdf:resource="http://purl.org/dc/dcmitype/StillImage" />
        <dc:title />
      </cc:Work>
    </rdf:RDF>
  </metadata>
  <g
     inkscape:label="Layer 1"
     inkscape:groupmode="layer"
     id="layer1">
    <g
       id="g4169">
      <g
         id="text4861-1"
         style="font-style:normal;font-variant:normal;font-weight:normal;font-stretch:normal;font-size:21.75400543px;font-family:'Myriad Pro';-inkscape-font-specification:'Myriad Pro';fill:#999999;fill-opacity:1;stroke:#000000;stroke-width:0.35433072;stroke-miterlimit:4;stroke-dasharray:none;stroke-opacity:1"
         transform="matrix(0.99849484,0,0,1.0015074,-4.4378837,0)">
        <path
           inkscape:connector-curvature="0"
           id="path4950"
           style="font-style:normal;font-variant:normal;font-weight:normal;font-stretch:normal;font-family:'Oblivious font';-inkscape-font-specification:'Oblivious font';stroke-width:0.35433072;stroke-miterlimit:4;stroke-dasharray:none"
           d="m 107.62643,69.560466 q 0,0.97893 -1.17472,2.131892 -1.15296,1.152963 -2.13189,1.152963 l -6.939526,0 q -0.978931,0 -2.153647,-1.174717 -1.152962,-1.152962 -1.152962,-2.131892 l 0,-12.399783 q 0,-1.044193 1.19647,-2.175401 1.218224,-1.131208 2.284171,-1.131208 l 6.591464,0 q 1.06595,0 2.26242,1.131208 1.21822,1.109454 1.21822,2.153647 l 0,12.443291 z m -2.63223,-0.261048 0,-11.899441 q 0,-0.261048 -0.43508,-0.587358 -0.41333,-0.32631 -0.67438,-0.32631 l -6.047612,0 q -0.282802,0 -0.717883,0.32631 -0.413326,0.32631 -0.413326,0.609112 l 0,11.855933 q 0,0.174032 0.369818,0.565604 0.391573,0.369818 0.565605,0.369818 l 6.417428,0 q 0.15228,0 0.54385,-0.369818 0.39158,-0.391572 0.39158,-0.54385 z" />
        <path
           inkscape:connector-curvature="0"
           id="path4952"
           style="font-style:normal;font-variant:normal;font-weight:normal;font-stretch:normal;font-size:14.14010429px;font-family:'Oblivious font';-inkscape-font-specification:'Oblivious font';baseline-shift:sub;stroke-width:0.35433072;stroke-miterlimit:4;stroke-dasharray:none"
           d="m 118.22479,69.137609 q 0,0.628318 -0.7712,1.399436 -0.7712,0.756838 -1.39959,0.756838 l -4.38443,0 q -0.1,0 -0.35703,0.257039 -0.25708,0.24276 -0.25708,0.34272 l 0,3.027352 5.39842,0 q 0.0572,-0.11424 0.0572,-0.48552 l 0,-0.542638 q 0.0714,-0.728278 0.81405,-0.728278 0.71408,0 0.89974,0.642599 l 0,2.199114 q 0,0.171359 -0.25707,0.414119 -0.24279,0.242759 -0.41416,0.242759 l -7.55492,0 q -0.1571,0 -0.41417,-0.257039 -0.25707,-0.25704 -0.25707,-0.414119 l 0,-4.255429 q 0,-0.642598 0.75693,-1.399437 0.77119,-0.771117 1.41387,-0.771117 l 4.38442,0 q 0.1,0 0.35704,-0.25704 0.25706,-0.257039 0.25706,-0.356999 l 0,-2.413313 q 0,-0.11424 -0.25706,-0.357 -0.24279,-0.257039 -0.35704,-0.257039 l -4.21305,0 q -0.49986,0.242759 -0.57126,0.656878 -0.11426,0.656879 -0.17138,0.771119 -0.21422,0.342718 -0.72835,0.342718 -0.91402,0 -0.91402,-0.971037 0,-0.885357 0.72836,-1.713596 0.72835,-0.828238 1.59953,-0.828238 l 4.3273,0 q 0.69979,0 1.48527,0.742559 0.79977,0.728278 0.79977,1.413716 l 0,2.798873 z" />
      </g>
      <g
         id="text4152"
         style="font-style:normal;font-variant:normal;font-weight:normal;font-stretch:normal;font-size:35.24895096px;font-family:'Myriad Pro';-inkscape-font-specification:'Myriad Pro';fill:#999999;fill-opacity:1;stroke:#000000;stroke-width:0.35433071;stroke-miterlimit:4;stroke-dasharray:none;stroke-opacity:1"
         transform="scale(0.94566197,1.0574603)">
        <path
           id="path4165"
           style="font-style:normal;font-variant:normal;font-weight:normal;font-stretch:normal;font-family:'Oblivious font';-inkscape-font-specification:'Oblivious font';stroke-width:0.35433071;stroke-miterlimit:4;stroke-dasharray:none"
           d="m 78.35814,63.150648 q 0.246742,0.31724 0.246742,0.98697 0,0.66973 -0.246742,0.951722 -1.198465,1.409958 -5.357841,5.39309 -0.281991,0.281991 -0.740228,0.281991 -0.845975,0 -1.656701,-0.810726 -0.810725,-0.810726 -0.810725,-1.6567 0,-0.422988 0.281991,-0.740228 0,0 3.383899,-3.3839 -1.33946,-1.198464 -3.383899,-3.524895 -0.211494,-0.246742 -0.211494,-0.810726 0,-2.00919 1.656701,-2.291181 1.02222,-0.176245 1.480456,0.211493 2.925663,2.432178 5.357841,5.39309 z" />
        <path
           id="path4167"
           style="font-style:normal;font-variant:normal;font-weight:normal;font-stretch:normal;font-family:'Oblivious font';-inkscape-font-specification:'Oblivious font';stroke-width:0.35433071;stroke-miterlimit:4;stroke-dasharray:none"
           d="m 140.66341,63.150648 q 0.24675,0.31724 0.24675,0.98697 0,0.66973 -0.24675,0.951722 -1.19846,1.409958 -5.35784,5.39309 -0.28199,0.281991 -0.74022,0.281991 -0.84598,0 -1.6567,-0.810726 -0.81073,-0.810726 -0.81073,-1.6567 0,-0.422988 0.28199,-0.740228 0,0 3.3839,-3.3839 -1.33946,-1.198464 -3.3839,-3.524895 -0.21149,-0.246742 -0.21149,-0.810726 0,-2.00919 1.6567,-2.291181 1.02222,-0.176245 1.48045,0.211493 2.92567,2.432178 5.35784,5.39309 z" />
      </g>
    </g>
    <g
       transform="matrix(1.6438553,0,0,1.6259501,-66.4201,-39.672094)"
       style="font-style:normal;font-variant:normal;font-weight:normal;font-stretch:normal;font-size:14.46291637px;font-family:'Oblivious font';-inkscape-font-specification:'Oblivious font';fill:#999999;fill-opacity:1;stroke:#000000;stroke-width:0.21673219;stroke-miterlimit:4;stroke-dasharray:none;stroke-opacity:1"
       id="text4177" />
    <g
       style="font-style:normal;font-variant:normal;font-weight:normal;font-stretch:normal;font-size:8.75px;font-family:'Oblivious font';-inkscape-font-specification:'Oblivious font';fill:#999999;fill-opacity:1;stroke:#000000;stroke-width:0.20884299;stroke-miterlimit:4;stroke-dasharray:none;stroke-opacity:1"
       id="text4184"
       transform="matrix(1.7028001,0,0,1.6904958,-78.767152,-10.622849)">
      <path
         d="m 113.28503,47.100249 q 0,0.385 -0.4725,0.8575 -0.4725,0.46375 -0.8575,0.46375 l -2.68625,0 q -0.0613,0 -0.21875,0.1575 -0.1575,0.14875 -0.1575,0.21 l 0,1.855 3.3075,0 q 0.035,-0.07 0.035,-0.2975 l 0,-0.3325 q 0.0438,-0.44625 0.49875,-0.44625 0.4375,0 0.55125,0.39375 l 0,1.3475 q 0,0.105 -0.1575,0.25375 -0.14875,0.14875 -0.25375,0.14875 l -4.62875,0 q -0.0962,0 -0.25375,-0.1575 -0.1575,-0.1575 -0.1575,-0.25375 l 0,-2.6075 q 0,-0.39375 0.46375,-0.8575 0.4725,-0.4725 0.86625,-0.4725 l 2.68625,0 q 0.0613,0 0.21875,-0.1575 0.1575,-0.1575 0.1575,-0.21875 l 0,-1.47875 q 0,-0.07 -0.1575,-0.21875 -0.14875,-0.1575 -0.21875,-0.1575 l -2.58125,0 q -0.30625,0.14875 -0.35,0.4025 -0.07,0.4025 -0.105,0.4725 -0.13125,0.21 -0.44625,0.21 -0.56,0 -0.56,-0.595 0,-0.5425 0.44625,-1.05 0.44625,-0.5075 0.98,-0.5075 l 2.65125,0 q 0.42875,0 0.91,0.455 0.49,0.44625 0.49,0.86625 l 0,1.715 z"
         id="path4192"
         inkscape:connector-curvature="0"
         style="stroke-width:0.11988869" />
    </g>
  </g>
</svg>
