<?xml version="1.0" encoding="UTF-8" standalone="no"?>
<svg
   xmlns:dc="http://purl.org/dc/elements/1.1/"
   xmlns:cc="http://creativecommons.org/ns#"
   xmlns:rdf="http://www.w3.org/1999/02/22-rdf-syntax-ns#"
   xmlns:svg="http://www.w3.org/2000/svg"
   xmlns="http://www.w3.org/2000/svg"
   version="1.1"
   id="svg4145"
   viewBox="0 0 744.09448819 1052.3622047"
   height="297mm"
   width="210mm">
  <defs
     id="defs4147" />
  <metadata
     id="metadata4150">
    <rdf:RDF>
      <cc:Work
         rdf:about="">
        <dc:format>image/svg+xml</dc:format>
        <dc:type
           rdf:resource="http://purl.org/dc/dcmitype/StillImage" />
        <dc:title></dc:title>
      </cc:Work>
    </rdf:RDF>
  </metadata>
  <g
     id="layer1">
    <path
       id="path4774-5"
       d="m 52.555535,73.403362 c -2.122,-0.285456 -4.12651,-1.480896 -5.41374,-3.22862 -0.3466,-0.470595 -0.5462,-0.80579 -0.81224,-1.364027 -0.49151,-1.031335 -0.72704,-1.997524 -0.77511,-3.179706 -0.0907,-2.229284 0.76207,-4.413623 2.34964,-6.018736 0.54244,-0.548425 0.69179,-0.630717 1.1447,-0.630717 0.28575,0 0.35086,0.0125 0.51555,0.09906 0.24063,0.126448 0.42236,0.314171 0.54318,0.561125 0.0787,0.160911 0.0955,0.245976 0.0955,0.48384 0,0.406791 -0.0882,0.567305 -0.59972,1.091859 -0.82157,0.842456 -1.30616,1.706545 -1.57205,2.803162 -0.50126,2.067415 0.24605,4.347639 1.87477,5.720422 0.77854,0.656202 1.61155,1.067504 2.61884,1.293071 0.32929,0.07374 0.47273,0.08418 1.15719,0.08418 0.82487,0 1.14437,-0.04382 1.75084,-0.240145 2.97209,-0.962119 4.67209,-4.063455 3.86046,-7.042712 -0.28275,-1.037852 -0.72764,-1.796728 -1.54694,-2.638727 -0.47978,-0.493062 -0.57506,-0.670548 -0.57506,-1.071105 0,-0.454728 0.23028,-0.834062 0.63523,-1.046368 0.15623,-0.08191 0.22753,-0.09541 0.50875,-0.09634 0.42563,-0.0015 0.58328,0.07448 1.01284,0.487501 1.25236,1.204146 2.07629,2.76476 2.38917,4.525359 0.0723,0.406596 0.084,0.593917 0.084,1.344558 0,0.750646 -0.0117,0.937963 -0.084,1.344563 -0.40343,2.270094 -1.63052,4.157648 -3.5292,5.428735 -1.00423,0.672291 -2.11503,1.101168 -3.30425,1.275766 -0.59409,0.08723 -1.73314,0.09408 -2.32837,0.01398 z m 0.69893,-9.302639 c -0.22124,-0.08125 -0.52643,-0.373557 -0.63054,-0.603925 l -0.0866,-0.191512 0,-3.179704 c 0,-3.040268 0.003,-3.187578 0.0692,-3.359271 0.13561,-0.351632 0.48566,-0.637631 0.86455,-0.706357 0.5266,-0.09552 1.03034,0.158772 1.27005,0.641132 l 0.0855,0.172114 0,3.234211 0,3.234213 -0.0983,0.186357 c -0.11843,0.224493 -0.26851,0.380237 -0.49348,0.512075 -0.14367,0.0842 -0.21496,0.0997 -0.49661,0.107959 -0.22917,0.0067 -0.37585,-0.0076 -0.4839,-0.04729 z"
       style="fill:#000000" />
  </g>
</svg>
