<?xml version="1.0" encoding="UTF-8" standalone="no"?>
<!-- Created with Inkscape (http://www.inkscape.org/) -->

<svg
   xmlns:dc="http://purl.org/dc/elements/1.1/"
   xmlns:cc="http://creativecommons.org/ns#"
   xmlns:rdf="http://www.w3.org/1999/02/22-rdf-syntax-ns#"
   xmlns:svg="http://www.w3.org/2000/svg"
   xmlns="http://www.w3.org/2000/svg"
   xmlns:sodipodi="http://sodipodi.sourceforge.net/DTD/sodipodi-0.dtd"
   xmlns:inkscape="http://www.inkscape.org/namespaces/inkscape"
   width="210mm"
   height="297mm"
   viewBox="0 0 744.09448819 1052.3622047"
   id="svg2"
   version="1.1"
   inkscape:version="0.91 r"
   sodipodi:docname="type.svg">
  <defs
     id="defs4" />
  <sodipodi:namedview
     id="base"
     pagecolor="#ffffff"
     bordercolor="#666666"
     borderopacity="1.0"
     inkscape:pageopacity="0.0"
     inkscape:pageshadow="2"
     inkscape:zoom="1.676771"
     inkscape:cx="225.29868"
     inkscape:cy="968.48921"
     inkscape:document-units="px"
     inkscape:current-layer="layer1"
     showgrid="false" />
  <metadata
     id="metadata7">
    <rdf:RDF>
      <cc:Work
         rdf:about="">
        <dc:format>image/svg+xml</dc:format>
        <dc:type
           rdf:resource="http://purl.org/dc/dcmitype/StillImage" />
        <dc:title></dc:title>
      </cc:Work>
    </rdf:RDF>
  </metadata>
  <g
     inkscape:label="Layer 1"
     inkscape:groupmode="layer"
     id="layer1">
    <text
       xml:space="preserve"
       style="font-style:normal;font-variant:normal;font-weight:normal;font-stretch:normal;font-size:8.75px;font-family:'Myriad Pro';-inkscape-font-specification:'Myriad Pro';fill:#999999;fill-opacity:1;stroke:#000000;stroke-width:1;stroke-miterlimit:4;stroke-dasharray:none;stroke-opacity:1"
       x="178.91531"
       y="372.48404"
       id="text4136"><tspan
         sodipodi:role="line"
         id="tspan4138"
         x="178.91531"
         y="372.48404" /></text>
    <g
       style="font-style:normal;font-variant:normal;font-weight:normal;font-stretch:normal;font-size:8.75px;font-family:'Myriad Pro';-inkscape-font-specification:'Myriad Pro';fill:#999999;fill-opacity:1;stroke:#000000;stroke-width:2.90516782;stroke-miterlimit:4;stroke-dasharray:none;stroke-opacity:1"
       id="text4140"
       transform="matrix(0.35027415,0,0,0.33825904,64.710431,31.853075)">
      <path
         d="m 132.30368,91.654234 q 0,0.84 -0.945,1.5225 -0.945,0.735 -1.89,0.8925 -1.365,0.105 -1.785,-0.2625 -2.2575,-1.995 -5.88,-5.7225 l -5.7225,-5.88 q -3.9375,3.885 -11.865,11.6025 -0.2625,0.2625 -1.1025,0.2625 -0.9975,0.1575 -2.2575,-0.6825 -1.259996,-0.7875 -1.259996,-1.785 l 0,-40.95 q 0,-0.7875 0.997496,-1.575 0.9975,-0.84 1.8375,-0.8925 0.2625,-0.0525 0.525,-0.0525 0.945,0 1.995,0.8925 1.26,1.2075 0.9975,2.0475 l 0.1575,32.1825 q 1.575,-1.68 4.935,-5.3025 3.045,-3.3075 4.62,-3.3075 1.68,-0.0525 4.83,3.2025 1.785,1.785 5.3025,5.4075 l 0.1575,-32.1825 q 0.2625,-2.4675 2.835,-2.8875 0.945,-0.1575 2.205,0.6825 1.3125,0.7875 1.3125,1.7325 l 0,41.055 z"
         style="font-style:normal;font-variant:normal;font-weight:normal;font-stretch:normal;font-size:52.5px;font-family:'Oblivious font';-inkscape-font-specification:'Oblivious font';stroke-width:2.90516782"
         id="path4145"
         inkscape:connector-curvature="0" />
      <path
         d="m 169.21775,91.654234 q 0,0.63 -0.945,1.5225 -0.8925,0.8925 -1.5225,0.8925 l -22.26,0 q -2.3625,0 -5.1975,-2.835 -2.7825,-2.7825 -2.7825,-5.145 l 0,-3.57 q 0,-2.31 2.835,-5.145 2.835,-2.835 5.145,-2.835 l 18.375,0 0,-4.515 q 0,-0.42 -0.945,-1.3125 -0.8925,-0.945 -1.3125,-0.945 l -15.015,0 q -0.8925,0 -1.575,-0.945 -0.6825,-0.945 -0.8925,-1.9425 -0.105,-1.3125 0.735,-2.415 0.84,-1.1025 2.1525,-1.1025 l 14.805,0 q 2.5725,0 5.46,2.6775 2.94,2.6775 2.94,5.25 l 0,22.365 z m -6.405,-3.9375 0,-6.7725 -17.22,0 q -0.6825,0 -1.7325,0.7875 -0.9975,0.7875 -0.9975,1.47 l 0,2.2575 q 0,0.42 0.8925,1.365 0.945,0.8925 1.365,0.8925 l 17.6925,0 z"
         style="font-style:normal;font-variant:normal;font-weight:normal;font-stretch:normal;font-size:52.5px;font-family:'Oblivious font';-inkscape-font-specification:'Oblivious font';stroke-width:2.90516782"
         id="path4147"
         inkscape:connector-curvature="0" />
      <path
         d="m 206.13427,64.616734 q 0,0.8925 -0.735,2.1525 -0.5775,0.9975 -1.155,1.995 -3.8325,8.085 -11.865,23.9925 -0.6825,1.26 -2.4675,1.26 -2.205,0 -3.255,-2.1 -3.6225,-7.1925 -13.0725,-25.935 -0.2625,-0.525 -0.2625,-1.26 0,-2.835 2.415,-3.36 0.63,-0.1575 1.6275,0.105 0.9975,0.21 1.26,0.6825 1.8375,3.4125 10.9725,21.525 1.6275,-3.045 5.1975,-10.5 3.4125,-7.0875 5.355,-10.5 0.735,-1.26 2.3625,-1.26 1.365,0 2.4675,0.945 1.155,0.945 1.155,2.2575 z"
         style="font-style:normal;font-variant:normal;font-weight:normal;font-stretch:normal;font-size:52.5px;font-family:'Oblivious font';-inkscape-font-specification:'Oblivious font';stroke-width:2.90516782"
         id="path4149"
         inkscape:connector-curvature="0" />
      <path
         d="m 241.8154,78.476734 q 0,0.63 -0.945,1.5225 -0.8925,0.8925 -1.5225,0.8925 l -23.8875,0 0,4.62 q 0,0.3675 0.945,1.3125 0.945,0.8925 1.3125,0.8925 l 15.0675,0 q 0.7875,0 1.6275,1.05 0.84,0.9975 0.84,1.785 0.1575,0.8925 -0.6825,2.205 -0.84,1.3125 -1.785,1.3125 l -15.6975,0 q -2.3625,0 -5.1975,-2.835 -2.7825,-2.7825 -2.7825,-5.145 l 0,-16.7475 q 0,-2.5725 2.8875,-5.25 2.94,-2.73 5.5125,-2.73 l 15.9075,0 q 2.5725,0 5.46,2.6775 2.94,2.6775 2.94,5.25 l 0,9.1875 z m -6.3525,-3.99 0,-4.515 q 0,-0.63 -0.9975,-1.4175 -0.9975,-0.7875 -1.68,-0.7875 l -14.595,0 q -0.6825,0 -1.68,0.84 -0.9975,0.7875 -0.9975,1.4175 l 0,4.4625 19.95,0 z"
         style="font-style:normal;font-variant:normal;font-weight:normal;font-stretch:normal;font-size:52.5px;font-family:'Oblivious font';-inkscape-font-specification:'Oblivious font';stroke-width:2.90516782"
         id="path4151"
         inkscape:connector-curvature="0" />
      <path
         d="m 280.93977,86.141734 c 0,1.575 -0.945,3.29 -2.835,5.145 -1.855,1.855 -3.57,2.7825 -5.145,2.7825 l -16.7475,0 c -1.575,0 -3.3075,-0.945 -5.1975,-2.835 -1.855,-1.855 -2.7825,-3.57 -2.7825,-5.145 l 0,-29.925 c 0,-1.68 0.9625,-3.43 2.8875,-5.25 1.96,-1.82 3.7975,-2.73 5.5125,-2.73 l 15.9075,0 c 1.715,0 3.535,0.91 5.46,2.73 1.96,1.785 2.94,3.5175 2.94,5.1975 l 0,9.1875 c -0.385,1.575 -1.435,2.3625 -3.15,2.3625 -1.61,0 -2.6775,-0.7875 -3.2025,-2.3625 l 0,-8.4525 c 0,-0.28 -0.315,-0.7175 -0.945,-1.3125 -0.595,-0.63 -1.0325,-0.945 -1.3125,-0.945 l -15.4875,0 c -0.28,0 -0.735,0.2975 -1.365,0.8925 -0.595,0.595 -0.8925,1.0325 -0.8925,1.3125 l 0,28.7175 c 0,0.28 0.2975,0.7175 0.8925,1.3125 0.63,0.595 1.085,0.8925 1.365,0.8925 l 15.4875,0 c 1.54,0 2.31,-1.6625 2.31,-4.9875 l 0,-1.1025 -0.0525,-0.5775 c -0.07,-0.035 -3.5,-0.07 -10.29,-0.105 -0.84,0 -1.54,-0.35 -2.1,-1.05 -0.49,-0.595 -0.735,-1.295 -0.735,-2.1 0,-1.785 0.7875,-2.87 2.3625,-3.255 l 14.6475,0 c 0.455,0 0.98,0.2975 1.575,0.8925 0.595,0.56 0.8925,1.0675 0.8925,1.5225 z"
         style="font-style:normal;font-variant:normal;font-weight:normal;font-stretch:normal;font-size:52.5px;font-family:'Oblivious font';-inkscape-font-specification:'Oblivious font';stroke-width:2.90516782"
         id="path4153"
         inkscape:connector-curvature="0"
         sodipodi:nodetypes="scssssscsscscscscsscsscsssccccscscss" />
      <path
         d="m 306.92771,90.551734 q 0.1575,0.8925 -0.6825,2.205 -0.84,1.3125 -1.785,1.3125 l -14.595,0 q -1.3125,0 -2.1525,-1.785 -0.21,-0.525 -0.315,-1.05 -0.1575,-0.8925 0.63,-2.205 0.84,-1.3125 1.8375,-1.3125 l 4.095,0 0,-33.1275 -4.095,0 q -0.8925,0 -1.6275,-0.945 -0.6825,-0.945 -0.84,-1.9425 -0.1575,-0.2625 -0.1575,-0.5775 0,-0.945 1.05,-1.9425 1.05,-0.9975 1.995,-0.9975 l 7.14,0 q 0.735,0 1.785,0.7875 1.1025,0.735 1.1025,1.4175 l 0,37.3275 4.1475,0 q 0.7875,0 1.6275,1.05 0.84,0.9975 0.84,1.785 z"
         style="font-style:normal;font-variant:normal;font-weight:normal;font-stretch:normal;font-size:52.5px;font-family:'Oblivious font';-inkscape-font-specification:'Oblivious font';stroke-width:2.90516782"
         id="path4155"
         inkscape:connector-curvature="0" />
      <path
         d="m 326.19811,51.071734 c 0.07,0.77 -0.1925,1.575 -0.7875,2.415 -0.595,0.84 -1.2775,1.2075 -2.0475,1.1025 -0.84,0.105 -1.61,-0.1575 -2.31,-0.7875 -0.63,-0.525 -1.0325,-1.225 -1.2075,-2.1 -0.07,-0.14 -0.105,-0.2975 -0.105,-0.4725 0,-0.63 0.35,-1.3125 1.05,-2.0475 0.7,-0.735 1.33,-1.0675 1.89,-0.9975 0.175,-0.035 0.35,-0.0525 0.525,-0.0525 0.63,0 1.295,0.2975 1.995,0.8925 0.84,0.805 1.1725,1.4875 0.9975,2.0475 z m 6.615,39.48 c 0.105,0.595 -0.1225,1.33 -0.6825,2.205 -0.56,0.875 -1.155,1.3125 -1.785,1.3125 l -14.595,0 c -0.875,0 -1.5925,-0.595 -2.1525,-1.785 -0.14,-0.35 -0.245,-0.7 -0.315,-1.05 -0.105,-0.595 0.105,-1.33 0.63,-2.205 0.56,-0.875 1.1725,-1.3125 1.8375,-1.3125 l 4.095,0 0,-20.0025 -4.095,0 c -0.595,0 -1.155,-0.3325 -1.68,-0.9975 -0.385,-0.56 -0.6475,-1.1725 -0.7875,-1.8375 -0.07,-0.875 0.175,-1.68 0.735,-2.415 0.56,-0.735 1.2775,-1.1025 2.1525,-1.1025 l 7.14,0 c 0.56,0 1.1725,0.2625 1.8375,0.7875 0.7,0.525 0.96801,1.073535 1.05,1.6275 l 0,23.94 4.1475,0 c 0.525,0 1.0675,0.35 1.6275,1.05 0.56,0.665 0.84,1.26 0.84,1.785 z"
         style="font-style:normal;font-variant:normal;font-weight:normal;font-stretch:normal;font-size:52.5px;font-family:'Oblivious font';-inkscape-font-specification:'Oblivious font';stroke-width:2.90516782"
         id="path4157"
         inkscape:connector-curvature="0"
         sodipodi:nodetypes="cscccsscscccssscccsccsccssscscscc" />
      <path
         d="m 368.70178,91.234234 c 0,0.56 -0.28,1.1725 -0.84,1.8375 -0.56,0.665 -1.1025,0.9975 -1.6275,0.9975 l -22.26,0 c -1.575,0 -3.3075,-0.945 -5.1975,-2.835 -1.855,-1.855 -2.7825,-3.57 -2.7825,-5.145 l 0,-16.7475 c 0,-1.575 0.9275,-3.29 2.7825,-5.145 1.89,-1.89 3.6225,-2.835 5.1975,-2.835 l 18.375,0 0,-10.7625 c 0.42,-1.505 1.435,-2.2575 3.045,-2.2575 0.84,0 1.5925,0.2625 2.2575,0.7875 0.7,0.49 1.05,1.1375 1.05,1.9425 z m -6.405,-3.5175 0,-19.95 -17.22,0 c -0.42,0 -0.98,0.28 -1.68,0.84 -0.7,0.525 -1.05,0.9975 -1.05,1.4175 l 0,15.435 c 0,0.28 0.2975,0.735 0.8925,1.365 0.63,0.595 1.085,0.8925 1.365,0.8925 z"
         style="font-style:normal;font-variant:normal;font-weight:normal;font-stretch:normal;font-size:52.5px;font-family:'Oblivious font';-inkscape-font-specification:'Oblivious font';stroke-width:2.90516782"
         id="path4159"
         inkscape:connector-curvature="0"
         sodipodi:nodetypes="sssssssssccscssccscsscsc" />
      <path
         d="m 405.61584,78.476734 c 0,0.42 -0.315,0.9275 -0.945,1.5225 -0.595,0.595 -1.1025,0.8925 -1.5225,0.8925 l -23.8875,0 0,4.62 c 0,0.245 0.315,0.6825 0.945,1.3125 0.63,0.595 1.0675,0.8925 1.3125,0.8925 l 15.0675,0 c 0.525,0 1.0675,0.35 1.6275,1.05 0.56,0.665 0.84,1.26 0.84,1.785 0.105,0.595 -0.1225,1.33 -0.6825,2.205 -0.56,0.875 -1.155,1.3125 -1.785,1.3125 l -15.6975,0 c -1.575,0 -3.3075,-0.945 -5.1975,-2.835 -1.855,-1.855 -2.7825,-3.57 -2.7825,-5.145 l 0,-16.7475 c 0,-1.715 0.9625,-3.465 2.8875,-5.25 1.96,-1.82 3.7975,-2.73 5.5125,-2.73 l 15.9075,0 c 1.715,0 3.535,0.8925 5.46,2.6775 1.96,1.785 2.94,3.535 2.94,5.25 z m -6.3525,-3.99 0,-4.515 c 0,-0.42 -0.3325,-0.8925 -0.9975,-1.4175 -0.665,-0.525 -1.225,-0.7875 -1.68,-0.7875 l -14.595,0 c -0.455,0 -1.015,0.28 -1.68,0.84 -0.665,0.525 -0.9975,0.9975 -0.9975,1.4175 l 0,4.4625 z"
         style="font-style:normal;font-variant:normal;font-weight:normal;font-stretch:normal;font-size:52.5px;font-family:'Oblivious font';-inkscape-font-specification:'Oblivious font';stroke-width:2.90516782"
         id="path4161"
         inkscape:connector-curvature="0"
         sodipodi:nodetypes="scscscssccsssssscsscsscsssscscc" />
    </g>
  </g>
</svg>
