G04 #@! TF.GenerationSoftware,KiCad,Pcbnew,5.1.4-e60b266~84~ubuntu18.04.1*
G04 #@! TF.CreationDate,2019-09-15T14:53:54+02:00*
G04 #@! TF.ProjectId,WaveGlideNG,57617665-476c-4696-9465-4e472e6b6963,rev?*
G04 #@! TF.SameCoordinates,Original*
G04 #@! TF.FileFunction,Copper,L2,Bot*
G04 #@! TF.FilePolarity,Positive*
%FSLAX46Y46*%
G04 Gerber Fmt 4.6, Leading zero omitted, Abs format (unit mm)*
G04 Created by KiCad (PCBNEW 5.1.4-e60b266~84~ubuntu18.04.1) date 2019-09-15 14:53:54*
%MOMM*%
%LPD*%
G04 APERTURE LIST*
%ADD10R,1.700000X1.700000*%
%ADD11O,1.700000X1.700000*%
%ADD12C,2.200000*%
%ADD13C,2.400000*%
%ADD14C,2.000000*%
%ADD15C,4.800000*%
%ADD16O,1.000000X2.000000*%
%ADD17O,1.800000X1.800000*%
%ADD18R,1.800000X1.800000*%
%ADD19O,1.600000X1.600000*%
%ADD20C,1.600000*%
%ADD21O,1.200000X2.000000*%
%ADD22O,4.000000X2.000000*%
%ADD23O,1.600000X3.000000*%
%ADD24O,2.000000X4.000000*%
%ADD25C,0.250000*%
%ADD26C,0.254000*%
G04 APERTURE END LIST*
D10*
X117735000Y-120043400D03*
D11*
X117735000Y-117503400D03*
X117735000Y-114963400D03*
X117735000Y-112423400D03*
X117735000Y-109883400D03*
X117735000Y-107343400D03*
X117735000Y-104803400D03*
X117735000Y-102263400D03*
X117735000Y-99723400D03*
X117735000Y-97183400D03*
X117735000Y-94643400D03*
X117735000Y-92103400D03*
X117735000Y-89563400D03*
X117735000Y-87023400D03*
X117735000Y-84483400D03*
X117735000Y-81943400D03*
D10*
X138055000Y-120043400D03*
D11*
X138055000Y-117503400D03*
X138055000Y-114963400D03*
X138055000Y-112423400D03*
X138055000Y-109883400D03*
X138055000Y-107343400D03*
X138055000Y-104803400D03*
X138055000Y-102263400D03*
X138055000Y-99723400D03*
X138055000Y-97183400D03*
X138055000Y-94643400D03*
X138055000Y-92103400D03*
D10*
X113600000Y-138200000D03*
D11*
X113600000Y-135660000D03*
X113600000Y-133120000D03*
X113600000Y-130580000D03*
X113600000Y-128040000D03*
X113600000Y-125500000D03*
X113600000Y-122960000D03*
X113220000Y-91200000D03*
X110680000Y-91200000D03*
X108140000Y-91200000D03*
D10*
X105600000Y-91200000D03*
D11*
X104840000Y-143200000D03*
X107380000Y-143200000D03*
X109920000Y-143200000D03*
X112460000Y-143200000D03*
D10*
X115000000Y-143200000D03*
D12*
X142100000Y-94500000D03*
X142100000Y-91300000D03*
X142100000Y-88110000D03*
X145100000Y-94500000D03*
X145100000Y-91300000D03*
X145100000Y-88100000D03*
D13*
X140600000Y-85600000D03*
X146600000Y-97000000D03*
X131700000Y-133200000D03*
X136700000Y-133200000D03*
D14*
X86660000Y-84600000D03*
X89430000Y-84600000D03*
X92200000Y-84600000D03*
X94970000Y-84600000D03*
X97740000Y-84600000D03*
X88050000Y-81760000D03*
X90820000Y-81760000D03*
X93580000Y-81760000D03*
X96350000Y-81760000D03*
D15*
X79700000Y-83180000D03*
X104700000Y-83180000D03*
D16*
X110095000Y-83000000D03*
X111375000Y-83000000D03*
X112635000Y-83000000D03*
X113905000Y-83000000D03*
D17*
X145000000Y-133160000D03*
D18*
X145000000Y-123000000D03*
D19*
X109160000Y-115000000D03*
D20*
X99000000Y-115000000D03*
X99000000Y-118500000D03*
D19*
X109160000Y-118500000D03*
X112200000Y-108840000D03*
D20*
X112200000Y-119000000D03*
D19*
X118000000Y-128840000D03*
D20*
X118000000Y-139000000D03*
D21*
X122730000Y-129840000D03*
X122730000Y-137360000D03*
X125270000Y-129840000D03*
X125270000Y-137360000D03*
D22*
X146000000Y-117000000D03*
X146000000Y-139000000D03*
D23*
X106410000Y-110650000D03*
X106410000Y-97350000D03*
X103870000Y-110650000D03*
X103870000Y-97350000D03*
X101330000Y-110650000D03*
X101330000Y-97350000D03*
X98790000Y-110650000D03*
X98790000Y-97350000D03*
D24*
X136000000Y-144000000D03*
X140000000Y-144000000D03*
D25*
X131700000Y-121318400D02*
X138055000Y-114963400D01*
X131700000Y-133200000D02*
X131700000Y-121318400D01*
X139280001Y-115551401D02*
X139280001Y-113280001D01*
X138553003Y-116278399D02*
X139280001Y-115551401D01*
X137466999Y-116278399D02*
X138553003Y-116278399D01*
X135059999Y-118685399D02*
X137466999Y-116278399D01*
X136700000Y-133200000D02*
X135059999Y-131559999D01*
X135059999Y-131559999D02*
X135059999Y-118685399D01*
X138911601Y-113280001D02*
X138055000Y-112423400D01*
X139280001Y-113280001D02*
X138911601Y-113280001D01*
X137205001Y-108193399D02*
X138055000Y-107343400D01*
X123270001Y-122128399D02*
X137205001Y-108193399D01*
X115328399Y-122128399D02*
X123270001Y-122128399D01*
X112200000Y-119000000D02*
X115328399Y-122128399D01*
X109913988Y-120675012D02*
X111024999Y-119564001D01*
X105713876Y-119000000D02*
X107388888Y-120675012D01*
X111024999Y-119564001D02*
X111024999Y-118435999D01*
X114606999Y-116188401D02*
X117236997Y-118818399D01*
X107388888Y-120675012D02*
X109913988Y-120675012D01*
X124040001Y-118818399D02*
X137205001Y-105653399D01*
X111024999Y-118435999D02*
X113272597Y-116188401D01*
X113272597Y-116188401D02*
X114606999Y-116188401D01*
X117236997Y-118818399D02*
X124040001Y-118818399D01*
X137205001Y-105653399D02*
X138055000Y-104803400D01*
X100631370Y-119000000D02*
X101600000Y-119000000D01*
X100131370Y-118500000D02*
X100631370Y-119000000D01*
X99000000Y-118500000D02*
X100131370Y-118500000D01*
X101600000Y-119000000D02*
X105713876Y-119000000D01*
X126669999Y-113648401D02*
X137205001Y-103113399D01*
X110524989Y-118228887D02*
X115105475Y-113648401D01*
X115105475Y-113648401D02*
X126669999Y-113648401D01*
X110524988Y-118874014D02*
X110524989Y-118228887D01*
X109699002Y-119700000D02*
X110524988Y-118874014D01*
X108620998Y-119700000D02*
X109699002Y-119700000D01*
X137205001Y-103113399D02*
X138055000Y-102263400D01*
X103920998Y-115000000D02*
X108620998Y-119700000D01*
X99000000Y-115000000D02*
X103920998Y-115000000D01*
X139280001Y-110561399D02*
X139280001Y-100948401D01*
X139280001Y-100948401D02*
X138904999Y-100573399D01*
X138643001Y-111198399D02*
X139280001Y-110561399D01*
X118000000Y-128840000D02*
X135641601Y-111198399D01*
X135641601Y-111198399D02*
X138643001Y-111198399D01*
X138904999Y-100573399D02*
X138055000Y-99723400D01*
X109160000Y-115000000D02*
X109160000Y-110140998D01*
X114445001Y-87850001D02*
X110095000Y-83500000D01*
X109160000Y-110140998D02*
X114445001Y-104855997D01*
X114445001Y-104855997D02*
X114445001Y-87850001D01*
X110095000Y-83500000D02*
X110095000Y-83000000D01*
X112635000Y-82500000D02*
X112635000Y-83000000D01*
X114267441Y-81624990D02*
X113510010Y-81624990D01*
X115445023Y-112214977D02*
X115445023Y-82802572D01*
X113510010Y-81624990D02*
X112635000Y-82500000D01*
X115445023Y-82802572D02*
X114267441Y-81624990D01*
X109160000Y-118500000D02*
X115445023Y-112214977D01*
X113905000Y-83000000D02*
X113905000Y-86602878D01*
X112999999Y-108040001D02*
X112200000Y-108840000D01*
X114945012Y-106094988D02*
X112999999Y-108040001D01*
X114945012Y-87642890D02*
X114945012Y-106094988D01*
X113905000Y-86602878D02*
X114945012Y-87642890D01*
X96350000Y-87250000D02*
X96350000Y-81760000D01*
X96600000Y-87500000D02*
X96350000Y-87250000D01*
X96600000Y-133757919D02*
X96600000Y-87500000D01*
X104840000Y-143200000D02*
X104840000Y-141997919D01*
X104840000Y-141997919D02*
X96600000Y-133757919D01*
X102900000Y-92300000D02*
X102900000Y-89760000D01*
X98303295Y-95474990D02*
X99725010Y-95474990D01*
X97300000Y-96478285D02*
X98303295Y-95474990D01*
X99725010Y-95474990D02*
X102900000Y-92300000D01*
X107380000Y-143200000D02*
X97300000Y-133120000D01*
X97300000Y-133120000D02*
X97300000Y-96478285D01*
X102900000Y-89760000D02*
X97740000Y-84600000D01*
D26*
G36*
X147465001Y-76935001D02*
G01*
X147465000Y-95372105D01*
X147135250Y-95235518D01*
X146780732Y-95165000D01*
X146702499Y-95165000D01*
X146768325Y-95006081D01*
X146835000Y-94670883D01*
X146835000Y-94329117D01*
X146768325Y-93993919D01*
X146637537Y-93678169D01*
X146447663Y-93394002D01*
X146205998Y-93152337D01*
X145921831Y-92962463D01*
X145771032Y-92900000D01*
X145921831Y-92837537D01*
X146205998Y-92647663D01*
X146447663Y-92405998D01*
X146637537Y-92121831D01*
X146768325Y-91806081D01*
X146835000Y-91470883D01*
X146835000Y-91129117D01*
X146768325Y-90793919D01*
X146637537Y-90478169D01*
X146447663Y-90194002D01*
X146205998Y-89952337D01*
X145921831Y-89762463D01*
X145771032Y-89700000D01*
X145921831Y-89637537D01*
X146205998Y-89447663D01*
X146447663Y-89205998D01*
X146637537Y-88921831D01*
X146768325Y-88606081D01*
X146835000Y-88270883D01*
X146835000Y-87929117D01*
X146768325Y-87593919D01*
X146637537Y-87278169D01*
X146447663Y-86994002D01*
X146205998Y-86752337D01*
X145921831Y-86562463D01*
X145606081Y-86431675D01*
X145270883Y-86365000D01*
X144929117Y-86365000D01*
X144593919Y-86431675D01*
X144278169Y-86562463D01*
X143994002Y-86752337D01*
X143752337Y-86994002D01*
X143596659Y-87226991D01*
X143447663Y-87004002D01*
X143205998Y-86762337D01*
X142921831Y-86572463D01*
X142606081Y-86441675D01*
X142270883Y-86375000D01*
X142265174Y-86375000D01*
X142364482Y-86135250D01*
X142435000Y-85780732D01*
X142435000Y-85419268D01*
X142364482Y-85064750D01*
X142226156Y-84730801D01*
X142025338Y-84430256D01*
X141769744Y-84174662D01*
X141469199Y-83973844D01*
X141135250Y-83835518D01*
X140780732Y-83765000D01*
X140419268Y-83765000D01*
X140064750Y-83835518D01*
X139730801Y-83973844D01*
X139430256Y-84174662D01*
X139174662Y-84430256D01*
X138973844Y-84730801D01*
X138835518Y-85064750D01*
X138765000Y-85419268D01*
X138765000Y-85780732D01*
X138835518Y-86135250D01*
X138973844Y-86469199D01*
X139174662Y-86769744D01*
X139430256Y-87025338D01*
X139730801Y-87226156D01*
X140064750Y-87364482D01*
X140419268Y-87435000D01*
X140501644Y-87435000D01*
X140431675Y-87603919D01*
X140365000Y-87939117D01*
X140365000Y-88280883D01*
X140431675Y-88616081D01*
X140562463Y-88931831D01*
X140752337Y-89215998D01*
X140994002Y-89457663D01*
X141278169Y-89647537D01*
X141409970Y-89702131D01*
X141379034Y-89712664D01*
X141180726Y-89818662D01*
X141072893Y-90093288D01*
X142100000Y-91120395D01*
X143127107Y-90093288D01*
X143019274Y-89818662D01*
X142785901Y-89703841D01*
X142921831Y-89647537D01*
X143205998Y-89457663D01*
X143447663Y-89215998D01*
X143603341Y-88983009D01*
X143752337Y-89205998D01*
X143994002Y-89447663D01*
X144278169Y-89637537D01*
X144428968Y-89700000D01*
X144278169Y-89762463D01*
X143994002Y-89952337D01*
X143752337Y-90194002D01*
X143601886Y-90419168D01*
X143581338Y-90380726D01*
X143306712Y-90272893D01*
X142279605Y-91300000D01*
X143306712Y-92327107D01*
X143581338Y-92219274D01*
X143600945Y-92179423D01*
X143752337Y-92405998D01*
X143994002Y-92647663D01*
X144278169Y-92837537D01*
X144428968Y-92900000D01*
X144278169Y-92962463D01*
X143994002Y-93152337D01*
X143752337Y-93394002D01*
X143600000Y-93621991D01*
X143447663Y-93394002D01*
X143205998Y-93152337D01*
X142921831Y-92962463D01*
X142776779Y-92902381D01*
X142820966Y-92887336D01*
X143019274Y-92781338D01*
X143127107Y-92506712D01*
X142100000Y-91479605D01*
X141072893Y-92506712D01*
X141180726Y-92781338D01*
X141425133Y-92901588D01*
X141278169Y-92962463D01*
X140994002Y-93152337D01*
X140752337Y-93394002D01*
X140562463Y-93678169D01*
X140431675Y-93993919D01*
X140365000Y-94329117D01*
X140365000Y-94670883D01*
X140431675Y-95006081D01*
X140562463Y-95321831D01*
X140752337Y-95605998D01*
X140994002Y-95847663D01*
X141278169Y-96037537D01*
X141593919Y-96168325D01*
X141929117Y-96235000D01*
X142270883Y-96235000D01*
X142606081Y-96168325D01*
X142921831Y-96037537D01*
X143205998Y-95847663D01*
X143447663Y-95605998D01*
X143600000Y-95378009D01*
X143752337Y-95605998D01*
X143994002Y-95847663D01*
X144278169Y-96037537D01*
X144593919Y-96168325D01*
X144929117Y-96235000D01*
X144930683Y-96235000D01*
X144835518Y-96464750D01*
X144765000Y-96819268D01*
X144765000Y-97180732D01*
X144835518Y-97535250D01*
X144973844Y-97869199D01*
X145174662Y-98169744D01*
X145430256Y-98425338D01*
X145730801Y-98626156D01*
X146064750Y-98764482D01*
X146419268Y-98835000D01*
X146780732Y-98835000D01*
X147135250Y-98764482D01*
X147465000Y-98627895D01*
X147465000Y-104236104D01*
X147475635Y-104344084D01*
X147490000Y-104391439D01*
X147490000Y-115440069D01*
X147320516Y-115388657D01*
X147080322Y-115365000D01*
X144919678Y-115365000D01*
X144679484Y-115388657D01*
X144371285Y-115482148D01*
X144087248Y-115633969D01*
X143838286Y-115838286D01*
X143633969Y-116087248D01*
X143482148Y-116371285D01*
X143388657Y-116679484D01*
X143357089Y-117000000D01*
X143388657Y-117320516D01*
X143482148Y-117628715D01*
X143633969Y-117912752D01*
X143838286Y-118161714D01*
X144087248Y-118366031D01*
X144371285Y-118517852D01*
X144679484Y-118611343D01*
X144919678Y-118635000D01*
X147080322Y-118635000D01*
X147320516Y-118611343D01*
X147490000Y-118559931D01*
X147490001Y-137439326D01*
X147443532Y-137421193D01*
X147127000Y-137365000D01*
X146127000Y-137365000D01*
X146127000Y-138873000D01*
X146147000Y-138873000D01*
X146147000Y-139127000D01*
X146127000Y-139127000D01*
X146127000Y-140635000D01*
X147127000Y-140635000D01*
X147443532Y-140578807D01*
X147490001Y-140560674D01*
X147490001Y-145490000D01*
X141560674Y-145490000D01*
X141578807Y-145443532D01*
X141635000Y-145127000D01*
X141635000Y-144127000D01*
X140127000Y-144127000D01*
X140127000Y-144147000D01*
X139873000Y-144147000D01*
X139873000Y-144127000D01*
X138365000Y-144127000D01*
X138365000Y-145127000D01*
X138421193Y-145443532D01*
X138429570Y-145465000D01*
X137567514Y-145465000D01*
X137611343Y-145320516D01*
X137635000Y-145080322D01*
X137635000Y-142919678D01*
X137630403Y-142873000D01*
X138365000Y-142873000D01*
X138365000Y-143873000D01*
X139873000Y-143873000D01*
X139873000Y-141529223D01*
X140127000Y-141529223D01*
X140127000Y-143873000D01*
X141635000Y-143873000D01*
X141635000Y-142873000D01*
X141578807Y-142556468D01*
X141461942Y-142256980D01*
X141288895Y-141986046D01*
X141066317Y-141754078D01*
X140802761Y-141569990D01*
X140508355Y-141440856D01*
X140380434Y-141409876D01*
X140127000Y-141529223D01*
X139873000Y-141529223D01*
X139619566Y-141409876D01*
X139491645Y-141440856D01*
X139197239Y-141569990D01*
X138933683Y-141754078D01*
X138711105Y-141986046D01*
X138538058Y-142256980D01*
X138421193Y-142556468D01*
X138365000Y-142873000D01*
X137630403Y-142873000D01*
X137611343Y-142679484D01*
X137517852Y-142371285D01*
X137366031Y-142087248D01*
X137161714Y-141838286D01*
X136912751Y-141633969D01*
X136628714Y-141482148D01*
X136320515Y-141388657D01*
X136000000Y-141357089D01*
X135679484Y-141388657D01*
X135371285Y-141482148D01*
X135087248Y-141633969D01*
X134838286Y-141838286D01*
X134633969Y-142087249D01*
X134482148Y-142371286D01*
X134388657Y-142679485D01*
X134365000Y-142919679D01*
X134365001Y-145080322D01*
X134388658Y-145320516D01*
X134432487Y-145465000D01*
X131745179Y-145465000D01*
X131947754Y-145329644D01*
X132329645Y-144947753D01*
X132629694Y-144498698D01*
X132836372Y-143999734D01*
X132941735Y-143470037D01*
X132941735Y-142929963D01*
X132836372Y-142400266D01*
X132629694Y-141901302D01*
X132329645Y-141452247D01*
X131947754Y-141070356D01*
X131498699Y-140770307D01*
X130999735Y-140563629D01*
X130470038Y-140458266D01*
X129929964Y-140458266D01*
X129400267Y-140563629D01*
X128901303Y-140770307D01*
X128452248Y-141070356D01*
X128070357Y-141452247D01*
X127770308Y-141901302D01*
X127563630Y-142400266D01*
X127458267Y-142929963D01*
X127458267Y-143470037D01*
X127563630Y-143999734D01*
X127770308Y-144498698D01*
X128070357Y-144947753D01*
X128452248Y-145329644D01*
X128654823Y-145465000D01*
X99745178Y-145465000D01*
X99947753Y-145329644D01*
X100329644Y-144947753D01*
X100629693Y-144498698D01*
X100836371Y-143999734D01*
X100941734Y-143470037D01*
X100941734Y-142929963D01*
X100836371Y-142400266D01*
X100629693Y-141901302D01*
X100329644Y-141452247D01*
X99947753Y-141070356D01*
X99498698Y-140770307D01*
X98999734Y-140563629D01*
X98470037Y-140458266D01*
X97929963Y-140458266D01*
X97400266Y-140563629D01*
X96901302Y-140770307D01*
X96452247Y-141070356D01*
X96070356Y-141452247D01*
X95935000Y-141654822D01*
X95935000Y-134126021D01*
X95965026Y-134182195D01*
X96004871Y-134230745D01*
X96059999Y-134297920D01*
X96089003Y-134321723D01*
X103854773Y-142087494D01*
X103784866Y-142144866D01*
X103599294Y-142370986D01*
X103461401Y-142628966D01*
X103376487Y-142908889D01*
X103347815Y-143200000D01*
X103376487Y-143491111D01*
X103461401Y-143771034D01*
X103599294Y-144029014D01*
X103784866Y-144255134D01*
X104010986Y-144440706D01*
X104268966Y-144578599D01*
X104548889Y-144663513D01*
X104767050Y-144685000D01*
X104912950Y-144685000D01*
X105131111Y-144663513D01*
X105411034Y-144578599D01*
X105669014Y-144440706D01*
X105895134Y-144255134D01*
X106080706Y-144029014D01*
X106110000Y-143974209D01*
X106139294Y-144029014D01*
X106324866Y-144255134D01*
X106550986Y-144440706D01*
X106808966Y-144578599D01*
X107088889Y-144663513D01*
X107307050Y-144685000D01*
X107452950Y-144685000D01*
X107671111Y-144663513D01*
X107951034Y-144578599D01*
X108209014Y-144440706D01*
X108435134Y-144255134D01*
X108620706Y-144029014D01*
X108655201Y-143964477D01*
X108724822Y-144081355D01*
X108919731Y-144297588D01*
X109153080Y-144471641D01*
X109415901Y-144596825D01*
X109563110Y-144641476D01*
X109793000Y-144520155D01*
X109793000Y-143327000D01*
X109773000Y-143327000D01*
X109773000Y-143073000D01*
X109793000Y-143073000D01*
X109793000Y-141879845D01*
X110047000Y-141879845D01*
X110047000Y-143073000D01*
X110067000Y-143073000D01*
X110067000Y-143327000D01*
X110047000Y-143327000D01*
X110047000Y-144520155D01*
X110276890Y-144641476D01*
X110424099Y-144596825D01*
X110686920Y-144471641D01*
X110920269Y-144297588D01*
X111115178Y-144081355D01*
X111184799Y-143964477D01*
X111219294Y-144029014D01*
X111404866Y-144255134D01*
X111630986Y-144440706D01*
X111888966Y-144578599D01*
X112168889Y-144663513D01*
X112387050Y-144685000D01*
X112532950Y-144685000D01*
X112751111Y-144663513D01*
X113031034Y-144578599D01*
X113289014Y-144440706D01*
X113515134Y-144255134D01*
X113539607Y-144225313D01*
X113560498Y-144294180D01*
X113619463Y-144404494D01*
X113698815Y-144501185D01*
X113795506Y-144580537D01*
X113905820Y-144639502D01*
X114025518Y-144675812D01*
X114150000Y-144688072D01*
X115850000Y-144688072D01*
X115974482Y-144675812D01*
X116094180Y-144639502D01*
X116204494Y-144580537D01*
X116301185Y-144501185D01*
X116380537Y-144404494D01*
X116439502Y-144294180D01*
X116475812Y-144174482D01*
X116488072Y-144050000D01*
X116488072Y-142350000D01*
X116475812Y-142225518D01*
X116439502Y-142105820D01*
X116380537Y-141995506D01*
X116301185Y-141898815D01*
X116204494Y-141819463D01*
X116094180Y-141760498D01*
X115974482Y-141724188D01*
X115850000Y-141711928D01*
X114150000Y-141711928D01*
X114025518Y-141724188D01*
X113905820Y-141760498D01*
X113795506Y-141819463D01*
X113698815Y-141898815D01*
X113619463Y-141995506D01*
X113560498Y-142105820D01*
X113539607Y-142174687D01*
X113515134Y-142144866D01*
X113289014Y-141959294D01*
X113031034Y-141821401D01*
X112751111Y-141736487D01*
X112532950Y-141715000D01*
X112387050Y-141715000D01*
X112168889Y-141736487D01*
X111888966Y-141821401D01*
X111630986Y-141959294D01*
X111404866Y-142144866D01*
X111219294Y-142370986D01*
X111184799Y-142435523D01*
X111115178Y-142318645D01*
X110920269Y-142102412D01*
X110686920Y-141928359D01*
X110424099Y-141803175D01*
X110276890Y-141758524D01*
X110047000Y-141879845D01*
X109793000Y-141879845D01*
X109563110Y-141758524D01*
X109415901Y-141803175D01*
X109153080Y-141928359D01*
X108919731Y-142102412D01*
X108724822Y-142318645D01*
X108655201Y-142435523D01*
X108620706Y-142370986D01*
X108435134Y-142144866D01*
X108209014Y-141959294D01*
X107951034Y-141821401D01*
X107671111Y-141736487D01*
X107452950Y-141715000D01*
X107307050Y-141715000D01*
X107088889Y-141736487D01*
X107014005Y-141759203D01*
X100914802Y-135660000D01*
X112107815Y-135660000D01*
X112136487Y-135951111D01*
X112221401Y-136231034D01*
X112359294Y-136489014D01*
X112544866Y-136715134D01*
X112574687Y-136739607D01*
X112505820Y-136760498D01*
X112395506Y-136819463D01*
X112298815Y-136898815D01*
X112219463Y-136995506D01*
X112160498Y-137105820D01*
X112124188Y-137225518D01*
X112111928Y-137350000D01*
X112111928Y-139050000D01*
X112124188Y-139174482D01*
X112160498Y-139294180D01*
X112219463Y-139404494D01*
X112298815Y-139501185D01*
X112395506Y-139580537D01*
X112505820Y-139639502D01*
X112625518Y-139675812D01*
X112750000Y-139688072D01*
X114450000Y-139688072D01*
X114574482Y-139675812D01*
X114694180Y-139639502D01*
X114804494Y-139580537D01*
X114901185Y-139501185D01*
X114980537Y-139404494D01*
X115039502Y-139294180D01*
X115075812Y-139174482D01*
X115088072Y-139050000D01*
X115088072Y-138858665D01*
X116565000Y-138858665D01*
X116565000Y-139141335D01*
X116620147Y-139418574D01*
X116728320Y-139679727D01*
X116885363Y-139914759D01*
X117085241Y-140114637D01*
X117320273Y-140271680D01*
X117581426Y-140379853D01*
X117858665Y-140435000D01*
X118141335Y-140435000D01*
X118418574Y-140379853D01*
X118679727Y-140271680D01*
X118914759Y-140114637D01*
X119114637Y-139914759D01*
X119271680Y-139679727D01*
X119379853Y-139418574D01*
X119387439Y-139380434D01*
X143409876Y-139380434D01*
X143440856Y-139508355D01*
X143569990Y-139802761D01*
X143754078Y-140066317D01*
X143986046Y-140288895D01*
X144256980Y-140461942D01*
X144556468Y-140578807D01*
X144873000Y-140635000D01*
X145873000Y-140635000D01*
X145873000Y-139127000D01*
X143529223Y-139127000D01*
X143409876Y-139380434D01*
X119387439Y-139380434D01*
X119435000Y-139141335D01*
X119435000Y-138858665D01*
X119379853Y-138581426D01*
X119271680Y-138320273D01*
X119114637Y-138085241D01*
X118914759Y-137885363D01*
X118679727Y-137728320D01*
X118418574Y-137620147D01*
X118141335Y-137565000D01*
X117858665Y-137565000D01*
X117581426Y-137620147D01*
X117320273Y-137728320D01*
X117085241Y-137885363D01*
X116885363Y-138085241D01*
X116728320Y-138320273D01*
X116620147Y-138581426D01*
X116565000Y-138858665D01*
X115088072Y-138858665D01*
X115088072Y-137350000D01*
X115075812Y-137225518D01*
X115039502Y-137105820D01*
X114980537Y-136995506D01*
X114901613Y-136899336D01*
X121495000Y-136899336D01*
X121495000Y-137820665D01*
X121512870Y-138002102D01*
X121583489Y-138234901D01*
X121698168Y-138449449D01*
X121852499Y-138637502D01*
X122040552Y-138791833D01*
X122255100Y-138906511D01*
X122487899Y-138977130D01*
X122730000Y-139000975D01*
X122972102Y-138977130D01*
X123204901Y-138906511D01*
X123419449Y-138791833D01*
X123607502Y-138637502D01*
X123761833Y-138449449D01*
X123876511Y-138234901D01*
X123947130Y-138002101D01*
X123965000Y-137820664D01*
X123965000Y-137487000D01*
X124035000Y-137487000D01*
X124035000Y-137887000D01*
X124083507Y-138125496D01*
X124177610Y-138349946D01*
X124313693Y-138551725D01*
X124486526Y-138723078D01*
X124689467Y-138857421D01*
X124914718Y-138949591D01*
X124952391Y-138953462D01*
X125143000Y-138828731D01*
X125143000Y-137487000D01*
X125397000Y-137487000D01*
X125397000Y-138828731D01*
X125587609Y-138953462D01*
X125625282Y-138949591D01*
X125850533Y-138857421D01*
X126053474Y-138723078D01*
X126157880Y-138619566D01*
X143409876Y-138619566D01*
X143529223Y-138873000D01*
X145873000Y-138873000D01*
X145873000Y-137365000D01*
X144873000Y-137365000D01*
X144556468Y-137421193D01*
X144256980Y-137538058D01*
X143986046Y-137711105D01*
X143754078Y-137933683D01*
X143569990Y-138197239D01*
X143440856Y-138491645D01*
X143409876Y-138619566D01*
X126157880Y-138619566D01*
X126226307Y-138551725D01*
X126362390Y-138349946D01*
X126456493Y-138125496D01*
X126505000Y-137887000D01*
X126505000Y-137487000D01*
X125397000Y-137487000D01*
X125143000Y-137487000D01*
X124035000Y-137487000D01*
X123965000Y-137487000D01*
X123965000Y-136899335D01*
X123958467Y-136833000D01*
X124035000Y-136833000D01*
X124035000Y-137233000D01*
X125143000Y-137233000D01*
X125143000Y-135891269D01*
X125397000Y-135891269D01*
X125397000Y-137233000D01*
X126505000Y-137233000D01*
X126505000Y-136833000D01*
X126456493Y-136594504D01*
X126362390Y-136370054D01*
X126226307Y-136168275D01*
X126053474Y-135996922D01*
X125850533Y-135862579D01*
X125625282Y-135770409D01*
X125587609Y-135766538D01*
X125397000Y-135891269D01*
X125143000Y-135891269D01*
X124952391Y-135766538D01*
X124914718Y-135770409D01*
X124689467Y-135862579D01*
X124486526Y-135996922D01*
X124313693Y-136168275D01*
X124177610Y-136370054D01*
X124083507Y-136594504D01*
X124035000Y-136833000D01*
X123958467Y-136833000D01*
X123947130Y-136717898D01*
X123876511Y-136485099D01*
X123761833Y-136270551D01*
X123607502Y-136082498D01*
X123419448Y-135928167D01*
X123204900Y-135813489D01*
X122972101Y-135742870D01*
X122730000Y-135719025D01*
X122487898Y-135742870D01*
X122255099Y-135813489D01*
X122040551Y-135928167D01*
X121852498Y-136082498D01*
X121698167Y-136270552D01*
X121583489Y-136485100D01*
X121512870Y-136717899D01*
X121495000Y-136899336D01*
X114901613Y-136899336D01*
X114901185Y-136898815D01*
X114804494Y-136819463D01*
X114694180Y-136760498D01*
X114625313Y-136739607D01*
X114655134Y-136715134D01*
X114840706Y-136489014D01*
X114978599Y-136231034D01*
X115063513Y-135951111D01*
X115092185Y-135660000D01*
X115063513Y-135368889D01*
X114978599Y-135088966D01*
X114840706Y-134830986D01*
X114655134Y-134604866D01*
X114429014Y-134419294D01*
X114364477Y-134384799D01*
X114481355Y-134315178D01*
X114697588Y-134120269D01*
X114871641Y-133886920D01*
X114996825Y-133624099D01*
X115041476Y-133476890D01*
X114920155Y-133247000D01*
X113727000Y-133247000D01*
X113727000Y-133267000D01*
X113473000Y-133267000D01*
X113473000Y-133247000D01*
X112279845Y-133247000D01*
X112158524Y-133476890D01*
X112203175Y-133624099D01*
X112328359Y-133886920D01*
X112502412Y-134120269D01*
X112718645Y-134315178D01*
X112835523Y-134384799D01*
X112770986Y-134419294D01*
X112544866Y-134604866D01*
X112359294Y-134830986D01*
X112221401Y-135088966D01*
X112136487Y-135368889D01*
X112107815Y-135660000D01*
X100914802Y-135660000D01*
X98060000Y-132805199D01*
X98060000Y-119589396D01*
X98085241Y-119614637D01*
X98320273Y-119771680D01*
X98581426Y-119879853D01*
X98858665Y-119935000D01*
X99141335Y-119935000D01*
X99418574Y-119879853D01*
X99679727Y-119771680D01*
X99914759Y-119614637D01*
X100042983Y-119486414D01*
X100067566Y-119510997D01*
X100091369Y-119540001D01*
X100207094Y-119634974D01*
X100339123Y-119705546D01*
X100482384Y-119749003D01*
X100594037Y-119760000D01*
X100594045Y-119760000D01*
X100631370Y-119763676D01*
X100668695Y-119760000D01*
X105399075Y-119760000D01*
X106825089Y-121186015D01*
X106848887Y-121215013D01*
X106964612Y-121309986D01*
X107096641Y-121380558D01*
X107239902Y-121424015D01*
X107351555Y-121435012D01*
X107351563Y-121435012D01*
X107388888Y-121438688D01*
X107426213Y-121435012D01*
X109876666Y-121435012D01*
X109913988Y-121438688D01*
X109951310Y-121435012D01*
X109951321Y-121435012D01*
X110062974Y-121424015D01*
X110206235Y-121380558D01*
X110338264Y-121309986D01*
X110453989Y-121215013D01*
X110477792Y-121186010D01*
X111443452Y-120220350D01*
X111520273Y-120271680D01*
X111781426Y-120379853D01*
X112058665Y-120435000D01*
X112341335Y-120435000D01*
X112523886Y-120398688D01*
X113600198Y-121475000D01*
X113527050Y-121475000D01*
X113308889Y-121496487D01*
X113028966Y-121581401D01*
X112770986Y-121719294D01*
X112544866Y-121904866D01*
X112359294Y-122130986D01*
X112221401Y-122388966D01*
X112136487Y-122668889D01*
X112107815Y-122960000D01*
X112136487Y-123251111D01*
X112221401Y-123531034D01*
X112359294Y-123789014D01*
X112544866Y-124015134D01*
X112770986Y-124200706D01*
X112825791Y-124230000D01*
X112770986Y-124259294D01*
X112544866Y-124444866D01*
X112359294Y-124670986D01*
X112221401Y-124928966D01*
X112136487Y-125208889D01*
X112107815Y-125500000D01*
X112136487Y-125791111D01*
X112221401Y-126071034D01*
X112359294Y-126329014D01*
X112544866Y-126555134D01*
X112770986Y-126740706D01*
X112825791Y-126770000D01*
X112770986Y-126799294D01*
X112544866Y-126984866D01*
X112359294Y-127210986D01*
X112221401Y-127468966D01*
X112136487Y-127748889D01*
X112107815Y-128040000D01*
X112136487Y-128331111D01*
X112221401Y-128611034D01*
X112359294Y-128869014D01*
X112544866Y-129095134D01*
X112770986Y-129280706D01*
X112825791Y-129310000D01*
X112770986Y-129339294D01*
X112544866Y-129524866D01*
X112359294Y-129750986D01*
X112221401Y-130008966D01*
X112136487Y-130288889D01*
X112107815Y-130580000D01*
X112136487Y-130871111D01*
X112221401Y-131151034D01*
X112359294Y-131409014D01*
X112544866Y-131635134D01*
X112770986Y-131820706D01*
X112835523Y-131855201D01*
X112718645Y-131924822D01*
X112502412Y-132119731D01*
X112328359Y-132353080D01*
X112203175Y-132615901D01*
X112158524Y-132763110D01*
X112279845Y-132993000D01*
X113473000Y-132993000D01*
X113473000Y-132973000D01*
X113727000Y-132973000D01*
X113727000Y-132993000D01*
X114920155Y-132993000D01*
X115041476Y-132763110D01*
X114996825Y-132615901D01*
X114871641Y-132353080D01*
X114697588Y-132119731D01*
X114481355Y-131924822D01*
X114364477Y-131855201D01*
X114429014Y-131820706D01*
X114655134Y-131635134D01*
X114840706Y-131409014D01*
X114978599Y-131151034D01*
X115063513Y-130871111D01*
X115092185Y-130580000D01*
X115063513Y-130288889D01*
X114978599Y-130008966D01*
X114840706Y-129750986D01*
X114655134Y-129524866D01*
X114429014Y-129339294D01*
X114374209Y-129310000D01*
X114429014Y-129280706D01*
X114655134Y-129095134D01*
X114840706Y-128869014D01*
X114978599Y-128611034D01*
X115063513Y-128331111D01*
X115092185Y-128040000D01*
X115063513Y-127748889D01*
X114978599Y-127468966D01*
X114840706Y-127210986D01*
X114655134Y-126984866D01*
X114429014Y-126799294D01*
X114374209Y-126770000D01*
X114429014Y-126740706D01*
X114655134Y-126555134D01*
X114840706Y-126329014D01*
X114978599Y-126071034D01*
X115063513Y-125791111D01*
X115092185Y-125500000D01*
X115063513Y-125208889D01*
X114978599Y-124928966D01*
X114840706Y-124670986D01*
X114655134Y-124444866D01*
X114429014Y-124259294D01*
X114374209Y-124230000D01*
X114429014Y-124200706D01*
X114655134Y-124015134D01*
X114840706Y-123789014D01*
X114978599Y-123531034D01*
X115063513Y-123251111D01*
X115092185Y-122960000D01*
X115081113Y-122847584D01*
X115179413Y-122877402D01*
X115291066Y-122888399D01*
X115291075Y-122888399D01*
X115328398Y-122892075D01*
X115365721Y-122888399D01*
X122876799Y-122888399D01*
X118325907Y-127439292D01*
X118281309Y-127425764D01*
X118070492Y-127405000D01*
X117929508Y-127405000D01*
X117718691Y-127425764D01*
X117448192Y-127507818D01*
X117198899Y-127641068D01*
X116980392Y-127820392D01*
X116801068Y-128038899D01*
X116667818Y-128288192D01*
X116585764Y-128558691D01*
X116558057Y-128840000D01*
X116585764Y-129121309D01*
X116667818Y-129391808D01*
X116801068Y-129641101D01*
X116980392Y-129859608D01*
X117198899Y-130038932D01*
X117448192Y-130172182D01*
X117718691Y-130254236D01*
X117929508Y-130275000D01*
X118070492Y-130275000D01*
X118281309Y-130254236D01*
X118551808Y-130172182D01*
X118801101Y-130038932D01*
X119019608Y-129859608D01*
X119198932Y-129641101D01*
X119332182Y-129391808D01*
X119335965Y-129379336D01*
X121495000Y-129379336D01*
X121495000Y-130300665D01*
X121512870Y-130482102D01*
X121583489Y-130714901D01*
X121698168Y-130929449D01*
X121852499Y-131117502D01*
X122040552Y-131271833D01*
X122255100Y-131386511D01*
X122487899Y-131457130D01*
X122730000Y-131480975D01*
X122972102Y-131457130D01*
X123204901Y-131386511D01*
X123419449Y-131271833D01*
X123607502Y-131117502D01*
X123761833Y-130929449D01*
X123876511Y-130714901D01*
X123947130Y-130482101D01*
X123965000Y-130300664D01*
X123965000Y-129379336D01*
X124035000Y-129379336D01*
X124035000Y-130300665D01*
X124052870Y-130482102D01*
X124123489Y-130714901D01*
X124238168Y-130929449D01*
X124392499Y-131117502D01*
X124580552Y-131271833D01*
X124795100Y-131386511D01*
X125027899Y-131457130D01*
X125270000Y-131480975D01*
X125512102Y-131457130D01*
X125744901Y-131386511D01*
X125959449Y-131271833D01*
X126147502Y-131117502D01*
X126301833Y-130929449D01*
X126416511Y-130714901D01*
X126487130Y-130482101D01*
X126505000Y-130300664D01*
X126505000Y-129379335D01*
X126487130Y-129197898D01*
X126416511Y-128965099D01*
X126301833Y-128750551D01*
X126147502Y-128562498D01*
X125959448Y-128408167D01*
X125744900Y-128293489D01*
X125512101Y-128222870D01*
X125270000Y-128199025D01*
X125027898Y-128222870D01*
X124795099Y-128293489D01*
X124580551Y-128408167D01*
X124392498Y-128562498D01*
X124238167Y-128750552D01*
X124123489Y-128965100D01*
X124052870Y-129197899D01*
X124035000Y-129379336D01*
X123965000Y-129379336D01*
X123965000Y-129379335D01*
X123947130Y-129197898D01*
X123876511Y-128965099D01*
X123761833Y-128750551D01*
X123607502Y-128562498D01*
X123419448Y-128408167D01*
X123204900Y-128293489D01*
X122972101Y-128222870D01*
X122730000Y-128199025D01*
X122487898Y-128222870D01*
X122255099Y-128293489D01*
X122040551Y-128408167D01*
X121852498Y-128562498D01*
X121698167Y-128750552D01*
X121583489Y-128965100D01*
X121512870Y-129197899D01*
X121495000Y-129379336D01*
X119335965Y-129379336D01*
X119414236Y-129121309D01*
X119441943Y-128840000D01*
X119414236Y-128558691D01*
X119400708Y-128514093D01*
X135956404Y-111958399D01*
X136644236Y-111958399D01*
X136591487Y-112132289D01*
X136562815Y-112423400D01*
X136591487Y-112714511D01*
X136676401Y-112994434D01*
X136814294Y-113252414D01*
X136999866Y-113478534D01*
X137225986Y-113664106D01*
X137280791Y-113693400D01*
X137225986Y-113722694D01*
X136999866Y-113908266D01*
X136814294Y-114134386D01*
X136676401Y-114392366D01*
X136591487Y-114672289D01*
X136562815Y-114963400D01*
X136591487Y-115254511D01*
X136614203Y-115329395D01*
X131188998Y-120754601D01*
X131160000Y-120778399D01*
X131136202Y-120807397D01*
X131136201Y-120807398D01*
X131065026Y-120894124D01*
X130994454Y-121026154D01*
X130950998Y-121169415D01*
X130936324Y-121318400D01*
X130940001Y-121355732D01*
X130940000Y-131528612D01*
X130830801Y-131573844D01*
X130530256Y-131774662D01*
X130274662Y-132030256D01*
X130073844Y-132330801D01*
X129935518Y-132664750D01*
X129865000Y-133019268D01*
X129865000Y-133380732D01*
X129935518Y-133735250D01*
X130073844Y-134069199D01*
X130274662Y-134369744D01*
X130530256Y-134625338D01*
X130830801Y-134826156D01*
X131164750Y-134964482D01*
X131519268Y-135035000D01*
X131880732Y-135035000D01*
X132235250Y-134964482D01*
X132569199Y-134826156D01*
X132869744Y-134625338D01*
X133125338Y-134369744D01*
X133326156Y-134069199D01*
X133464482Y-133735250D01*
X133535000Y-133380732D01*
X133535000Y-133019268D01*
X133464482Y-132664750D01*
X133326156Y-132330801D01*
X133125338Y-132030256D01*
X132869744Y-131774662D01*
X132569199Y-131573844D01*
X132460000Y-131528612D01*
X132460000Y-121633201D01*
X134300000Y-119793201D01*
X134299999Y-131522677D01*
X134296323Y-131559999D01*
X134299999Y-131597321D01*
X134299999Y-131597331D01*
X134310996Y-131708984D01*
X134335457Y-131789622D01*
X134354453Y-131852245D01*
X134425025Y-131984275D01*
X134461198Y-132028351D01*
X134519998Y-132100000D01*
X134549002Y-132123803D01*
X134980750Y-132555551D01*
X134935518Y-132664750D01*
X134865000Y-133019268D01*
X134865000Y-133380732D01*
X134935518Y-133735250D01*
X135073844Y-134069199D01*
X135274662Y-134369744D01*
X135530256Y-134625338D01*
X135830801Y-134826156D01*
X136164750Y-134964482D01*
X136519268Y-135035000D01*
X136880732Y-135035000D01*
X137235250Y-134964482D01*
X137569199Y-134826156D01*
X137869744Y-134625338D01*
X138125338Y-134369744D01*
X138326156Y-134069199D01*
X138464482Y-133735250D01*
X138506354Y-133524741D01*
X143508959Y-133524741D01*
X143608766Y-133808620D01*
X143762038Y-134067573D01*
X143962884Y-134291649D01*
X144203586Y-134472236D01*
X144474893Y-134602394D01*
X144635260Y-134651036D01*
X144873000Y-134530378D01*
X144873000Y-133287000D01*
X145127000Y-133287000D01*
X145127000Y-134530378D01*
X145364740Y-134651036D01*
X145525107Y-134602394D01*
X145796414Y-134472236D01*
X146037116Y-134291649D01*
X146237962Y-134067573D01*
X146391234Y-133808620D01*
X146491041Y-133524741D01*
X146370992Y-133287000D01*
X145127000Y-133287000D01*
X144873000Y-133287000D01*
X143629008Y-133287000D01*
X143508959Y-133524741D01*
X138506354Y-133524741D01*
X138535000Y-133380732D01*
X138535000Y-133019268D01*
X138490442Y-132795259D01*
X143508959Y-132795259D01*
X143629008Y-133033000D01*
X144873000Y-133033000D01*
X144873000Y-131789622D01*
X145127000Y-131789622D01*
X145127000Y-133033000D01*
X146370992Y-133033000D01*
X146491041Y-132795259D01*
X146391234Y-132511380D01*
X146237962Y-132252427D01*
X146037116Y-132028351D01*
X145796414Y-131847764D01*
X145525107Y-131717606D01*
X145364740Y-131668964D01*
X145127000Y-131789622D01*
X144873000Y-131789622D01*
X144635260Y-131668964D01*
X144474893Y-131717606D01*
X144203586Y-131847764D01*
X143962884Y-132028351D01*
X143762038Y-132252427D01*
X143608766Y-132511380D01*
X143508959Y-132795259D01*
X138490442Y-132795259D01*
X138464482Y-132664750D01*
X138326156Y-132330801D01*
X138125338Y-132030256D01*
X137869744Y-131774662D01*
X137569199Y-131573844D01*
X137235250Y-131435518D01*
X136880732Y-131365000D01*
X136519268Y-131365000D01*
X136164750Y-131435518D01*
X136055551Y-131480750D01*
X135819999Y-131245198D01*
X135819999Y-122100000D01*
X143461928Y-122100000D01*
X143461928Y-123900000D01*
X143474188Y-124024482D01*
X143510498Y-124144180D01*
X143569463Y-124254494D01*
X143648815Y-124351185D01*
X143745506Y-124430537D01*
X143855820Y-124489502D01*
X143975518Y-124525812D01*
X144100000Y-124538072D01*
X145900000Y-124538072D01*
X146024482Y-124525812D01*
X146144180Y-124489502D01*
X146254494Y-124430537D01*
X146351185Y-124351185D01*
X146430537Y-124254494D01*
X146489502Y-124144180D01*
X146525812Y-124024482D01*
X146538072Y-123900000D01*
X146538072Y-122100000D01*
X146525812Y-121975518D01*
X146489502Y-121855820D01*
X146430537Y-121745506D01*
X146351185Y-121648815D01*
X146254494Y-121569463D01*
X146144180Y-121510498D01*
X146024482Y-121474188D01*
X145900000Y-121461928D01*
X144100000Y-121461928D01*
X143975518Y-121474188D01*
X143855820Y-121510498D01*
X143745506Y-121569463D01*
X143648815Y-121648815D01*
X143569463Y-121745506D01*
X143510498Y-121855820D01*
X143474188Y-121975518D01*
X143461928Y-122100000D01*
X135819999Y-122100000D01*
X135819999Y-119000200D01*
X136700562Y-118119637D01*
X136814294Y-118332414D01*
X136999866Y-118558534D01*
X137029687Y-118583007D01*
X136960820Y-118603898D01*
X136850506Y-118662863D01*
X136753815Y-118742215D01*
X136674463Y-118838906D01*
X136615498Y-118949220D01*
X136579188Y-119068918D01*
X136566928Y-119193400D01*
X136566928Y-120893400D01*
X136579188Y-121017882D01*
X136615498Y-121137580D01*
X136674463Y-121247894D01*
X136753815Y-121344585D01*
X136850506Y-121423937D01*
X136960820Y-121482902D01*
X137080518Y-121519212D01*
X137205000Y-121531472D01*
X138905000Y-121531472D01*
X139029482Y-121519212D01*
X139149180Y-121482902D01*
X139259494Y-121423937D01*
X139356185Y-121344585D01*
X139435537Y-121247894D01*
X139494502Y-121137580D01*
X139530812Y-121017882D01*
X139543072Y-120893400D01*
X139543072Y-119193400D01*
X139530812Y-119068918D01*
X139494502Y-118949220D01*
X139435537Y-118838906D01*
X139356185Y-118742215D01*
X139259494Y-118662863D01*
X139149180Y-118603898D01*
X139080313Y-118583007D01*
X139110134Y-118558534D01*
X139295706Y-118332414D01*
X139433599Y-118074434D01*
X139518513Y-117794511D01*
X139547185Y-117503400D01*
X139518513Y-117212289D01*
X139433599Y-116932366D01*
X139295706Y-116674386D01*
X139266908Y-116639296D01*
X139791010Y-116115195D01*
X139820002Y-116091402D01*
X139843796Y-116062409D01*
X139843800Y-116062405D01*
X139914974Y-115975678D01*
X139914975Y-115975677D01*
X139985547Y-115843648D01*
X140029004Y-115700387D01*
X140040001Y-115588734D01*
X140040001Y-115588725D01*
X140043677Y-115551402D01*
X140040001Y-115514079D01*
X140040001Y-113317334D01*
X140043678Y-113280001D01*
X140029004Y-113131015D01*
X139985547Y-112987754D01*
X139914975Y-112855725D01*
X139820002Y-112740000D01*
X139704277Y-112645027D01*
X139572248Y-112574455D01*
X139533466Y-112562691D01*
X139547185Y-112423400D01*
X139518513Y-112132289D01*
X139433599Y-111852366D01*
X139304801Y-111611401D01*
X139791005Y-111125197D01*
X139820002Y-111101400D01*
X139866452Y-111044801D01*
X139914975Y-110985676D01*
X139985547Y-110853646D01*
X139987701Y-110846544D01*
X140029004Y-110710385D01*
X140040001Y-110598732D01*
X140040001Y-110598723D01*
X140043677Y-110561400D01*
X140040001Y-110524077D01*
X140040001Y-101929963D01*
X140958267Y-101929963D01*
X140958267Y-102470037D01*
X141063630Y-102999734D01*
X141270308Y-103498698D01*
X141570357Y-103947753D01*
X141952248Y-104329644D01*
X142401303Y-104629693D01*
X142900267Y-104836371D01*
X143429964Y-104941734D01*
X143970038Y-104941734D01*
X144499735Y-104836371D01*
X144998699Y-104629693D01*
X145447754Y-104329644D01*
X145829645Y-103947753D01*
X146129694Y-103498698D01*
X146336372Y-102999734D01*
X146441735Y-102470037D01*
X146441735Y-101929963D01*
X146336372Y-101400266D01*
X146129694Y-100901302D01*
X145829645Y-100452247D01*
X145447754Y-100070356D01*
X144998699Y-99770307D01*
X144499735Y-99563629D01*
X143970038Y-99458266D01*
X143429964Y-99458266D01*
X142900267Y-99563629D01*
X142401303Y-99770307D01*
X141952248Y-100070356D01*
X141570357Y-100452247D01*
X141270308Y-100901302D01*
X141063630Y-101400266D01*
X140958267Y-101929963D01*
X140040001Y-101929963D01*
X140040001Y-100985724D01*
X140043677Y-100948401D01*
X140040001Y-100911078D01*
X140040001Y-100911068D01*
X140029004Y-100799415D01*
X139985547Y-100656154D01*
X139914975Y-100524125D01*
X139820002Y-100408400D01*
X139790998Y-100384597D01*
X139495797Y-100089396D01*
X139518513Y-100014511D01*
X139547185Y-99723400D01*
X139518513Y-99432289D01*
X139433599Y-99152366D01*
X139295706Y-98894386D01*
X139110134Y-98668266D01*
X138884014Y-98482694D01*
X138829209Y-98453400D01*
X138884014Y-98424106D01*
X139110134Y-98238534D01*
X139295706Y-98012414D01*
X139433599Y-97754434D01*
X139518513Y-97474511D01*
X139547185Y-97183400D01*
X139518513Y-96892289D01*
X139433599Y-96612366D01*
X139295706Y-96354386D01*
X139110134Y-96128266D01*
X138884014Y-95942694D01*
X138829209Y-95913400D01*
X138884014Y-95884106D01*
X139110134Y-95698534D01*
X139295706Y-95472414D01*
X139433599Y-95214434D01*
X139518513Y-94934511D01*
X139547185Y-94643400D01*
X139518513Y-94352289D01*
X139433599Y-94072366D01*
X139295706Y-93814386D01*
X139110134Y-93588266D01*
X138884014Y-93402694D01*
X138829209Y-93373400D01*
X138884014Y-93344106D01*
X139110134Y-93158534D01*
X139295706Y-92932414D01*
X139433599Y-92674434D01*
X139518513Y-92394511D01*
X139547185Y-92103400D01*
X139518513Y-91812289D01*
X139433599Y-91532366D01*
X139340741Y-91358639D01*
X140357591Y-91358639D01*
X140402511Y-91697439D01*
X140512664Y-92020966D01*
X140618662Y-92219274D01*
X140893288Y-92327107D01*
X141920395Y-91300000D01*
X140893288Y-90272893D01*
X140618662Y-90380726D01*
X140467784Y-90687384D01*
X140379631Y-91017585D01*
X140357591Y-91358639D01*
X139340741Y-91358639D01*
X139295706Y-91274386D01*
X139110134Y-91048266D01*
X138884014Y-90862694D01*
X138626034Y-90724801D01*
X138346111Y-90639887D01*
X138127950Y-90618400D01*
X137982050Y-90618400D01*
X137763889Y-90639887D01*
X137483966Y-90724801D01*
X137225986Y-90862694D01*
X136999866Y-91048266D01*
X136814294Y-91274386D01*
X136676401Y-91532366D01*
X136591487Y-91812289D01*
X136562815Y-92103400D01*
X136591487Y-92394511D01*
X136676401Y-92674434D01*
X136814294Y-92932414D01*
X136999866Y-93158534D01*
X137225986Y-93344106D01*
X137280791Y-93373400D01*
X137225986Y-93402694D01*
X136999866Y-93588266D01*
X136814294Y-93814386D01*
X136676401Y-94072366D01*
X136591487Y-94352289D01*
X136562815Y-94643400D01*
X136591487Y-94934511D01*
X136676401Y-95214434D01*
X136814294Y-95472414D01*
X136999866Y-95698534D01*
X137225986Y-95884106D01*
X137280791Y-95913400D01*
X137225986Y-95942694D01*
X136999866Y-96128266D01*
X136814294Y-96354386D01*
X136676401Y-96612366D01*
X136591487Y-96892289D01*
X136562815Y-97183400D01*
X136591487Y-97474511D01*
X136676401Y-97754434D01*
X136814294Y-98012414D01*
X136999866Y-98238534D01*
X137225986Y-98424106D01*
X137280791Y-98453400D01*
X137225986Y-98482694D01*
X136999866Y-98668266D01*
X136814294Y-98894386D01*
X136676401Y-99152366D01*
X136591487Y-99432289D01*
X136562815Y-99723400D01*
X136591487Y-100014511D01*
X136676401Y-100294434D01*
X136814294Y-100552414D01*
X136999866Y-100778534D01*
X137225986Y-100964106D01*
X137280791Y-100993400D01*
X137225986Y-101022694D01*
X136999866Y-101208266D01*
X136814294Y-101434386D01*
X136676401Y-101692366D01*
X136591487Y-101972289D01*
X136562815Y-102263400D01*
X136591487Y-102554511D01*
X136614203Y-102629395D01*
X126355198Y-112888401D01*
X119145764Y-112888401D01*
X119198513Y-112714511D01*
X119227185Y-112423400D01*
X119198513Y-112132289D01*
X119113599Y-111852366D01*
X118975706Y-111594386D01*
X118790134Y-111368266D01*
X118564014Y-111182694D01*
X118509209Y-111153400D01*
X118564014Y-111124106D01*
X118790134Y-110938534D01*
X118975706Y-110712414D01*
X119113599Y-110454434D01*
X119198513Y-110174511D01*
X119227185Y-109883400D01*
X119198513Y-109592289D01*
X119113599Y-109312366D01*
X118975706Y-109054386D01*
X118790134Y-108828266D01*
X118564014Y-108642694D01*
X118509209Y-108613400D01*
X118564014Y-108584106D01*
X118790134Y-108398534D01*
X118975706Y-108172414D01*
X119113599Y-107914434D01*
X119198513Y-107634511D01*
X119227185Y-107343400D01*
X119198513Y-107052289D01*
X119113599Y-106772366D01*
X118975706Y-106514386D01*
X118790134Y-106288266D01*
X118564014Y-106102694D01*
X118509209Y-106073400D01*
X118564014Y-106044106D01*
X118790134Y-105858534D01*
X118975706Y-105632414D01*
X119113599Y-105374434D01*
X119198513Y-105094511D01*
X119227185Y-104803400D01*
X119198513Y-104512289D01*
X119113599Y-104232366D01*
X118975706Y-103974386D01*
X118790134Y-103748266D01*
X118564014Y-103562694D01*
X118509209Y-103533400D01*
X118564014Y-103504106D01*
X118790134Y-103318534D01*
X118975706Y-103092414D01*
X119113599Y-102834434D01*
X119198513Y-102554511D01*
X119227185Y-102263400D01*
X119198513Y-101972289D01*
X119113599Y-101692366D01*
X118975706Y-101434386D01*
X118790134Y-101208266D01*
X118564014Y-101022694D01*
X118509209Y-100993400D01*
X118564014Y-100964106D01*
X118790134Y-100778534D01*
X118975706Y-100552414D01*
X119113599Y-100294434D01*
X119198513Y-100014511D01*
X119227185Y-99723400D01*
X119198513Y-99432289D01*
X119113599Y-99152366D01*
X118975706Y-98894386D01*
X118790134Y-98668266D01*
X118564014Y-98482694D01*
X118509209Y-98453400D01*
X118564014Y-98424106D01*
X118790134Y-98238534D01*
X118975706Y-98012414D01*
X119113599Y-97754434D01*
X119198513Y-97474511D01*
X119227185Y-97183400D01*
X119198513Y-96892289D01*
X119113599Y-96612366D01*
X118975706Y-96354386D01*
X118790134Y-96128266D01*
X118564014Y-95942694D01*
X118509209Y-95913400D01*
X118564014Y-95884106D01*
X118790134Y-95698534D01*
X118975706Y-95472414D01*
X119113599Y-95214434D01*
X119198513Y-94934511D01*
X119227185Y-94643400D01*
X119198513Y-94352289D01*
X119113599Y-94072366D01*
X118975706Y-93814386D01*
X118790134Y-93588266D01*
X118564014Y-93402694D01*
X118509209Y-93373400D01*
X118564014Y-93344106D01*
X118790134Y-93158534D01*
X118975706Y-92932414D01*
X119113599Y-92674434D01*
X119198513Y-92394511D01*
X119227185Y-92103400D01*
X119198513Y-91812289D01*
X119113599Y-91532366D01*
X118975706Y-91274386D01*
X118790134Y-91048266D01*
X118564014Y-90862694D01*
X118499477Y-90828199D01*
X118616355Y-90758578D01*
X118832588Y-90563669D01*
X119006641Y-90330320D01*
X119131825Y-90067499D01*
X119176476Y-89920290D01*
X119055155Y-89690400D01*
X117862000Y-89690400D01*
X117862000Y-89710400D01*
X117608000Y-89710400D01*
X117608000Y-89690400D01*
X116414845Y-89690400D01*
X116293524Y-89920290D01*
X116338175Y-90067499D01*
X116463359Y-90330320D01*
X116637412Y-90563669D01*
X116853645Y-90758578D01*
X116970523Y-90828199D01*
X116905986Y-90862694D01*
X116679866Y-91048266D01*
X116494294Y-91274386D01*
X116356401Y-91532366D01*
X116271487Y-91812289D01*
X116242815Y-92103400D01*
X116271487Y-92394511D01*
X116356401Y-92674434D01*
X116494294Y-92932414D01*
X116679866Y-93158534D01*
X116905986Y-93344106D01*
X116960791Y-93373400D01*
X116905986Y-93402694D01*
X116679866Y-93588266D01*
X116494294Y-93814386D01*
X116356401Y-94072366D01*
X116271487Y-94352289D01*
X116242815Y-94643400D01*
X116271487Y-94934511D01*
X116356401Y-95214434D01*
X116494294Y-95472414D01*
X116679866Y-95698534D01*
X116905986Y-95884106D01*
X116960791Y-95913400D01*
X116905986Y-95942694D01*
X116679866Y-96128266D01*
X116494294Y-96354386D01*
X116356401Y-96612366D01*
X116271487Y-96892289D01*
X116242815Y-97183400D01*
X116271487Y-97474511D01*
X116356401Y-97754434D01*
X116494294Y-98012414D01*
X116679866Y-98238534D01*
X116905986Y-98424106D01*
X116960791Y-98453400D01*
X116905986Y-98482694D01*
X116679866Y-98668266D01*
X116494294Y-98894386D01*
X116356401Y-99152366D01*
X116271487Y-99432289D01*
X116242815Y-99723400D01*
X116271487Y-100014511D01*
X116356401Y-100294434D01*
X116494294Y-100552414D01*
X116679866Y-100778534D01*
X116905986Y-100964106D01*
X116960791Y-100993400D01*
X116905986Y-101022694D01*
X116679866Y-101208266D01*
X116494294Y-101434386D01*
X116356401Y-101692366D01*
X116271487Y-101972289D01*
X116242815Y-102263400D01*
X116271487Y-102554511D01*
X116356401Y-102834434D01*
X116494294Y-103092414D01*
X116679866Y-103318534D01*
X116905986Y-103504106D01*
X116960791Y-103533400D01*
X116905986Y-103562694D01*
X116679866Y-103748266D01*
X116494294Y-103974386D01*
X116356401Y-104232366D01*
X116271487Y-104512289D01*
X116242815Y-104803400D01*
X116271487Y-105094511D01*
X116356401Y-105374434D01*
X116494294Y-105632414D01*
X116679866Y-105858534D01*
X116905986Y-106044106D01*
X116960791Y-106073400D01*
X116905986Y-106102694D01*
X116679866Y-106288266D01*
X116494294Y-106514386D01*
X116356401Y-106772366D01*
X116271487Y-107052289D01*
X116242815Y-107343400D01*
X116271487Y-107634511D01*
X116356401Y-107914434D01*
X116494294Y-108172414D01*
X116679866Y-108398534D01*
X116905986Y-108584106D01*
X116960791Y-108613400D01*
X116905986Y-108642694D01*
X116679866Y-108828266D01*
X116494294Y-109054386D01*
X116356401Y-109312366D01*
X116271487Y-109592289D01*
X116242815Y-109883400D01*
X116271487Y-110174511D01*
X116356401Y-110454434D01*
X116494294Y-110712414D01*
X116679866Y-110938534D01*
X116905986Y-111124106D01*
X116960791Y-111153400D01*
X116905986Y-111182694D01*
X116679866Y-111368266D01*
X116494294Y-111594386D01*
X116356401Y-111852366D01*
X116271487Y-112132289D01*
X116242815Y-112423400D01*
X116271487Y-112714511D01*
X116324236Y-112888401D01*
X115846401Y-112888401D01*
X115956027Y-112778775D01*
X115985024Y-112754978D01*
X116079997Y-112639253D01*
X116150569Y-112507224D01*
X116194026Y-112363963D01*
X116205023Y-112252310D01*
X116205023Y-112252302D01*
X116208699Y-112214977D01*
X116205023Y-112177652D01*
X116205023Y-82839894D01*
X116208699Y-82802571D01*
X116205023Y-82765248D01*
X116205023Y-82765239D01*
X116194026Y-82653586D01*
X116150569Y-82510325D01*
X116079997Y-82378296D01*
X116057607Y-82351014D01*
X116008822Y-82291568D01*
X116008818Y-82291564D01*
X115985024Y-82262571D01*
X115956031Y-82238777D01*
X115660654Y-81943400D01*
X116242815Y-81943400D01*
X116271487Y-82234511D01*
X116356401Y-82514434D01*
X116494294Y-82772414D01*
X116679866Y-82998534D01*
X116905986Y-83184106D01*
X116960791Y-83213400D01*
X116905986Y-83242694D01*
X116679866Y-83428266D01*
X116494294Y-83654386D01*
X116356401Y-83912366D01*
X116271487Y-84192289D01*
X116242815Y-84483400D01*
X116271487Y-84774511D01*
X116356401Y-85054434D01*
X116494294Y-85312414D01*
X116679866Y-85538534D01*
X116905986Y-85724106D01*
X116960791Y-85753400D01*
X116905986Y-85782694D01*
X116679866Y-85968266D01*
X116494294Y-86194386D01*
X116356401Y-86452366D01*
X116271487Y-86732289D01*
X116242815Y-87023400D01*
X116271487Y-87314511D01*
X116356401Y-87594434D01*
X116494294Y-87852414D01*
X116679866Y-88078534D01*
X116905986Y-88264106D01*
X116970523Y-88298601D01*
X116853645Y-88368222D01*
X116637412Y-88563131D01*
X116463359Y-88796480D01*
X116338175Y-89059301D01*
X116293524Y-89206510D01*
X116414845Y-89436400D01*
X117608000Y-89436400D01*
X117608000Y-89416400D01*
X117862000Y-89416400D01*
X117862000Y-89436400D01*
X119055155Y-89436400D01*
X119176476Y-89206510D01*
X119131825Y-89059301D01*
X119006641Y-88796480D01*
X118832588Y-88563131D01*
X118616355Y-88368222D01*
X118499477Y-88298601D01*
X118564014Y-88264106D01*
X118790134Y-88078534D01*
X118975706Y-87852414D01*
X119113599Y-87594434D01*
X119198513Y-87314511D01*
X119227185Y-87023400D01*
X119198513Y-86732289D01*
X119113599Y-86452366D01*
X118975706Y-86194386D01*
X118790134Y-85968266D01*
X118564014Y-85782694D01*
X118509209Y-85753400D01*
X118564014Y-85724106D01*
X118790134Y-85538534D01*
X118975706Y-85312414D01*
X119113599Y-85054434D01*
X119198513Y-84774511D01*
X119227185Y-84483400D01*
X119198513Y-84192289D01*
X119113599Y-83912366D01*
X118975706Y-83654386D01*
X118790134Y-83428266D01*
X118564014Y-83242694D01*
X118509209Y-83213400D01*
X118564014Y-83184106D01*
X118790134Y-82998534D01*
X118975706Y-82772414D01*
X119113599Y-82514434D01*
X119198513Y-82234511D01*
X119227185Y-81943400D01*
X119198513Y-81652289D01*
X119113599Y-81372366D01*
X118975706Y-81114386D01*
X118790134Y-80888266D01*
X118564014Y-80702694D01*
X118306034Y-80564801D01*
X118026111Y-80479887D01*
X117807950Y-80458400D01*
X117662050Y-80458400D01*
X117443889Y-80479887D01*
X117163966Y-80564801D01*
X116905986Y-80702694D01*
X116679866Y-80888266D01*
X116494294Y-81114386D01*
X116356401Y-81372366D01*
X116271487Y-81652289D01*
X116242815Y-81943400D01*
X115660654Y-81943400D01*
X114831244Y-81113992D01*
X114807442Y-81084989D01*
X114691717Y-80990016D01*
X114559688Y-80919444D01*
X114416427Y-80875987D01*
X114304774Y-80864990D01*
X114304763Y-80864990D01*
X114267441Y-80861314D01*
X114230119Y-80864990D01*
X113547332Y-80864990D01*
X113510009Y-80861314D01*
X113472687Y-80864990D01*
X113472677Y-80864990D01*
X113361024Y-80875987D01*
X113217763Y-80919444D01*
X113085733Y-80990016D01*
X113007216Y-81054454D01*
X112970009Y-81084989D01*
X112946211Y-81113987D01*
X112694800Y-81365399D01*
X112635000Y-81359509D01*
X112412501Y-81381423D01*
X112198553Y-81446324D01*
X112005000Y-81549779D01*
X111811446Y-81446324D01*
X111597498Y-81381423D01*
X111375000Y-81359509D01*
X111152501Y-81381423D01*
X110938553Y-81446324D01*
X110741377Y-81551716D01*
X110735000Y-81556949D01*
X110728623Y-81551716D01*
X110531446Y-81446324D01*
X110317498Y-81381423D01*
X110095000Y-81359509D01*
X109872501Y-81381423D01*
X109658553Y-81446324D01*
X109461377Y-81551716D01*
X109288551Y-81693551D01*
X109146716Y-81866377D01*
X109041324Y-82063554D01*
X108976423Y-82277502D01*
X108960000Y-82444249D01*
X108960000Y-83555752D01*
X108976423Y-83722499D01*
X109041324Y-83936447D01*
X109146717Y-84133623D01*
X109288552Y-84306449D01*
X109461378Y-84448284D01*
X109658554Y-84553676D01*
X109872502Y-84618577D01*
X110095000Y-84640491D01*
X110154800Y-84634601D01*
X113685002Y-88164805D01*
X113685002Y-89789236D01*
X113511111Y-89736487D01*
X113292950Y-89715000D01*
X113147050Y-89715000D01*
X112928889Y-89736487D01*
X112648966Y-89821401D01*
X112390986Y-89959294D01*
X112164866Y-90144866D01*
X111979294Y-90370986D01*
X111944799Y-90435523D01*
X111875178Y-90318645D01*
X111680269Y-90102412D01*
X111446920Y-89928359D01*
X111184099Y-89803175D01*
X111036890Y-89758524D01*
X110807000Y-89879845D01*
X110807000Y-91073000D01*
X110827000Y-91073000D01*
X110827000Y-91327000D01*
X110807000Y-91327000D01*
X110807000Y-92520155D01*
X111036890Y-92641476D01*
X111184099Y-92596825D01*
X111446920Y-92471641D01*
X111680269Y-92297588D01*
X111875178Y-92081355D01*
X111944799Y-91964477D01*
X111979294Y-92029014D01*
X112164866Y-92255134D01*
X112390986Y-92440706D01*
X112648966Y-92578599D01*
X112928889Y-92663513D01*
X113147050Y-92685000D01*
X113292950Y-92685000D01*
X113511111Y-92663513D01*
X113685002Y-92610764D01*
X113685001Y-104541195D01*
X108648998Y-109577199D01*
X108620000Y-109600997D01*
X108596202Y-109629995D01*
X108596201Y-109629996D01*
X108525026Y-109716722D01*
X108454454Y-109848752D01*
X108410998Y-109992013D01*
X108396324Y-110140998D01*
X108400001Y-110178330D01*
X108400000Y-113779099D01*
X108358899Y-113801068D01*
X108140392Y-113980392D01*
X107961068Y-114198899D01*
X107827818Y-114448192D01*
X107745764Y-114718691D01*
X107718057Y-115000000D01*
X107745764Y-115281309D01*
X107827818Y-115551808D01*
X107961068Y-115801101D01*
X108140392Y-116019608D01*
X108358899Y-116198932D01*
X108608192Y-116332182D01*
X108878691Y-116414236D01*
X109089508Y-116435000D01*
X109230492Y-116435000D01*
X109441309Y-116414236D01*
X109711808Y-116332182D01*
X109961101Y-116198932D01*
X110179608Y-116019608D01*
X110358932Y-115801101D01*
X110492182Y-115551808D01*
X110574236Y-115281309D01*
X110601943Y-115000000D01*
X110574236Y-114718691D01*
X110492182Y-114448192D01*
X110358932Y-114198899D01*
X110179608Y-113980392D01*
X109961101Y-113801068D01*
X109920000Y-113779099D01*
X109920000Y-110455799D01*
X110908284Y-109467515D01*
X111001068Y-109641101D01*
X111180392Y-109859608D01*
X111398899Y-110038932D01*
X111648192Y-110172182D01*
X111918691Y-110254236D01*
X112129508Y-110275000D01*
X112270492Y-110275000D01*
X112481309Y-110254236D01*
X112751808Y-110172182D01*
X113001101Y-110038932D01*
X113219608Y-109859608D01*
X113398932Y-109641101D01*
X113532182Y-109391808D01*
X113614236Y-109121309D01*
X113641943Y-108840000D01*
X113614236Y-108558691D01*
X113600708Y-108514093D01*
X114685023Y-107429778D01*
X114685023Y-111900175D01*
X109485907Y-117099292D01*
X109441309Y-117085764D01*
X109230492Y-117065000D01*
X109089508Y-117065000D01*
X108878691Y-117085764D01*
X108608192Y-117167818D01*
X108358899Y-117301068D01*
X108140392Y-117480392D01*
X107961068Y-117698899D01*
X107868284Y-117872485D01*
X104484802Y-114489003D01*
X104460999Y-114459999D01*
X104345274Y-114365026D01*
X104213245Y-114294454D01*
X104069984Y-114250997D01*
X103958331Y-114240000D01*
X103958320Y-114240000D01*
X103920998Y-114236324D01*
X103883676Y-114240000D01*
X100218043Y-114240000D01*
X100114637Y-114085241D01*
X99914759Y-113885363D01*
X99679727Y-113728320D01*
X99418574Y-113620147D01*
X99141335Y-113565000D01*
X98858665Y-113565000D01*
X98581426Y-113620147D01*
X98320273Y-113728320D01*
X98085241Y-113885363D01*
X98060000Y-113910604D01*
X98060000Y-112586936D01*
X98238192Y-112682182D01*
X98508691Y-112764236D01*
X98790000Y-112791943D01*
X99071308Y-112764236D01*
X99341807Y-112682182D01*
X99591100Y-112548932D01*
X99809607Y-112369608D01*
X99988932Y-112151101D01*
X100060000Y-112018142D01*
X100131068Y-112151100D01*
X100310392Y-112369607D01*
X100528899Y-112548932D01*
X100778192Y-112682182D01*
X101048691Y-112764236D01*
X101330000Y-112791943D01*
X101611308Y-112764236D01*
X101881807Y-112682182D01*
X102131100Y-112548932D01*
X102349607Y-112369608D01*
X102528932Y-112151101D01*
X102600000Y-112018142D01*
X102671068Y-112151100D01*
X102850392Y-112369607D01*
X103068899Y-112548932D01*
X103318192Y-112682182D01*
X103588691Y-112764236D01*
X103870000Y-112791943D01*
X104151308Y-112764236D01*
X104421807Y-112682182D01*
X104671100Y-112548932D01*
X104889607Y-112369608D01*
X105068932Y-112151101D01*
X105140000Y-112018142D01*
X105211068Y-112151100D01*
X105390392Y-112369607D01*
X105608899Y-112548932D01*
X105858192Y-112682182D01*
X106128691Y-112764236D01*
X106410000Y-112791943D01*
X106691308Y-112764236D01*
X106961807Y-112682182D01*
X107211100Y-112548932D01*
X107429607Y-112369608D01*
X107608932Y-112151101D01*
X107742182Y-111901808D01*
X107824236Y-111631309D01*
X107845000Y-111420492D01*
X107845000Y-109879508D01*
X107824236Y-109668691D01*
X107742182Y-109398192D01*
X107608932Y-109148899D01*
X107429608Y-108930392D01*
X107211101Y-108751068D01*
X106961808Y-108617818D01*
X106691309Y-108535764D01*
X106410000Y-108508057D01*
X106128692Y-108535764D01*
X105858193Y-108617818D01*
X105608900Y-108751068D01*
X105390393Y-108930392D01*
X105211069Y-109148899D01*
X105140001Y-109281859D01*
X105068932Y-109148899D01*
X104889608Y-108930392D01*
X104671101Y-108751068D01*
X104421808Y-108617818D01*
X104151309Y-108535764D01*
X103870000Y-108508057D01*
X103588692Y-108535764D01*
X103318193Y-108617818D01*
X103068900Y-108751068D01*
X102850393Y-108930392D01*
X102671069Y-109148899D01*
X102600001Y-109281859D01*
X102528932Y-109148899D01*
X102349608Y-108930392D01*
X102131101Y-108751068D01*
X101881808Y-108617818D01*
X101611309Y-108535764D01*
X101330000Y-108508057D01*
X101048692Y-108535764D01*
X100778193Y-108617818D01*
X100528900Y-108751068D01*
X100310393Y-108930392D01*
X100131069Y-109148899D01*
X100060001Y-109281859D01*
X99988932Y-109148899D01*
X99809608Y-108930392D01*
X99591101Y-108751068D01*
X99341808Y-108617818D01*
X99071309Y-108535764D01*
X98790000Y-108508057D01*
X98508692Y-108535764D01*
X98238193Y-108617818D01*
X98060000Y-108713064D01*
X98060000Y-99287535D01*
X98098354Y-99313715D01*
X98358182Y-99424367D01*
X98440961Y-99441904D01*
X98663000Y-99319915D01*
X98663000Y-97477000D01*
X98643000Y-97477000D01*
X98643000Y-97223000D01*
X98663000Y-97223000D01*
X98663000Y-97203000D01*
X98917000Y-97203000D01*
X98917000Y-97223000D01*
X98937000Y-97223000D01*
X98937000Y-97477000D01*
X98917000Y-97477000D01*
X98917000Y-99319915D01*
X99139039Y-99441904D01*
X99221818Y-99424367D01*
X99481646Y-99313715D01*
X99714895Y-99154500D01*
X99912601Y-98952839D01*
X100062735Y-98723258D01*
X100131068Y-98851100D01*
X100310392Y-99069607D01*
X100528899Y-99248932D01*
X100778192Y-99382182D01*
X101048691Y-99464236D01*
X101330000Y-99491943D01*
X101611308Y-99464236D01*
X101881807Y-99382182D01*
X102131100Y-99248932D01*
X102349607Y-99069608D01*
X102528932Y-98851101D01*
X102600000Y-98718142D01*
X102671068Y-98851100D01*
X102850392Y-99069607D01*
X103068899Y-99248932D01*
X103318192Y-99382182D01*
X103588691Y-99464236D01*
X103870000Y-99491943D01*
X104151308Y-99464236D01*
X104421807Y-99382182D01*
X104671100Y-99248932D01*
X104889607Y-99069608D01*
X105068932Y-98851101D01*
X105140000Y-98718142D01*
X105211068Y-98851100D01*
X105390392Y-99069607D01*
X105608899Y-99248932D01*
X105858192Y-99382182D01*
X106128691Y-99464236D01*
X106410000Y-99491943D01*
X106691308Y-99464236D01*
X106961807Y-99382182D01*
X107211100Y-99248932D01*
X107429607Y-99069608D01*
X107608932Y-98851101D01*
X107742182Y-98601808D01*
X107824236Y-98331309D01*
X107845000Y-98120492D01*
X107845000Y-96579508D01*
X107824236Y-96368691D01*
X107742182Y-96098192D01*
X107608932Y-95848899D01*
X107429608Y-95630392D01*
X107211101Y-95451068D01*
X106961808Y-95317818D01*
X106691309Y-95235764D01*
X106410000Y-95208057D01*
X106128692Y-95235764D01*
X105858193Y-95317818D01*
X105608900Y-95451068D01*
X105390393Y-95630392D01*
X105211069Y-95848899D01*
X105140001Y-95981859D01*
X105068932Y-95848899D01*
X104889608Y-95630392D01*
X104671101Y-95451068D01*
X104421808Y-95317818D01*
X104151309Y-95235764D01*
X103870000Y-95208057D01*
X103588692Y-95235764D01*
X103318193Y-95317818D01*
X103068900Y-95451068D01*
X102850393Y-95630392D01*
X102671069Y-95848899D01*
X102600001Y-95981859D01*
X102528932Y-95848899D01*
X102349608Y-95630392D01*
X102131101Y-95451068D01*
X101881808Y-95317818D01*
X101611309Y-95235764D01*
X101330000Y-95208057D01*
X101048692Y-95235764D01*
X101034833Y-95239968D01*
X103411004Y-92863798D01*
X103440001Y-92840001D01*
X103466332Y-92807917D01*
X103534974Y-92724277D01*
X103605546Y-92592247D01*
X103631492Y-92506712D01*
X103649003Y-92448986D01*
X103660000Y-92337333D01*
X103660000Y-92337323D01*
X103663676Y-92300000D01*
X103660000Y-92262677D01*
X103660000Y-90350000D01*
X104111928Y-90350000D01*
X104111928Y-92050000D01*
X104124188Y-92174482D01*
X104160498Y-92294180D01*
X104219463Y-92404494D01*
X104298815Y-92501185D01*
X104395506Y-92580537D01*
X104505820Y-92639502D01*
X104625518Y-92675812D01*
X104750000Y-92688072D01*
X106450000Y-92688072D01*
X106574482Y-92675812D01*
X106694180Y-92639502D01*
X106804494Y-92580537D01*
X106901185Y-92501185D01*
X106980537Y-92404494D01*
X107039502Y-92294180D01*
X107060393Y-92225313D01*
X107084866Y-92255134D01*
X107310986Y-92440706D01*
X107568966Y-92578599D01*
X107848889Y-92663513D01*
X108067050Y-92685000D01*
X108212950Y-92685000D01*
X108431111Y-92663513D01*
X108711034Y-92578599D01*
X108969014Y-92440706D01*
X109195134Y-92255134D01*
X109380706Y-92029014D01*
X109415201Y-91964477D01*
X109484822Y-92081355D01*
X109679731Y-92297588D01*
X109913080Y-92471641D01*
X110175901Y-92596825D01*
X110323110Y-92641476D01*
X110553000Y-92520155D01*
X110553000Y-91327000D01*
X110533000Y-91327000D01*
X110533000Y-91073000D01*
X110553000Y-91073000D01*
X110553000Y-89879845D01*
X110323110Y-89758524D01*
X110175901Y-89803175D01*
X109913080Y-89928359D01*
X109679731Y-90102412D01*
X109484822Y-90318645D01*
X109415201Y-90435523D01*
X109380706Y-90370986D01*
X109195134Y-90144866D01*
X108969014Y-89959294D01*
X108711034Y-89821401D01*
X108431111Y-89736487D01*
X108212950Y-89715000D01*
X108067050Y-89715000D01*
X107848889Y-89736487D01*
X107568966Y-89821401D01*
X107310986Y-89959294D01*
X107084866Y-90144866D01*
X107060393Y-90174687D01*
X107039502Y-90105820D01*
X106980537Y-89995506D01*
X106901185Y-89898815D01*
X106804494Y-89819463D01*
X106694180Y-89760498D01*
X106574482Y-89724188D01*
X106450000Y-89711928D01*
X104750000Y-89711928D01*
X104625518Y-89724188D01*
X104505820Y-89760498D01*
X104395506Y-89819463D01*
X104298815Y-89898815D01*
X104219463Y-89995506D01*
X104160498Y-90105820D01*
X104124188Y-90225518D01*
X104111928Y-90350000D01*
X103660000Y-90350000D01*
X103660000Y-89797322D01*
X103663676Y-89760000D01*
X103660000Y-89722677D01*
X103660000Y-89722667D01*
X103649003Y-89611014D01*
X103605546Y-89467753D01*
X103588787Y-89436400D01*
X103534974Y-89335723D01*
X103463799Y-89248997D01*
X103440001Y-89219999D01*
X103411003Y-89196201D01*
X99306177Y-85091376D01*
X99312168Y-85076912D01*
X99375000Y-84761033D01*
X99375000Y-84438967D01*
X99312168Y-84123088D01*
X99188918Y-83825537D01*
X99009987Y-83557748D01*
X98782252Y-83330013D01*
X98514463Y-83151082D01*
X98216912Y-83027832D01*
X97901033Y-82965000D01*
X97578967Y-82965000D01*
X97427014Y-82995225D01*
X97541160Y-82881079D01*
X101665000Y-82881079D01*
X101665000Y-83478921D01*
X101781633Y-84065277D01*
X102010418Y-84617612D01*
X102342562Y-85114700D01*
X102765300Y-85537438D01*
X103262388Y-85869582D01*
X103814723Y-86098367D01*
X104401079Y-86215000D01*
X104998921Y-86215000D01*
X105585277Y-86098367D01*
X106137612Y-85869582D01*
X106634700Y-85537438D01*
X107057438Y-85114700D01*
X107389582Y-84617612D01*
X107618367Y-84065277D01*
X107735000Y-83478921D01*
X107735000Y-82881079D01*
X107618367Y-82294723D01*
X107389582Y-81742388D01*
X107057438Y-81245300D01*
X106634700Y-80822562D01*
X106137612Y-80490418D01*
X105585277Y-80261633D01*
X104998921Y-80145000D01*
X104401079Y-80145000D01*
X103814723Y-80261633D01*
X103262388Y-80490418D01*
X102765300Y-80822562D01*
X102342562Y-81245300D01*
X102010418Y-81742388D01*
X101781633Y-82294723D01*
X101665000Y-82881079D01*
X97541160Y-82881079D01*
X97619987Y-82802252D01*
X97798918Y-82534463D01*
X97922168Y-82236912D01*
X97985000Y-81921033D01*
X97985000Y-81598967D01*
X97922168Y-81283088D01*
X97798918Y-80985537D01*
X97619987Y-80717748D01*
X97392252Y-80490013D01*
X97124463Y-80311082D01*
X96826912Y-80187832D01*
X96511033Y-80125000D01*
X96188967Y-80125000D01*
X95873088Y-80187832D01*
X95575537Y-80311082D01*
X95307748Y-80490013D01*
X95080013Y-80717748D01*
X94965000Y-80889877D01*
X94849987Y-80717748D01*
X94622252Y-80490013D01*
X94354463Y-80311082D01*
X94056912Y-80187832D01*
X93741033Y-80125000D01*
X93418967Y-80125000D01*
X93103088Y-80187832D01*
X92805537Y-80311082D01*
X92537748Y-80490013D01*
X92310013Y-80717748D01*
X92194413Y-80890756D01*
X91955413Y-80804192D01*
X90999605Y-81760000D01*
X91955413Y-82715808D01*
X92194413Y-82629244D01*
X92310013Y-82802252D01*
X92500503Y-82992742D01*
X92361033Y-82965000D01*
X92038967Y-82965000D01*
X91728216Y-83026812D01*
X91775808Y-82895413D01*
X90820000Y-81939605D01*
X89864192Y-82895413D01*
X89913078Y-83030386D01*
X89906912Y-83027832D01*
X89591033Y-82965000D01*
X89268967Y-82965000D01*
X88958216Y-83026812D01*
X89005808Y-82895413D01*
X88050000Y-81939605D01*
X87094192Y-82895413D01*
X87145483Y-83037024D01*
X86918892Y-82977616D01*
X86597405Y-82958282D01*
X86278325Y-83002039D01*
X85973912Y-83107205D01*
X85799956Y-83200186D01*
X85704192Y-83464587D01*
X86660000Y-84420395D01*
X87615808Y-83464587D01*
X87564517Y-83322976D01*
X87791108Y-83382384D01*
X88112595Y-83401718D01*
X88348377Y-83369384D01*
X88160013Y-83557748D01*
X88042464Y-83733672D01*
X87795413Y-83644192D01*
X86839605Y-84600000D01*
X87795413Y-85555808D01*
X88042464Y-85466328D01*
X88160013Y-85642252D01*
X88387748Y-85869987D01*
X88655537Y-86048918D01*
X88953088Y-86172168D01*
X89268967Y-86235000D01*
X89591033Y-86235000D01*
X89906912Y-86172168D01*
X90204463Y-86048918D01*
X90472252Y-85869987D01*
X90699987Y-85642252D01*
X90815000Y-85470123D01*
X90930013Y-85642252D01*
X91157748Y-85869987D01*
X91425537Y-86048918D01*
X91723088Y-86172168D01*
X92038967Y-86235000D01*
X92361033Y-86235000D01*
X92676912Y-86172168D01*
X92974463Y-86048918D01*
X93242252Y-85869987D01*
X93469987Y-85642252D01*
X93585000Y-85470123D01*
X93700013Y-85642252D01*
X93927748Y-85869987D01*
X94195537Y-86048918D01*
X94493088Y-86172168D01*
X94808967Y-86235000D01*
X95131033Y-86235000D01*
X95446912Y-86172168D01*
X95590000Y-86112899D01*
X95590000Y-87212677D01*
X95586324Y-87250000D01*
X95590000Y-87287322D01*
X95590000Y-87287332D01*
X95600997Y-87398985D01*
X95631639Y-87499999D01*
X95644454Y-87542246D01*
X95712711Y-87669945D01*
X95610319Y-87585914D01*
X95482632Y-87517664D01*
X95344084Y-87475636D01*
X95200000Y-87461445D01*
X95163885Y-87465002D01*
X76935000Y-87465000D01*
X76935000Y-84435537D01*
X77010418Y-84617612D01*
X77342562Y-85114700D01*
X77765300Y-85537438D01*
X78262388Y-85869582D01*
X78814723Y-86098367D01*
X79401079Y-86215000D01*
X79998921Y-86215000D01*
X80585277Y-86098367D01*
X81137612Y-85869582D01*
X81338409Y-85735413D01*
X85704192Y-85735413D01*
X85799956Y-85999814D01*
X86089571Y-86140704D01*
X86401108Y-86222384D01*
X86722595Y-86241718D01*
X87041675Y-86197961D01*
X87346088Y-86092795D01*
X87520044Y-85999814D01*
X87615808Y-85735413D01*
X86660000Y-84779605D01*
X85704192Y-85735413D01*
X81338409Y-85735413D01*
X81634700Y-85537438D01*
X82057438Y-85114700D01*
X82359525Y-84662595D01*
X85018282Y-84662595D01*
X85062039Y-84981675D01*
X85167205Y-85286088D01*
X85260186Y-85460044D01*
X85524587Y-85555808D01*
X86480395Y-84600000D01*
X85524587Y-83644192D01*
X85260186Y-83739956D01*
X85119296Y-84029571D01*
X85037616Y-84341108D01*
X85018282Y-84662595D01*
X82359525Y-84662595D01*
X82389582Y-84617612D01*
X82618367Y-84065277D01*
X82735000Y-83478921D01*
X82735000Y-82881079D01*
X82618367Y-82294723D01*
X82422805Y-81822595D01*
X86408282Y-81822595D01*
X86452039Y-82141675D01*
X86557205Y-82446088D01*
X86650186Y-82620044D01*
X86914587Y-82715808D01*
X87870395Y-81760000D01*
X88229605Y-81760000D01*
X89185413Y-82715808D01*
X89435000Y-82625410D01*
X89684587Y-82715808D01*
X90640395Y-81760000D01*
X89684587Y-80804192D01*
X89435000Y-80894590D01*
X89185413Y-80804192D01*
X88229605Y-81760000D01*
X87870395Y-81760000D01*
X86914587Y-80804192D01*
X86650186Y-80899956D01*
X86509296Y-81189571D01*
X86427616Y-81501108D01*
X86408282Y-81822595D01*
X82422805Y-81822595D01*
X82389582Y-81742388D01*
X82057438Y-81245300D01*
X81634700Y-80822562D01*
X81338410Y-80624587D01*
X87094192Y-80624587D01*
X88050000Y-81580395D01*
X89005808Y-80624587D01*
X89864192Y-80624587D01*
X90820000Y-81580395D01*
X91775808Y-80624587D01*
X91680044Y-80360186D01*
X91390429Y-80219296D01*
X91078892Y-80137616D01*
X90757405Y-80118282D01*
X90438325Y-80162039D01*
X90133912Y-80267205D01*
X89959956Y-80360186D01*
X89864192Y-80624587D01*
X89005808Y-80624587D01*
X88910044Y-80360186D01*
X88620429Y-80219296D01*
X88308892Y-80137616D01*
X87987405Y-80118282D01*
X87668325Y-80162039D01*
X87363912Y-80267205D01*
X87189956Y-80360186D01*
X87094192Y-80624587D01*
X81338410Y-80624587D01*
X81137612Y-80490418D01*
X80585277Y-80261633D01*
X79998921Y-80145000D01*
X79401079Y-80145000D01*
X78814723Y-80261633D01*
X78262388Y-80490418D01*
X77765300Y-80822562D01*
X77342562Y-81245300D01*
X77010418Y-81742388D01*
X76935000Y-81924463D01*
X76935000Y-76934999D01*
X147465001Y-76935001D01*
X147465001Y-76935001D01*
G37*
X147465001Y-76935001D02*
X147465000Y-95372105D01*
X147135250Y-95235518D01*
X146780732Y-95165000D01*
X146702499Y-95165000D01*
X146768325Y-95006081D01*
X146835000Y-94670883D01*
X146835000Y-94329117D01*
X146768325Y-93993919D01*
X146637537Y-93678169D01*
X146447663Y-93394002D01*
X146205998Y-93152337D01*
X145921831Y-92962463D01*
X145771032Y-92900000D01*
X145921831Y-92837537D01*
X146205998Y-92647663D01*
X146447663Y-92405998D01*
X146637537Y-92121831D01*
X146768325Y-91806081D01*
X146835000Y-91470883D01*
X146835000Y-91129117D01*
X146768325Y-90793919D01*
X146637537Y-90478169D01*
X146447663Y-90194002D01*
X146205998Y-89952337D01*
X145921831Y-89762463D01*
X145771032Y-89700000D01*
X145921831Y-89637537D01*
X146205998Y-89447663D01*
X146447663Y-89205998D01*
X146637537Y-88921831D01*
X146768325Y-88606081D01*
X146835000Y-88270883D01*
X146835000Y-87929117D01*
X146768325Y-87593919D01*
X146637537Y-87278169D01*
X146447663Y-86994002D01*
X146205998Y-86752337D01*
X145921831Y-86562463D01*
X145606081Y-86431675D01*
X145270883Y-86365000D01*
X144929117Y-86365000D01*
X144593919Y-86431675D01*
X144278169Y-86562463D01*
X143994002Y-86752337D01*
X143752337Y-86994002D01*
X143596659Y-87226991D01*
X143447663Y-87004002D01*
X143205998Y-86762337D01*
X142921831Y-86572463D01*
X142606081Y-86441675D01*
X142270883Y-86375000D01*
X142265174Y-86375000D01*
X142364482Y-86135250D01*
X142435000Y-85780732D01*
X142435000Y-85419268D01*
X142364482Y-85064750D01*
X142226156Y-84730801D01*
X142025338Y-84430256D01*
X141769744Y-84174662D01*
X141469199Y-83973844D01*
X141135250Y-83835518D01*
X140780732Y-83765000D01*
X140419268Y-83765000D01*
X140064750Y-83835518D01*
X139730801Y-83973844D01*
X139430256Y-84174662D01*
X139174662Y-84430256D01*
X138973844Y-84730801D01*
X138835518Y-85064750D01*
X138765000Y-85419268D01*
X138765000Y-85780732D01*
X138835518Y-86135250D01*
X138973844Y-86469199D01*
X139174662Y-86769744D01*
X139430256Y-87025338D01*
X139730801Y-87226156D01*
X140064750Y-87364482D01*
X140419268Y-87435000D01*
X140501644Y-87435000D01*
X140431675Y-87603919D01*
X140365000Y-87939117D01*
X140365000Y-88280883D01*
X140431675Y-88616081D01*
X140562463Y-88931831D01*
X140752337Y-89215998D01*
X140994002Y-89457663D01*
X141278169Y-89647537D01*
X141409970Y-89702131D01*
X141379034Y-89712664D01*
X141180726Y-89818662D01*
X141072893Y-90093288D01*
X142100000Y-91120395D01*
X143127107Y-90093288D01*
X143019274Y-89818662D01*
X142785901Y-89703841D01*
X142921831Y-89647537D01*
X143205998Y-89457663D01*
X143447663Y-89215998D01*
X143603341Y-88983009D01*
X143752337Y-89205998D01*
X143994002Y-89447663D01*
X144278169Y-89637537D01*
X144428968Y-89700000D01*
X144278169Y-89762463D01*
X143994002Y-89952337D01*
X143752337Y-90194002D01*
X143601886Y-90419168D01*
X143581338Y-90380726D01*
X143306712Y-90272893D01*
X142279605Y-91300000D01*
X143306712Y-92327107D01*
X143581338Y-92219274D01*
X143600945Y-92179423D01*
X143752337Y-92405998D01*
X143994002Y-92647663D01*
X144278169Y-92837537D01*
X144428968Y-92900000D01*
X144278169Y-92962463D01*
X143994002Y-93152337D01*
X143752337Y-93394002D01*
X143600000Y-93621991D01*
X143447663Y-93394002D01*
X143205998Y-93152337D01*
X142921831Y-92962463D01*
X142776779Y-92902381D01*
X142820966Y-92887336D01*
X143019274Y-92781338D01*
X143127107Y-92506712D01*
X142100000Y-91479605D01*
X141072893Y-92506712D01*
X141180726Y-92781338D01*
X141425133Y-92901588D01*
X141278169Y-92962463D01*
X140994002Y-93152337D01*
X140752337Y-93394002D01*
X140562463Y-93678169D01*
X140431675Y-93993919D01*
X140365000Y-94329117D01*
X140365000Y-94670883D01*
X140431675Y-95006081D01*
X140562463Y-95321831D01*
X140752337Y-95605998D01*
X140994002Y-95847663D01*
X141278169Y-96037537D01*
X141593919Y-96168325D01*
X141929117Y-96235000D01*
X142270883Y-96235000D01*
X142606081Y-96168325D01*
X142921831Y-96037537D01*
X143205998Y-95847663D01*
X143447663Y-95605998D01*
X143600000Y-95378009D01*
X143752337Y-95605998D01*
X143994002Y-95847663D01*
X144278169Y-96037537D01*
X144593919Y-96168325D01*
X144929117Y-96235000D01*
X144930683Y-96235000D01*
X144835518Y-96464750D01*
X144765000Y-96819268D01*
X144765000Y-97180732D01*
X144835518Y-97535250D01*
X144973844Y-97869199D01*
X145174662Y-98169744D01*
X145430256Y-98425338D01*
X145730801Y-98626156D01*
X146064750Y-98764482D01*
X146419268Y-98835000D01*
X146780732Y-98835000D01*
X147135250Y-98764482D01*
X147465000Y-98627895D01*
X147465000Y-104236104D01*
X147475635Y-104344084D01*
X147490000Y-104391439D01*
X147490000Y-115440069D01*
X147320516Y-115388657D01*
X147080322Y-115365000D01*
X144919678Y-115365000D01*
X144679484Y-115388657D01*
X144371285Y-115482148D01*
X144087248Y-115633969D01*
X143838286Y-115838286D01*
X143633969Y-116087248D01*
X143482148Y-116371285D01*
X143388657Y-116679484D01*
X143357089Y-117000000D01*
X143388657Y-117320516D01*
X143482148Y-117628715D01*
X143633969Y-117912752D01*
X143838286Y-118161714D01*
X144087248Y-118366031D01*
X144371285Y-118517852D01*
X144679484Y-118611343D01*
X144919678Y-118635000D01*
X147080322Y-118635000D01*
X147320516Y-118611343D01*
X147490000Y-118559931D01*
X147490001Y-137439326D01*
X147443532Y-137421193D01*
X147127000Y-137365000D01*
X146127000Y-137365000D01*
X146127000Y-138873000D01*
X146147000Y-138873000D01*
X146147000Y-139127000D01*
X146127000Y-139127000D01*
X146127000Y-140635000D01*
X147127000Y-140635000D01*
X147443532Y-140578807D01*
X147490001Y-140560674D01*
X147490001Y-145490000D01*
X141560674Y-145490000D01*
X141578807Y-145443532D01*
X141635000Y-145127000D01*
X141635000Y-144127000D01*
X140127000Y-144127000D01*
X140127000Y-144147000D01*
X139873000Y-144147000D01*
X139873000Y-144127000D01*
X138365000Y-144127000D01*
X138365000Y-145127000D01*
X138421193Y-145443532D01*
X138429570Y-145465000D01*
X137567514Y-145465000D01*
X137611343Y-145320516D01*
X137635000Y-145080322D01*
X137635000Y-142919678D01*
X137630403Y-142873000D01*
X138365000Y-142873000D01*
X138365000Y-143873000D01*
X139873000Y-143873000D01*
X139873000Y-141529223D01*
X140127000Y-141529223D01*
X140127000Y-143873000D01*
X141635000Y-143873000D01*
X141635000Y-142873000D01*
X141578807Y-142556468D01*
X141461942Y-142256980D01*
X141288895Y-141986046D01*
X141066317Y-141754078D01*
X140802761Y-141569990D01*
X140508355Y-141440856D01*
X140380434Y-141409876D01*
X140127000Y-141529223D01*
X139873000Y-141529223D01*
X139619566Y-141409876D01*
X139491645Y-141440856D01*
X139197239Y-141569990D01*
X138933683Y-141754078D01*
X138711105Y-141986046D01*
X138538058Y-142256980D01*
X138421193Y-142556468D01*
X138365000Y-142873000D01*
X137630403Y-142873000D01*
X137611343Y-142679484D01*
X137517852Y-142371285D01*
X137366031Y-142087248D01*
X137161714Y-141838286D01*
X136912751Y-141633969D01*
X136628714Y-141482148D01*
X136320515Y-141388657D01*
X136000000Y-141357089D01*
X135679484Y-141388657D01*
X135371285Y-141482148D01*
X135087248Y-141633969D01*
X134838286Y-141838286D01*
X134633969Y-142087249D01*
X134482148Y-142371286D01*
X134388657Y-142679485D01*
X134365000Y-142919679D01*
X134365001Y-145080322D01*
X134388658Y-145320516D01*
X134432487Y-145465000D01*
X131745179Y-145465000D01*
X131947754Y-145329644D01*
X132329645Y-144947753D01*
X132629694Y-144498698D01*
X132836372Y-143999734D01*
X132941735Y-143470037D01*
X132941735Y-142929963D01*
X132836372Y-142400266D01*
X132629694Y-141901302D01*
X132329645Y-141452247D01*
X131947754Y-141070356D01*
X131498699Y-140770307D01*
X130999735Y-140563629D01*
X130470038Y-140458266D01*
X129929964Y-140458266D01*
X129400267Y-140563629D01*
X128901303Y-140770307D01*
X128452248Y-141070356D01*
X128070357Y-141452247D01*
X127770308Y-141901302D01*
X127563630Y-142400266D01*
X127458267Y-142929963D01*
X127458267Y-143470037D01*
X127563630Y-143999734D01*
X127770308Y-144498698D01*
X128070357Y-144947753D01*
X128452248Y-145329644D01*
X128654823Y-145465000D01*
X99745178Y-145465000D01*
X99947753Y-145329644D01*
X100329644Y-144947753D01*
X100629693Y-144498698D01*
X100836371Y-143999734D01*
X100941734Y-143470037D01*
X100941734Y-142929963D01*
X100836371Y-142400266D01*
X100629693Y-141901302D01*
X100329644Y-141452247D01*
X99947753Y-141070356D01*
X99498698Y-140770307D01*
X98999734Y-140563629D01*
X98470037Y-140458266D01*
X97929963Y-140458266D01*
X97400266Y-140563629D01*
X96901302Y-140770307D01*
X96452247Y-141070356D01*
X96070356Y-141452247D01*
X95935000Y-141654822D01*
X95935000Y-134126021D01*
X95965026Y-134182195D01*
X96004871Y-134230745D01*
X96059999Y-134297920D01*
X96089003Y-134321723D01*
X103854773Y-142087494D01*
X103784866Y-142144866D01*
X103599294Y-142370986D01*
X103461401Y-142628966D01*
X103376487Y-142908889D01*
X103347815Y-143200000D01*
X103376487Y-143491111D01*
X103461401Y-143771034D01*
X103599294Y-144029014D01*
X103784866Y-144255134D01*
X104010986Y-144440706D01*
X104268966Y-144578599D01*
X104548889Y-144663513D01*
X104767050Y-144685000D01*
X104912950Y-144685000D01*
X105131111Y-144663513D01*
X105411034Y-144578599D01*
X105669014Y-144440706D01*
X105895134Y-144255134D01*
X106080706Y-144029014D01*
X106110000Y-143974209D01*
X106139294Y-144029014D01*
X106324866Y-144255134D01*
X106550986Y-144440706D01*
X106808966Y-144578599D01*
X107088889Y-144663513D01*
X107307050Y-144685000D01*
X107452950Y-144685000D01*
X107671111Y-144663513D01*
X107951034Y-144578599D01*
X108209014Y-144440706D01*
X108435134Y-144255134D01*
X108620706Y-144029014D01*
X108655201Y-143964477D01*
X108724822Y-144081355D01*
X108919731Y-144297588D01*
X109153080Y-144471641D01*
X109415901Y-144596825D01*
X109563110Y-144641476D01*
X109793000Y-144520155D01*
X109793000Y-143327000D01*
X109773000Y-143327000D01*
X109773000Y-143073000D01*
X109793000Y-143073000D01*
X109793000Y-141879845D01*
X110047000Y-141879845D01*
X110047000Y-143073000D01*
X110067000Y-143073000D01*
X110067000Y-143327000D01*
X110047000Y-143327000D01*
X110047000Y-144520155D01*
X110276890Y-144641476D01*
X110424099Y-144596825D01*
X110686920Y-144471641D01*
X110920269Y-144297588D01*
X111115178Y-144081355D01*
X111184799Y-143964477D01*
X111219294Y-144029014D01*
X111404866Y-144255134D01*
X111630986Y-144440706D01*
X111888966Y-144578599D01*
X112168889Y-144663513D01*
X112387050Y-144685000D01*
X112532950Y-144685000D01*
X112751111Y-144663513D01*
X113031034Y-144578599D01*
X113289014Y-144440706D01*
X113515134Y-144255134D01*
X113539607Y-144225313D01*
X113560498Y-144294180D01*
X113619463Y-144404494D01*
X113698815Y-144501185D01*
X113795506Y-144580537D01*
X113905820Y-144639502D01*
X114025518Y-144675812D01*
X114150000Y-144688072D01*
X115850000Y-144688072D01*
X115974482Y-144675812D01*
X116094180Y-144639502D01*
X116204494Y-144580537D01*
X116301185Y-144501185D01*
X116380537Y-144404494D01*
X116439502Y-144294180D01*
X116475812Y-144174482D01*
X116488072Y-144050000D01*
X116488072Y-142350000D01*
X116475812Y-142225518D01*
X116439502Y-142105820D01*
X116380537Y-141995506D01*
X116301185Y-141898815D01*
X116204494Y-141819463D01*
X116094180Y-141760498D01*
X115974482Y-141724188D01*
X115850000Y-141711928D01*
X114150000Y-141711928D01*
X114025518Y-141724188D01*
X113905820Y-141760498D01*
X113795506Y-141819463D01*
X113698815Y-141898815D01*
X113619463Y-141995506D01*
X113560498Y-142105820D01*
X113539607Y-142174687D01*
X113515134Y-142144866D01*
X113289014Y-141959294D01*
X113031034Y-141821401D01*
X112751111Y-141736487D01*
X112532950Y-141715000D01*
X112387050Y-141715000D01*
X112168889Y-141736487D01*
X111888966Y-141821401D01*
X111630986Y-141959294D01*
X111404866Y-142144866D01*
X111219294Y-142370986D01*
X111184799Y-142435523D01*
X111115178Y-142318645D01*
X110920269Y-142102412D01*
X110686920Y-141928359D01*
X110424099Y-141803175D01*
X110276890Y-141758524D01*
X110047000Y-141879845D01*
X109793000Y-141879845D01*
X109563110Y-141758524D01*
X109415901Y-141803175D01*
X109153080Y-141928359D01*
X108919731Y-142102412D01*
X108724822Y-142318645D01*
X108655201Y-142435523D01*
X108620706Y-142370986D01*
X108435134Y-142144866D01*
X108209014Y-141959294D01*
X107951034Y-141821401D01*
X107671111Y-141736487D01*
X107452950Y-141715000D01*
X107307050Y-141715000D01*
X107088889Y-141736487D01*
X107014005Y-141759203D01*
X100914802Y-135660000D01*
X112107815Y-135660000D01*
X112136487Y-135951111D01*
X112221401Y-136231034D01*
X112359294Y-136489014D01*
X112544866Y-136715134D01*
X112574687Y-136739607D01*
X112505820Y-136760498D01*
X112395506Y-136819463D01*
X112298815Y-136898815D01*
X112219463Y-136995506D01*
X112160498Y-137105820D01*
X112124188Y-137225518D01*
X112111928Y-137350000D01*
X112111928Y-139050000D01*
X112124188Y-139174482D01*
X112160498Y-139294180D01*
X112219463Y-139404494D01*
X112298815Y-139501185D01*
X112395506Y-139580537D01*
X112505820Y-139639502D01*
X112625518Y-139675812D01*
X112750000Y-139688072D01*
X114450000Y-139688072D01*
X114574482Y-139675812D01*
X114694180Y-139639502D01*
X114804494Y-139580537D01*
X114901185Y-139501185D01*
X114980537Y-139404494D01*
X115039502Y-139294180D01*
X115075812Y-139174482D01*
X115088072Y-139050000D01*
X115088072Y-138858665D01*
X116565000Y-138858665D01*
X116565000Y-139141335D01*
X116620147Y-139418574D01*
X116728320Y-139679727D01*
X116885363Y-139914759D01*
X117085241Y-140114637D01*
X117320273Y-140271680D01*
X117581426Y-140379853D01*
X117858665Y-140435000D01*
X118141335Y-140435000D01*
X118418574Y-140379853D01*
X118679727Y-140271680D01*
X118914759Y-140114637D01*
X119114637Y-139914759D01*
X119271680Y-139679727D01*
X119379853Y-139418574D01*
X119387439Y-139380434D01*
X143409876Y-139380434D01*
X143440856Y-139508355D01*
X143569990Y-139802761D01*
X143754078Y-140066317D01*
X143986046Y-140288895D01*
X144256980Y-140461942D01*
X144556468Y-140578807D01*
X144873000Y-140635000D01*
X145873000Y-140635000D01*
X145873000Y-139127000D01*
X143529223Y-139127000D01*
X143409876Y-139380434D01*
X119387439Y-139380434D01*
X119435000Y-139141335D01*
X119435000Y-138858665D01*
X119379853Y-138581426D01*
X119271680Y-138320273D01*
X119114637Y-138085241D01*
X118914759Y-137885363D01*
X118679727Y-137728320D01*
X118418574Y-137620147D01*
X118141335Y-137565000D01*
X117858665Y-137565000D01*
X117581426Y-137620147D01*
X117320273Y-137728320D01*
X117085241Y-137885363D01*
X116885363Y-138085241D01*
X116728320Y-138320273D01*
X116620147Y-138581426D01*
X116565000Y-138858665D01*
X115088072Y-138858665D01*
X115088072Y-137350000D01*
X115075812Y-137225518D01*
X115039502Y-137105820D01*
X114980537Y-136995506D01*
X114901613Y-136899336D01*
X121495000Y-136899336D01*
X121495000Y-137820665D01*
X121512870Y-138002102D01*
X121583489Y-138234901D01*
X121698168Y-138449449D01*
X121852499Y-138637502D01*
X122040552Y-138791833D01*
X122255100Y-138906511D01*
X122487899Y-138977130D01*
X122730000Y-139000975D01*
X122972102Y-138977130D01*
X123204901Y-138906511D01*
X123419449Y-138791833D01*
X123607502Y-138637502D01*
X123761833Y-138449449D01*
X123876511Y-138234901D01*
X123947130Y-138002101D01*
X123965000Y-137820664D01*
X123965000Y-137487000D01*
X124035000Y-137487000D01*
X124035000Y-137887000D01*
X124083507Y-138125496D01*
X124177610Y-138349946D01*
X124313693Y-138551725D01*
X124486526Y-138723078D01*
X124689467Y-138857421D01*
X124914718Y-138949591D01*
X124952391Y-138953462D01*
X125143000Y-138828731D01*
X125143000Y-137487000D01*
X125397000Y-137487000D01*
X125397000Y-138828731D01*
X125587609Y-138953462D01*
X125625282Y-138949591D01*
X125850533Y-138857421D01*
X126053474Y-138723078D01*
X126157880Y-138619566D01*
X143409876Y-138619566D01*
X143529223Y-138873000D01*
X145873000Y-138873000D01*
X145873000Y-137365000D01*
X144873000Y-137365000D01*
X144556468Y-137421193D01*
X144256980Y-137538058D01*
X143986046Y-137711105D01*
X143754078Y-137933683D01*
X143569990Y-138197239D01*
X143440856Y-138491645D01*
X143409876Y-138619566D01*
X126157880Y-138619566D01*
X126226307Y-138551725D01*
X126362390Y-138349946D01*
X126456493Y-138125496D01*
X126505000Y-137887000D01*
X126505000Y-137487000D01*
X125397000Y-137487000D01*
X125143000Y-137487000D01*
X124035000Y-137487000D01*
X123965000Y-137487000D01*
X123965000Y-136899335D01*
X123958467Y-136833000D01*
X124035000Y-136833000D01*
X124035000Y-137233000D01*
X125143000Y-137233000D01*
X125143000Y-135891269D01*
X125397000Y-135891269D01*
X125397000Y-137233000D01*
X126505000Y-137233000D01*
X126505000Y-136833000D01*
X126456493Y-136594504D01*
X126362390Y-136370054D01*
X126226307Y-136168275D01*
X126053474Y-135996922D01*
X125850533Y-135862579D01*
X125625282Y-135770409D01*
X125587609Y-135766538D01*
X125397000Y-135891269D01*
X125143000Y-135891269D01*
X124952391Y-135766538D01*
X124914718Y-135770409D01*
X124689467Y-135862579D01*
X124486526Y-135996922D01*
X124313693Y-136168275D01*
X124177610Y-136370054D01*
X124083507Y-136594504D01*
X124035000Y-136833000D01*
X123958467Y-136833000D01*
X123947130Y-136717898D01*
X123876511Y-136485099D01*
X123761833Y-136270551D01*
X123607502Y-136082498D01*
X123419448Y-135928167D01*
X123204900Y-135813489D01*
X122972101Y-135742870D01*
X122730000Y-135719025D01*
X122487898Y-135742870D01*
X122255099Y-135813489D01*
X122040551Y-135928167D01*
X121852498Y-136082498D01*
X121698167Y-136270552D01*
X121583489Y-136485100D01*
X121512870Y-136717899D01*
X121495000Y-136899336D01*
X114901613Y-136899336D01*
X114901185Y-136898815D01*
X114804494Y-136819463D01*
X114694180Y-136760498D01*
X114625313Y-136739607D01*
X114655134Y-136715134D01*
X114840706Y-136489014D01*
X114978599Y-136231034D01*
X115063513Y-135951111D01*
X115092185Y-135660000D01*
X115063513Y-135368889D01*
X114978599Y-135088966D01*
X114840706Y-134830986D01*
X114655134Y-134604866D01*
X114429014Y-134419294D01*
X114364477Y-134384799D01*
X114481355Y-134315178D01*
X114697588Y-134120269D01*
X114871641Y-133886920D01*
X114996825Y-133624099D01*
X115041476Y-133476890D01*
X114920155Y-133247000D01*
X113727000Y-133247000D01*
X113727000Y-133267000D01*
X113473000Y-133267000D01*
X113473000Y-133247000D01*
X112279845Y-133247000D01*
X112158524Y-133476890D01*
X112203175Y-133624099D01*
X112328359Y-133886920D01*
X112502412Y-134120269D01*
X112718645Y-134315178D01*
X112835523Y-134384799D01*
X112770986Y-134419294D01*
X112544866Y-134604866D01*
X112359294Y-134830986D01*
X112221401Y-135088966D01*
X112136487Y-135368889D01*
X112107815Y-135660000D01*
X100914802Y-135660000D01*
X98060000Y-132805199D01*
X98060000Y-119589396D01*
X98085241Y-119614637D01*
X98320273Y-119771680D01*
X98581426Y-119879853D01*
X98858665Y-119935000D01*
X99141335Y-119935000D01*
X99418574Y-119879853D01*
X99679727Y-119771680D01*
X99914759Y-119614637D01*
X100042983Y-119486414D01*
X100067566Y-119510997D01*
X100091369Y-119540001D01*
X100207094Y-119634974D01*
X100339123Y-119705546D01*
X100482384Y-119749003D01*
X100594037Y-119760000D01*
X100594045Y-119760000D01*
X100631370Y-119763676D01*
X100668695Y-119760000D01*
X105399075Y-119760000D01*
X106825089Y-121186015D01*
X106848887Y-121215013D01*
X106964612Y-121309986D01*
X107096641Y-121380558D01*
X107239902Y-121424015D01*
X107351555Y-121435012D01*
X107351563Y-121435012D01*
X107388888Y-121438688D01*
X107426213Y-121435012D01*
X109876666Y-121435012D01*
X109913988Y-121438688D01*
X109951310Y-121435012D01*
X109951321Y-121435012D01*
X110062974Y-121424015D01*
X110206235Y-121380558D01*
X110338264Y-121309986D01*
X110453989Y-121215013D01*
X110477792Y-121186010D01*
X111443452Y-120220350D01*
X111520273Y-120271680D01*
X111781426Y-120379853D01*
X112058665Y-120435000D01*
X112341335Y-120435000D01*
X112523886Y-120398688D01*
X113600198Y-121475000D01*
X113527050Y-121475000D01*
X113308889Y-121496487D01*
X113028966Y-121581401D01*
X112770986Y-121719294D01*
X112544866Y-121904866D01*
X112359294Y-122130986D01*
X112221401Y-122388966D01*
X112136487Y-122668889D01*
X112107815Y-122960000D01*
X112136487Y-123251111D01*
X112221401Y-123531034D01*
X112359294Y-123789014D01*
X112544866Y-124015134D01*
X112770986Y-124200706D01*
X112825791Y-124230000D01*
X112770986Y-124259294D01*
X112544866Y-124444866D01*
X112359294Y-124670986D01*
X112221401Y-124928966D01*
X112136487Y-125208889D01*
X112107815Y-125500000D01*
X112136487Y-125791111D01*
X112221401Y-126071034D01*
X112359294Y-126329014D01*
X112544866Y-126555134D01*
X112770986Y-126740706D01*
X112825791Y-126770000D01*
X112770986Y-126799294D01*
X112544866Y-126984866D01*
X112359294Y-127210986D01*
X112221401Y-127468966D01*
X112136487Y-127748889D01*
X112107815Y-128040000D01*
X112136487Y-128331111D01*
X112221401Y-128611034D01*
X112359294Y-128869014D01*
X112544866Y-129095134D01*
X112770986Y-129280706D01*
X112825791Y-129310000D01*
X112770986Y-129339294D01*
X112544866Y-129524866D01*
X112359294Y-129750986D01*
X112221401Y-130008966D01*
X112136487Y-130288889D01*
X112107815Y-130580000D01*
X112136487Y-130871111D01*
X112221401Y-131151034D01*
X112359294Y-131409014D01*
X112544866Y-131635134D01*
X112770986Y-131820706D01*
X112835523Y-131855201D01*
X112718645Y-131924822D01*
X112502412Y-132119731D01*
X112328359Y-132353080D01*
X112203175Y-132615901D01*
X112158524Y-132763110D01*
X112279845Y-132993000D01*
X113473000Y-132993000D01*
X113473000Y-132973000D01*
X113727000Y-132973000D01*
X113727000Y-132993000D01*
X114920155Y-132993000D01*
X115041476Y-132763110D01*
X114996825Y-132615901D01*
X114871641Y-132353080D01*
X114697588Y-132119731D01*
X114481355Y-131924822D01*
X114364477Y-131855201D01*
X114429014Y-131820706D01*
X114655134Y-131635134D01*
X114840706Y-131409014D01*
X114978599Y-131151034D01*
X115063513Y-130871111D01*
X115092185Y-130580000D01*
X115063513Y-130288889D01*
X114978599Y-130008966D01*
X114840706Y-129750986D01*
X114655134Y-129524866D01*
X114429014Y-129339294D01*
X114374209Y-129310000D01*
X114429014Y-129280706D01*
X114655134Y-129095134D01*
X114840706Y-128869014D01*
X114978599Y-128611034D01*
X115063513Y-128331111D01*
X115092185Y-128040000D01*
X115063513Y-127748889D01*
X114978599Y-127468966D01*
X114840706Y-127210986D01*
X114655134Y-126984866D01*
X114429014Y-126799294D01*
X114374209Y-126770000D01*
X114429014Y-126740706D01*
X114655134Y-126555134D01*
X114840706Y-126329014D01*
X114978599Y-126071034D01*
X115063513Y-125791111D01*
X115092185Y-125500000D01*
X115063513Y-125208889D01*
X114978599Y-124928966D01*
X114840706Y-124670986D01*
X114655134Y-124444866D01*
X114429014Y-124259294D01*
X114374209Y-124230000D01*
X114429014Y-124200706D01*
X114655134Y-124015134D01*
X114840706Y-123789014D01*
X114978599Y-123531034D01*
X115063513Y-123251111D01*
X115092185Y-122960000D01*
X115081113Y-122847584D01*
X115179413Y-122877402D01*
X115291066Y-122888399D01*
X115291075Y-122888399D01*
X115328398Y-122892075D01*
X115365721Y-122888399D01*
X122876799Y-122888399D01*
X118325907Y-127439292D01*
X118281309Y-127425764D01*
X118070492Y-127405000D01*
X117929508Y-127405000D01*
X117718691Y-127425764D01*
X117448192Y-127507818D01*
X117198899Y-127641068D01*
X116980392Y-127820392D01*
X116801068Y-128038899D01*
X116667818Y-128288192D01*
X116585764Y-128558691D01*
X116558057Y-128840000D01*
X116585764Y-129121309D01*
X116667818Y-129391808D01*
X116801068Y-129641101D01*
X116980392Y-129859608D01*
X117198899Y-130038932D01*
X117448192Y-130172182D01*
X117718691Y-130254236D01*
X117929508Y-130275000D01*
X118070492Y-130275000D01*
X118281309Y-130254236D01*
X118551808Y-130172182D01*
X118801101Y-130038932D01*
X119019608Y-129859608D01*
X119198932Y-129641101D01*
X119332182Y-129391808D01*
X119335965Y-129379336D01*
X121495000Y-129379336D01*
X121495000Y-130300665D01*
X121512870Y-130482102D01*
X121583489Y-130714901D01*
X121698168Y-130929449D01*
X121852499Y-131117502D01*
X122040552Y-131271833D01*
X122255100Y-131386511D01*
X122487899Y-131457130D01*
X122730000Y-131480975D01*
X122972102Y-131457130D01*
X123204901Y-131386511D01*
X123419449Y-131271833D01*
X123607502Y-131117502D01*
X123761833Y-130929449D01*
X123876511Y-130714901D01*
X123947130Y-130482101D01*
X123965000Y-130300664D01*
X123965000Y-129379336D01*
X124035000Y-129379336D01*
X124035000Y-130300665D01*
X124052870Y-130482102D01*
X124123489Y-130714901D01*
X124238168Y-130929449D01*
X124392499Y-131117502D01*
X124580552Y-131271833D01*
X124795100Y-131386511D01*
X125027899Y-131457130D01*
X125270000Y-131480975D01*
X125512102Y-131457130D01*
X125744901Y-131386511D01*
X125959449Y-131271833D01*
X126147502Y-131117502D01*
X126301833Y-130929449D01*
X126416511Y-130714901D01*
X126487130Y-130482101D01*
X126505000Y-130300664D01*
X126505000Y-129379335D01*
X126487130Y-129197898D01*
X126416511Y-128965099D01*
X126301833Y-128750551D01*
X126147502Y-128562498D01*
X125959448Y-128408167D01*
X125744900Y-128293489D01*
X125512101Y-128222870D01*
X125270000Y-128199025D01*
X125027898Y-128222870D01*
X124795099Y-128293489D01*
X124580551Y-128408167D01*
X124392498Y-128562498D01*
X124238167Y-128750552D01*
X124123489Y-128965100D01*
X124052870Y-129197899D01*
X124035000Y-129379336D01*
X123965000Y-129379336D01*
X123965000Y-129379335D01*
X123947130Y-129197898D01*
X123876511Y-128965099D01*
X123761833Y-128750551D01*
X123607502Y-128562498D01*
X123419448Y-128408167D01*
X123204900Y-128293489D01*
X122972101Y-128222870D01*
X122730000Y-128199025D01*
X122487898Y-128222870D01*
X122255099Y-128293489D01*
X122040551Y-128408167D01*
X121852498Y-128562498D01*
X121698167Y-128750552D01*
X121583489Y-128965100D01*
X121512870Y-129197899D01*
X121495000Y-129379336D01*
X119335965Y-129379336D01*
X119414236Y-129121309D01*
X119441943Y-128840000D01*
X119414236Y-128558691D01*
X119400708Y-128514093D01*
X135956404Y-111958399D01*
X136644236Y-111958399D01*
X136591487Y-112132289D01*
X136562815Y-112423400D01*
X136591487Y-112714511D01*
X136676401Y-112994434D01*
X136814294Y-113252414D01*
X136999866Y-113478534D01*
X137225986Y-113664106D01*
X137280791Y-113693400D01*
X137225986Y-113722694D01*
X136999866Y-113908266D01*
X136814294Y-114134386D01*
X136676401Y-114392366D01*
X136591487Y-114672289D01*
X136562815Y-114963400D01*
X136591487Y-115254511D01*
X136614203Y-115329395D01*
X131188998Y-120754601D01*
X131160000Y-120778399D01*
X131136202Y-120807397D01*
X131136201Y-120807398D01*
X131065026Y-120894124D01*
X130994454Y-121026154D01*
X130950998Y-121169415D01*
X130936324Y-121318400D01*
X130940001Y-121355732D01*
X130940000Y-131528612D01*
X130830801Y-131573844D01*
X130530256Y-131774662D01*
X130274662Y-132030256D01*
X130073844Y-132330801D01*
X129935518Y-132664750D01*
X129865000Y-133019268D01*
X129865000Y-133380732D01*
X129935518Y-133735250D01*
X130073844Y-134069199D01*
X130274662Y-134369744D01*
X130530256Y-134625338D01*
X130830801Y-134826156D01*
X131164750Y-134964482D01*
X131519268Y-135035000D01*
X131880732Y-135035000D01*
X132235250Y-134964482D01*
X132569199Y-134826156D01*
X132869744Y-134625338D01*
X133125338Y-134369744D01*
X133326156Y-134069199D01*
X133464482Y-133735250D01*
X133535000Y-133380732D01*
X133535000Y-133019268D01*
X133464482Y-132664750D01*
X133326156Y-132330801D01*
X133125338Y-132030256D01*
X132869744Y-131774662D01*
X132569199Y-131573844D01*
X132460000Y-131528612D01*
X132460000Y-121633201D01*
X134300000Y-119793201D01*
X134299999Y-131522677D01*
X134296323Y-131559999D01*
X134299999Y-131597321D01*
X134299999Y-131597331D01*
X134310996Y-131708984D01*
X134335457Y-131789622D01*
X134354453Y-131852245D01*
X134425025Y-131984275D01*
X134461198Y-132028351D01*
X134519998Y-132100000D01*
X134549002Y-132123803D01*
X134980750Y-132555551D01*
X134935518Y-132664750D01*
X134865000Y-133019268D01*
X134865000Y-133380732D01*
X134935518Y-133735250D01*
X135073844Y-134069199D01*
X135274662Y-134369744D01*
X135530256Y-134625338D01*
X135830801Y-134826156D01*
X136164750Y-134964482D01*
X136519268Y-135035000D01*
X136880732Y-135035000D01*
X137235250Y-134964482D01*
X137569199Y-134826156D01*
X137869744Y-134625338D01*
X138125338Y-134369744D01*
X138326156Y-134069199D01*
X138464482Y-133735250D01*
X138506354Y-133524741D01*
X143508959Y-133524741D01*
X143608766Y-133808620D01*
X143762038Y-134067573D01*
X143962884Y-134291649D01*
X144203586Y-134472236D01*
X144474893Y-134602394D01*
X144635260Y-134651036D01*
X144873000Y-134530378D01*
X144873000Y-133287000D01*
X145127000Y-133287000D01*
X145127000Y-134530378D01*
X145364740Y-134651036D01*
X145525107Y-134602394D01*
X145796414Y-134472236D01*
X146037116Y-134291649D01*
X146237962Y-134067573D01*
X146391234Y-133808620D01*
X146491041Y-133524741D01*
X146370992Y-133287000D01*
X145127000Y-133287000D01*
X144873000Y-133287000D01*
X143629008Y-133287000D01*
X143508959Y-133524741D01*
X138506354Y-133524741D01*
X138535000Y-133380732D01*
X138535000Y-133019268D01*
X138490442Y-132795259D01*
X143508959Y-132795259D01*
X143629008Y-133033000D01*
X144873000Y-133033000D01*
X144873000Y-131789622D01*
X145127000Y-131789622D01*
X145127000Y-133033000D01*
X146370992Y-133033000D01*
X146491041Y-132795259D01*
X146391234Y-132511380D01*
X146237962Y-132252427D01*
X146037116Y-132028351D01*
X145796414Y-131847764D01*
X145525107Y-131717606D01*
X145364740Y-131668964D01*
X145127000Y-131789622D01*
X144873000Y-131789622D01*
X144635260Y-131668964D01*
X144474893Y-131717606D01*
X144203586Y-131847764D01*
X143962884Y-132028351D01*
X143762038Y-132252427D01*
X143608766Y-132511380D01*
X143508959Y-132795259D01*
X138490442Y-132795259D01*
X138464482Y-132664750D01*
X138326156Y-132330801D01*
X138125338Y-132030256D01*
X137869744Y-131774662D01*
X137569199Y-131573844D01*
X137235250Y-131435518D01*
X136880732Y-131365000D01*
X136519268Y-131365000D01*
X136164750Y-131435518D01*
X136055551Y-131480750D01*
X135819999Y-131245198D01*
X135819999Y-122100000D01*
X143461928Y-122100000D01*
X143461928Y-123900000D01*
X143474188Y-124024482D01*
X143510498Y-124144180D01*
X143569463Y-124254494D01*
X143648815Y-124351185D01*
X143745506Y-124430537D01*
X143855820Y-124489502D01*
X143975518Y-124525812D01*
X144100000Y-124538072D01*
X145900000Y-124538072D01*
X146024482Y-124525812D01*
X146144180Y-124489502D01*
X146254494Y-124430537D01*
X146351185Y-124351185D01*
X146430537Y-124254494D01*
X146489502Y-124144180D01*
X146525812Y-124024482D01*
X146538072Y-123900000D01*
X146538072Y-122100000D01*
X146525812Y-121975518D01*
X146489502Y-121855820D01*
X146430537Y-121745506D01*
X146351185Y-121648815D01*
X146254494Y-121569463D01*
X146144180Y-121510498D01*
X146024482Y-121474188D01*
X145900000Y-121461928D01*
X144100000Y-121461928D01*
X143975518Y-121474188D01*
X143855820Y-121510498D01*
X143745506Y-121569463D01*
X143648815Y-121648815D01*
X143569463Y-121745506D01*
X143510498Y-121855820D01*
X143474188Y-121975518D01*
X143461928Y-122100000D01*
X135819999Y-122100000D01*
X135819999Y-119000200D01*
X136700562Y-118119637D01*
X136814294Y-118332414D01*
X136999866Y-118558534D01*
X137029687Y-118583007D01*
X136960820Y-118603898D01*
X136850506Y-118662863D01*
X136753815Y-118742215D01*
X136674463Y-118838906D01*
X136615498Y-118949220D01*
X136579188Y-119068918D01*
X136566928Y-119193400D01*
X136566928Y-120893400D01*
X136579188Y-121017882D01*
X136615498Y-121137580D01*
X136674463Y-121247894D01*
X136753815Y-121344585D01*
X136850506Y-121423937D01*
X136960820Y-121482902D01*
X137080518Y-121519212D01*
X137205000Y-121531472D01*
X138905000Y-121531472D01*
X139029482Y-121519212D01*
X139149180Y-121482902D01*
X139259494Y-121423937D01*
X139356185Y-121344585D01*
X139435537Y-121247894D01*
X139494502Y-121137580D01*
X139530812Y-121017882D01*
X139543072Y-120893400D01*
X139543072Y-119193400D01*
X139530812Y-119068918D01*
X139494502Y-118949220D01*
X139435537Y-118838906D01*
X139356185Y-118742215D01*
X139259494Y-118662863D01*
X139149180Y-118603898D01*
X139080313Y-118583007D01*
X139110134Y-118558534D01*
X139295706Y-118332414D01*
X139433599Y-118074434D01*
X139518513Y-117794511D01*
X139547185Y-117503400D01*
X139518513Y-117212289D01*
X139433599Y-116932366D01*
X139295706Y-116674386D01*
X139266908Y-116639296D01*
X139791010Y-116115195D01*
X139820002Y-116091402D01*
X139843796Y-116062409D01*
X139843800Y-116062405D01*
X139914974Y-115975678D01*
X139914975Y-115975677D01*
X139985547Y-115843648D01*
X140029004Y-115700387D01*
X140040001Y-115588734D01*
X140040001Y-115588725D01*
X140043677Y-115551402D01*
X140040001Y-115514079D01*
X140040001Y-113317334D01*
X140043678Y-113280001D01*
X140029004Y-113131015D01*
X139985547Y-112987754D01*
X139914975Y-112855725D01*
X139820002Y-112740000D01*
X139704277Y-112645027D01*
X139572248Y-112574455D01*
X139533466Y-112562691D01*
X139547185Y-112423400D01*
X139518513Y-112132289D01*
X139433599Y-111852366D01*
X139304801Y-111611401D01*
X139791005Y-111125197D01*
X139820002Y-111101400D01*
X139866452Y-111044801D01*
X139914975Y-110985676D01*
X139985547Y-110853646D01*
X139987701Y-110846544D01*
X140029004Y-110710385D01*
X140040001Y-110598732D01*
X140040001Y-110598723D01*
X140043677Y-110561400D01*
X140040001Y-110524077D01*
X140040001Y-101929963D01*
X140958267Y-101929963D01*
X140958267Y-102470037D01*
X141063630Y-102999734D01*
X141270308Y-103498698D01*
X141570357Y-103947753D01*
X141952248Y-104329644D01*
X142401303Y-104629693D01*
X142900267Y-104836371D01*
X143429964Y-104941734D01*
X143970038Y-104941734D01*
X144499735Y-104836371D01*
X144998699Y-104629693D01*
X145447754Y-104329644D01*
X145829645Y-103947753D01*
X146129694Y-103498698D01*
X146336372Y-102999734D01*
X146441735Y-102470037D01*
X146441735Y-101929963D01*
X146336372Y-101400266D01*
X146129694Y-100901302D01*
X145829645Y-100452247D01*
X145447754Y-100070356D01*
X144998699Y-99770307D01*
X144499735Y-99563629D01*
X143970038Y-99458266D01*
X143429964Y-99458266D01*
X142900267Y-99563629D01*
X142401303Y-99770307D01*
X141952248Y-100070356D01*
X141570357Y-100452247D01*
X141270308Y-100901302D01*
X141063630Y-101400266D01*
X140958267Y-101929963D01*
X140040001Y-101929963D01*
X140040001Y-100985724D01*
X140043677Y-100948401D01*
X140040001Y-100911078D01*
X140040001Y-100911068D01*
X140029004Y-100799415D01*
X139985547Y-100656154D01*
X139914975Y-100524125D01*
X139820002Y-100408400D01*
X139790998Y-100384597D01*
X139495797Y-100089396D01*
X139518513Y-100014511D01*
X139547185Y-99723400D01*
X139518513Y-99432289D01*
X139433599Y-99152366D01*
X139295706Y-98894386D01*
X139110134Y-98668266D01*
X138884014Y-98482694D01*
X138829209Y-98453400D01*
X138884014Y-98424106D01*
X139110134Y-98238534D01*
X139295706Y-98012414D01*
X139433599Y-97754434D01*
X139518513Y-97474511D01*
X139547185Y-97183400D01*
X139518513Y-96892289D01*
X139433599Y-96612366D01*
X139295706Y-96354386D01*
X139110134Y-96128266D01*
X138884014Y-95942694D01*
X138829209Y-95913400D01*
X138884014Y-95884106D01*
X139110134Y-95698534D01*
X139295706Y-95472414D01*
X139433599Y-95214434D01*
X139518513Y-94934511D01*
X139547185Y-94643400D01*
X139518513Y-94352289D01*
X139433599Y-94072366D01*
X139295706Y-93814386D01*
X139110134Y-93588266D01*
X138884014Y-93402694D01*
X138829209Y-93373400D01*
X138884014Y-93344106D01*
X139110134Y-93158534D01*
X139295706Y-92932414D01*
X139433599Y-92674434D01*
X139518513Y-92394511D01*
X139547185Y-92103400D01*
X139518513Y-91812289D01*
X139433599Y-91532366D01*
X139340741Y-91358639D01*
X140357591Y-91358639D01*
X140402511Y-91697439D01*
X140512664Y-92020966D01*
X140618662Y-92219274D01*
X140893288Y-92327107D01*
X141920395Y-91300000D01*
X140893288Y-90272893D01*
X140618662Y-90380726D01*
X140467784Y-90687384D01*
X140379631Y-91017585D01*
X140357591Y-91358639D01*
X139340741Y-91358639D01*
X139295706Y-91274386D01*
X139110134Y-91048266D01*
X138884014Y-90862694D01*
X138626034Y-90724801D01*
X138346111Y-90639887D01*
X138127950Y-90618400D01*
X137982050Y-90618400D01*
X137763889Y-90639887D01*
X137483966Y-90724801D01*
X137225986Y-90862694D01*
X136999866Y-91048266D01*
X136814294Y-91274386D01*
X136676401Y-91532366D01*
X136591487Y-91812289D01*
X136562815Y-92103400D01*
X136591487Y-92394511D01*
X136676401Y-92674434D01*
X136814294Y-92932414D01*
X136999866Y-93158534D01*
X137225986Y-93344106D01*
X137280791Y-93373400D01*
X137225986Y-93402694D01*
X136999866Y-93588266D01*
X136814294Y-93814386D01*
X136676401Y-94072366D01*
X136591487Y-94352289D01*
X136562815Y-94643400D01*
X136591487Y-94934511D01*
X136676401Y-95214434D01*
X136814294Y-95472414D01*
X136999866Y-95698534D01*
X137225986Y-95884106D01*
X137280791Y-95913400D01*
X137225986Y-95942694D01*
X136999866Y-96128266D01*
X136814294Y-96354386D01*
X136676401Y-96612366D01*
X136591487Y-96892289D01*
X136562815Y-97183400D01*
X136591487Y-97474511D01*
X136676401Y-97754434D01*
X136814294Y-98012414D01*
X136999866Y-98238534D01*
X137225986Y-98424106D01*
X137280791Y-98453400D01*
X137225986Y-98482694D01*
X136999866Y-98668266D01*
X136814294Y-98894386D01*
X136676401Y-99152366D01*
X136591487Y-99432289D01*
X136562815Y-99723400D01*
X136591487Y-100014511D01*
X136676401Y-100294434D01*
X136814294Y-100552414D01*
X136999866Y-100778534D01*
X137225986Y-100964106D01*
X137280791Y-100993400D01*
X137225986Y-101022694D01*
X136999866Y-101208266D01*
X136814294Y-101434386D01*
X136676401Y-101692366D01*
X136591487Y-101972289D01*
X136562815Y-102263400D01*
X136591487Y-102554511D01*
X136614203Y-102629395D01*
X126355198Y-112888401D01*
X119145764Y-112888401D01*
X119198513Y-112714511D01*
X119227185Y-112423400D01*
X119198513Y-112132289D01*
X119113599Y-111852366D01*
X118975706Y-111594386D01*
X118790134Y-111368266D01*
X118564014Y-111182694D01*
X118509209Y-111153400D01*
X118564014Y-111124106D01*
X118790134Y-110938534D01*
X118975706Y-110712414D01*
X119113599Y-110454434D01*
X119198513Y-110174511D01*
X119227185Y-109883400D01*
X119198513Y-109592289D01*
X119113599Y-109312366D01*
X118975706Y-109054386D01*
X118790134Y-108828266D01*
X118564014Y-108642694D01*
X118509209Y-108613400D01*
X118564014Y-108584106D01*
X118790134Y-108398534D01*
X118975706Y-108172414D01*
X119113599Y-107914434D01*
X119198513Y-107634511D01*
X119227185Y-107343400D01*
X119198513Y-107052289D01*
X119113599Y-106772366D01*
X118975706Y-106514386D01*
X118790134Y-106288266D01*
X118564014Y-106102694D01*
X118509209Y-106073400D01*
X118564014Y-106044106D01*
X118790134Y-105858534D01*
X118975706Y-105632414D01*
X119113599Y-105374434D01*
X119198513Y-105094511D01*
X119227185Y-104803400D01*
X119198513Y-104512289D01*
X119113599Y-104232366D01*
X118975706Y-103974386D01*
X118790134Y-103748266D01*
X118564014Y-103562694D01*
X118509209Y-103533400D01*
X118564014Y-103504106D01*
X118790134Y-103318534D01*
X118975706Y-103092414D01*
X119113599Y-102834434D01*
X119198513Y-102554511D01*
X119227185Y-102263400D01*
X119198513Y-101972289D01*
X119113599Y-101692366D01*
X118975706Y-101434386D01*
X118790134Y-101208266D01*
X118564014Y-101022694D01*
X118509209Y-100993400D01*
X118564014Y-100964106D01*
X118790134Y-100778534D01*
X118975706Y-100552414D01*
X119113599Y-100294434D01*
X119198513Y-100014511D01*
X119227185Y-99723400D01*
X119198513Y-99432289D01*
X119113599Y-99152366D01*
X118975706Y-98894386D01*
X118790134Y-98668266D01*
X118564014Y-98482694D01*
X118509209Y-98453400D01*
X118564014Y-98424106D01*
X118790134Y-98238534D01*
X118975706Y-98012414D01*
X119113599Y-97754434D01*
X119198513Y-97474511D01*
X119227185Y-97183400D01*
X119198513Y-96892289D01*
X119113599Y-96612366D01*
X118975706Y-96354386D01*
X118790134Y-96128266D01*
X118564014Y-95942694D01*
X118509209Y-95913400D01*
X118564014Y-95884106D01*
X118790134Y-95698534D01*
X118975706Y-95472414D01*
X119113599Y-95214434D01*
X119198513Y-94934511D01*
X119227185Y-94643400D01*
X119198513Y-94352289D01*
X119113599Y-94072366D01*
X118975706Y-93814386D01*
X118790134Y-93588266D01*
X118564014Y-93402694D01*
X118509209Y-93373400D01*
X118564014Y-93344106D01*
X118790134Y-93158534D01*
X118975706Y-92932414D01*
X119113599Y-92674434D01*
X119198513Y-92394511D01*
X119227185Y-92103400D01*
X119198513Y-91812289D01*
X119113599Y-91532366D01*
X118975706Y-91274386D01*
X118790134Y-91048266D01*
X118564014Y-90862694D01*
X118499477Y-90828199D01*
X118616355Y-90758578D01*
X118832588Y-90563669D01*
X119006641Y-90330320D01*
X119131825Y-90067499D01*
X119176476Y-89920290D01*
X119055155Y-89690400D01*
X117862000Y-89690400D01*
X117862000Y-89710400D01*
X117608000Y-89710400D01*
X117608000Y-89690400D01*
X116414845Y-89690400D01*
X116293524Y-89920290D01*
X116338175Y-90067499D01*
X116463359Y-90330320D01*
X116637412Y-90563669D01*
X116853645Y-90758578D01*
X116970523Y-90828199D01*
X116905986Y-90862694D01*
X116679866Y-91048266D01*
X116494294Y-91274386D01*
X116356401Y-91532366D01*
X116271487Y-91812289D01*
X116242815Y-92103400D01*
X116271487Y-92394511D01*
X116356401Y-92674434D01*
X116494294Y-92932414D01*
X116679866Y-93158534D01*
X116905986Y-93344106D01*
X116960791Y-93373400D01*
X116905986Y-93402694D01*
X116679866Y-93588266D01*
X116494294Y-93814386D01*
X116356401Y-94072366D01*
X116271487Y-94352289D01*
X116242815Y-94643400D01*
X116271487Y-94934511D01*
X116356401Y-95214434D01*
X116494294Y-95472414D01*
X116679866Y-95698534D01*
X116905986Y-95884106D01*
X116960791Y-95913400D01*
X116905986Y-95942694D01*
X116679866Y-96128266D01*
X116494294Y-96354386D01*
X116356401Y-96612366D01*
X116271487Y-96892289D01*
X116242815Y-97183400D01*
X116271487Y-97474511D01*
X116356401Y-97754434D01*
X116494294Y-98012414D01*
X116679866Y-98238534D01*
X116905986Y-98424106D01*
X116960791Y-98453400D01*
X116905986Y-98482694D01*
X116679866Y-98668266D01*
X116494294Y-98894386D01*
X116356401Y-99152366D01*
X116271487Y-99432289D01*
X116242815Y-99723400D01*
X116271487Y-100014511D01*
X116356401Y-100294434D01*
X116494294Y-100552414D01*
X116679866Y-100778534D01*
X116905986Y-100964106D01*
X116960791Y-100993400D01*
X116905986Y-101022694D01*
X116679866Y-101208266D01*
X116494294Y-101434386D01*
X116356401Y-101692366D01*
X116271487Y-101972289D01*
X116242815Y-102263400D01*
X116271487Y-102554511D01*
X116356401Y-102834434D01*
X116494294Y-103092414D01*
X116679866Y-103318534D01*
X116905986Y-103504106D01*
X116960791Y-103533400D01*
X116905986Y-103562694D01*
X116679866Y-103748266D01*
X116494294Y-103974386D01*
X116356401Y-104232366D01*
X116271487Y-104512289D01*
X116242815Y-104803400D01*
X116271487Y-105094511D01*
X116356401Y-105374434D01*
X116494294Y-105632414D01*
X116679866Y-105858534D01*
X116905986Y-106044106D01*
X116960791Y-106073400D01*
X116905986Y-106102694D01*
X116679866Y-106288266D01*
X116494294Y-106514386D01*
X116356401Y-106772366D01*
X116271487Y-107052289D01*
X116242815Y-107343400D01*
X116271487Y-107634511D01*
X116356401Y-107914434D01*
X116494294Y-108172414D01*
X116679866Y-108398534D01*
X116905986Y-108584106D01*
X116960791Y-108613400D01*
X116905986Y-108642694D01*
X116679866Y-108828266D01*
X116494294Y-109054386D01*
X116356401Y-109312366D01*
X116271487Y-109592289D01*
X116242815Y-109883400D01*
X116271487Y-110174511D01*
X116356401Y-110454434D01*
X116494294Y-110712414D01*
X116679866Y-110938534D01*
X116905986Y-111124106D01*
X116960791Y-111153400D01*
X116905986Y-111182694D01*
X116679866Y-111368266D01*
X116494294Y-111594386D01*
X116356401Y-111852366D01*
X116271487Y-112132289D01*
X116242815Y-112423400D01*
X116271487Y-112714511D01*
X116324236Y-112888401D01*
X115846401Y-112888401D01*
X115956027Y-112778775D01*
X115985024Y-112754978D01*
X116079997Y-112639253D01*
X116150569Y-112507224D01*
X116194026Y-112363963D01*
X116205023Y-112252310D01*
X116205023Y-112252302D01*
X116208699Y-112214977D01*
X116205023Y-112177652D01*
X116205023Y-82839894D01*
X116208699Y-82802571D01*
X116205023Y-82765248D01*
X116205023Y-82765239D01*
X116194026Y-82653586D01*
X116150569Y-82510325D01*
X116079997Y-82378296D01*
X116057607Y-82351014D01*
X116008822Y-82291568D01*
X116008818Y-82291564D01*
X115985024Y-82262571D01*
X115956031Y-82238777D01*
X115660654Y-81943400D01*
X116242815Y-81943400D01*
X116271487Y-82234511D01*
X116356401Y-82514434D01*
X116494294Y-82772414D01*
X116679866Y-82998534D01*
X116905986Y-83184106D01*
X116960791Y-83213400D01*
X116905986Y-83242694D01*
X116679866Y-83428266D01*
X116494294Y-83654386D01*
X116356401Y-83912366D01*
X116271487Y-84192289D01*
X116242815Y-84483400D01*
X116271487Y-84774511D01*
X116356401Y-85054434D01*
X116494294Y-85312414D01*
X116679866Y-85538534D01*
X116905986Y-85724106D01*
X116960791Y-85753400D01*
X116905986Y-85782694D01*
X116679866Y-85968266D01*
X116494294Y-86194386D01*
X116356401Y-86452366D01*
X116271487Y-86732289D01*
X116242815Y-87023400D01*
X116271487Y-87314511D01*
X116356401Y-87594434D01*
X116494294Y-87852414D01*
X116679866Y-88078534D01*
X116905986Y-88264106D01*
X116970523Y-88298601D01*
X116853645Y-88368222D01*
X116637412Y-88563131D01*
X116463359Y-88796480D01*
X116338175Y-89059301D01*
X116293524Y-89206510D01*
X116414845Y-89436400D01*
X117608000Y-89436400D01*
X117608000Y-89416400D01*
X117862000Y-89416400D01*
X117862000Y-89436400D01*
X119055155Y-89436400D01*
X119176476Y-89206510D01*
X119131825Y-89059301D01*
X119006641Y-88796480D01*
X118832588Y-88563131D01*
X118616355Y-88368222D01*
X118499477Y-88298601D01*
X118564014Y-88264106D01*
X118790134Y-88078534D01*
X118975706Y-87852414D01*
X119113599Y-87594434D01*
X119198513Y-87314511D01*
X119227185Y-87023400D01*
X119198513Y-86732289D01*
X119113599Y-86452366D01*
X118975706Y-86194386D01*
X118790134Y-85968266D01*
X118564014Y-85782694D01*
X118509209Y-85753400D01*
X118564014Y-85724106D01*
X118790134Y-85538534D01*
X118975706Y-85312414D01*
X119113599Y-85054434D01*
X119198513Y-84774511D01*
X119227185Y-84483400D01*
X119198513Y-84192289D01*
X119113599Y-83912366D01*
X118975706Y-83654386D01*
X118790134Y-83428266D01*
X118564014Y-83242694D01*
X118509209Y-83213400D01*
X118564014Y-83184106D01*
X118790134Y-82998534D01*
X118975706Y-82772414D01*
X119113599Y-82514434D01*
X119198513Y-82234511D01*
X119227185Y-81943400D01*
X119198513Y-81652289D01*
X119113599Y-81372366D01*
X118975706Y-81114386D01*
X118790134Y-80888266D01*
X118564014Y-80702694D01*
X118306034Y-80564801D01*
X118026111Y-80479887D01*
X117807950Y-80458400D01*
X117662050Y-80458400D01*
X117443889Y-80479887D01*
X117163966Y-80564801D01*
X116905986Y-80702694D01*
X116679866Y-80888266D01*
X116494294Y-81114386D01*
X116356401Y-81372366D01*
X116271487Y-81652289D01*
X116242815Y-81943400D01*
X115660654Y-81943400D01*
X114831244Y-81113992D01*
X114807442Y-81084989D01*
X114691717Y-80990016D01*
X114559688Y-80919444D01*
X114416427Y-80875987D01*
X114304774Y-80864990D01*
X114304763Y-80864990D01*
X114267441Y-80861314D01*
X114230119Y-80864990D01*
X113547332Y-80864990D01*
X113510009Y-80861314D01*
X113472687Y-80864990D01*
X113472677Y-80864990D01*
X113361024Y-80875987D01*
X113217763Y-80919444D01*
X113085733Y-80990016D01*
X113007216Y-81054454D01*
X112970009Y-81084989D01*
X112946211Y-81113987D01*
X112694800Y-81365399D01*
X112635000Y-81359509D01*
X112412501Y-81381423D01*
X112198553Y-81446324D01*
X112005000Y-81549779D01*
X111811446Y-81446324D01*
X111597498Y-81381423D01*
X111375000Y-81359509D01*
X111152501Y-81381423D01*
X110938553Y-81446324D01*
X110741377Y-81551716D01*
X110735000Y-81556949D01*
X110728623Y-81551716D01*
X110531446Y-81446324D01*
X110317498Y-81381423D01*
X110095000Y-81359509D01*
X109872501Y-81381423D01*
X109658553Y-81446324D01*
X109461377Y-81551716D01*
X109288551Y-81693551D01*
X109146716Y-81866377D01*
X109041324Y-82063554D01*
X108976423Y-82277502D01*
X108960000Y-82444249D01*
X108960000Y-83555752D01*
X108976423Y-83722499D01*
X109041324Y-83936447D01*
X109146717Y-84133623D01*
X109288552Y-84306449D01*
X109461378Y-84448284D01*
X109658554Y-84553676D01*
X109872502Y-84618577D01*
X110095000Y-84640491D01*
X110154800Y-84634601D01*
X113685002Y-88164805D01*
X113685002Y-89789236D01*
X113511111Y-89736487D01*
X113292950Y-89715000D01*
X113147050Y-89715000D01*
X112928889Y-89736487D01*
X112648966Y-89821401D01*
X112390986Y-89959294D01*
X112164866Y-90144866D01*
X111979294Y-90370986D01*
X111944799Y-90435523D01*
X111875178Y-90318645D01*
X111680269Y-90102412D01*
X111446920Y-89928359D01*
X111184099Y-89803175D01*
X111036890Y-89758524D01*
X110807000Y-89879845D01*
X110807000Y-91073000D01*
X110827000Y-91073000D01*
X110827000Y-91327000D01*
X110807000Y-91327000D01*
X110807000Y-92520155D01*
X111036890Y-92641476D01*
X111184099Y-92596825D01*
X111446920Y-92471641D01*
X111680269Y-92297588D01*
X111875178Y-92081355D01*
X111944799Y-91964477D01*
X111979294Y-92029014D01*
X112164866Y-92255134D01*
X112390986Y-92440706D01*
X112648966Y-92578599D01*
X112928889Y-92663513D01*
X113147050Y-92685000D01*
X113292950Y-92685000D01*
X113511111Y-92663513D01*
X113685002Y-92610764D01*
X113685001Y-104541195D01*
X108648998Y-109577199D01*
X108620000Y-109600997D01*
X108596202Y-109629995D01*
X108596201Y-109629996D01*
X108525026Y-109716722D01*
X108454454Y-109848752D01*
X108410998Y-109992013D01*
X108396324Y-110140998D01*
X108400001Y-110178330D01*
X108400000Y-113779099D01*
X108358899Y-113801068D01*
X108140392Y-113980392D01*
X107961068Y-114198899D01*
X107827818Y-114448192D01*
X107745764Y-114718691D01*
X107718057Y-115000000D01*
X107745764Y-115281309D01*
X107827818Y-115551808D01*
X107961068Y-115801101D01*
X108140392Y-116019608D01*
X108358899Y-116198932D01*
X108608192Y-116332182D01*
X108878691Y-116414236D01*
X109089508Y-116435000D01*
X109230492Y-116435000D01*
X109441309Y-116414236D01*
X109711808Y-116332182D01*
X109961101Y-116198932D01*
X110179608Y-116019608D01*
X110358932Y-115801101D01*
X110492182Y-115551808D01*
X110574236Y-115281309D01*
X110601943Y-115000000D01*
X110574236Y-114718691D01*
X110492182Y-114448192D01*
X110358932Y-114198899D01*
X110179608Y-113980392D01*
X109961101Y-113801068D01*
X109920000Y-113779099D01*
X109920000Y-110455799D01*
X110908284Y-109467515D01*
X111001068Y-109641101D01*
X111180392Y-109859608D01*
X111398899Y-110038932D01*
X111648192Y-110172182D01*
X111918691Y-110254236D01*
X112129508Y-110275000D01*
X112270492Y-110275000D01*
X112481309Y-110254236D01*
X112751808Y-110172182D01*
X113001101Y-110038932D01*
X113219608Y-109859608D01*
X113398932Y-109641101D01*
X113532182Y-109391808D01*
X113614236Y-109121309D01*
X113641943Y-108840000D01*
X113614236Y-108558691D01*
X113600708Y-108514093D01*
X114685023Y-107429778D01*
X114685023Y-111900175D01*
X109485907Y-117099292D01*
X109441309Y-117085764D01*
X109230492Y-117065000D01*
X109089508Y-117065000D01*
X108878691Y-117085764D01*
X108608192Y-117167818D01*
X108358899Y-117301068D01*
X108140392Y-117480392D01*
X107961068Y-117698899D01*
X107868284Y-117872485D01*
X104484802Y-114489003D01*
X104460999Y-114459999D01*
X104345274Y-114365026D01*
X104213245Y-114294454D01*
X104069984Y-114250997D01*
X103958331Y-114240000D01*
X103958320Y-114240000D01*
X103920998Y-114236324D01*
X103883676Y-114240000D01*
X100218043Y-114240000D01*
X100114637Y-114085241D01*
X99914759Y-113885363D01*
X99679727Y-113728320D01*
X99418574Y-113620147D01*
X99141335Y-113565000D01*
X98858665Y-113565000D01*
X98581426Y-113620147D01*
X98320273Y-113728320D01*
X98085241Y-113885363D01*
X98060000Y-113910604D01*
X98060000Y-112586936D01*
X98238192Y-112682182D01*
X98508691Y-112764236D01*
X98790000Y-112791943D01*
X99071308Y-112764236D01*
X99341807Y-112682182D01*
X99591100Y-112548932D01*
X99809607Y-112369608D01*
X99988932Y-112151101D01*
X100060000Y-112018142D01*
X100131068Y-112151100D01*
X100310392Y-112369607D01*
X100528899Y-112548932D01*
X100778192Y-112682182D01*
X101048691Y-112764236D01*
X101330000Y-112791943D01*
X101611308Y-112764236D01*
X101881807Y-112682182D01*
X102131100Y-112548932D01*
X102349607Y-112369608D01*
X102528932Y-112151101D01*
X102600000Y-112018142D01*
X102671068Y-112151100D01*
X102850392Y-112369607D01*
X103068899Y-112548932D01*
X103318192Y-112682182D01*
X103588691Y-112764236D01*
X103870000Y-112791943D01*
X104151308Y-112764236D01*
X104421807Y-112682182D01*
X104671100Y-112548932D01*
X104889607Y-112369608D01*
X105068932Y-112151101D01*
X105140000Y-112018142D01*
X105211068Y-112151100D01*
X105390392Y-112369607D01*
X105608899Y-112548932D01*
X105858192Y-112682182D01*
X106128691Y-112764236D01*
X106410000Y-112791943D01*
X106691308Y-112764236D01*
X106961807Y-112682182D01*
X107211100Y-112548932D01*
X107429607Y-112369608D01*
X107608932Y-112151101D01*
X107742182Y-111901808D01*
X107824236Y-111631309D01*
X107845000Y-111420492D01*
X107845000Y-109879508D01*
X107824236Y-109668691D01*
X107742182Y-109398192D01*
X107608932Y-109148899D01*
X107429608Y-108930392D01*
X107211101Y-108751068D01*
X106961808Y-108617818D01*
X106691309Y-108535764D01*
X106410000Y-108508057D01*
X106128692Y-108535764D01*
X105858193Y-108617818D01*
X105608900Y-108751068D01*
X105390393Y-108930392D01*
X105211069Y-109148899D01*
X105140001Y-109281859D01*
X105068932Y-109148899D01*
X104889608Y-108930392D01*
X104671101Y-108751068D01*
X104421808Y-108617818D01*
X104151309Y-108535764D01*
X103870000Y-108508057D01*
X103588692Y-108535764D01*
X103318193Y-108617818D01*
X103068900Y-108751068D01*
X102850393Y-108930392D01*
X102671069Y-109148899D01*
X102600001Y-109281859D01*
X102528932Y-109148899D01*
X102349608Y-108930392D01*
X102131101Y-108751068D01*
X101881808Y-108617818D01*
X101611309Y-108535764D01*
X101330000Y-108508057D01*
X101048692Y-108535764D01*
X100778193Y-108617818D01*
X100528900Y-108751068D01*
X100310393Y-108930392D01*
X100131069Y-109148899D01*
X100060001Y-109281859D01*
X99988932Y-109148899D01*
X99809608Y-108930392D01*
X99591101Y-108751068D01*
X99341808Y-108617818D01*
X99071309Y-108535764D01*
X98790000Y-108508057D01*
X98508692Y-108535764D01*
X98238193Y-108617818D01*
X98060000Y-108713064D01*
X98060000Y-99287535D01*
X98098354Y-99313715D01*
X98358182Y-99424367D01*
X98440961Y-99441904D01*
X98663000Y-99319915D01*
X98663000Y-97477000D01*
X98643000Y-97477000D01*
X98643000Y-97223000D01*
X98663000Y-97223000D01*
X98663000Y-97203000D01*
X98917000Y-97203000D01*
X98917000Y-97223000D01*
X98937000Y-97223000D01*
X98937000Y-97477000D01*
X98917000Y-97477000D01*
X98917000Y-99319915D01*
X99139039Y-99441904D01*
X99221818Y-99424367D01*
X99481646Y-99313715D01*
X99714895Y-99154500D01*
X99912601Y-98952839D01*
X100062735Y-98723258D01*
X100131068Y-98851100D01*
X100310392Y-99069607D01*
X100528899Y-99248932D01*
X100778192Y-99382182D01*
X101048691Y-99464236D01*
X101330000Y-99491943D01*
X101611308Y-99464236D01*
X101881807Y-99382182D01*
X102131100Y-99248932D01*
X102349607Y-99069608D01*
X102528932Y-98851101D01*
X102600000Y-98718142D01*
X102671068Y-98851100D01*
X102850392Y-99069607D01*
X103068899Y-99248932D01*
X103318192Y-99382182D01*
X103588691Y-99464236D01*
X103870000Y-99491943D01*
X104151308Y-99464236D01*
X104421807Y-99382182D01*
X104671100Y-99248932D01*
X104889607Y-99069608D01*
X105068932Y-98851101D01*
X105140000Y-98718142D01*
X105211068Y-98851100D01*
X105390392Y-99069607D01*
X105608899Y-99248932D01*
X105858192Y-99382182D01*
X106128691Y-99464236D01*
X106410000Y-99491943D01*
X106691308Y-99464236D01*
X106961807Y-99382182D01*
X107211100Y-99248932D01*
X107429607Y-99069608D01*
X107608932Y-98851101D01*
X107742182Y-98601808D01*
X107824236Y-98331309D01*
X107845000Y-98120492D01*
X107845000Y-96579508D01*
X107824236Y-96368691D01*
X107742182Y-96098192D01*
X107608932Y-95848899D01*
X107429608Y-95630392D01*
X107211101Y-95451068D01*
X106961808Y-95317818D01*
X106691309Y-95235764D01*
X106410000Y-95208057D01*
X106128692Y-95235764D01*
X105858193Y-95317818D01*
X105608900Y-95451068D01*
X105390393Y-95630392D01*
X105211069Y-95848899D01*
X105140001Y-95981859D01*
X105068932Y-95848899D01*
X104889608Y-95630392D01*
X104671101Y-95451068D01*
X104421808Y-95317818D01*
X104151309Y-95235764D01*
X103870000Y-95208057D01*
X103588692Y-95235764D01*
X103318193Y-95317818D01*
X103068900Y-95451068D01*
X102850393Y-95630392D01*
X102671069Y-95848899D01*
X102600001Y-95981859D01*
X102528932Y-95848899D01*
X102349608Y-95630392D01*
X102131101Y-95451068D01*
X101881808Y-95317818D01*
X101611309Y-95235764D01*
X101330000Y-95208057D01*
X101048692Y-95235764D01*
X101034833Y-95239968D01*
X103411004Y-92863798D01*
X103440001Y-92840001D01*
X103466332Y-92807917D01*
X103534974Y-92724277D01*
X103605546Y-92592247D01*
X103631492Y-92506712D01*
X103649003Y-92448986D01*
X103660000Y-92337333D01*
X103660000Y-92337323D01*
X103663676Y-92300000D01*
X103660000Y-92262677D01*
X103660000Y-90350000D01*
X104111928Y-90350000D01*
X104111928Y-92050000D01*
X104124188Y-92174482D01*
X104160498Y-92294180D01*
X104219463Y-92404494D01*
X104298815Y-92501185D01*
X104395506Y-92580537D01*
X104505820Y-92639502D01*
X104625518Y-92675812D01*
X104750000Y-92688072D01*
X106450000Y-92688072D01*
X106574482Y-92675812D01*
X106694180Y-92639502D01*
X106804494Y-92580537D01*
X106901185Y-92501185D01*
X106980537Y-92404494D01*
X107039502Y-92294180D01*
X107060393Y-92225313D01*
X107084866Y-92255134D01*
X107310986Y-92440706D01*
X107568966Y-92578599D01*
X107848889Y-92663513D01*
X108067050Y-92685000D01*
X108212950Y-92685000D01*
X108431111Y-92663513D01*
X108711034Y-92578599D01*
X108969014Y-92440706D01*
X109195134Y-92255134D01*
X109380706Y-92029014D01*
X109415201Y-91964477D01*
X109484822Y-92081355D01*
X109679731Y-92297588D01*
X109913080Y-92471641D01*
X110175901Y-92596825D01*
X110323110Y-92641476D01*
X110553000Y-92520155D01*
X110553000Y-91327000D01*
X110533000Y-91327000D01*
X110533000Y-91073000D01*
X110553000Y-91073000D01*
X110553000Y-89879845D01*
X110323110Y-89758524D01*
X110175901Y-89803175D01*
X109913080Y-89928359D01*
X109679731Y-90102412D01*
X109484822Y-90318645D01*
X109415201Y-90435523D01*
X109380706Y-90370986D01*
X109195134Y-90144866D01*
X108969014Y-89959294D01*
X108711034Y-89821401D01*
X108431111Y-89736487D01*
X108212950Y-89715000D01*
X108067050Y-89715000D01*
X107848889Y-89736487D01*
X107568966Y-89821401D01*
X107310986Y-89959294D01*
X107084866Y-90144866D01*
X107060393Y-90174687D01*
X107039502Y-90105820D01*
X106980537Y-89995506D01*
X106901185Y-89898815D01*
X106804494Y-89819463D01*
X106694180Y-89760498D01*
X106574482Y-89724188D01*
X106450000Y-89711928D01*
X104750000Y-89711928D01*
X104625518Y-89724188D01*
X104505820Y-89760498D01*
X104395506Y-89819463D01*
X104298815Y-89898815D01*
X104219463Y-89995506D01*
X104160498Y-90105820D01*
X104124188Y-90225518D01*
X104111928Y-90350000D01*
X103660000Y-90350000D01*
X103660000Y-89797322D01*
X103663676Y-89760000D01*
X103660000Y-89722677D01*
X103660000Y-89722667D01*
X103649003Y-89611014D01*
X103605546Y-89467753D01*
X103588787Y-89436400D01*
X103534974Y-89335723D01*
X103463799Y-89248997D01*
X103440001Y-89219999D01*
X103411003Y-89196201D01*
X99306177Y-85091376D01*
X99312168Y-85076912D01*
X99375000Y-84761033D01*
X99375000Y-84438967D01*
X99312168Y-84123088D01*
X99188918Y-83825537D01*
X99009987Y-83557748D01*
X98782252Y-83330013D01*
X98514463Y-83151082D01*
X98216912Y-83027832D01*
X97901033Y-82965000D01*
X97578967Y-82965000D01*
X97427014Y-82995225D01*
X97541160Y-82881079D01*
X101665000Y-82881079D01*
X101665000Y-83478921D01*
X101781633Y-84065277D01*
X102010418Y-84617612D01*
X102342562Y-85114700D01*
X102765300Y-85537438D01*
X103262388Y-85869582D01*
X103814723Y-86098367D01*
X104401079Y-86215000D01*
X104998921Y-86215000D01*
X105585277Y-86098367D01*
X106137612Y-85869582D01*
X106634700Y-85537438D01*
X107057438Y-85114700D01*
X107389582Y-84617612D01*
X107618367Y-84065277D01*
X107735000Y-83478921D01*
X107735000Y-82881079D01*
X107618367Y-82294723D01*
X107389582Y-81742388D01*
X107057438Y-81245300D01*
X106634700Y-80822562D01*
X106137612Y-80490418D01*
X105585277Y-80261633D01*
X104998921Y-80145000D01*
X104401079Y-80145000D01*
X103814723Y-80261633D01*
X103262388Y-80490418D01*
X102765300Y-80822562D01*
X102342562Y-81245300D01*
X102010418Y-81742388D01*
X101781633Y-82294723D01*
X101665000Y-82881079D01*
X97541160Y-82881079D01*
X97619987Y-82802252D01*
X97798918Y-82534463D01*
X97922168Y-82236912D01*
X97985000Y-81921033D01*
X97985000Y-81598967D01*
X97922168Y-81283088D01*
X97798918Y-80985537D01*
X97619987Y-80717748D01*
X97392252Y-80490013D01*
X97124463Y-80311082D01*
X96826912Y-80187832D01*
X96511033Y-80125000D01*
X96188967Y-80125000D01*
X95873088Y-80187832D01*
X95575537Y-80311082D01*
X95307748Y-80490013D01*
X95080013Y-80717748D01*
X94965000Y-80889877D01*
X94849987Y-80717748D01*
X94622252Y-80490013D01*
X94354463Y-80311082D01*
X94056912Y-80187832D01*
X93741033Y-80125000D01*
X93418967Y-80125000D01*
X93103088Y-80187832D01*
X92805537Y-80311082D01*
X92537748Y-80490013D01*
X92310013Y-80717748D01*
X92194413Y-80890756D01*
X91955413Y-80804192D01*
X90999605Y-81760000D01*
X91955413Y-82715808D01*
X92194413Y-82629244D01*
X92310013Y-82802252D01*
X92500503Y-82992742D01*
X92361033Y-82965000D01*
X92038967Y-82965000D01*
X91728216Y-83026812D01*
X91775808Y-82895413D01*
X90820000Y-81939605D01*
X89864192Y-82895413D01*
X89913078Y-83030386D01*
X89906912Y-83027832D01*
X89591033Y-82965000D01*
X89268967Y-82965000D01*
X88958216Y-83026812D01*
X89005808Y-82895413D01*
X88050000Y-81939605D01*
X87094192Y-82895413D01*
X87145483Y-83037024D01*
X86918892Y-82977616D01*
X86597405Y-82958282D01*
X86278325Y-83002039D01*
X85973912Y-83107205D01*
X85799956Y-83200186D01*
X85704192Y-83464587D01*
X86660000Y-84420395D01*
X87615808Y-83464587D01*
X87564517Y-83322976D01*
X87791108Y-83382384D01*
X88112595Y-83401718D01*
X88348377Y-83369384D01*
X88160013Y-83557748D01*
X88042464Y-83733672D01*
X87795413Y-83644192D01*
X86839605Y-84600000D01*
X87795413Y-85555808D01*
X88042464Y-85466328D01*
X88160013Y-85642252D01*
X88387748Y-85869987D01*
X88655537Y-86048918D01*
X88953088Y-86172168D01*
X89268967Y-86235000D01*
X89591033Y-86235000D01*
X89906912Y-86172168D01*
X90204463Y-86048918D01*
X90472252Y-85869987D01*
X90699987Y-85642252D01*
X90815000Y-85470123D01*
X90930013Y-85642252D01*
X91157748Y-85869987D01*
X91425537Y-86048918D01*
X91723088Y-86172168D01*
X92038967Y-86235000D01*
X92361033Y-86235000D01*
X92676912Y-86172168D01*
X92974463Y-86048918D01*
X93242252Y-85869987D01*
X93469987Y-85642252D01*
X93585000Y-85470123D01*
X93700013Y-85642252D01*
X93927748Y-85869987D01*
X94195537Y-86048918D01*
X94493088Y-86172168D01*
X94808967Y-86235000D01*
X95131033Y-86235000D01*
X95446912Y-86172168D01*
X95590000Y-86112899D01*
X95590000Y-87212677D01*
X95586324Y-87250000D01*
X95590000Y-87287322D01*
X95590000Y-87287332D01*
X95600997Y-87398985D01*
X95631639Y-87499999D01*
X95644454Y-87542246D01*
X95712711Y-87669945D01*
X95610319Y-87585914D01*
X95482632Y-87517664D01*
X95344084Y-87475636D01*
X95200000Y-87461445D01*
X95163885Y-87465002D01*
X76935000Y-87465000D01*
X76935000Y-84435537D01*
X77010418Y-84617612D01*
X77342562Y-85114700D01*
X77765300Y-85537438D01*
X78262388Y-85869582D01*
X78814723Y-86098367D01*
X79401079Y-86215000D01*
X79998921Y-86215000D01*
X80585277Y-86098367D01*
X81137612Y-85869582D01*
X81338409Y-85735413D01*
X85704192Y-85735413D01*
X85799956Y-85999814D01*
X86089571Y-86140704D01*
X86401108Y-86222384D01*
X86722595Y-86241718D01*
X87041675Y-86197961D01*
X87346088Y-86092795D01*
X87520044Y-85999814D01*
X87615808Y-85735413D01*
X86660000Y-84779605D01*
X85704192Y-85735413D01*
X81338409Y-85735413D01*
X81634700Y-85537438D01*
X82057438Y-85114700D01*
X82359525Y-84662595D01*
X85018282Y-84662595D01*
X85062039Y-84981675D01*
X85167205Y-85286088D01*
X85260186Y-85460044D01*
X85524587Y-85555808D01*
X86480395Y-84600000D01*
X85524587Y-83644192D01*
X85260186Y-83739956D01*
X85119296Y-84029571D01*
X85037616Y-84341108D01*
X85018282Y-84662595D01*
X82359525Y-84662595D01*
X82389582Y-84617612D01*
X82618367Y-84065277D01*
X82735000Y-83478921D01*
X82735000Y-82881079D01*
X82618367Y-82294723D01*
X82422805Y-81822595D01*
X86408282Y-81822595D01*
X86452039Y-82141675D01*
X86557205Y-82446088D01*
X86650186Y-82620044D01*
X86914587Y-82715808D01*
X87870395Y-81760000D01*
X88229605Y-81760000D01*
X89185413Y-82715808D01*
X89435000Y-82625410D01*
X89684587Y-82715808D01*
X90640395Y-81760000D01*
X89684587Y-80804192D01*
X89435000Y-80894590D01*
X89185413Y-80804192D01*
X88229605Y-81760000D01*
X87870395Y-81760000D01*
X86914587Y-80804192D01*
X86650186Y-80899956D01*
X86509296Y-81189571D01*
X86427616Y-81501108D01*
X86408282Y-81822595D01*
X82422805Y-81822595D01*
X82389582Y-81742388D01*
X82057438Y-81245300D01*
X81634700Y-80822562D01*
X81338410Y-80624587D01*
X87094192Y-80624587D01*
X88050000Y-81580395D01*
X89005808Y-80624587D01*
X89864192Y-80624587D01*
X90820000Y-81580395D01*
X91775808Y-80624587D01*
X91680044Y-80360186D01*
X91390429Y-80219296D01*
X91078892Y-80137616D01*
X90757405Y-80118282D01*
X90438325Y-80162039D01*
X90133912Y-80267205D01*
X89959956Y-80360186D01*
X89864192Y-80624587D01*
X89005808Y-80624587D01*
X88910044Y-80360186D01*
X88620429Y-80219296D01*
X88308892Y-80137616D01*
X87987405Y-80118282D01*
X87668325Y-80162039D01*
X87363912Y-80267205D01*
X87189956Y-80360186D01*
X87094192Y-80624587D01*
X81338410Y-80624587D01*
X81137612Y-80490418D01*
X80585277Y-80261633D01*
X79998921Y-80145000D01*
X79401079Y-80145000D01*
X78814723Y-80261633D01*
X78262388Y-80490418D01*
X77765300Y-80822562D01*
X77342562Y-81245300D01*
X77010418Y-81742388D01*
X76935000Y-81924463D01*
X76935000Y-76934999D01*
X147465001Y-76935001D01*
M02*
