M48
; DRILL file {KiCad 5.1.4-e60b266~84~ubuntu18.04.1} date Sun 15 Sep 2019 02:53:58 PM CEST
; FORMAT={-:-/ absolute / metric / decimal}
; #@! TF.CreationDate,2019-09-15T14:53:58+02:00
; #@! TF.GenerationSoftware,Kicad,Pcbnew,5.1.4-e60b266~84~ubuntu18.04.1
; #@! TF.FileFunction,Plated,1,2,PTH
FMAT,2
METRIC
T1C0.700
T2C0.800
T3C0.900
T4C1.000
T5C1.100
T6C1.300
T7C1.400
T8C3.200
%
G90
G05
T1
X110.095Y-83.0
X111.375Y-83.0
X112.635Y-83.0
X113.905Y-83.0
T2
X99.0Y-115.0
X109.16Y-115.0
X118.0Y-128.84
X118.0Y-139.0
X99.0Y-118.5
X109.16Y-118.5
X112.2Y-108.84
X112.2Y-119.0
X122.73Y-129.84
X122.73Y-137.36
X125.27Y-129.84
X125.27Y-137.36
X98.79Y-97.35
X98.79Y-110.65
X101.33Y-97.35
X101.33Y-110.65
X103.87Y-97.35
X103.87Y-110.65
X106.41Y-97.35
X106.41Y-110.65
T3
X145.0Y-123.0
X145.0Y-133.16
T4
X136.0Y-144.0
X140.0Y-144.0
X104.84Y-143.2
X107.38Y-143.2
X109.92Y-143.2
X112.46Y-143.2
X115.0Y-143.2
X146.0Y-139.0
X113.6Y-122.96
X113.6Y-125.5
X113.6Y-128.04
X113.6Y-130.58
X113.6Y-133.12
X113.6Y-135.66
X113.6Y-138.2
X105.6Y-91.2
X108.14Y-91.2
X110.68Y-91.2
X113.22Y-91.2
X117.735Y-81.943
X117.735Y-84.483
X117.735Y-87.023
X117.735Y-89.563
X117.735Y-92.103
X117.735Y-94.643
X117.735Y-97.183
X117.735Y-99.723
X117.735Y-102.263
X117.735Y-104.803
X117.735Y-107.343
X117.735Y-109.883
X117.735Y-112.423
X117.735Y-114.963
X117.735Y-117.503
X117.735Y-120.043
X138.055Y-92.103
X138.055Y-94.643
X138.055Y-97.183
X138.055Y-99.723
X138.055Y-102.263
X138.055Y-104.803
X138.055Y-107.343
X138.055Y-109.883
X138.055Y-112.423
X138.055Y-114.963
X138.055Y-117.503
X138.055Y-120.043
X146.0Y-117.0
T5
X86.66Y-84.6
X88.05Y-81.76
X89.43Y-84.6
X90.82Y-81.76
X92.2Y-84.6
X93.58Y-81.76
X94.97Y-84.6
X96.35Y-81.76
X97.74Y-84.6
T6
X142.1Y-88.11
X142.1Y-91.3
X142.1Y-94.5
X145.1Y-88.1
X145.1Y-91.3
X145.1Y-94.5
X131.7Y-133.2
X136.7Y-133.2
T7
X140.6Y-85.6
X146.6Y-97.0
T8
X79.7Y-83.18
X104.7Y-83.18
T0
M30
