G04 #@! TF.GenerationSoftware,KiCad,Pcbnew,5.1.4-e60b266~84~ubuntu18.04.1*
G04 #@! TF.CreationDate,2019-09-15T14:53:54+02:00*
G04 #@! TF.ProjectId,WaveGlideNG,57617665-476c-4696-9465-4e472e6b6963,rev?*
G04 #@! TF.SameCoordinates,Original*
G04 #@! TF.FileFunction,Copper,L1,Top*
G04 #@! TF.FilePolarity,Positive*
%FSLAX46Y46*%
G04 Gerber Fmt 4.6, Leading zero omitted, Abs format (unit mm)*
G04 Created by KiCad (PCBNEW 5.1.4-e60b266~84~ubuntu18.04.1) date 2019-09-15 14:53:54*
%MOMM*%
%LPD*%
G04 APERTURE LIST*
%ADD10R,1.700000X1.700000*%
%ADD11O,1.700000X1.700000*%
%ADD12C,2.200000*%
%ADD13C,2.400000*%
%ADD14C,2.000000*%
%ADD15C,4.800000*%
%ADD16O,1.000000X2.000000*%
%ADD17O,1.800000X1.800000*%
%ADD18R,1.800000X1.800000*%
%ADD19O,1.600000X1.600000*%
%ADD20C,1.600000*%
%ADD21O,1.200000X2.000000*%
%ADD22O,4.000000X2.000000*%
%ADD23O,1.600000X3.000000*%
%ADD24O,2.000000X4.000000*%
%ADD25C,0.250000*%
%ADD26C,0.700000*%
%ADD27C,0.500000*%
G04 APERTURE END LIST*
D10*
X117735000Y-120043400D03*
D11*
X117735000Y-117503400D03*
X117735000Y-114963400D03*
X117735000Y-112423400D03*
X117735000Y-109883400D03*
X117735000Y-107343400D03*
X117735000Y-104803400D03*
X117735000Y-102263400D03*
X117735000Y-99723400D03*
X117735000Y-97183400D03*
X117735000Y-94643400D03*
X117735000Y-92103400D03*
X117735000Y-89563400D03*
X117735000Y-87023400D03*
X117735000Y-84483400D03*
X117735000Y-81943400D03*
D10*
X138055000Y-120043400D03*
D11*
X138055000Y-117503400D03*
X138055000Y-114963400D03*
X138055000Y-112423400D03*
X138055000Y-109883400D03*
X138055000Y-107343400D03*
X138055000Y-104803400D03*
X138055000Y-102263400D03*
X138055000Y-99723400D03*
X138055000Y-97183400D03*
X138055000Y-94643400D03*
X138055000Y-92103400D03*
D10*
X113600000Y-138200000D03*
D11*
X113600000Y-135660000D03*
X113600000Y-133120000D03*
X113600000Y-130580000D03*
X113600000Y-128040000D03*
X113600000Y-125500000D03*
X113600000Y-122960000D03*
X113220000Y-91200000D03*
X110680000Y-91200000D03*
X108140000Y-91200000D03*
D10*
X105600000Y-91200000D03*
D11*
X104840000Y-143200000D03*
X107380000Y-143200000D03*
X109920000Y-143200000D03*
X112460000Y-143200000D03*
D10*
X115000000Y-143200000D03*
D12*
X142100000Y-94500000D03*
X142100000Y-91300000D03*
X142100000Y-88110000D03*
X145100000Y-94500000D03*
X145100000Y-91300000D03*
X145100000Y-88100000D03*
D13*
X140600000Y-85600000D03*
X146600000Y-97000000D03*
X131700000Y-133200000D03*
X136700000Y-133200000D03*
D14*
X86660000Y-84600000D03*
X89430000Y-84600000D03*
X92200000Y-84600000D03*
X94970000Y-84600000D03*
X97740000Y-84600000D03*
X88050000Y-81760000D03*
X90820000Y-81760000D03*
X93580000Y-81760000D03*
X96350000Y-81760000D03*
D15*
X79700000Y-83180000D03*
X104700000Y-83180000D03*
D16*
X110095000Y-83000000D03*
X111375000Y-83000000D03*
X112635000Y-83000000D03*
X113905000Y-83000000D03*
D17*
X145000000Y-133160000D03*
D18*
X145000000Y-123000000D03*
D19*
X109160000Y-115000000D03*
D20*
X99000000Y-115000000D03*
X99000000Y-118500000D03*
D19*
X109160000Y-118500000D03*
X112200000Y-108840000D03*
D20*
X112200000Y-119000000D03*
D19*
X118000000Y-128840000D03*
D20*
X118000000Y-139000000D03*
D21*
X122730000Y-129840000D03*
X122730000Y-137360000D03*
X125270000Y-129840000D03*
X125270000Y-137360000D03*
D22*
X146000000Y-117000000D03*
X146000000Y-139000000D03*
D23*
X106410000Y-110650000D03*
X106410000Y-97350000D03*
X103870000Y-110650000D03*
X103870000Y-97350000D03*
X101330000Y-110650000D03*
X101330000Y-97350000D03*
X98790000Y-110650000D03*
X98790000Y-97350000D03*
D24*
X136000000Y-144000000D03*
X140000000Y-144000000D03*
D25*
X103552906Y-94347094D02*
X100760028Y-94347094D01*
X105600000Y-92300000D02*
X103552906Y-94347094D01*
X98303295Y-95474990D02*
X97614990Y-96163295D01*
X100760028Y-94347094D02*
X99632131Y-95474989D01*
X97614990Y-96163295D02*
X97614990Y-98536705D01*
X116885001Y-116653401D02*
X117735000Y-117503400D01*
X115731686Y-116653401D02*
X116885001Y-116653401D01*
X105600000Y-91200000D02*
X105600000Y-92300000D01*
X97614990Y-98536705D02*
X115731686Y-116653401D01*
X99632131Y-95474989D02*
X98303295Y-95474990D01*
X116532919Y-114963400D02*
X117735000Y-114963400D01*
X101471183Y-94847102D02*
X100154990Y-96163295D01*
X100154990Y-96163295D02*
X100154990Y-98585471D01*
X104492898Y-94847102D02*
X101471183Y-94847102D01*
X100154990Y-98585471D02*
X116532919Y-114963400D01*
X108140000Y-91200000D02*
X104492898Y-94847102D01*
X113600000Y-128040000D02*
X119460010Y-122179990D01*
X118937081Y-112423400D02*
X117735000Y-112423400D01*
X119460010Y-122179990D02*
X119460010Y-112946329D01*
X119460010Y-112946329D02*
X118937081Y-112423400D01*
X116509999Y-113011401D02*
X116509999Y-111108401D01*
X114802081Y-125500000D02*
X118960001Y-121342080D01*
X113600000Y-125500000D02*
X114802081Y-125500000D01*
X118960001Y-121342080D02*
X118960001Y-114160001D01*
X116885001Y-110733399D02*
X117735000Y-109883400D01*
X118960001Y-114160001D02*
X118448401Y-113648401D01*
X118448401Y-113648401D02*
X117146999Y-113648401D01*
X117146999Y-113648401D02*
X116509999Y-113011401D01*
X116509999Y-111108401D02*
X116885001Y-110733399D01*
X119960021Y-109568421D02*
X118584999Y-108193399D01*
X113600000Y-130580000D02*
X114449999Y-129730001D01*
X114449999Y-129003003D02*
X119960021Y-123492981D01*
X114449999Y-129730001D02*
X114449999Y-129003003D01*
X119960021Y-123492981D02*
X119960021Y-109568421D01*
X118584999Y-108193399D02*
X117735000Y-107343400D01*
X112370001Y-92049999D02*
X113220000Y-91200000D01*
X108094999Y-92425001D02*
X111994999Y-92425001D01*
X103870000Y-96650000D02*
X108094999Y-92425001D01*
X111994999Y-92425001D02*
X112370001Y-92049999D01*
X103870000Y-97350000D02*
X103870000Y-96650000D01*
X116885001Y-85333399D02*
X117735000Y-84483400D01*
X114069999Y-88148401D02*
X116885001Y-85333399D01*
X114069999Y-90350001D02*
X114069999Y-88148401D01*
X113220000Y-91200000D02*
X114069999Y-90350001D01*
X111375000Y-83500000D02*
X111375000Y-83000000D01*
X112358400Y-84483400D02*
X111375000Y-83500000D01*
X117735000Y-84483400D02*
X112358400Y-84483400D01*
X113600000Y-138200000D02*
X114700000Y-138200000D01*
X121200000Y-131700000D02*
X121200000Y-103915398D01*
X121200000Y-103915398D02*
X118233003Y-100948401D01*
X114700000Y-138200000D02*
X121200000Y-131700000D01*
X118233003Y-100948401D02*
X106768401Y-100948401D01*
X103870000Y-98050000D02*
X103870000Y-97350000D01*
X106768401Y-100948401D02*
X103870000Y-98050000D01*
X122840000Y-129840000D02*
X122730000Y-129840000D01*
D26*
X136000000Y-143000000D02*
X122840000Y-129840000D01*
D25*
X136000000Y-144000000D02*
X136000000Y-143000000D01*
D27*
X122730000Y-128340000D02*
X122730000Y-129840000D01*
X123925010Y-106233390D02*
X123925010Y-127144990D01*
X138055000Y-92103400D02*
X123925010Y-106233390D01*
X123925010Y-127144990D02*
X122730000Y-128340000D01*
D25*
X118584999Y-105653399D02*
X117735000Y-104803400D01*
X120460032Y-123700091D02*
X120460032Y-107528432D01*
X113011999Y-131805001D02*
X114188001Y-131805001D01*
X113600000Y-122960000D02*
X112374999Y-124185001D01*
X112374999Y-124185001D02*
X112374999Y-131168001D01*
X112374999Y-131168001D02*
X113011999Y-131805001D01*
X115300000Y-128860124D02*
X120460032Y-123700091D01*
X115300000Y-130693002D02*
X115300000Y-128860124D01*
X114188001Y-131805001D02*
X115300000Y-130693002D01*
X120460032Y-107528432D02*
X118584999Y-105653399D01*
X116532919Y-102263400D02*
X117735000Y-102263400D01*
X105543400Y-102263400D02*
X116532919Y-102263400D01*
X101330000Y-98050000D02*
X105543400Y-102263400D01*
X101330000Y-97350000D02*
X101330000Y-98050000D01*
X118216709Y-79904985D02*
X95435015Y-79904985D01*
X94579999Y-80760001D02*
X93580000Y-81760000D01*
X119460012Y-95458388D02*
X119460012Y-81148288D01*
X95435015Y-79904985D02*
X94579999Y-80760001D01*
X119460012Y-81148288D02*
X118216709Y-79904985D01*
X117735000Y-97183400D02*
X119460012Y-95458388D01*
X118584999Y-93793401D02*
X117735000Y-94643400D01*
X118960001Y-93418399D02*
X118584999Y-93793401D01*
X118960001Y-81355399D02*
X118960001Y-93418399D01*
X118009601Y-80404999D02*
X118960001Y-81355399D01*
X103367999Y-80404999D02*
X118009601Y-80404999D01*
X94970000Y-84600000D02*
X96345001Y-83224999D01*
X100547999Y-83224999D02*
X103367999Y-80404999D01*
X96345001Y-83224999D02*
X100547999Y-83224999D01*
D26*
X146000000Y-122000000D02*
X145000000Y-123000000D01*
X146000000Y-117000000D02*
X146000000Y-122000000D01*
X145000000Y-124150000D02*
X145000000Y-123000000D01*
X139310000Y-129840000D02*
X145000000Y-124150000D01*
X125270000Y-129840000D02*
X139310000Y-129840000D01*
D25*
X122730000Y-137760000D02*
X122730000Y-137360000D01*
X121490000Y-139000000D02*
X122730000Y-137760000D01*
X118000000Y-139000000D02*
X121490000Y-139000000D01*
X112460000Y-143200000D02*
X96614969Y-127354969D01*
X96614969Y-87414969D02*
X95700000Y-86500000D01*
X96614969Y-127354969D02*
X96614969Y-87414969D01*
X91330000Y-86500000D02*
X89430000Y-84600000D01*
X95700000Y-86500000D02*
X91330000Y-86500000D01*
X115000000Y-142100000D02*
X115000000Y-143200000D01*
X97114980Y-95956185D02*
X97114980Y-127147858D01*
X93599990Y-85999990D02*
X98999990Y-85999990D01*
X92200000Y-84600000D02*
X93599990Y-85999990D01*
X98999990Y-85999990D02*
X102800000Y-89800000D01*
X108832123Y-138865001D02*
X111765001Y-138865001D01*
X111765001Y-138865001D02*
X115000000Y-142100000D01*
X99425019Y-94974981D02*
X98096183Y-94974982D01*
X102800000Y-91600000D02*
X99425019Y-94974981D01*
X97114980Y-127147858D02*
X108832123Y-138865001D01*
X98096183Y-94974982D02*
X97114980Y-95956185D01*
X102800000Y-89800000D02*
X102800000Y-91600000D01*
X141956600Y-94643400D02*
X142100000Y-94500000D01*
X138055000Y-94643400D02*
X141956600Y-94643400D01*
M02*
